<?xml version="1.0" encoding="UTF-8"?>
<!DOCTYPE svg PUBLIC "-//W3C//DTD SVG 1.1//EN" "http://www.w3.org/Graphics/SVG/1.1/DTD/svg11.dtd">
<!-- Creator: CorelDRAW X8 -->
<svg xmlns="http://www.w3.org/2000/svg" xml:space="preserve" width="2480px" height="3508px" version="1.1" style="shape-rendering:geometricPrecision; text-rendering:geometricPrecision; image-rendering:optimizeQuality; fill-rule:evenodd; clip-rule:evenodd"
viewBox="0 0 2480 3507"
 xmlns:xlink="http://www.w3.org/1999/xlink">
 <defs>
  <style type="text/css">
   <![CDATA[
    .fil1 {fill:none}
    .fil0 {fill:black}
    .fil2 {fill:black;fill-rule:nonzero}
   ]]>
  </style>
 </defs>
 <g id="Layer_x0020_1">
  <metadata id="CorelCorpID_0Corel-Layer"/>
  <g id="_3163944877216">
   <path class="fil0" d="M1401 -1209c-237,458 -622,705 -948,1103l-22 -15c323,-395 712,-649 946,-1099l24 11z"/>
  </g>
  <path class="fil1" d="M1389 -1215c-210,446 -686,746 -947,1102"/>
  <polygon class="fil2" points="990,-610 1016,-610 1072,-518 1129,-610 1154,-610 1084,-493 1083,-387 1061,-387 1062,-494 "/>
  <polygon id="1" class="fil2" points="1218,-610 1241,-610 1240,-409 1326,-409 1326,-387 1218,-387 "/>
  <path id="2" class="fil2" d="M1408 -420c6,0 10,1 14,5 3,4 5,8 5,13 0,5 -2,10 -5,14 -4,3 -8,5 -14,5 -5,0 -9,-2 -13,-6 -3,-3 -5,-8 -5,-13 0,-5 2,-9 5,-13 4,-4 8,-5 13,-5z"/>
  <path id="3" class="fil2" d="M1498 -552l22 0 -1 29c8,-11 15,-18 23,-23 11,-7 22,-10 34,-10 8,0 16,2 23,5 7,3 13,7 17,12 5,6 9,13 12,23 7,-13 16,-23 26,-30 11,-6 22,-10 35,-10 11,0 21,3 30,9 9,6 15,14 19,24 4,10 7,26 7,46l-1 90 -21 0 0 -90c0,-17 -1,-29 -4,-36 -2,-7 -7,-12 -13,-16 -6,-4 -13,-6 -22,-6 -10,0 -19,3 -28,9 -8,6 -15,14 -19,24 -4,10 -6,27 -6,51l0 64 -21 0 0 -84c1,-20 -1,-34 -3,-41 -3,-7 -7,-13 -13,-17 -6,-4 -14,-6 -22,-6 -10,0 -19,3 -27,8 -9,6 -15,14 -19,24 -5,10 -7,25 -7,46l0 70 -21 0 0 -165z"/>
  <path id="4" class="fil2" d="M1955 -442l18 10c-6,11 -13,21 -20,28 -8,7 -17,12 -26,16 -10,3 -21,5 -33,5 -27,0 -48,-9 -63,-26 -15,-18 -22,-38 -22,-60 0,-21 6,-40 19,-56 16,-21 38,-31 65,-31 28,0 51,11 67,32 12,15 18,34 19,56l-148 0c0,19 6,35 18,47 12,13 26,19 43,19 9,0 17,-2 25,-5 8,-2 15,-6 20,-11 6,-5 12,-13 18,-24zm0 -44c-3,-11 -7,-20 -12,-27 -5,-7 -13,-12 -21,-16 -9,-5 -19,-7 -28,-7 -17,0 -30,5 -42,16 -9,7 -15,19 -19,34l122 0z"/>
  <path id="5" class="fil2" d="M2210 -615l0 228 -21 0 0 -28c-9,11 -19,19 -30,24 -11,6 -23,8 -36,8 -24,0 -44,-8 -60,-25 -17,-17 -25,-38 -25,-62 0,-24 9,-44 25,-61 17,-17 37,-25 61,-25 13,0 25,3 36,9 11,6 21,14 29,26l0 -94 21 0zm-85 79c-12,0 -23,3 -33,9 -10,6 -18,14 -23,25 -6,10 -9,21 -9,33 0,11 3,23 9,33 5,11 13,19 23,25 11,6 21,9 33,9 11,0 22,-3 33,-9 10,-6 18,-14 24,-24 5,-10 8,-21 8,-33 0,-19 -6,-35 -19,-48 -12,-13 -27,-19 -46,-20z"/>
  <path id="6" class="fil2" d="M2293 -620c5,0 9,2 12,6 4,3 5,7 5,12 0,5 -1,9 -5,12 -3,4 -7,5 -12,5 -5,0 -9,-1 -12,-5 -4,-3 -6,-7 -6,-12 0,-5 2,-9 6,-12 3,-4 7,-6 12,-6zm-11 68l21 0 0 165 -21 0 0 -165z"/>
  <path id="7" class="fil2" d="M2539 -552l0 165 -21 0 0 -28c-9,11 -19,19 -30,24 -11,6 -23,8 -36,8 -24,0 -44,-8 -60,-25 -17,-17 -25,-38 -25,-62 0,-24 9,-44 25,-61 17,-17 37,-25 60,-25 14,0 26,3 37,9 11,6 21,14 29,26l0 -31 21 0zm-85 16c-12,0 -23,3 -33,9 -10,6 -18,14 -24,25 -5,10 -8,21 -8,33 0,11 2,23 8,33 6,11 14,19 24,25 10,6 21,9 33,9 11,0 22,-3 33,-9 10,-6 18,-14 24,-24 5,-10 8,-21 8,-33 0,-19 -6,-35 -19,-48 -12,-13 -28,-19 -46,-20z"/>
  <path class="fil2" d="M1331 -796l12 0 0 49c7,-10 18,-15 32,-15 13,0 24,4 33,13 9,9 14,21 14,35 0,14 -5,26 -14,35 -9,9 -20,13 -33,13 -14,0 -25,-5 -32,-16l-1 47 -11 0 0 -47c-7,11 -18,16 -33,16 -13,0 -23,-4 -33,-13 -9,-9 -13,-21 -13,-35 0,-14 4,-26 13,-35 9,-9 21,-14 34,-14 14,1 25,6 32,16l0 -49zm11 84c0,11 3,19 10,26 6,6 13,9 21,9 11,0 20,-4 27,-11 6,-7 10,-16 10,-26 0,-11 -4,-20 -11,-27 -7,-7 -15,-11 -25,-11 -9,0 -16,3 -22,10 -7,6 -10,16 -10,30zm-78 -3c0,11 3,20 10,27 6,7 15,11 26,11 4,0 8,-1 12,-3 5,-2 8,-4 11,-7 3,-3 5,-7 6,-11 2,-4 2,-9 2,-17 0,-12 -3,-21 -9,-27 -6,-7 -14,-10 -23,-10 -9,0 -18,4 -25,11 -7,7 -10,16 -10,26z"/>
  <path id="1" class="fil2" d="M1503 -763c14,0 26,5 35,15 8,10 13,21 13,34 -1,13 -5,24 -14,33 -9,10 -20,15 -34,15 -15,0 -26,-5 -35,-15 -9,-9 -13,-21 -13,-33 0,-13 4,-24 12,-34 10,-10 21,-15 36,-15zm0 12c-10,0 -19,3 -26,10 -7,8 -10,17 -10,27 0,7 1,13 4,18 4,6 8,11 14,14 5,3 11,5 18,5 6,0 12,-2 18,-5 5,-3 9,-8 13,-13 3,-6 4,-12 4,-19 0,-10 -3,-19 -10,-26 -7,-8 -16,-11 -25,-11z"/>
  <polygon id="2" class="fil2" points="1578,-761 1638,-761 1638,-750 1614,-750 1614,-669 1602,-669 1602,-750 1578,-750 "/>
  <path id="3" class="fil2" d="M1713 -763c14,0 26,5 35,15 9,10 13,21 13,34 0,13 -4,24 -13,33 -9,10 -21,15 -35,15 -14,0 -26,-5 -34,-15 -9,-9 -14,-21 -14,-33 0,-13 4,-24 13,-34 9,-10 21,-15 35,-15zm0 12c-10,0 -18,3 -25,10 -7,8 -11,17 -11,27 0,7 2,13 5,18 3,6 8,11 13,14 6,3 12,5 18,5 7,0 13,-2 18,-5 6,-3 10,-8 13,-13 3,-6 5,-12 5,-19 0,-10 -3,-19 -10,-26 -8,-8 -16,-11 -26,-11z"/>
  <polygon id="4" class="fil2" points="1843,-761 1843,-693 1911,-761 1912,-761 1911,-668 1900,-668 1900,-736 1832,-669 1831,-669 1831,-761 "/>
  <path id="5" class="fil2" d="M2013 -669l-27 0 0 -92 26 0c10,0 18,3 22,7 4,5 7,10 7,17 0,9 -5,15 -13,19 12,4 18,12 18,24 0,17 -11,25 -33,25zm-15 -81l0 28 8 0c7,0 11,0 13,0 2,-1 4,-2 6,-5 2,-2 3,-5 3,-8 0,-4 -1,-8 -3,-10 -2,-3 -4,-4 -6,-5 -2,0 -7,0 -13,0l-8 0zm0 39l0 32 12 0c6,0 11,0 13,-1 3,0 5,-2 7,-5 2,-2 3,-5 3,-9 0,-5 -2,-9 -5,-12 -3,-3 -7,-5 -13,-5l-17 0z"/>
  <polygon id="6" class="fil2" points="2094,-761 2094,-693 2162,-761 2163,-761 2163,-668 2151,-668 2151,-736 2084,-669 2082,-669 2082,-761 "/>
  <path id="7" class="fil2" d="M2205 -679l36 -82 6 0 35 82 11 1 0 21 -11 0 0 -11 -76 -1 0 13 -12 0 0 -23 11 0zm39 -63l-27 63 52 0 -25 -63z"/>
  <path id="8" class="fil2" d="M2402 -699l10 5c-3,7 -7,12 -11,16 -4,4 -9,7 -15,9 -5,2 -11,3 -18,3 -15,0 -27,-5 -35,-15 -8,-10 -13,-21 -13,-33 0,-12 4,-22 11,-32 9,-11 21,-17 37,-17 15,0 28,6 37,18 7,8 10,19 10,31l-82 0c0,11 3,20 10,27 6,7 14,10 24,10 5,0 9,-1 14,-2 4,-2 8,-4 11,-7 3,-3 7,-7 10,-13zm0 -25c-1,-6 -4,-11 -7,-15 -3,-4 -7,-7 -12,-9 -5,-2 -10,-4 -15,-4 -9,0 -17,3 -23,9 -5,4 -9,11 -11,19l68 0z"/>
  <path id="9" class="fil2" d="M2496 -763c15,0 26,5 36,15 8,10 12,21 12,34 0,13 -4,24 -13,33 -9,10 -21,15 -35,15 -14,0 -25,-5 -34,-15 -9,-9 -14,-21 -14,-33 0,-13 5,-24 13,-34 9,-10 21,-15 35,-15zm0 12c-9,0 -18,3 -25,11 -7,7 -11,16 -11,26 0,7 2,13 5,19 3,5 8,10 13,13 6,3 12,5 18,5 7,0 13,-2 18,-5 6,-3 10,-8 13,-13 4,-6 5,-12 5,-19 0,-10 -3,-19 -10,-26 -7,-8 -16,-11 -26,-11z"/>
  <g id="_3163944875520">
   <path class="fil0" d="M1401 -1209c-237,458 -622,705 -948,1103l-22 -15c323,-395 712,-649 946,-1099l24 11z"/>
  </g>
  <path class="fil1" d="M1389 -1215c-210,446 -686,746 -947,1102"/>
  <g id="_3163944874560">
   <path class="fil0" d="M432 -122c176,-157 350,-289 603,-265 -268,13 -394,107 -584,283 -5,6 -13,6 -19,1 -5,-5 -5,-14 0,-19z"/>
  </g>
  <path class="fil1" d="M441 -113c300,-313 594,-274 594,-274"/>
  <g id="_3163944874400">
   <path class="fil0" d="M1402 -1212c-175,387 -85,195 -267,579 158,-395 77,-198 243,-590 3,-6 10,-10 17,-7 7,3 10,11 7,18z"/>
  </g>
  <line class="fil1" x1="1390" y1="-1217" x2="1135" y2= "-633" />
  <polygon class="fil2" points="990,-610 1016,-610 1072,-518 1129,-610 1154,-610 1084,-493 1083,-387 1061,-387 1062,-494 "/>
  <polygon id="1" class="fil2" points="1218,-610 1241,-610 1240,-409 1326,-409 1326,-387 1218,-387 "/>
  <path id="2" class="fil2" d="M1408 -420c6,0 10,1 14,5 3,4 5,8 5,13 0,5 -2,10 -5,14 -4,3 -8,5 -14,5 -5,0 -9,-2 -13,-6 -3,-3 -5,-8 -5,-13 0,-5 2,-9 5,-13 4,-4 8,-5 13,-5z"/>
  <path id="3" class="fil2" d="M1498 -552l22 0 -1 29c8,-11 15,-18 23,-23 11,-7 22,-10 34,-10 8,0 16,2 23,5 7,3 13,7 17,12 5,6 9,13 12,23 7,-13 16,-23 26,-30 11,-6 22,-10 35,-10 11,0 21,3 30,9 9,6 15,14 19,24 4,10 7,26 7,46l-1 90 -21 0 0 -90c0,-17 -1,-29 -4,-36 -2,-7 -7,-12 -13,-16 -6,-4 -13,-6 -22,-6 -10,0 -19,3 -28,9 -8,6 -15,14 -19,24 -4,10 -6,27 -6,51l0 64 -21 0 0 -84c1,-20 -1,-34 -3,-41 -3,-7 -7,-13 -13,-17 -6,-4 -14,-6 -22,-6 -10,0 -19,3 -27,8 -9,6 -15,14 -19,24 -5,10 -7,25 -7,46l0 70 -21 0 0 -165z"/>
  <path id="4" class="fil2" d="M1955 -442l18 10c-6,11 -13,21 -20,28 -8,7 -17,12 -26,16 -10,3 -21,5 -33,5 -27,0 -48,-9 -63,-26 -15,-18 -22,-38 -22,-60 0,-21 6,-40 19,-56 16,-21 38,-31 65,-31 28,0 51,11 67,32 12,15 18,34 19,56l-148 0c0,19 6,35 18,47 12,13 26,19 43,19 9,0 17,-2 25,-5 8,-2 15,-6 20,-11 6,-5 12,-13 18,-24zm0 -44c-3,-11 -7,-20 -12,-27 -5,-7 -13,-12 -21,-16 -9,-5 -19,-7 -28,-7 -17,0 -30,5 -42,16 -9,7 -15,19 -19,34l122 0z"/>
  <path id="5" class="fil2" d="M2210 -615l0 228 -21 0 0 -28c-9,11 -19,19 -30,24 -11,6 -23,8 -36,8 -24,0 -44,-8 -60,-25 -17,-17 -25,-38 -25,-62 0,-24 9,-44 25,-61 17,-17 37,-25 61,-25 13,0 25,3 36,9 11,6 21,14 29,26l0 -94 21 0zm-85 79c-12,0 -23,3 -33,9 -10,6 -18,14 -23,25 -6,10 -9,21 -9,33 0,11 3,23 9,33 5,11 13,19 23,25 11,6 21,9 33,9 11,0 22,-3 33,-9 10,-6 18,-14 24,-24 5,-10 8,-21 8,-33 0,-19 -6,-35 -19,-48 -12,-13 -27,-19 -46,-20z"/>
  <path id="6" class="fil2" d="M2293 -620c5,0 9,2 12,6 4,3 5,7 5,12 0,5 -1,9 -5,12 -3,4 -7,5 -12,5 -5,0 -9,-1 -12,-5 -4,-3 -6,-7 -6,-12 0,-5 2,-9 6,-12 3,-4 7,-6 12,-6zm-11 68l21 0 0 165 -21 0 0 -165z"/>
  <path id="7" class="fil2" d="M2539 -552l0 165 -21 0 0 -28c-9,11 -19,19 -30,24 -11,6 -23,8 -36,8 -24,0 -44,-8 -60,-25 -17,-17 -25,-38 -25,-62 0,-24 9,-44 25,-61 17,-17 37,-25 60,-25 14,0 26,3 37,9 11,6 21,14 29,26l0 -31 21 0zm-85 16c-12,0 -23,3 -33,9 -10,6 -18,14 -24,25 -5,10 -8,21 -8,33 0,11 2,23 8,33 6,11 14,19 24,25 10,6 21,9 33,9 11,0 22,-3 33,-9 10,-6 18,-14 24,-24 5,-10 8,-21 8,-33 0,-19 -6,-35 -19,-48 -12,-13 -28,-19 -46,-20z"/>
  <path class="fil2" d="M1331 -796l12 0 0 49c7,-10 18,-15 32,-15 13,0 24,4 33,13 9,9 14,21 14,35 0,14 -5,26 -14,35 -9,9 -20,13 -33,13 -14,0 -25,-5 -32,-16l-1 47 -11 0 0 -47c-7,11 -18,16 -33,16 -13,0 -23,-4 -33,-13 -9,-9 -13,-21 -13,-35 0,-14 4,-26 13,-35 9,-9 21,-14 34,-14 14,1 25,6 32,16l0 -49zm11 84c0,11 3,19 10,26 6,6 13,9 21,9 11,0 20,-4 27,-11 6,-7 10,-16 10,-26 0,-11 -4,-20 -11,-27 -7,-7 -15,-11 -25,-11 -9,0 -16,3 -22,10 -7,6 -10,16 -10,30zm-78 -3c0,11 3,20 10,27 6,7 15,11 26,11 4,0 8,-1 12,-3 5,-2 8,-4 11,-7 3,-3 5,-7 6,-11 2,-4 2,-9 2,-17 0,-12 -3,-21 -9,-27 -6,-7 -14,-10 -23,-10 -9,0 -18,4 -25,11 -7,7 -10,16 -10,26z"/>
  <path id="1" class="fil2" d="M1503 -763c14,0 26,5 35,15 8,10 13,21 13,34 -1,13 -5,24 -14,33 -9,10 -20,15 -34,15 -15,0 -26,-5 -35,-15 -9,-9 -13,-21 -13,-33 0,-13 4,-24 12,-34 10,-10 21,-15 36,-15zm0 12c-10,0 -19,3 -26,10 -7,8 -10,17 -10,27 0,7 1,13 4,18 4,6 8,11 14,14 5,3 11,5 18,5 6,0 12,-2 18,-5 5,-3 9,-8 13,-13 3,-6 4,-12 4,-19 0,-10 -3,-19 -10,-26 -7,-8 -16,-11 -25,-11z"/>
  <polygon id="2" class="fil2" points="1578,-761 1638,-761 1638,-750 1614,-750 1614,-669 1602,-669 1602,-750 1578,-750 "/>
  <path id="3" class="fil2" d="M1713 -763c14,0 26,5 35,15 9,10 13,21 13,34 0,13 -4,24 -13,33 -9,10 -21,15 -35,15 -14,0 -26,-5 -34,-15 -9,-9 -14,-21 -14,-33 0,-13 4,-24 13,-34 9,-10 21,-15 35,-15zm0 12c-10,0 -18,3 -25,10 -7,8 -11,17 -11,27 0,7 2,13 5,18 3,6 8,11 13,14 6,3 12,5 18,5 7,0 13,-2 18,-5 6,-3 10,-8 13,-13 3,-6 5,-12 5,-19 0,-10 -3,-19 -10,-26 -8,-8 -16,-11 -26,-11z"/>
  <polygon id="4" class="fil2" points="1843,-761 1843,-693 1911,-761 1912,-761 1911,-668 1900,-668 1900,-736 1832,-669 1831,-669 1831,-761 "/>
  <path id="5" class="fil2" d="M2013 -669l-27 0 0 -92 26 0c10,0 18,3 22,7 4,5 7,10 7,17 0,9 -5,15 -13,19 12,4 18,12 18,24 0,17 -11,25 -33,25zm-15 -81l0 28 8 0c7,0 11,0 13,0 2,-1 4,-2 6,-5 2,-2 3,-5 3,-8 0,-4 -1,-8 -3,-10 -2,-3 -4,-4 -6,-5 -2,0 -7,0 -13,0l-8 0zm0 39l0 32 12 0c6,0 11,0 13,-1 3,0 5,-2 7,-5 2,-2 3,-5 3,-9 0,-5 -2,-9 -5,-12 -3,-3 -7,-5 -13,-5l-17 0z"/>
  <polygon id="6" class="fil2" points="2094,-761 2094,-693 2162,-761 2163,-761 2163,-668 2151,-668 2151,-736 2084,-669 2082,-669 2082,-761 "/>
  <path id="7" class="fil2" d="M2205 -679l36 -82 6 0 35 82 11 1 0 21 -11 0 0 -11 -76 -1 0 13 -12 0 0 -23 11 0zm39 -63l-27 63 52 0 -25 -63z"/>
  <path id="8" class="fil2" d="M2402 -699l10 5c-3,7 -7,12 -11,16 -4,4 -9,7 -15,9 -5,2 -11,3 -18,3 -15,0 -27,-5 -35,-15 -8,-10 -13,-21 -13,-33 0,-12 4,-22 11,-32 9,-11 21,-17 37,-17 15,0 28,6 37,18 7,8 10,19 10,31l-82 0c0,11 3,20 10,27 6,7 14,10 24,10 5,0 9,-1 14,-2 4,-2 8,-4 11,-7 3,-3 7,-7 10,-13zm0 -25c-1,-6 -4,-11 -7,-15 -3,-4 -7,-7 -12,-9 -5,-2 -10,-4 -15,-4 -9,0 -17,3 -23,9 -5,4 -9,11 -11,19l68 0z"/>
  <path id="9" class="fil2" d="M2496 -763c15,0 26,5 36,15 8,10 12,21 12,34 0,13 -4,24 -13,33 -9,10 -21,15 -35,15 -14,0 -25,-5 -34,-15 -9,-9 -14,-21 -14,-33 0,-13 5,-24 13,-34 9,-10 21,-15 35,-15zm0 12c-9,0 -18,3 -25,11 -7,7 -11,16 -11,26 0,7 2,13 5,19 3,5 8,10 13,13 6,3 12,5 18,5 7,0 13,-2 18,-5 6,-3 10,-8 13,-13 4,-6 5,-12 5,-19 0,-10 -3,-19 -10,-26 -7,-8 -16,-11 -26,-11z"/>
 </g>
</svg>
