<svg xmlns="http://www.w3.org/2000/svg" xmlns:xlink="http://www.w3.org/1999/xlink" viewBox="0 0 367 150">
  <defs>
    <style>
      .cls-1 {
        clip-path: url(#clip-ic_markets);
      }

      .cls-2 {
        fill: #606060;
      }

      .cls-3 {
        fill: #84c225;
      }

      .cls-4 {
        fill: url(#linear-gradient);
      }

      .cls-5 {
        fill: url(#linear-gradient-2);
      }

      .cls-6 {
        fill: url(#linear-gradient-3);
      }

      .cls-7 {
        fill: url(#linear-gradient-4);
      }

      .cls-8 {
        fill: url(#linear-gradient-5);
      }

      .cls-9 {
        fill: url(#linear-gradient-6);
      }

      .cls-10 {
        fill: url(#linear-gradient-7);
      }

      .cls-11 {
        fill: #fff;
      }
    </style>
    <linearGradient id="linear-gradient" x1="0.384" y1="-2.927" x2="0.532" y2="1.463" gradientUnits="objectBoundingBox">
      <stop offset="0" stop-color="#fff" stop-opacity="0.502"/>
      <stop offset="1" stop-color="#fff" stop-opacity="0"/>
    </linearGradient>
    <linearGradient id="linear-gradient-2" x1="0.402" y1="-2.109" x2="0.551" y2="1.839" xlink:href="#linear-gradient"/>
    <linearGradient id="linear-gradient-3" x1="0.42" y1="-0.913" x2="0.569" y2="1.709" xlink:href="#linear-gradient"/>
    <linearGradient id="linear-gradient-4" x1="0.49" y1="-2.725" x2="0.5" y2="0.696" xlink:href="#linear-gradient"/>
    <linearGradient id="linear-gradient-5" x1="0.493" y1="-0.017" x2="0.516" y2="1.381" xlink:href="#linear-gradient"/>
    <linearGradient id="linear-gradient-6" x1="0.434" y1="-0.043" x2="0.579" y2="1.453" xlink:href="#linear-gradient"/>
    <linearGradient id="linear-gradient-7" x1="0.5" x2="0.5" y2="1" gradientUnits="objectBoundingBox">
      <stop offset="0" stop-color="#787878"/>
      <stop offset="1" stop-color="#353535"/>
    </linearGradient>
    <clipPath id="clip-ic_markets">
      <rect width="367" height="150"/>
    </clipPath>
  </defs>
  <g id="ic_markets" class="cls-1">
    <rect class="cls-11" width="367" height="150"/>
    <g id="icmarkets" transform="translate(-344.35 -441.9)">
      <path id="Path_163" data-name="Path 163" class="cls-2" d="M382.4,888.046V874.367h-9.119v19.1A78.7,78.7,0,0,1,382.4,888.046Zm13.932-5.5V865.639h-9.119V885.8A80.407,80.407,0,0,1,396.336,882.548Zm12.945-2.665V853.5h-9.119v28.038A84.535,84.535,0,0,1,409.281,879.883ZM446,899.9a14.034,14.034,0,0,0,9.33-1.227l12.374-6.99C392.023,861.591,358,912.228,358,912.228,386.808,886.717,431.526,895.98,446,899.9Z" transform="translate(0 -346.428)"/>
      <path id="Path_164" data-name="Path 164" class="cls-3" d="M1328.8,517.756c-1.359,4.692-4.445,7.134-9.179,7.381-5.715.295-9.54-1.726-11.556-6.581a23.663,23.663,0,0,1,.078-18.8c1.738-4.12,5.2-5.985,9.456-6.286,4.355-.307,8.139.626,10.509,4.993a5.3,5.3,0,0,0,3.056,2.575c2.135.415,4.4.12,6.8.12-.632-6.563-3.381-11.471-9.216-14.256A24.022,24.022,0,0,0,1316.437,485c-7.814.553-13.276,4.03-16.44,10.352a28.162,28.162,0,0,0-3.453,13.685,28.632,28.632,0,0,0,2.244,11.2.105.105,0,0,1,.006.03,21.625,21.625,0,0,0,5.624,8.217.69.69,0,0,1,.066.066v-.006a21.062,21.062,0,0,0,26.816,1.239c4.3-3.164,6.268-7.633,6.617-13.107h-8.608a7.061,7.061,0,0,0-.511,1.083Zm-34.985-15.9V486.373h-2.135c-5.733-.03-6.978,1.245-6.978,7.14v38.931h9.264V519.789l-.144-17.926C1293.819,501.857,1293.819,501.857,1293.813,501.857Z" transform="translate(-870.956)"/>
      <path id="Path_165" data-name="Path 165" class="cls-4" d="M644.857,1234.635V1223.5H638.8v14.635C640.761,1236.89,642.788,1235.717,644.857,1234.635Z" transform="translate(-263.909 -694.171)"/>
      <path id="Path_166" data-name="Path 166" class="cls-5" d="M876.357,1092.654V1078.5H870.3v16.272C872.3,1093.984,874.324,1093.28,876.357,1092.654Z" transform="translate(-481.483 -557.893)"/>
      <path id="Path_167" data-name="Path 167" class="cls-6" d="M1091.557,900.13V876.7H1085.5v24.507C1087.491,900.779,1089.518,900.419,1091.557,900.13Z" transform="translate(-683.738 -368.232)"/>
      <path id="Path_168" data-name="Path 168" class="cls-7" d="M627.034,1367.73a11.429,11.429,0,0,0,5.546-1.341l9.462-5.342c-14.647-5.474-28.723-8.247-41.891-8.247-22.3,0-38.246,8.031-47.684,14.768-1.907,1.359-3.627,2.719-5.167,4.03,11.321-6.033,24.964-9.077,40.742-9.077a143.844,143.844,0,0,1,36.345,4.957A14.13,14.13,0,0,0,627.034,1367.73Z" transform="translate(-177.913 -815.693)"/>
      <path id="Path_169" data-name="Path 169" class="cls-8" d="M1515.607,548.606l.2.18a19.565,19.565,0,0,0,24.916,1.143,14.5,14.5,0,0,0,5.811-10.256h-5.955c-1.54,5.263-5.191,8.193-10.563,8.47-6.454.343-10.822-2.2-13.041-7.537a25.1,25.1,0,0,1,.084-20.037c1.841-4.361,5.558-6.864,10.755-7.23.541-.036,1.065-.054,1.558-.054,4.86,0,8.259,1.913,10.395,5.853a3.888,3.888,0,0,0,2,1.793,12.63,12.63,0,0,0,2.424.193c.62,0,1.251-.024,1.925-.048l.427-.018c-.9-5.486-3.513-9.1-8.121-11.3a20.646,20.646,0,0,0-9.077-1.859c-.782,0-1.618.03-2.478.09-7.279.517-12.241,3.627-15.183,9.5l-.03.06a27.321,27.321,0,0,0-1.137,23.478l.066.174A19.74,19.74,0,0,0,1515.607,548.606Z" transform="translate(-1081.2 -21.617)"/>
      <path id="Path_170" data-name="Path 170" class="cls-9" d="M1316.751,532.5c-4.716,0-5.251.571-5.251,5.57v37.361h6.2V564.345l-.156-17.926V532.506Z" transform="translate(-896.144 -44.737)"/>
      <g id="Group_125" data-name="Group 125" transform="translate(334.35 449.9)">
        <path id="Path_179" data-name="Path 179" class="cls-10" d="M746.908,2261.74v-44.334a5.678,5.678,0,0,1,1.747-3.16,7.359,7.359,0,0,1,3.257-1.282h9.693l9.079,36.467,9.22-36.467h14.815v48.776h-9.6v-37.226l-9.173,37.226H765.712l-9.413-37.226v37.226Z" transform="translate(-605 -2178)"/>
        <path id="Subtraction_2" data-name="Subtraction 2" class="cls-10" d="M-591.519-2138.566c-.185,0-.365,0-.536,0-3.11-.043-6.389-.448-9.306-3.1a11.114,11.114,0,0,1-2.968-4.043,10.19,10.19,0,0,1-.667-4.139c.076-3.473.806-6.406,1.952-7.847a12.465,12.465,0,0,1,2.748-2.513,12.249,12.249,0,0,1,4.075-1.809,33.478,33.478,0,0,1,4.006-.721c.7-.09,1.489-.192,2.626-.387.36-.062.7-.116,1.027-.169l.041-.007c2.305-.371,3.828-.615,4.9-2.125a2.162,2.162,0,0,0,.419-1.731,3.169,3.169,0,0,0-1.444-1.889,11.464,11.464,0,0,0-4.619-.8,13.989,13.989,0,0,0-1.483.077,5.085,5.085,0,0,0-3.766,2.633h-9.657v-.007a14.17,14.17,0,0,1,2.812-6.387,12.317,12.317,0,0,1,6.2-3.654l.023-.007a21.6,21.6,0,0,1,6.761-.8h.331a23.956,23.956,0,0,1,5.808.722,11.391,11.391,0,0,1,4.767,2.316,10.464,10.464,0,0,1,3.56,6.272c.121,1.423.005,16.474,0,17.115,0,.041-.266,3.919-1.553,5.793a15.321,15.321,0,0,1-5.969,5.45C-584.471-2138.8-589.056-2138.566-591.519-2138.566Zm8.415-19.255h0a21.272,21.272,0,0,1-3.4,1.107l-.058.013a41.919,41.919,0,0,0-6.592,1.813,4.71,4.71,0,0,0-2.471,4.453,4.2,4.2,0,0,0,4.1,3.8c.128.006.26.009.4.009a9.842,9.842,0,0,0,6.6-2.725c1.983-1.819,1.424-8.4,1.418-8.469Z" transform="translate(796.51 2223.16)"/>
        <path id="Path_181" data-name="Path 181" class="cls-10" d="M829.377,2261.689v-20.282s.836-5.708,1.78-7.488,1.631-3.525,3.576-5.207a16.652,16.652,0,0,1,6.021-3.255,20.214,20.214,0,0,1,5.934-1.226c2.082-.08,3.608,0,3.608,0v10.31h-4.8a7.777,7.777,0,0,0-3.756,1.476,6.927,6.927,0,0,0-2.434,3.87c-.364,1.577,0,21.8,0,21.8Z" transform="translate(-605 -2178)"/>
        <path id="Path_182" data-name="Path 182" class="cls-10" d="M851.483,2261.689V2212.94h6.1s3.879.426,3.858,4.278,0,20.465,0,20.465l11.5-13.618h12.109l-13.427,14.569,13.427,23.055H872.933l-8.222-14.925a2.042,2.042,0,0,0-2.06-.938c-1.275.315-1.214,2.213-1.214,2.213v13.651Z" transform="translate(-605 -2178)"/>
        <path id="Subtraction_1" data-name="Subtraction 1" class="cls-10" d="M-587.574-2138.514a22.1,22.1,0,0,1-5.263-.778,16.515,16.515,0,0,1-7.16-4.116c-1.777-1.675-3.806-6.5-4.433-9.7a28.854,28.854,0,0,1-.4-8.863c.323-3.155.567-3.873,2.113-7.421a16.073,16.073,0,0,1,8.029-7.643,17.006,17.006,0,0,1,6.216-.968,34.583,34.583,0,0,1,4.3.285c3.784.479,8.956,3.89,11.522,9.482a22.72,22.72,0,0,1,1.836,8.356,28.715,28.715,0,0,1-.078,4.184l-.8,0c-2.7.009-10.911.036-16.762.036-4.094,0-6.193-.013-6.238-.039.03,3.7,1,5.295,1.848,6.272a6.7,6.7,0,0,0,4.908,2.227h.057a7.2,7.2,0,0,0,5.665-2.587,4.1,4.1,0,0,1,3-1.614,1.477,1.477,0,0,1,.19.01h7.615l0,.018a30.128,30.128,0,0,1-3.388,7.008c-1.925,2.526-5.064,3.838-8.383,5.066A12.453,12.453,0,0,1-587.574-2138.514Zm-.387-30.956a6.338,6.338,0,0,0-4.814,1.816,8,8,0,0,0-1.827,5.327h13.356a8.135,8.135,0,0,0-1.881-5.325A6.4,6.4,0,0,0-587.961-2169.47Z" transform="translate(881.803 2223.238)"/>
        <path id="Path_184" data-name="Path 184" class="cls-10" d="M922.768,2213v42.614s.441,3.884,2.48,5.048,5.587,1.1,5.587,1.1h7.479v-7.709h-4.1a2.372,2.372,0,0,1-1.853-2.318c.041-1.9,0-20.663,0-20.663s6.016,1.568,5.948-6.935c0-.175-5.948,0-5.948,0v-7.014s-.186-4.065-5.339-4.119C927.013,2212.948,922.768,2213,922.768,2213Z" transform="translate(-609 -2178)"/>
        <path id="Path_185" data-name="Path 185" class="cls-10" d="M970.264,2235.775s.073-12.769-15.908-12.743-15.027,12.743-15.027,12.743-.349,8.12,11.348,10.85,10.35,4.56,10.35,4.56-.691,4.128-6.671,3.725-6.055-4.027-6.31-5.89c-.048.048-9.575,0-9.575,0s-.081,14.6,15.884,13.851,16.705-11.687,16.705-11.687,3.377-9.024-11.841-12.744c-9.392-2.429-9.87-3.331-9.87-3.331s-1.38-4.133,4.272-4.022,5.8,2.108,6.474,2.755,1.3,1.764,4.491,1.932A52.486,52.486,0,0,0,970.264,2235.775Z" transform="translate(-609 -2178)"/>
      </g>
    </g>
  </g>
</svg>
