<?xml version="1.0" encoding="utf-8"?>
<!-- Generator: Adobe Illustrator 17.1.0, SVG Export Plug-In . SVG Version: 6.00 Build 0)  -->
<!DOCTYPE svg PUBLIC "-//W3C//DTD SVG 1.0//EN" "http://www.w3.org/TR/2001/REC-SVG-20010904/DTD/svg10.dtd">
<svg version="1.0" xmlns="http://www.w3.org/2000/svg" xmlns:xlink="http://www.w3.org/1999/xlink" x="0px" y="0px"
	 viewBox="0 0 258.5 150" enable-background="new 0 0 258.5 150" xml:space="preserve">
<g id="Layer_1">
</g>
<g id="Layer_3">
</g>
<g id="Layer_4">
</g>
<g id="Layer_5">
	<g>
		<g>
			<path fill="#80A51B" d="M129.1,48.6h5.2c2.9,0,4.9,0.3,6.1,0.8c1.2,0.5,2.2,1.4,2.9,2.5c0.7,1.2,1.1,2.6,1.1,4.2
				c0,1.7-0.4,3.1-1.2,4.3s-2,2-3.7,2.6l6.1,11.5h-5.4l-5.8-11h-0.5v11h-4.9V48.6z M134.1,58.7h1.5c1.6,0,2.6-0.2,3.2-0.6
				c0.6-0.4,0.9-1.1,0.9-2c0-0.6-0.1-1.1-0.4-1.5c-0.3-0.4-0.7-0.7-1.2-0.9s-1.4-0.3-2.7-0.3h-1.3V58.7z"/>
			<path fill="#80A51B" d="M149.7,48.6h14.1v4.8h-9.2v4.7h9.2v4.7h-9.2v6.8h9.2v4.8h-14.1V48.6z"/>
			<path fill="#80A51B" d="M176.3,48.6h5l9.9,25.9h-5.1l-2-5.3h-10.6l-2.1,5.3h-5.1L176.3,48.6z M178.8,55.5l-3.5,8.9h6.9
				L178.8,55.5z"/>
			<path fill="#80A51B" d="M194,48h4.8v26.5H194V48z"/>
			<path fill="#80A51B" d="M140,94l-3,3c-1.2-1.2-2.3-1.8-3.3-1.8c-0.5,0-1,0.1-1.3,0.3S132,96,132,96.4c0,0.3,0.1,0.5,0.3,0.7
				s0.7,0.5,1.4,0.9l1.8,0.9c1.9,0.9,3.1,1.8,3.8,2.8s1,2.1,1,3.3c0,1.7-0.6,3.1-1.9,4.3s-2.9,1.7-5,1.7c-2.8,0-5-1.1-6.7-3.3l3-3.2
				c0.6,0.7,1.2,1.2,2,1.6s1.4,0.6,2,0.6c0.6,0,1.1-0.2,1.5-0.5s0.6-0.7,0.6-1.1c0-0.7-0.7-1.5-2.1-2.2l-1.6-0.8
				c-3.1-1.6-4.6-3.5-4.6-5.9c0-1.5,0.6-2.8,1.7-3.9s2.7-1.6,4.5-1.6c1.2,0,2.4,0.3,3.5,0.8S139.2,93,140,94z"/>
			<path fill="#80A51B" d="M158.2,91.3h4.8v19.1h-4.8v-2c-0.9,0.9-1.9,1.5-2.8,1.9c-0.9,0.4-2,0.6-3.1,0.6c-2.5,0-4.6-1-6.4-2.9
				s-2.7-4.3-2.7-7.1c0-3,0.9-5.4,2.6-7.3s3.9-2.8,6.4-2.8c1.1,0,2.2,0.2,3.2,0.7c1,0.4,1.9,1.1,2.8,2V91.3z M153.2,95.3
				c-1.5,0-2.7,0.5-3.7,1.6s-1.5,2.4-1.5,4c0,1.7,0.5,3,1.5,4.1c1,1.1,2.2,1.6,3.7,1.6c1.5,0,2.8-0.5,3.7-1.6s1.5-2.4,1.5-4.1
				c0-1.7-0.5-3-1.5-4S154.7,95.3,153.2,95.3z"/>
			<path fill="#80A51B" d="M165.8,91.3h4.9l4.8,11.3l4.8-11.3h4.9l-8.1,19.1H174L165.8,91.3z"/>
			<path fill="#80A51B" d="M207.2,102.3h-15.4c0.2,1.4,0.8,2.4,1.8,3.2s2.2,1.2,3.7,1.2c1.8,0,3.3-0.6,4.6-1.9l4,1.9
				c-1,1.4-2.2,2.5-3.6,3.2s-3.1,1-5,1c-3,0-5.4-0.9-7.3-2.8s-2.8-4.3-2.8-7.1c0-2.9,0.9-5.3,2.8-7.3s4.2-2.9,7.1-2.9
				c3,0,5.5,1,7.3,2.9s2.8,4.5,2.8,7.6L207.2,102.3z M202.4,98.5c-0.3-1.1-0.9-1.9-1.9-2.6c-0.9-0.7-2-1-3.2-1
				c-1.3,0-2.5,0.4-3.5,1.1c-0.6,0.5-1.2,1.3-1.8,2.5H202.4z"/>
		</g>
		<g>
			<g>
				<path fill="#80A51B" d="M96.9,58.4c-5,0-9-4-9-9s4-9,9-9c5,0,9,4,9,9S101.9,58.4,96.9,58.4z M96.9,45.3c-2.2,0-4,1.8-4,4
					s1.8,4,4,4c2.2,0,4-1.8,4-4S99.1,45.3,96.9,45.3z"/>
			</g>
			<g>
				<polygon fill="#80A51B" points="99.7,114.4 28.7,114.4 28.7,46.5 91.7,46.5 91.7,51.5 33.7,51.5 33.7,109.4 94.7,109.4 
					94.7,56.6 99.7,56.6 				"/>
			</g>
			<g>
				<rect x="39" y="57.5" fill="#80A51B" width="28.4" height="5"/>
			</g>
			<g>
				<rect x="39" y="67.2" fill="#80A51B" width="28.4" height="5"/>
			</g>
			<g>
				<polygon fill="#80A51B" points="43.8,112.7 38.8,112.7 38.8,82.8 89.5,82.8 89.5,111.7 84.5,111.7 84.5,87.8 43.8,87.8 				"/>
			</g>
		</g>
	</g>
</g>
</svg>
