<?xml version="1.0" encoding="utf-8"?>
<!-- Generator: Adobe Illustrator 17.1.0, SVG Export Plug-In . SVG Version: 6.00 Build 0)  -->
<!DOCTYPE svg PUBLIC "-//W3C//DTD SVG 1.0//EN" "http://www.w3.org/TR/2001/REC-SVG-20010904/DTD/svg10.dtd">
<svg version="1.0" xmlns="http://www.w3.org/2000/svg" xmlns:xlink="http://www.w3.org/1999/xlink" x="0px" y="0px"
	 viewBox="0 0 320 150" enable-background="new 0 0 320 150" xml:space="preserve">
<g id="Layer_1">
</g>
<g id="Layer_3">
	<g>
		<g>
			<polygon fill="#0B3FA8" points="119,99.8 88.8,69.7 66.2,92.3 30.7,56.7 34.2,53.2 66.2,85.2 88.8,62.6 122.5,96.3 			"/>
		</g>
		<g>
			<path fill="#0B3FA8" d="M59.3,60.1c-5,0-9-4-9-9s4-9,9-9c5,0,9,4,9,9S64.2,60.1,59.3,60.1z M59.3,47c-2.2,0-4,1.8-4,4
				c0,2.2,1.8,4,4,4c2.2,0,4-1.8,4-4C63.3,48.8,61.5,47,59.3,47z"/>
		</g>
		<g>
			<path fill="#0B3FA8" d="M38.9,111c-5,0-9-4-9-9s4-9,9-9c5,0,9,4,9,9S43.9,111,38.9,111z M38.9,97.9c-2.2,0-4,1.8-4,4
				c0,2.2,1.8,4,4,4c2.2,0,4-1.8,4-4C43,99.7,41.2,97.9,38.9,97.9z"/>
		</g>
		<g>
			<path fill="#0B3FA8" d="M124.7,111c-5,0-9-4-9-9s4-9,9-9c5,0,9,4,9,9S129.6,111,124.7,111z M124.7,97.9c-2.2,0-4,1.8-4,4
				c0,2.2,1.8,4,4,4c2.2,0,4-1.8,4-4C128.7,99.7,126.9,97.9,124.7,97.9z"/>
		</g>
		<g>
			
				<rect x="70.7" y="52.7" transform="matrix(0.7087 0.7055 -0.7055 0.7087 67.7784 -32.4246)" fill="#0B3FA8" width="5" height="26.2"/>
		</g>
		<g>
			
				<rect x="99.1" y="71.7" transform="matrix(0.7088 0.7054 -0.7054 0.7088 84.9951 -57.573)" fill="#0B3FA8" width="26.2" height="5"/>
		</g>
		<g>
			
				<rect x="78.6" y="76.6" transform="matrix(0.7087 0.7055 -0.7055 0.7087 86.9227 -31.0553)" fill="#0B3FA8" width="5" height="26.2"/>
		</g>
		<g>
			<path fill="#0B3FA8" d="M157.4,42.2h5.2c2.9,0,4.9,0.3,6.1,0.8c1.2,0.5,2.2,1.4,2.9,2.5s1.1,2.6,1.1,4.2c0,1.7-0.4,3.1-1.2,4.3
				s-2,2-3.7,2.6l6.1,11.5h-5.4l-5.8-11h-0.5v11h-4.9V42.2z M162.3,52.3h1.5c1.6,0,2.6-0.2,3.2-0.6c0.6-0.4,0.9-1.1,0.9-2
				c0-0.6-0.1-1.1-0.4-1.5c-0.3-0.4-0.7-0.7-1.2-0.9S165,47,163.7,47h-1.3V52.3z"/>
			<path fill="#0B3FA8" d="M178,42.2h14.1V47h-9.2v4.7h9.2v4.7h-9.2v6.8h9.2v4.8H178V42.2z"/>
			<path fill="#0B3FA8" d="M204.6,42.2h5l9.9,25.9h-5.1l-2-5.3h-10.6l-2.1,5.3h-5.1L204.6,42.2z M207.1,49.1l-3.5,8.9h6.9
				L207.1,49.1z"/>
			<path fill="#0B3FA8" d="M222.2,41.6h4.8v26.5h-4.8V41.6z"/>
			<path fill="#0B3FA8" d="M161.3,84.9v2.1c0.9-0.9,1.8-1.5,2.8-2s2.1-0.7,3.2-0.7c2.5,0,4.6,0.9,6.4,2.8s2.6,4.3,2.6,7.3
				c0,2.8-0.9,5.2-2.7,7.1s-3.9,2.9-6.4,2.9c-1.1,0-2.1-0.2-3.1-0.6s-1.9-1-2.8-1.9v9h-4.8V84.9H161.3z M166.3,88.9
				c-1.5,0-2.8,0.5-3.8,1.5s-1.5,2.4-1.5,4c0,1.7,0.5,3.1,1.5,4.1s2.3,1.6,3.8,1.6c1.5,0,2.7-0.5,3.7-1.6s1.5-2.4,1.5-4.1
				c0-1.6-0.5-3-1.5-4S167.8,88.9,166.3,88.9z"/>
			<path fill="#0B3FA8" d="M194.4,84.9h4.8v19.1h-4.8v-2c-0.9,0.9-1.9,1.5-2.8,1.9s-2,0.6-3.1,0.6c-2.5,0-4.6-1-6.4-2.9
				c-1.8-1.9-2.7-4.3-2.7-7.1c0-3,0.9-5.4,2.6-7.3s3.9-2.8,6.4-2.8c1.1,0,2.2,0.2,3.2,0.7s1.9,1.1,2.8,2V84.9z M189.4,88.9
				c-1.5,0-2.7,0.5-3.7,1.6c-1,1-1.5,2.4-1.5,4c0,1.7,0.5,3,1.5,4.1c1,1.1,2.2,1.6,3.7,1.6c1.5,0,2.8-0.5,3.7-1.6
				c1-1,1.5-2.4,1.5-4.1c0-1.7-0.5-3-1.5-4C192.1,89.4,190.9,88.9,189.4,88.9z"/>
			<path fill="#0B3FA8" d="M204.6,77.9h4.8v7h2.8v4.1h-2.8v15h-4.8v-15h-2.5v-4.1h2.5V77.9z"/>
			<path fill="#0B3FA8" d="M215.4,77.9h4.8v7h2.8v4.1h-2.8v15h-4.8v-15H213v-4.1h2.5V77.9z"/>
			<path fill="#0B3FA8" d="M244.8,95.9h-15.4c0.2,1.4,0.8,2.4,1.8,3.2s2.2,1.2,3.7,1.2c1.8,0,3.3-0.6,4.6-1.9l4,1.9
				c-1,1.4-2.2,2.5-3.6,3.2s-3.1,1-5,1c-3,0-5.4-0.9-7.3-2.8s-2.8-4.3-2.8-7.1c0-2.9,0.9-5.3,2.8-7.3s4.2-2.9,7.1-2.9
				c3,0,5.5,1,7.3,2.9s2.8,4.5,2.8,7.6L244.8,95.9z M240,92.1c-0.3-1.1-0.9-1.9-1.9-2.6c-0.9-0.7-2-1-3.2-1c-1.3,0-2.5,0.4-3.5,1.1
				c-0.6,0.5-1.2,1.3-1.8,2.5H240z"/>
			<path fill="#0B3FA8" d="M247.6,84.9h4.1v2.4c0.4-0.9,1-1.7,1.8-2.2s1.5-0.7,2.4-0.7c0.6,0,1.3,0.2,2,0.5l-1.5,4.1
				c-0.6-0.3-1-0.4-1.4-0.4c-0.7,0-1.4,0.5-1.9,1.4s-0.8,2.7-0.8,5.4l0,0.9v7.7h-4.8V84.9z"/>
			<path fill="#0B3FA8" d="M260.2,84.9h4.8v2c1.1-0.9,2.1-1.6,3-1.9c0.9-0.4,1.8-0.5,2.7-0.5c1.9,0,3.5,0.7,4.8,2
				c1.1,1.1,1.7,2.8,1.7,5v12.6h-4.7v-8.4c0-2.3-0.1-3.8-0.3-4.5c-0.2-0.7-0.6-1.3-1.1-1.7c-0.5-0.4-1.1-0.6-1.9-0.6
				c-1,0-1.8,0.3-2.5,1s-1.2,1.5-1.4,2.7c-0.1,0.6-0.2,1.9-0.2,3.9v7.7h-4.8V84.9z"/>
			<path fill="#0B3FA8" d="M293.5,87.6l-3,3c-1.2-1.2-2.3-1.8-3.3-1.8c-0.5,0-1,0.1-1.3,0.3s-0.5,0.5-0.5,0.9c0,0.3,0.1,0.5,0.3,0.7
				s0.7,0.5,1.4,0.9l1.8,0.9c1.9,0.9,3.1,1.8,3.8,2.8s1,2.1,1,3.3c0,1.7-0.6,3.1-1.9,4.3s-2.9,1.7-5,1.7c-2.8,0-5-1.1-6.7-3.3l3-3.2
				c0.6,0.7,1.2,1.2,2,1.6s1.4,0.6,2,0.6c0.6,0,1.1-0.2,1.5-0.5s0.6-0.7,0.6-1.1c0-0.7-0.7-1.5-2.1-2.2l-1.6-0.8
				c-3.1-1.6-4.6-3.5-4.6-5.9c0-1.5,0.6-2.8,1.7-3.9s2.7-1.6,4.5-1.6c1.2,0,2.4,0.3,3.5,0.8S292.8,86.6,293.5,87.6z"/>
		</g>
	</g>
</g>
<g id="Layer_4">
</g>
<g id="Layer_5">
</g>
</svg>
