<?xml version="1.0" encoding="UTF-8"?>
<!DOCTYPE svg PUBLIC "-//W3C//DTD SVG 1.0//EN" "http://www.w3.org/TR/2001/REC-SVG-20010904/DTD/svg10.dtd">
<!-- Creator: CorelDRAW X8 -->
<svg xmlns="http://www.w3.org/2000/svg" xml:space="preserve" width="2480px" height="1029px" version="1.0" style="shape-rendering:geometricPrecision; text-rendering:geometricPrecision; image-rendering:optimizeQuality; fill-rule:evenodd; clip-rule:evenodd"
viewBox="0 0 2480 1029"
 xmlns:xlink="http://www.w3.org/1999/xlink"
 enable-background="new 0 0 179.1 77.8">
 <defs>
  <style type="text/css">
   <![CDATA[
    .fil0 {fill:#007D96}
    .fil1 {fill:#007D96;fill-rule:nonzero}
   ]]>
  </style>
 </defs>
 <g id="Слой_x0020_1">
  <metadata id="CorelCorpID_0Corel-Layer"/>
  <g id="_2280544910320">
   <path class="fil0" d="M1429 122l68 0c39,0 64,4 80,11 16,7 29,19 39,33 9,14 15,34 15,55 0,23 -6,40 -17,56 -10,16 -26,27 -49,35l80 151 -71 0 -76 -144 -6 0 0 144 -65 0 0 -341 2 0zm64 134l20 0c21,0 35,-3 41,-8 8,-6 12,-15 12,-27 0,-8 -1,-15 -5,-20 -4,-5 -9,-9 -15,-12 -6,-3 -18,-4 -36,-4l-17 0 0 71 0 0z"/>
   <polygon class="fil0" points="1699,122 1885,122 1885,185 1763,185 1763,248 1885,248 1885,309 1763,309 1763,399 1885,399 1885,462 1699,462 "/>
   <path class="fil0" d="M2049 122l65 0 131 341 -68 0 -25 -69 -140 0 -27 69 -68 0 132 -341 0 0zm33 91l-46 118 90 0 -44 -118z"/>
   <polygon class="fil0" points="2282,114 2346,114 2346,463 2282,463 "/>
   <g id="_2165532139888">
    <path class="fil0" d="M147 795l0 -410 -66 0 0 411c-40,16 -80,61 -80,114 0,65 53,118 120,118 66,0 117,-53 117,-118 0,-55 -38,-103 -91,-115zm-24 168c-30,0 -54,-24 -54,-53 0,-29 24,-53 54,-53 28,0 52,24 52,53 0,29 -24,53 -52,53z"/>
    <path class="fil0" d="M1121 83l-79 0 0 -66 -65 0 0 66 -79 0 0 264 79 0 0 460 65 0 0 -460 79 0 0 -264zm-65 197l-93 0 0 -131 93 0 0 131z"/>
    <path class="fil0" d="M595 3l-66 0 0 277 -79 0 0 580 79 0 0 106 66 0 0 -106 78 0 0 -580 -78 0 0 -277zm13 792l-92 0 0 -448 92 0 0 448z"/>
    <rect class="fil0" x="727" y="504" width="158.037" height="65.8485"/>
    <rect class="fil0" x="200" y="504" width="184.376" height="65.8485"/>
   </g>
   <polygon class="fil1" points="1429,589 1492,589 1492,938 1429,938 "/>
   <path id="_1" class="fil1" d="M1800 829l-203 0c3,19 11,32 24,43 12,11 28,16 48,16 23,0 43,-8 60,-24l54 24c-13,19 -29,34 -48,42 -19,9 -40,14 -66,14 -38,0 -71,-13 -96,-37 -24,-26 -37,-56 -37,-94 0,-38 13,-69 37,-95 25,-25 56,-38 94,-38 38,0 70,13 96,38 24,26 37,58 37,99l0 12 0 0zm-63 -49c-5,-14 -13,-24 -25,-34 -12,-8 -27,-12 -43,-12 -17,0 -32,4 -45,15 -10,5 -16,16 -24,31l137 0 0 0z"/>
   <polygon id="_2" class="fil1" points="1824,686 1889,686 1953,835 2016,686 2080,686 1971,938 1931,938 "/>
   <path id="_3" class="fil1" d="M2367 829l-202 0c3,19 11,32 24,43 12,11 28,16 48,16 23,0 43,-8 61,-24l52 24c-12,19 -28,34 -47,42 -19,9 -40,14 -66,14 -38,0 -70,-13 -96,-37 -24,-26 -37,-56 -37,-94 0,-38 13,-69 37,-95 26,-25 56,-38 94,-38 39,0 71,13 96,38 24,26 37,58 37,99l-1 12 0 0zm-63 -49c-4,-14 -12,-24 -24,-34 -12,-8 -27,-12 -43,-12 -17,0 -33,4 -46,15 -8,5 -16,16 -23,31l136 0 0 0z"/>
   <polygon id="_4" class="fil1" points="2413,589 2475,589 2475,938 2413,938 "/>
  </g>
 </g>
</svg>
