<?xml version="1.0" encoding="UTF-8"?>
<!DOCTYPE svg PUBLIC "-//W3C//DTD SVG 1.0//EN" "http://www.w3.org/TR/2001/REC-SVG-20010904/DTD/svg10.dtd">
<!-- Creator: CorelDRAW X8 -->
<svg xmlns="http://www.w3.org/2000/svg" xml:space="preserve" width="2000px" height="2000px" version="1.0" style="shape-rendering:geometricPrecision; text-rendering:geometricPrecision; image-rendering:optimizeQuality; fill-rule:evenodd; clip-rule:evenodd"
viewBox="0 0 2000 2000"
 xmlns:xlink="http://www.w3.org/1999/xlink">
 <defs>
  <style type="text/css">
   <![CDATA[
    .str0 {stroke:#A7DCFE;stroke-width:24}
    .fil1 {fill:none}
    .fil0 {fill:#A7DCFE;fill-rule:nonzero}
   ]]>
  </style>
 </defs>
 <g id="Слой_x0020_1">
  <metadata id="CorelCorpID_0Corel-Layer"/>
  <path class="fil0" d="M859 702l25 0c14,0 23,1 29,4 6,2 11,6 14,12 4,5 5,12 5,20 0,8 -2,15 -5,20 -4,5 -10,10 -18,12l29 55 -25 0 -28 -52 -2 0 0 52 -24 0 0 -123zm24 48l7 0c8,0 13,-1 16,-3 2,-2 4,-5 4,-10 0,-2 -1,-5 -2,-7 -2,-2 -4,-3 -6,-4 -2,-1 -7,-1 -13,-1l-6 0 0 25z"/>
  <polygon id="1" class="fil0" points="957,702 1024,702 1024,725 980,725 980,747 1024,747 1024,770 980,770 980,802 1024,802 1024,825 957,825 "/>
  <path id="2" class="fil0" d="M1083 702l24 0 47 123 -24 0 -10 -25 -50 0 -10 25 -24 0 47 -123zm12 33l-17 42 34 0 -17 -42z"/>
  <polygon id="3" class="fil0" points="1170,702 1194,702 1194,825 1170,825 "/>
  <polygon class="fil0" points="858,869 881,869 881,994 858,994 "/>
  <path id="1" class="fil0" d="M944 902c9,0 17,2 24,6 8,4 14,10 18,17 4,8 6,16 6,24 0,9 -2,17 -6,24 -4,7 -10,13 -18,17 -7,5 -15,7 -24,7 -13,0 -24,-5 -33,-14 -9,-9 -14,-21 -14,-34 0,-14 5,-26 16,-35 9,-8 19,-12 31,-12zm0 21c-7,0 -13,2 -17,7 -5,5 -7,11 -7,19 0,8 2,14 7,19 4,5 10,8 17,8 7,0 13,-3 18,-8 5,-5 7,-11 7,-19 0,-8 -2,-14 -7,-19 -4,-5 -10,-7 -18,-7z"/>
  <path id="2" class="fil0" d="M1100 922l-19 11c-4,-4 -7,-7 -11,-8 -3,-2 -7,-2 -12,-2 -9,0 -16,2 -21,7 -5,5 -8,12 -8,20 0,7 3,14 8,19 5,4 12,7 20,7 10,0 18,-4 24,-11l18 13c-10,12 -24,19 -42,19 -16,0 -28,-5 -37,-14 -9,-10 -14,-21 -14,-34 0,-8 3,-16 7,-24 4,-7 10,-13 18,-17 8,-4 17,-6 27,-6 9,0 17,1 24,5 7,4 13,9 18,15z"/>
  <polygon id="3" class="fil0" points="1120,869 1143,869 1143,941 1177,904 1205,904 1166,947 1210,994 1182,994 1143,953 1143,994 1120,994 "/>
  <path id="4" class="fil0" d="M1334 869l23 0 0 125 -23 0 0 -9c-4,4 -9,7 -13,9 -5,2 -10,3 -15,3 -12,0 -22,-5 -30,-14 -9,-9 -13,-20 -13,-34 0,-14 4,-25 12,-34 9,-9 19,-13 31,-13 5,0 10,1 15,3 5,2 9,5 13,9l0 -45zm-24 53c-7,0 -13,3 -17,8 -5,5 -7,11 -7,19 0,8 2,14 7,19 4,5 10,8 17,8 7,0 13,-3 18,-8 5,-5 7,-11 7,-19 0,-8 -2,-14 -7,-19 -5,-5 -11,-8 -18,-8z"/>
  <path id="5" class="fil0" d="M1374 904l20 0 0 11c2,-4 5,-8 9,-10 3,-2 7,-3 11,-3 3,0 6,0 9,2l-7 20c-3,-2 -5,-2 -6,-2 -4,0 -7,2 -9,6 -3,4 -4,13 -4,25l0 5 0 36 -23 0 0 -90z"/>
  <path id="6" class="fil0" d="M1443 867c4,0 8,1 11,4 3,3 4,6 4,10 0,4 -1,8 -4,11 -3,2 -6,4 -10,4 -4,0 -8,-2 -11,-4 -3,-3 -4,-7 -4,-11 0,-4 1,-7 4,-10 3,-3 6,-4 10,-4zm-11 37l23 0 0 90 -23 0 0 -90z"/>
  <polygon id="7" class="fil0" points="1466,904 1489,904 1512,957 1535,904 1558,904 1519,994 1504,994 "/>
  <path id="8" class="fil0" d="M1662 956l-73 0c1,6 4,11 8,15 5,4 11,6 18,6 8,0 15,-3 22,-9l19 9c-5,7 -11,12 -18,15 -6,3 -14,5 -23,5 -14,0 -26,-5 -35,-14 -9,-9 -13,-20 -13,-33 0,-14 4,-26 13,-35 9,-9 20,-13 34,-13 14,0 26,4 35,13 8,9 13,21 13,36l0 5zm-23 -18c-1,-5 -4,-9 -9,-12 -4,-3 -9,-5 -15,-5 -6,0 -12,2 -17,5 -3,2 -6,6 -8,12l49 0z"/>
  <path id="9" class="fil0" d="M1675 904l20 0 0 11c2,-4 5,-8 8,-10 4,-2 7,-3 12,-3 2,0 6,0 9,2l-7 20c-3,-2 -5,-2 -7,-2 -3,0 -6,2 -9,6 -2,4 -3,13 -3,25l0 5 0 36 -23 0 0 -90z"/>
  <g>
   <polygon class="fil0" points="540,759 516,759 516,677 540,677 "/>
  </g>
  <g>
   <polygon class="fil0" points="540,1020 516,1020 516,939 540,939 "/>
  </g>
  <rect class="fil1 str0" x="499" y="759" width="57" height="180"/>
  <g>
   <polygon class="fil0" points="328,997 487,997 487,1021 328,1021 "/>
  </g>
  <g>
   <path class="fil0" d="M257 1010l24 0 0 0 1 1 0 1 0 0 0 1 0 1 0 1 1 1 0 1 0 1 1 0 0 1 1 1 0 0 1 1 0 1 1 0 0 1 1 1 1 0 0 1 1 0 1 1 1 0 0 0 1 1 1 0 1 0 1 0 1 1 1 0 1 0 0 0 0 25 -2 0 -2 -1 -2 0 -2 0 -2 -1 -2 0 -2 -1 -2 -1 -2 -1 -2 -1 -2 -1 -2 -1 -1 -1 -2 -1 -1 -1 -2 -2 -1 -1 -2 -2 -1 -2 -1 -1 -1 -2 -1 -2 -1 -2 -1 -2 -1 -2 -1 -2 0 -2 -1 -2 0 -2 0 -2 0 -2 0 -2 0 0zm42 -43l0 25 0 0 0 0 -1 0 -1 0 -1 0 -1 0 -1 1 -1 0 -1 0 0 0 -1 1 -1 0 -1 1 0 0 -1 1 -1 0 0 1 -1 1 0 0 -1 1 0 1 -1 0 0 1 -1 1 0 1 0 1 -1 0 0 1 0 1 0 1 0 1 0 1 -1 1 -24 0 0 -2 0 -3 0 -2 0 -2 1 -2 0 -2 1 -2 1 -2 1 -2 1 -2 1 -2 1 -1 1 -2 1 -2 2 -1 1 -2 2 -1 1 -1 2 -2 1 -1 2 -1 2 -1 2 -1 2 -1 2 -1 2 0 2 -1 2 0 2 -1 2 0 2 0 2 0 0 0zm43 43l-25 0 0 0 0 -1 0 -1 0 -1 0 -1 0 -1 0 -1 -1 0 0 -1 0 -1 -1 -1 0 -1 -1 0 0 -1 -1 -1 0 0 -1 -1 0 -1 -1 0 -1 -1 0 0 -1 -1 -1 0 -1 -1 -1 0 0 0 -1 0 -1 -1 -1 0 -1 0 -1 0 -1 0 -1 0 0 -25 3 0 2 0 2 0 2 1 2 0 2 1 2 0 2 1 2 1 2 1 2 1 2 1 1 1 2 2 1 1 2 1 1 2 2 1 1 2 1 2 1 1 1 2 1 2 1 2 1 2 1 2 0 2 1 2 0 2 0 2 0 3 0 2 0 0zm-43 43l0 -25 0 0 1 0 1 0 1 0 1 -1 1 0 1 0 1 0 0 -1 1 0 1 0 1 -1 1 0 0 -1 1 0 1 -1 0 -1 1 0 0 -1 1 -1 0 0 1 -1 0 -1 1 0 0 -1 0 -1 1 -1 0 -1 0 -1 0 -1 0 0 0 -1 0 -1 25 0 0 2 0 2 0 2 0 2 -1 2 0 2 -1 2 -1 2 -1 2 -1 2 -1 2 -1 2 -1 1 -1 2 -2 2 -1 1 -2 2 -1 1 -2 1 -1 1 -2 1 -2 1 -2 1 -2 1 -2 1 -2 1 -2 0 -2 1 -2 0 -2 0 -2 1 -3 0 0 0z"/>
  </g>
  <g>
   <polygon class="fil0" points="440,951 440,975 374,975 374,951 "/>
  </g>
  <g>
   <polygon class="fil0" points="727,701 568,701 568,677 727,677 "/>
  </g>
  <g>
   <path class="fil0" d="M798 688l-25 0 0 0 0 -1 0 -1 0 -1 0 -1 0 -1 0 -1 -1 0 0 -1 0 -1 -1 -1 0 -1 -1 0 0 -1 -1 -1 0 0 -1 -1 0 -1 -1 0 -1 -1 0 0 -1 -1 -1 0 -1 0 0 -1 -1 0 -1 0 -1 -1 -1 0 -1 0 -1 0 -1 0 0 0 0 -25 2 0 2 0 2 0 2 1 2 0 2 1 2 0 2 1 2 1 2 1 2 1 2 1 1 1 2 2 1 1 2 1 1 2 2 1 1 2 1 2 1 2 1 1 1 2 1 2 1 2 1 2 0 2 1 2 0 2 0 2 0 3 0 2 0 0zm-42 43l0 -25 0 0 0 0 1 0 1 0 1 -1 1 0 1 0 1 0 1 -1 0 0 1 0 1 -1 1 0 0 -1 1 0 1 -1 0 0 1 -1 0 -1 1 0 0 -1 1 -1 0 -1 1 0 0 -1 0 -1 1 -1 0 -1 0 -1 0 0 0 -1 0 -1 0 -1 25 0 0 2 0 2 0 2 0 2 -1 3 0 2 -1 2 -1 2 -1 1 -1 2 -1 2 -1 2 -1 2 -1 1 -2 2 -1 1 -2 2 -1 1 -2 1 -1 1 -2 2 -2 1 -2 1 -2 0 -2 1 -2 1 -2 0 -2 1 -2 0 -2 1 -2 0 -2 0 0 0zm-43 -43l25 0 0 0 0 1 0 1 0 1 0 0 0 1 0 1 1 1 0 1 0 1 1 0 0 1 1 1 0 1 1 0 0 1 1 1 0 0 1 1 1 0 0 1 1 0 1 1 1 0 1 0 0 1 1 0 1 0 1 0 1 1 1 0 1 0 1 0 0 25 -3 0 -2 0 -2 -1 -2 0 -2 -1 -2 0 -2 -1 -2 -1 -2 0 -2 -1 -2 -1 -2 -2 -1 -1 -2 -1 -1 -1 -2 -2 -1 -1 -2 -2 -1 -1 -1 -2 -1 -2 -1 -2 -1 -2 -1 -1 -1 -2 -1 -2 0 -2 -1 -3 0 -2 0 -2 0 -2 0 -2 0 0zm43 -43l0 25 0 0 -1 0 -1 0 -1 0 -1 0 -1 0 -1 1 -1 0 0 0 -1 1 -1 0 -1 0 -1 1 0 0 -1 1 -1 0 0 1 -1 1 0 0 -1 1 0 1 -1 0 0 1 -1 1 0 1 0 1 -1 0 0 1 0 1 0 1 0 1 0 1 0 1 -25 0 0 -2 0 -3 0 -2 0 -2 1 -2 0 -2 1 -2 1 -2 1 -2 1 -2 1 -1 1 -2 1 -2 1 -2 2 -1 1 -2 2 -1 1 -1 2 -2 1 -1 2 -1 2 -1 2 -1 2 -1 2 -1 2 0 2 -1 2 0 2 -1 2 0 2 0 3 0 0 0z"/>
  </g>
  <g>
   <polygon class="fil0" points="615,747 615,723 681,723 681,747 "/>
  </g>
 </g>
</svg>
