<?xml version="1.0" encoding="utf-8"?>
<!-- Generator: Adobe Illustrator 21.1.0, SVG Export Plug-In . SVG Version: 6.00 Build 0)  -->
<svg version="1.1" id="Layer_1" xmlns="http://www.w3.org/2000/svg" xmlns:xlink="http://www.w3.org/1999/xlink" x="0px" y="0px"
	 viewBox="0 0 301.5 75.5" style="enable-background:new 0 0 301.5 75.5;" xml:space="preserve">
<style type="text/css">
	.st0{fill:#8C4BC8;}
</style>
<title>real-asian-trade</title>
<g>
	<path class="st0" d="M110.3,21.6h0.5l5.8,11h5.4l-6.1-11.5c1.6-0.6,2.9-1.5,3.7-2.6s1.2-2.6,1.2-4.3c0-1.6-0.4-3-1.1-4.2
		s-1.7-2-2.9-2.5c-1.2-0.5-3.2-0.8-6.1-0.8h-5.2v25.9h4.9V21.6z M110.3,11.5h1.3c1.3,0,2.2,0.1,2.7,0.3c0.5,0.2,0.9,0.5,1.2,0.9
		c0.3,0.4,0.4,0.9,0.4,1.5c0,1-0.3,1.6-0.9,2s-1.7,0.6-3.2,0.6h-1.5V11.5z"/>
	<polygon class="st0" points="140.1,27.7 130.9,27.7 130.9,20.9 140.1,20.9 140.1,16.2 130.9,16.2 130.9,11.5 140.1,11.5 140.1,6.7 
		126,6.7 126,32.6 140.1,32.6 	"/>
	<path class="st0" d="M149.8,27.2h10.6l2,5.3h5.1l-9.9-25.9h-5l-10,25.9h5.1L149.8,27.2z M155.1,13.6l3.4,8.9h-6.9L155.1,13.6z"/>
	<rect x="170.3" y="6.1" class="st0" width="4.8" height="26.5"/>
	<path class="st0" d="M113,42.7l-10,25.9h5.1l2.1-5.3h10.6l2,5.3h5.1L118,42.7H113z M112,58.4l3.5-8.9l3.4,8.9H112z"/>
	<path class="st0" d="M138.4,57l-1.8-0.9c-0.8-0.4-1.2-0.7-1.4-0.9s-0.3-0.5-0.3-0.7c0-0.3,0.2-0.6,0.5-0.9s0.7-0.3,1.3-0.3
		c1,0,2.1,0.6,3.3,1.8l3-3c-0.8-1-1.7-1.8-2.8-2.3s-2.3-0.8-3.5-0.8c-1.8,0-3.3,0.5-4.5,1.6s-1.7,2.4-1.7,3.9c0,2.3,1.5,4.3,4.6,5.9
		l1.6,0.8c1.4,0.7,2.1,1.4,2.1,2.2c0,0.4-0.2,0.8-0.6,1.1s-0.9,0.5-1.5,0.5c-0.6,0-1.3-0.2-2-0.6s-1.4-0.9-2-1.6l-3,3.2
		c1.7,2.2,3.9,3.3,6.7,3.3c2.1,0,3.8-0.6,5-1.7s1.9-2.6,1.9-4.3c0-1.3-0.3-2.4-1-3.3S140.2,57.9,138.4,57z"/>
	<rect x="146.5" y="49.4" class="st0" width="4.8" height="19.1"/>
	<path class="st0" d="M148.9,41.6c-0.8,0-1.6,0.3-2.2,0.9c-0.6,0.6-0.9,1.3-0.9,2.2c0,0.9,0.3,1.6,0.9,2.2s1.3,0.9,2.2,0.9
		c0.8,0,1.5-0.3,2.1-0.9c0.6-0.6,0.9-1.3,0.9-2.2c0-0.9-0.3-1.6-0.9-2.2S149.7,41.6,148.9,41.6z"/>
	<path class="st0" d="M169.8,51.6c-0.9-0.9-1.8-1.5-2.8-2s-2.1-0.7-3.2-0.7c-2.5,0-4.6,0.9-6.4,2.8s-2.6,4.3-2.6,7.3
		c0,2.8,0.9,5.2,2.7,7.1c1.8,1.9,3.9,2.9,6.4,2.9c1.1,0,2.1-0.2,3.1-0.6c0.9-0.4,1.9-1,2.8-1.9v2h4.8V49.4h-4.8V51.6z M168.5,63.1
		c-1,1-2.2,1.6-3.7,1.6c-1.5,0-2.7-0.5-3.7-1.6c-1-1.1-1.5-2.4-1.5-4.1c0-1.6,0.5-3,1.5-4s2.2-1.6,3.7-1.6c1.5,0,2.8,0.5,3.8,1.5
		s1.5,2.4,1.5,4C170,60.7,169.5,62,168.5,63.1z"/>
	<path class="st0" d="M189.9,49c-0.9,0-1.8,0.2-2.7,0.5c-0.9,0.4-1.9,1-3,1.9v-2h-4.8v19.1h4.8v-7.7c0-2,0.1-3.3,0.2-3.9
		c0.3-1.1,0.8-2,1.4-2.7c0.7-0.6,1.5-1,2.5-1c0.7,0,1.4,0.2,1.9,0.6c0.5,0.4,0.9,1,1.1,1.7c0.2,0.8,0.3,2.3,0.3,4.5v8.4h4.7V55.9
		c0-2.2-0.6-3.9-1.7-5C193.4,49.6,191.8,49,189.9,49z"/>
	<polygon class="st0" points="216.5,42.4 211.7,42.4 211.7,49.4 209.2,49.4 209.2,53.6 211.7,53.6 211.7,68.6 216.5,68.6 
		216.5,53.6 219.3,53.6 219.3,49.4 216.5,49.4 	"/>
	<path class="st0" d="M226.6,49.7c-0.7,0.5-1.3,1.2-1.8,2.2v-2.4h-4.1v19.1h4.8v-7.7l0-0.9c0-2.7,0.3-4.5,0.8-5.4s1.1-1.4,1.9-1.4
		c0.4,0,0.8,0.1,1.4,0.4l1.5-4.1c-0.7-0.3-1.3-0.5-2-0.5C228.2,49,227.4,49.2,226.6,49.7z"/>
	<path class="st0" d="M247.5,51.6c-0.9-0.9-1.8-1.5-2.8-2s-2.1-0.7-3.2-0.7c-2.5,0-4.6,0.9-6.4,2.8s-2.6,4.3-2.6,7.3
		c0,2.8,0.9,5.2,2.7,7.1c1.8,1.9,3.9,2.9,6.4,2.9c1.1,0,2.1-0.2,3.1-0.6c0.9-0.4,1.9-1,2.8-1.9v2h4.8V49.4h-4.8V51.6z M246.2,63.1
		c-1,1-2.2,1.6-3.7,1.6c-1.5,0-2.7-0.5-3.7-1.6c-1-1.1-1.5-2.4-1.5-4.1c0-1.6,0.5-3,1.5-4s2.2-1.6,3.7-1.6c1.5,0,2.8,0.5,3.8,1.5
		s1.5,2.4,1.5,4C247.7,60.7,247.2,62,246.2,63.1z"/>
	<path class="st0" d="M271.3,51.6c-0.9-0.9-1.8-1.5-2.8-2s-2.1-0.7-3.2-0.7c-2.5,0-4.6,0.9-6.4,2.8s-2.6,4.3-2.6,7.3
		c0,2.8,0.9,5.2,2.7,7.1c1.8,1.9,3.9,2.9,6.4,2.9c1.1,0,2.1-0.2,3.1-0.6c0.9-0.4,1.9-1,2.8-1.9v2h4.8V42.1h-4.8V51.6z M270,63.1
		c-1,1-2.2,1.6-3.7,1.6c-1.5,0-2.7-0.5-3.7-1.6c-1-1.1-1.5-2.4-1.5-4.1c0-1.6,0.5-3,1.5-4s2.2-1.6,3.7-1.6c1.5,0,2.8,0.5,3.8,1.5
		s1.5,2.4,1.5,4C271.5,60.7,271,62,270,63.1z"/>
	<path class="st0" d="M300.1,59.5c0-3.2-0.9-5.7-2.8-7.6s-4.3-2.9-7.3-2.9c-2.8,0-5.2,1-7.1,2.9s-2.8,4.4-2.8,7.3
		c0,2.8,0.9,5.2,2.8,7.1s4.3,2.8,7.3,2.8c1.9,0,3.6-0.3,5-1s2.6-1.7,3.6-3.2l-4-1.9c-1.3,1.3-2.8,1.9-4.6,1.9
		c-1.5,0-2.7-0.4-3.7-1.2s-1.6-1.9-1.8-3.2h15.4L300.1,59.5z M284.9,56.6c0.5-1.2,1.1-2,1.8-2.5c1-0.8,2.2-1.1,3.5-1.1
		c1.2,0,2.3,0.3,3.2,1s1.6,1.5,1.9,2.6H284.9z"/>
	<path class="st0" d="M73,0c-5,0-9,4-9,9c0,1.6,0.4,3.2,1.2,4.5c-1.9,3.1-12.6,4.9-20.2,5H31.7C9.9,18.5,0.4,33.1,0,33.8l4.2,2.7
		c0.1-0.1,8.4-12.9,27.5-12.9H45c3.5,0,18.7-0.5,23.8-6.5c1.3,0.7,2.7,1,4.2,1c5,0,9-4,9-9S78,0,73,0z M73,13c-2.2,0-4-1.8-4-4
		s1.8-4,4-4s4,1.8,4,4S75.2,13,73,13z"/>
	<path class="st0" d="M52,47.5l-11.3,0c-14.2,0-22.2,7.5-25.3,11.1c-1.3-0.8-2.9-1.2-4.5-1.2c-5,0-9,4-9,9s4,9,9,9s9-4,9-9
		c0-1.5-0.4-2.9-1-4.2c2.1-2.7,8.9-9.8,21.8-9.8h11c1.4,0.1,14.2,0.7,21.2-7.9l-3.9-3.2C63.5,48.3,52.2,47.5,52,47.5z M11,70.5
		c-2.2,0-4-1.8-4-4s1.8-4,4-4s4,1.8,4,4S13.2,70.5,11,70.5z"/>
	<path class="st0" d="M36.7,37.5h11.1c0.6,0,14.9-0.1,21.1-8L65,26.5c-3.9,4.9-13.7,6-17.2,6H36.7c-18.4,0-26.4,12.6-26.8,13.1
		l4.2,2.6C14.5,47.8,21.2,37.5,36.7,37.5z"/>
</g>
</svg>
