<?xml version="1.0" encoding="UTF-8"?>
<!DOCTYPE svg PUBLIC "-//W3C//DTD SVG 1.0//EN" "http://www.w3.org/TR/2001/REC-SVG-20010904/DTD/svg10.dtd">
<!-- Creator: CorelDRAW X8 -->
<svg xmlns="http://www.w3.org/2000/svg" xml:space="preserve" width="2480px" height="3508px" version="1.0" style="shape-rendering:geometricPrecision; text-rendering:geometricPrecision; image-rendering:optimizeQuality; fill-rule:evenodd; clip-rule:evenodd"
viewBox="0 0 2480 3507"
 xmlns:xlink="http://www.w3.org/1999/xlink"
 enable-background="new 0 0 185.9 79.6">
 <defs>
  <style type="text/css">
   <![CDATA[
    .fil1 {fill:#F07D25}
    .fil0 {fill:#F07D25;fill-rule:nonzero}
   ]]>
  </style>
 </defs>
 <g id="Слой_x0020_1">
  <metadata id="CorelCorpID_0Corel-Layer"/>
  <g id="_2280553343712">
   <path class="fil0" d="M895 1850l41 0 0 19c7,-8 15,-14 24,-17 9,-4 18,-6 29,-6 10,0 19,2 28,7 8,5 15,13 20,23 6,-10 15,-18 24,-23 10,-5 20,-7 32,-7 12,0 22,2 31,8 9,5 15,13 19,21 4,9 6,24 6,44l0 97 -41 0 0 -84c0,-19 -3,-32 -7,-38 -5,-7 -12,-10 -22,-10 -7,0 -13,2 -19,6 -6,4 -10,10 -13,17 -3,7 -4,18 -4,34l0 75 -42 0 0 -80c0,-15 -1,-26 -3,-32 -2,-7 -5,-12 -10,-15 -4,-4 -10,-5 -16,-5 -7,0 -13,2 -19,6 -6,4 -10,10 -13,17 -2,8 -4,19 -4,35l0 74 -41 0 0 -166z"/>
   <path id="1" class="fil0" d="M1267 1846c15,0 30,4 44,11 14,8 24,19 32,32 8,14 12,28 12,44 0,15 -4,30 -12,43 -8,14 -18,25 -32,32 -13,8 -28,12 -44,12 -24,0 -44,-9 -61,-26 -17,-16 -25,-37 -25,-61 0,-26 9,-48 28,-65 17,-15 36,-22 58,-22zm0 39c-13,0 -23,4 -32,13 -9,9 -13,21 -13,35 0,14 4,26 13,35 8,9 19,13 32,13 13,0 24,-5 33,-14 8,-9 13,-20 13,-34 0,-15 -5,-26 -13,-35 -9,-9 -19,-13 -33,-13z"/>
   <path id="2" class="fil0" d="M1389 1850l41 0 0 17c10,-8 18,-14 26,-17 8,-3 15,-4 23,-4 17,0 31,5 42,17 10,10 15,24 15,43l0 110 -41 0 0 -73c0,-20 -1,-33 -3,-39 -2,-7 -5,-12 -9,-15 -5,-3 -10,-5 -17,-5 -8,0 -15,3 -21,8 -6,6 -11,14 -13,24 -1,5 -2,16 -2,33l0 67 -41 0 0 -166z"/>
   <path id="3" class="fil0" d="M1593 1782c7,0 13,2 18,8 6,5 8,11 8,19 0,7 -2,13 -7,19 -6,5 -12,7 -19,7 -7,0 -14,-2 -19,-8 -5,-5 -8,-11 -8,-19 0,-7 3,-13 8,-19 5,-5 11,-7 19,-7zm-21 68l41 0 0 166 -41 0 0 -166z"/>
   <polygon id="4" class="fil0" points="1656,1789 1698,1789 1698,1850 1722,1850 1722,1886 1698,1886 1698,2016 1656,2016 1656,1886 1635,1886 1635,1850 1656,1850 "/>
   <path id="5" class="fil0" d="M1823 1846c16,0 30,4 44,11 14,8 25,19 32,32 8,14 12,28 12,44 0,15 -4,30 -12,43 -7,14 -18,25 -32,32 -13,8 -28,12 -44,12 -24,0 -44,-9 -61,-26 -17,-16 -25,-37 -25,-61 0,-26 9,-48 28,-65 17,-15 36,-22 58,-22zm0 39c-13,0 -23,4 -32,13 -8,9 -13,21 -13,35 0,14 4,26 13,35 8,9 19,13 32,13 13,0 24,-5 33,-14 8,-9 13,-20 13,-34 0,-15 -4,-26 -13,-35 -8,-9 -19,-13 -33,-13z"/>
   <path id="6" class="fil0" d="M1935 1850l36 0 0 21c4,-8 9,-15 15,-19 7,-4 14,-6 21,-6 6,0 11,1 17,4l-13 36c-5,-3 -9,-4 -12,-4 -6,0 -12,4 -16,12 -4,8 -6,24 -6,47l0 8 0 67 -42 0 0 -166z"/>
   <path id="7" class="fil0" d="M2061 1782c8,0 14,2 19,8 5,5 8,11 8,19 0,7 -3,13 -8,19 -5,5 -11,7 -19,7 -7,0 -13,-2 -18,-8 -6,-5 -8,-11 -8,-19 0,-7 2,-13 7,-19 6,-5 12,-7 19,-7zm-21 68l42 0 0 166 -42 0 0 -166z"/>
   <path id="8" class="fil0" d="M2120 1850l41 0 0 17c10,-8 18,-14 26,-17 7,-3 15,-4 23,-4 17,0 31,5 42,17 10,10 15,24 15,43l0 110 -41 0 0 -73c0,-20 -1,-33 -3,-39 -2,-7 -5,-12 -9,-15 -5,-3 -10,-5 -17,-5 -8,0 -15,3 -21,8 -6,6 -11,14 -13,24 -1,5 -2,16 -2,33l0 67 -41 0 0 -166z"/>
   <path id="9" class="fil0" d="M2430 1850l41 0 0 142c0,28 -5,48 -16,62 -16,17 -38,26 -69,26 -16,0 -30,-2 -41,-6 -11,-4 -21,-10 -28,-18 -8,-8 -14,-17 -17,-28l46 0c4,4 9,8 16,10 6,2 14,4 22,4 12,0 21,-2 28,-6 6,-3 11,-7 14,-13 3,-5 4,-15 4,-28 -7,7 -15,13 -23,16 -8,3 -17,5 -27,5 -23,0 -42,-8 -57,-24 -15,-16 -23,-37 -23,-61 0,-27 8,-48 24,-64 15,-14 33,-21 53,-21 10,0 19,1 28,5 8,3 17,9 25,17l0 -18zm-43 35c-14,0 -24,4 -33,13 -9,9 -13,20 -13,33 0,14 5,25 13,34 9,9 20,13 33,13 13,0 24,-4 33,-13 8,-9 12,-20 12,-34 0,-14 -4,-25 -13,-33 -8,-9 -19,-13 -32,-13z"/>
   <path class="fil1" d="M901 1472l45 0c26,0 44,2 54,7 11,4 20,12 26,22 6,10 9,23 9,37 0,15 -3,27 -10,38 -7,10 -18,17 -33,23l54 101 -48 0 -51 -97 -4 0 0 97 -43 0 0 -228 1 0 0 0zm44 89l13 0c14,0 23,-2 28,-5 5,-4 8,-10 8,-18 0,-5 -1,-10 -4,-13 -2,-4 -6,-7 -10,-8 -5,-2 -12,-3 -24,-3l-11 0 0 47 0 0z"/>
   <polygon class="fil1" points="1082,1472 1207,1472 1207,1514 1125,1514 1125,1556 1207,1556 1207,1597 1125,1597 1125,1657 1207,1657 1207,1699 1082,1699 "/>
   <path class="fil1" d="M1317 1472l44 0 87 228 -45 0 -17 -47 -94 0 -18 47 -45 0 88 -228 0 0zm22 61l-31 78 61 0 -30 -78z"/>
   <polygon class="fil1" points="1473,1466 1515,1466 1515,1700 1473,1700 "/>
   <path class="fil1" d="M546 1475l-537 0 0 520 634 0 0 -417c36,-10 59,-41 59,-77 0,-44 -36,-80 -80,-80 -35,0 -65,27 -76,54l0 0zm-493 476l0 -432 492 0c7,26 28,51 54,59l0 373 -546 0zm605 -450c0,20 -16,36 -36,36 -19,0 -35,-16 -35,-36 0,-19 16,-35 35,-35 20,0 36,16 36,35z"/>
   <rect class="fil1" transform="matrix(-0.27328 0.000773302 -0.000773302 -0.27328 289.192 2085.68)" width="846" height="161"/>
   <rect class="fil1" transform="matrix(-0.27328 0.000986977 -0.000986977 -0.27328 591.532 2085.56)" width="846" height="161"/>
   <rect class="fil1" x="82" y="1818" width="231.064" height="44.0885"/>
   <rect class="fil1" x="82" y="1598" width="231.064" height="44.0885"/>
   <rect class="fil1" x="83" y="1708" width="229.283" height="44.0885"/>
   <rect class="fil1" transform="matrix(0.000773302 0.149113 -0.27328 0.000421946 347.638 1958.61)" width="846" height="161"/>
  </g>
 </g>
</svg>
