<?xml version="1.0" encoding="UTF-8"?>
<!DOCTYPE svg PUBLIC "-//W3C//DTD SVG 1.0//EN" "http://www.w3.org/TR/2001/REC-SVG-20010904/DTD/svg10.dtd">
<!-- Creator: CorelDRAW X8 -->
<svg xmlns="http://www.w3.org/2000/svg" xml:space="preserve" width="2480px" height="3508px" version="1.0" style="shape-rendering:geometricPrecision; text-rendering:geometricPrecision; image-rendering:optimizeQuality; fill-rule:evenodd; clip-rule:evenodd"
viewBox="0 0 2480 3507"
 xmlns:xlink="http://www.w3.org/1999/xlink"
 enable-background="new 0 0 179.1 77.8">
 <defs>
  <style type="text/css">
   <![CDATA[
    .fil0 {fill:#007D96}
    .fil1 {fill:#007D96;fill-rule:nonzero}
   ]]>
  </style>
 </defs>
 <g id="Слой_x0020_1">
  <metadata id="CorelCorpID_0Corel-Layer"/>
  <g id="_2244162064816">
   <path class="fil0" d="M1358 1509l43 0c24,0 40,2 50,6 10,5 18,12 24,21 6,9 9,21 9,34 0,14 -3,25 -10,35 -7,10 -17,17 -31,22l50 94 -44 0 -47 -90 -4 0 0 90 -40 0 0 -212 0 0zm40 83l13 0c13,0 22,-2 26,-5 5,-3 7,-9 7,-17 0,-5 -1,-9 -3,-12 -3,-3 -6,-6 -9,-8 -4,-1 -12,-2 -23,-2l-11 0 0 44 0 0z"/>
   <polygon class="fil0" points="1526,1509 1642,1509 1642,1548 1566,1548 1566,1587 1642,1587 1642,1625 1566,1625 1566,1681 1642,1681 1642,1720 1526,1720 "/>
   <path class="fil0" d="M1744 1509l41 0 82 212 -43 0 -16 -43 -87 0 -17 43 -42 0 82 -212 0 0zm21 56l-29 74 57 0 -28 -74z"/>
   <polygon class="fil0" points="1889,1504 1929,1504 1929,1721 1889,1721 "/>
   <g id="_2165532139888">
    <path class="fil0" d="M561 1927l0 -254 -41 0 0 255c-25,10 -50,38 -50,71 0,40 34,74 75,74 41,0 73,-34 73,-74 0,-34 -24,-64 -57,-72zm-15 105c-18,0 -33,-15 -33,-33 0,-18 15,-33 33,-33 18,0 33,15 33,33 0,18 -15,33 -33,33z"/>
    <path class="fil0" d="M1167 1485l-49 0 0 -42 -41 0 0 42 -49 0 0 164 49 0 0 286 41 0 0 -286 49 0 0 -164zm-41 122l-57 0 0 -82 57 0 0 82z"/>
    <path class="fil0" d="M840 1435l-41 0 0 172 -49 0 0 361 49 0 0 66 41 0 0 -66 49 0 0 -361 -49 0 0 -172zm8 492l-57 0 0 -278 57 0 0 278z"/>
    <rect class="fil0" x="922" y="1747" width="98.3059" height="40.9607"/>
    <rect class="fil0" x="594" y="1747" width="114.69" height="40.9607"/>
   </g>
   <polygon class="fil1" points="1358,1799 1398,1799 1398,2016 1358,2016 "/>
   <path id="_1" class="fil1" d="M1590 1949l-127 0c2,11 7,20 15,26 8,7 18,10 30,10 14,0 27,-5 38,-15l33 15c-8,12 -18,21 -30,26 -12,6 -25,9 -41,9 -24,0 -44,-8 -60,-23 -15,-16 -23,-35 -23,-58 0,-24 8,-44 23,-59 16,-16 35,-24 59,-24 24,0 44,8 59,24 15,15 24,35 24,61l0 8 0 0zm-39 -31c-4,-8 -9,-15 -16,-21 -8,-5 -17,-7 -27,-7 -11,0 -20,2 -28,9 -6,3 -10,10 -15,19l86 0 0 0z"/>
   <polygon id="_2" class="fil1" points="1605,1860 1645,1860 1684,1952 1724,1860 1763,1860 1696,2016 1671,2016 "/>
   <path id="_3" class="fil1" d="M1942 1949l-125 0c1,11 6,20 15,26 7,7 17,10 30,10 14,0 26,-5 37,-15l32 15c-7,12 -17,21 -29,26 -11,6 -25,9 -40,9 -25,0 -44,-8 -60,-23 -15,-16 -24,-35 -24,-58 0,-24 9,-44 24,-59 16,-16 35,-24 58,-24 24,0 44,8 60,24 15,15 23,35 23,61l-1 8 0 0zm-39 -31c-2,-8 -7,-15 -15,-21 -7,-5 -16,-7 -26,-7 -11,0 -21,2 -30,9 -5,3 -10,10 -14,19l85 0 0 0z"/>
   <polygon id="_4" class="fil1" points="1971,1799 2010,1799 2010,2016 1971,2016 "/>
  </g>
 </g>
</svg>
