<?xml version="1.0" encoding="UTF-8"?>
<!DOCTYPE svg PUBLIC "-//W3C//DTD SVG 1.0//EN" "http://www.w3.org/TR/2001/REC-SVG-20010904/DTD/svg10.dtd">
<!-- Creator: CorelDRAW X8 -->
<svg xmlns="http://www.w3.org/2000/svg" xml:space="preserve" width="2480px" height="514px" version="1.0" style="shape-rendering:geometricPrecision; text-rendering:geometricPrecision; image-rendering:optimizeQuality; fill-rule:evenodd; clip-rule:evenodd"
viewBox="0 0 2480 514"
 xmlns:xlink="http://www.w3.org/1999/xlink">
 <defs>
  <style type="text/css">
   <![CDATA[
    .fil0 {fill:#4DA761;fill-rule:nonzero}
   ]]>
  </style>
 </defs>
 <g id="Слой_x0020_1">
  <metadata id="CorelCorpID_0Corel-Layer"/>
  <g id="_2244265754000">
   <polygon class="fil0" points="101,419 101,384 568,384 568,419 "/>
  </g>
  <path class="fil0" d="M715 36l35 0c21,0 35,1 43,4 8,4 16,10 20,19 6,7 9,17 9,28 0,13 -3,22 -9,30 -6,8 -14,13 -26,18l42 79 -36 0 -41 -75 -3 0 0 75 -34 0 0 -178 0 0zm34 70l10 0c12,0 19,-2 23,-5 5,-3 6,-7 6,-14 0,-5 -1,-8 -3,-11 -1,-2 -4,-4 -8,-5 -3,-2 -9,-2 -19,-2l-9 0 0 37 0 0z"/>
  <polygon id="_1" class="fil0" points="857,36 955,36 955,69 892,69 892,101 955,101 955,133 892,133 892,181 955,181 955,214 857,214 "/>
  <path id="_2" class="fil0" d="M1042 36l34 0 68 178 -35 0 -14 -37 -73 0 -15 37 -35 0 70 -178zm16 46l-23 63 48 0 -25 -63 0 0z"/>
  <polygon id="_3" class="fil0" points="1169,36 1203,36 1203,214 1169,214 "/>
  <path class="fil0" d="M717 329l32 0 0 16c6,-6 12,-12 19,-15 7,-3 14,-4 23,-4 9,0 16,3 22,6 7,4 13,10 16,19 6,-9 12,-15 21,-19 7,-3 16,-6 24,-6 9,0 18,3 25,7 7,5 12,10 16,16 3,8 5,19 5,35l0 78 -34 0 0 -68c0,-14 -1,-24 -6,-30 -3,-5 -9,-7 -16,-7 -6,0 -11,1 -16,4 -4,4 -9,9 -10,15 -3,4 -3,14 -3,26l0 60 -34 0 0 -65c0,-11 -1,-20 -2,-24 -2,-6 -5,-11 -8,-12 -4,-3 -9,-4 -13,-4 -6,0 -10,1 -14,4 -6,4 -9,9 -11,15 -3,5 -4,14 -4,27l0 59 -32 0 0 -133 0 0z"/>
  <path id="_1_0" class="fil0" d="M1048 329l34 0 0 133 -34 0 0 -15c-6,7 -12,12 -19,15 -6,1 -13,3 -20,3 -18,0 -32,-6 -46,-19 -13,-14 -19,-31 -19,-50 0,-20 6,-37 19,-50 12,-13 27,-20 44,-20 7,0 15,1 22,4 7,3 13,8 19,13l0 -14 0 0zm-35 28c-10,0 -18,4 -25,11 -7,6 -10,16 -10,28 0,10 3,20 10,28 7,7 16,11 26,11 11,0 19,-4 25,-11 8,-8 10,-16 10,-28 0,-12 -2,-22 -10,-29 -6,-8 -14,-10 -26,-10z"/>
  <path id="_2_1" class="fil0" d="M1115 329l34 0 0 14c7,-7 14,-11 20,-13 6,-3 12,-4 19,-4 13,0 23,4 34,14 7,8 11,19 11,34l0 88 -33 0 0 -59c0,-14 0,-26 -2,-30 -1,-6 -4,-9 -8,-12 -3,-3 -8,-4 -12,-4 -7,0 -13,2 -18,7 -5,4 -8,10 -10,17 -1,5 -1,13 -1,28l0 53 -34 0 0 -133 0 0z"/>
  <path id="_3_2" class="fil0" d="M1265 329l34 0 0 64c0,13 0,20 1,26 3,5 5,9 9,10 5,3 9,5 15,5 4,0 10,-2 13,-5 4,-1 7,-5 9,-10 1,-4 3,-13 3,-25l0 -65 32 0 0 57c0,23 -2,38 -5,46 -4,11 -11,19 -20,25 -9,5 -19,8 -34,8 -14,0 -26,-3 -35,-9 -8,-8 -14,-16 -19,-28 -3,-7 -3,-22 -3,-44l0 -55 0 0z"/>
  <path id="_4" class="fil0" d="M1512 329l34 0 0 133 -34 0 0 -15c-6,7 -13,12 -19,15 -7,1 -13,3 -22,3 -16,0 -32,-6 -44,-19 -13,-14 -19,-31 -19,-50 0,-20 6,-37 18,-50 13,-13 28,-20 45,-20 7,0 15,1 22,4 7,3 13,8 19,13l0 -14 0 0zm-35 28c-10,0 -19,4 -25,11 -7,6 -10,16 -10,28 0,10 3,20 10,28 7,7 15,11 25,11 12,0 20,-4 26,-11 7,-8 10,-16 10,-28 0,-12 -3,-22 -10,-29 -6,-8 -14,-10 -26,-10z"/>
  <polygon id="_5" class="fil0" points="1576,278 1608,278 1608,462 1576,462 "/>
  <path id="_6" class="fil0" d="M1709 278l33 0 0 65c6,-5 12,-10 19,-13 6,-3 14,-4 21,-4 13,0 23,4 32,14 9,8 12,19 12,34l0 88 -32 0 0 -59c0,-14 -2,-25 -3,-30 -2,-6 -3,-9 -8,-12 -3,-3 -7,-4 -13,-4 -6,0 -11,2 -17,7 -5,4 -8,10 -9,17 -2,5 -2,13 -2,28l0 53 -33 0 0 -184 0 0z"/>
  <path id="_7" class="fil0" d="M1990 405l-106 0c1,10 6,17 12,23 7,4 16,7 26,7 12,0 23,-4 32,-13l28 13c-8,11 -16,18 -25,22 -10,6 -22,8 -35,8 -21,0 -38,-6 -51,-19 -13,-14 -19,-30 -19,-50 0,-20 6,-37 19,-50 13,-13 29,-20 49,-20 21,0 38,7 52,20 13,13 18,31 18,53l0 6zm-33 -27c-2,-7 -6,-13 -13,-17 -6,-4 -13,-6 -22,-6 -9,0 -18,2 -25,7 -4,3 -7,9 -12,16l72 0 0 0z"/>
  <path id="_8" class="fil0" d="M2116 278l32 0 0 184 -32 0 0 -15c-7,7 -13,12 -20,15 -6,1 -14,3 -21,3 -17,0 -32,-6 -45,-19 -12,-14 -19,-31 -19,-50 0,-20 7,-37 19,-50 12,-13 26,-20 44,-20 8,0 16,1 22,4 7,3 14,8 20,13l0 -65 0 0zm-35 79c-10,0 -19,4 -26,11 -6,6 -11,16 -11,28 0,10 5,20 11,28 7,7 16,11 26,11 10,0 19,-4 26,-11 6,-8 10,-16 10,-28 0,-12 -4,-22 -10,-29 -7,-8 -16,-10 -26,-10z"/>
  <path id="_9" class="fil0" d="M2281 329l32 0 0 114c0,22 -4,39 -13,49 -12,15 -31,21 -56,21 -11,0 -23,-2 -32,-5 -9,-3 -16,-7 -22,-14 -7,-6 -11,-13 -14,-22l38 0c3,3 7,6 11,7 6,3 12,3 19,3 9,0 16,-1 21,-4 6,-2 10,-6 11,-11 3,-4 5,-11 5,-21 -6,5 -13,10 -19,11 -6,3 -13,5 -22,5 -18,0 -34,-6 -45,-19 -12,-14 -19,-30 -19,-49 0,-21 7,-37 20,-51 12,-11 26,-17 43,-17 7,0 14,1 21,4 6,3 14,8 21,15l0 -16 0 0zm-35 29c-10,0 -19,3 -26,10 -8,8 -11,16 -11,26 0,11 3,19 11,27 7,7 16,10 26,10 10,0 19,-3 26,-10 6,-6 10,-15 10,-27 0,-11 -4,-20 -10,-26 -7,-7 -16,-10 -26,-10z"/>
  <path id="_10" class="fil0" d="M2479 405l-106 0c1,10 6,17 11,23 8,4 16,7 27,7 11,0 23,-4 32,-13l27 13c-7,11 -16,18 -24,22 -11,6 -22,8 -35,8 -21,0 -38,-6 -51,-19 -14,-14 -19,-30 -19,-50 0,-20 5,-37 19,-50 13,-13 29,-20 49,-20 21,0 38,7 51,20 13,13 19,31 19,53l0 6zm-33 -27c-2,-7 -6,-13 -13,-17 -6,-4 -14,-6 -22,-6 -9,0 -18,2 -25,7 -5,3 -9,9 -12,16l72 0 0 0z"/>
  <g id="_2244265749200">
   <path class="fil0" d="M0 403l0 0 0 -3 0 -3 0 -3 2 -2 0 -5 1 -3 0 -3 2 -3 1 -1 2 -3 1 -3 2 -3 1 -3 3 -1 2 -3 1 -2 3 -2 1 -2 3 -1 3 -2 2 -3 3 -1 3 -2 2 0 3 -1 3 -2 3 0 3 -1 3 0 3 -2 4 0 3 0 0 37 -1 0 -2 0 -1 0 -2 1 -1 0 -2 0 0 0 -1 2 -1 0 -2 0 -1 1 0 0 -2 2 -1 0 0 1 -2 0 -1 2 0 1 -2 0 0 2 -1 1 0 2 -2 0 0 1 0 1 0 2 -1 1 0 2 0 0 0 1 0 2 0 1 0 0 -37 0 0 0zm63 63l0 0 -3 0 -4 0 -3 0 -3 -1 -3 0 -3 -2 -3 0 -3 -1 -2 -2 -3 -1 -3 -2 -2 -1 -3 -2 -3 -3 -1 -1 -3 -2 -1 -2 -2 -3 -3 -2 -1 -3 -2 -3 -1 -1 -2 -3 -1 -3 -2 -3 0 -3 -1 -3 0 -3 -2 -3 0 -2 0 -5 0 -3 37 0 0 2 0 1 0 2 0 1 0 2 1 1 0 0 0 1 0 2 2 1 0 0 1 2 0 1 2 2 0 0 1 1 2 0 0 2 1 1 2 0 0 2 1 0 2 0 1 1 1 0 0 0 2 1 1 0 2 0 1 0 2 0 1 0 0 0 0 37 0 0zm63 -63l0 0 0 3 -2 5 0 2 0 3 -1 3 0 3 -1 3 -2 3 -1 3 -2 3 -1 1 -2 3 -1 3 -2 2 -1 3 -3 2 -1 2 -3 1 -3 3 -2 2 -3 1 -3 2 -3 1 -2 2 -3 1 -3 0 -3 2 -3 0 -3 1 -3 0 -3 0 -3 0 0 -37 2 0 1 0 0 0 2 0 1 0 2 -1 1 0 1 0 2 -1 0 0 1 0 2 -2 0 0 1 -1 2 -2 0 0 1 -1 2 0 0 -2 1 -1 0 -2 2 0 0 -1 0 -2 1 -1 0 0 0 -1 0 -2 1 -1 0 -2 0 -1 0 -2 0 0 37 0 0 0zm-63 -63l0 0 3 0 3 0 3 2 3 0 3 1 3 0 3 2 3 1 2 0 3 2 3 1 3 3 2 2 3 1 3 2 1 2 3 2 1 3 2 1 1 3 2 3 1 3 2 3 1 1 2 3 1 3 0 3 2 5 0 2 0 3 1 3 0 3 -37 0 0 -1 0 -2 0 -1 -1 0 0 -2 0 -1 0 -2 -1 -1 0 -1 0 0 -2 -2 0 -1 -1 -2 0 0 -2 -1 -1 -2 0 0 -2 -1 -1 0 0 -2 -2 0 -1 -1 0 0 -2 0 -1 -2 -1 0 -2 0 -1 0 -2 -1 0 0 -1 0 -2 0 0 0 0 -36 0 -1z"/>
  </g>
  <g id="_2244265747600">
   <polygon class="fil0" points="467,111 0,111 0,76 467,76 "/>
  </g>
  <g id="_2244265747472">
   <path class="fil0" d="M568 95l-36 0 0 0 0 0 0 -1 0 -2 0 -1 0 -1 -2 -2 0 -1 0 -2 -1 0 0 -1 0 -2 -2 -1 0 0 -1 -2 0 -1 -2 0 -1 -2 0 0 -2 -1 -1 0 0 -1 -2 0 -1 -2 -2 0 -1 0 0 -1 -1 0 -2 0 -1 0 -2 0 -1 -2 -2 0 0 -36 3 1 5 0 2 0 3 0 3 2 3 0 3 1 3 1 3 2 3 1 3 2 1 1 3 2 3 1 2 3 3 2 1 3 1 1 3 3 2 1 1 3 2 3 1 3 2 3 1 3 0 3 2 3 0 3 1 3 0 3 0 2 0 3 0 0 0 0zm-63 63l0 -36 0 0 2 0 1 0 2 0 1 0 2 0 1 0 0 -2 1 0 2 0 1 -1 2 0 0 -2 1 0 2 -1 0 0 1 -2 2 0 0 -1 1 -2 0 -1 2 0 0 -1 0 -2 1 -1 0 0 0 -2 2 -1 0 -2 0 -1 0 -2 0 -1 0 -2 36 0 0 5 0 3 0 3 -1 3 0 2 -2 3 0 3 -1 3 -2 3 -1 3 -2 3 -1 1 -2 3 -3 3 -1 2 -1 3 -3 1 -2 3 -3 1 -3 2 -1 1 -3 2 -3 1 -3 2 -3 1 -3 0 -3 2 -3 1 -3 0 -2 0 -5 0 -3 0 0 0 0 0zm-62 -63l36 0 0 0 0 2 0 1 0 2 1 1 0 2 0 1 0 2 2 0 0 1 0 2 1 1 0 0 2 1 0 2 1 1 2 0 0 2 1 0 0 1 2 0 1 2 2 0 0 1 1 0 2 0 1 2 1 0 2 0 0 0 1 0 2 0 1 0 0 36 -3 0 -3 0 -2 0 -3 0 -3 -1 -5 -2 -3 0 -1 -1 -3 -2 -3 -1 -3 -2 -3 -1 -1 -2 -3 -1 -3 -3 -1 -1 -3 -3 -2 -2 -1 -3 -2 -3 -1 -1 -3 -3 0 -3 -2 -3 -1 -3 -2 -3 0 -3 -1 -2 0 -3 0 -3 -1 -3 0 -5 0 0 0 0zm62 -62l0 36 0 0 -1 0 -2 2 -1 0 0 0 -2 0 -1 0 -1 1 -2 0 -1 0 0 2 -2 0 -1 1 -2 0 0 1 -1 0 0 2 -2 0 -1 1 0 2 -2 0 0 1 -1 2 0 1 0 0 -2 2 0 1 0 2 0 1 -1 1 0 2 0 1 0 0 -36 0 0 -3 1 -2 0 -3 0 -3 1 -3 0 -3 2 -3 1 -3 2 -3 0 -3 3 -3 1 -3 2 -1 1 -3 2 -1 3 -3 1 -2 3 -3 3 -1 1 -2 3 -1 3 -2 3 -1 3 -2 1 -1 3 -1 5 0 3 -2 3 0 2 0 3 0 3 -1 0 0 0 0z"/>
  </g>
  <g id="_2244265746544">
   <polygon class="fil0" points="178,497 178,462 390,462 390,497 "/>
  </g>
  <g id="_2244265745552">
   <polygon class="fil0" points="178,36 178,1 390,1 390,36 "/>
  </g>
 </g>
</svg>
