<?xml version="1.0" encoding="UTF-8"?>
<!DOCTYPE svg PUBLIC "-//W3C//DTD SVG 1.0//EN" "http://www.w3.org/TR/2001/REC-SVG-20010904/DTD/svg10.dtd">
<!-- Creator: CorelDRAW X8 -->
<svg xmlns="http://www.w3.org/2000/svg" xml:space="preserve" width="2480px" height="3508px" version="1.0" style="shape-rendering:geometricPrecision; text-rendering:geometricPrecision; image-rendering:optimizeQuality; fill-rule:evenodd; clip-rule:evenodd"
viewBox="0 0 2480 3507"
 xmlns:xlink="http://www.w3.org/1999/xlink">
 <defs>
  <style type="text/css">
   <![CDATA[
    .fil0 {fill:#4DA761;fill-rule:nonzero}
   ]]>
  </style>
 </defs>
 <g id="Слой_x0020_1">
  <metadata id="CorelCorpID_0Corel-Layer"/>
  <g id="_2244171924640">
   <g>
    <polygon class="fil0" points="104,1916 104,1881 570,1881 570,1916 "/>
   </g>
   <path class="fil0" d="M717 1533l35 0c20,0 35,2 42,5 9,4 16,10 20,19 6,7 9,17 9,27 0,13 -3,22 -9,31 -5,7 -14,13 -26,17l42 79 -36 0 -41 -74 -3 0 0 74 -33 0 0 -178 0 0zm33 70l11 0c11,0 18,-1 23,-4 4,-3 6,-8 6,-15 0,-4 -2,-7 -3,-10 -2,-3 -5,-4 -9,-6 -3,-1 -9,-1 -19,-1l-9 0 0 36 0 0z"/>
   <polygon id="_1" class="fil0" points="858,1533 956,1533 956,1567 893,1567 893,1599 956,1599 956,1631 893,1631 893,1679 956,1679 956,1711 858,1711 "/>
   <path id="_2" class="fil0" d="M1043 1533l33 0 69 178 -35 0 -15 -37 -73 0 -14 37 -35 0 70 -178zm16 47l-23 62 48 0 -25 -62 0 0z"/>
   <polygon id="_3" class="fil0" points="1169,1533 1203,1533 1203,1711 1169,1711 "/>
   <path class="fil0" d="M718 1826l32 0 0 16c6,-6 12,-12 19,-15 8,-3 15,-4 24,-4 8,0 16,3 21,6 8,4 14,10 16,19 6,-9 12,-15 21,-19 7,-3 16,-6 25,-6 8,0 17,3 24,7 8,4 12,10 16,16 3,7 5,19 5,35l0 77 -34 0 0 -67c0,-14 -1,-25 -6,-30 -3,-5 -8,-8 -16,-8 -5,0 -11,2 -16,5 -4,4 -8,8 -10,14 -3,5 -3,15 -3,26l0 60 -33 0 0 -64c0,-12 -2,-20 -3,-25 -2,-5 -4,-10 -7,-11 -5,-3 -9,-5 -14,-5 -5,0 -10,2 -14,5 -6,4 -9,8 -10,14 -3,6 -5,15 -5,28l0 58 -32 0 0 -132 0 0z"/>
   <path id="_1_0" class="fil0" d="M1049 1826l33 0 0 132 -33 0 0 -14c-6,7 -12,11 -19,14 -6,2 -13,3 -21,3 -17,0 -32,-6 -45,-19 -13,-13 -19,-30 -19,-49 0,-21 6,-37 19,-50 12,-13 26,-20 44,-20 7,0 14,1 22,4 7,3 13,7 19,13l0 -14 0 0zm-35 27c-10,0 -18,5 -25,12 -7,6 -10,16 -10,28 0,10 3,20 10,27 7,8 16,12 26,12 10,0 19,-4 25,-12 7,-7 10,-16 10,-27 0,-12 -3,-22 -10,-29 -6,-8 -15,-11 -26,-11z"/>
   <path id="_2_1" class="fil0" d="M1116 1826l33 0 0 14c7,-7 15,-11 20,-13 6,-3 12,-4 19,-4 13,0 24,4 34,14 7,8 11,19 11,34l0 87 -33 0 0 -58c0,-15 0,-26 -1,-31 -2,-5 -5,-8 -9,-11 -3,-3 -7,-5 -12,-5 -7,0 -13,3 -17,8 -6,4 -9,10 -10,17 -2,4 -2,13 -2,28l0 52 -33 0 0 -132 0 0z"/>
   <path id="_3_2" class="fil0" d="M1265 1826l34 0 0 64c0,13 0,20 1,26 3,4 5,9 9,10 4,3 9,4 15,4 4,0 10,-1 13,-4 4,-1 7,-6 8,-10 2,-4 3,-13 3,-25l0 -65 32 0 0 56c0,24 -1,38 -4,47 -4,10 -12,19 -20,25 -9,4 -19,7 -34,7 -14,0 -26,-3 -35,-9 -8,-7 -14,-16 -19,-27 -3,-8 -3,-22 -3,-44l0 -55 0 0z"/>
   <path id="_4" class="fil0" d="M1511 1826l34 0 0 132 -34 0 0 -14c-5,7 -13,11 -19,14 -7,2 -13,3 -21,3 -16,0 -32,-6 -44,-19 -13,-13 -19,-30 -19,-49 0,-21 6,-37 18,-50 13,-13 27,-20 45,-20 7,0 14,1 21,4 8,3 14,7 19,13l0 -14 0 0zm-35 27c-10,0 -18,5 -24,12 -8,6 -10,16 -10,28 0,10 2,20 10,27 7,8 14,12 24,12 12,0 21,-4 27,-12 7,-7 10,-16 10,-27 0,-12 -3,-22 -10,-29 -6,-8 -15,-11 -27,-11z"/>
   <polygon id="_5" class="fil0" points="1575,1775 1607,1775 1607,1958 1575,1958 "/>
   <path id="_6" class="fil0" d="M1708 1775l33 0 0 65c6,-6 12,-10 19,-13 6,-3 13,-4 21,-4 13,0 23,4 32,14 8,8 11,19 11,34l0 87 -32 0 0 -58c0,-15 -1,-25 -3,-31 -1,-5 -3,-8 -7,-11 -3,-3 -7,-5 -13,-5 -6,0 -12,3 -18,8 -4,4 -7,10 -8,17 -2,4 -2,13 -2,28l0 52 -33 0 0 -183 0 0z"/>
   <path id="_7" class="fil0" d="M1989 1901l-107 0c2,11 6,18 12,24 7,4 16,7 26,7 12,0 23,-4 32,-13l28 13c-7,10 -16,17 -25,22 -10,6 -22,7 -35,7 -20,0 -38,-6 -51,-19 -13,-13 -19,-29 -19,-49 0,-21 6,-37 19,-50 13,-13 29,-20 50,-20 20,0 38,7 51,20 13,13 19,31 19,53l0 5zm-34 -26c-1,-7 -6,-13 -13,-17 -6,-5 -13,-6 -22,-6 -9,0 -17,1 -25,7 -4,3 -7,9 -11,16l71 0 0 0z"/>
   <path id="_8" class="fil0" d="M2114 1775l32 0 0 183 -32 0 0 -14c-8,7 -13,11 -21,14 -5,2 -13,3 -20,3 -17,0 -32,-6 -45,-19 -12,-13 -19,-30 -19,-49 0,-21 7,-37 19,-50 12,-13 26,-20 44,-20 8,0 16,1 21,4 8,3 15,7 21,13l0 -65 0 0zm-35 78c-10,0 -19,5 -26,12 -6,6 -11,16 -11,28 0,10 5,20 11,27 7,8 16,12 26,12 10,0 19,-4 26,-12 6,-7 10,-16 10,-27 0,-12 -4,-22 -10,-29 -7,-8 -16,-11 -26,-11z"/>
   <path id="_9" class="fil0" d="M2278 1826l32 0 0 113c0,22 -4,40 -13,50 -12,14 -31,20 -55,20 -12,0 -24,-1 -32,-4 -9,-3 -16,-8 -22,-15 -7,-6 -12,-13 -15,-22l38 0c3,3 7,6 12,8 6,3 11,3 19,3 8,0 16,-2 20,-5 6,-1 10,-6 12,-10 3,-4 4,-12 4,-22 -6,6 -13,10 -19,12 -6,3 -13,4 -22,4 -17,0 -33,-6 -45,-19 -11,-13 -19,-29 -19,-48 0,-22 8,-38 21,-51 11,-11 26,-17 42,-17 7,0 14,1 22,4 6,3 13,7 20,15l0 -16 0 0zm-35 29c-10,0 -19,3 -26,10 -7,7 -10,16 -10,26 0,10 3,19 10,26 7,8 16,11 26,11 10,0 19,-3 26,-11 6,-5 11,-14 11,-26 0,-11 -5,-20 -11,-26 -7,-7 -16,-10 -26,-10z"/>
   <path id="_10" class="fil0" d="M2476 1901l-106 0c1,11 6,18 11,24 8,4 16,7 27,7 11,0 23,-4 32,-13l27 13c-7,10 -16,17 -24,22 -11,6 -22,7 -35,7 -21,0 -38,-6 -51,-19 -13,-13 -19,-29 -19,-49 0,-21 6,-37 19,-50 13,-13 29,-20 49,-20 21,0 38,7 51,20 13,13 19,31 19,53l0 5zm-33 -26c-2,-7 -6,-13 -14,-17 -5,-5 -13,-6 -21,-6 -9,0 -18,1 -25,7 -4,3 -9,9 -12,16l72 0 0 0z"/>
   <g>
    <path class="fil0" d="M4 1900l0 0 0 -3 0 -3 0 -3 1 -3 0 -4 2 -3 0 -3 1 -3 2 -1 1 -3 2 -3 1 -3 2 -3 3 -1 1 -3 1 -2 3 -3 2 -1 3 -2 3 -1 1 -3 3 -1 3 -2 3 0 3 -1 3 -2 3 0 2 -1 3 0 3 -2 5 0 3 0 0 37 -2 0 -1 0 -2 0 -1 1 -2 0 -1 0 0 0 -2 2 -1 0 -2 0 -1 1 0 0 -1 2 -2 0 0 1 -1 0 -2 1 0 2 -1 0 0 1 -2 2 0 1 -1 0 0 2 0 1 0 2 -2 1 0 2 0 0 0 1 0 1 0 2 0 0 -36 0 0 0zm63 63l0 0 -3 0 -5 0 -3 0 -3 -2 -2 0 -3 -1 -3 0 -3 -2 -3 -1 -3 -2 -3 -1 -1 -2 -3 -1 -3 -3 -2 -2 -3 -1 -1 -3 -1 -3 -3 -1 -2 -3 -1 -3 -2 -2 -1 -2 -2 -3 -1 -3 0 -3 -2 -3 0 -3 -1 -3 0 -3 0 -4 0 -3 36 0 0 1 0 2 0 1 0 2 0 1 2 2 0 0 0 1 0 2 1 1 0 0 2 1 0 2 1 1 0 0 2 2 1 0 0 1 2 2 1 0 0 1 1 0 2 0 1 2 2 0 0 0 1 1 2 0 1 0 2 0 1 0 2 0 0 0 0 37 0 0zm62 -63l0 0 0 3 -1 4 0 3 0 3 -2 3 0 3 -1 3 -2 3 -1 3 -2 2 -1 2 -2 3 -1 3 -1 1 -2 3 -3 3 -1 2 -3 1 -3 3 -2 1 -2 2 -3 1 -3 2 -3 1 -3 2 -3 0 -3 1 -3 0 -3 2 -3 0 -3 0 -2 0 0 -37 1 0 1 0 0 0 2 0 1 0 2 -1 1 0 2 0 1 -2 0 0 2 0 1 -1 0 0 2 -2 1 -1 0 0 1 -2 2 0 0 -1 1 -2 0 -1 2 0 0 -1 0 -2 1 -1 0 0 0 -2 0 -1 2 -2 0 -1 0 -2 0 -1 0 0 36 0 0 0zm-62 -63l0 0 2 0 3 0 3 2 3 0 3 1 3 0 3 2 3 1 3 0 3 2 3 1 2 3 2 1 3 2 3 1 1 3 3 2 2 3 1 1 1 3 2 3 1 3 2 3 1 1 2 3 1 3 0 3 2 4 0 3 0 3 1 3 0 3 -36 0 0 -2 0 -1 0 -1 -2 0 0 -2 0 -1 0 -2 -1 -1 0 -2 0 0 -2 -1 0 -2 -1 -1 0 0 -2 -2 -1 -1 0 0 -1 -1 -2 0 0 -2 -1 0 -2 -1 0 0 -1 0 -2 -2 -1 0 -2 0 -1 0 -2 -1 0 0 -1 0 -1 0 0 0 0 -37 0 0z"/>
   </g>
   <g>
    <polygon class="fil0" points="470,1609 4,1609 4,1574 470,1574 "/>
   </g>
   <g>
    <path class="fil0" d="M570 1593l-36 0 0 0 0 0 0 -2 0 -1 0 -1 0 -2 -2 -1 0 -2 0 -1 -1 0 0 -2 0 -1 -2 -2 0 0 -1 -1 0 -2 -2 0 -1 -1 0 0 -2 -1 -1 0 0 -2 -1 0 -2 -1 -1 0 -2 0 0 -2 -1 0 -2 0 -1 0 -2 0 -1 -1 -2 0 0 -37 3 2 5 0 3 0 3 0 2 1 3 0 3 2 3 1 3 2 3 1 3 2 1 1 3 1 3 2 2 3 3 1 1 3 1 2 3 3 2 1 1 3 2 3 1 3 2 3 1 3 0 2 2 3 0 3 1 3 0 3 0 3 0 3 0 0 0 0zm-63 63l0 -37 0 0 2 0 1 0 2 0 1 0 2 0 1 0 0 -1 2 0 1 0 2 -2 1 0 0 -1 1 0 2 -2 0 0 1 -1 2 0 0 -2 1 -1 0 -2 2 0 0 -1 0 -1 1 -2 0 0 0 -1 2 -2 0 -1 0 -2 0 -1 0 -2 0 -1 36 0 0 4 0 3 0 3 -1 3 0 3 -2 3 0 3 -1 3 -2 3 -1 2 -2 3 -1 2 -2 3 -3 3 -1 1 -1 3 -3 1 -2 3 -3 2 -3 1 -1 2 -3 1 -3 2 -3 1 -3 2 -3 0 -3 1 -2 2 -3 0 -3 0 -5 0 -3 0 0 0 0 0zm-62 -63l36 0 0 0 0 1 0 2 0 1 2 2 0 1 0 2 0 1 1 0 0 2 0 1 2 1 0 0 1 2 0 1 2 2 1 0 0 1 1 0 0 2 2 0 1 1 2 0 0 2 1 0 2 0 1 1 2 0 1 0 0 0 2 0 1 0 1 0 0 37 -2 0 -3 0 -3 0 -3 0 -3 -2 -4 -1 -3 0 -2 -2 -3 -1 -3 -2 -3 -1 -3 -2 -1 -1 -3 -2 -3 -3 -1 -1 -3 -3 -2 -1 -1 -3 -2 -3 -1 -2 -3 -3 0 -2 -1 -3 -2 -3 -1 -3 0 -3 -2 -3 0 -3 0 -3 -1 -3 0 -4 0 0 0 0zm62 -63l0 37 0 0 -1 0 -1 1 -2 0 0 0 -1 0 -2 0 -1 2 -2 0 -1 0 0 1 -2 0 -1 2 -2 0 0 1 -1 0 0 1 -2 0 -1 2 0 1 -1 0 0 2 -2 1 0 2 0 0 -1 1 0 2 0 1 0 2 -2 1 0 1 0 2 0 0 -36 0 0 -3 1 -3 0 -3 0 -3 2 -3 0 -3 1 -2 2 -3 1 -3 0 -3 3 -3 1 -3 2 -1 1 -3 2 -2 3 -3 1 -1 3 -3 3 -2 1 -1 3 -1 3 -2 3 -1 3 -2 2 -1 3 -2 4 0 3 -1 3 0 3 0 3 0 2 -2 0 0 0 0z"/>
   </g>
   <g>
    <polygon class="fil0" points="181,1993 181,1958 392,1958 392,1993 "/>
   </g>
   <g>
    <polygon class="fil0" points="181,1533 181,1498 392,1498 392,1533 "/>
   </g>
  </g>
 </g>
</svg>
