<?xml version="1.0" encoding="UTF-8"?>
<!DOCTYPE svg PUBLIC "-//W3C//DTD SVG 1.0//EN" "http://www.w3.org/TR/2001/REC-SVG-20010904/DTD/svg10.dtd">
<!-- Creator: CorelDRAW X8 -->
<svg xmlns="http://www.w3.org/2000/svg" xml:space="preserve" width="2480px" height="3508px" version="1.0" style="shape-rendering:geometricPrecision; text-rendering:geometricPrecision; image-rendering:optimizeQuality; fill-rule:evenodd; clip-rule:evenodd"
viewBox="0 0 2480 3507"
 xmlns:xlink="http://www.w3.org/1999/xlink">
 <defs>
  <style type="text/css">
   <![CDATA[
    .str0 {stroke:#3DC4BD;stroke-width:40.3248}
    .fil1 {fill:none;fill-rule:nonzero}
    .fil0 {fill:#3DC4BD;fill-rule:nonzero}
   ]]>
  </style>
 </defs>
 <g id="Слой_x0020_1">
  <metadata id="CorelCorpID_0Corel-Layer"/>
  <g id="_2280544100704">
   <path class="fil0" d="M1019 1507l42 0c24,0 39,1 49,6 10,4 18,11 23,21 7,8 9,20 9,33 0,14 -4,25 -9,34 -6,8 -16,17 -30,20l49 92 -42 0 -47 -87 -4 0 0 87 -40 0 0 -206zm40 80l12 0c14,0 22,-1 27,-5 3,-3 7,-8 7,-16 0,-4 -2,-9 -4,-12 -3,-4 -6,-5 -10,-7 -3,-2 -11,-2 -22,-2l-10 0 0 42 0 0z"/>
   <polygon id="_1" class="fil0" points="1184,1507 1296,1507 1296,1545 1222,1545 1222,1582 1296,1582 1296,1621 1222,1621 1222,1675 1296,1675 1296,1713 1184,1713 "/>
   <path id="_2" class="fil0" d="M1395 1507l41 0 79 206 -41 0 -16 -42 -84 0 -17 42 -41 0 79 -206zm21 55l-29 71 57 0 -28 -71z"/>
   <polygon id="_3" class="fil0" points="1542,1507 1582,1507 1582,1713 1542,1713 "/>
   <polygon class="fil0" points="1017,1787 1056,1787 1056,1997 1017,1997 "/>
   <path id="_1_0" class="fil0" d="M1162 1843c15,0 28,3 40,10 14,7 24,17 30,28 7,14 11,27 11,41 0,15 -4,28 -11,40 -6,12 -16,22 -30,29 -12,8 -25,11 -40,11 -22,0 -40,-8 -56,-23 -15,-15 -23,-35 -23,-57 0,-24 8,-44 27,-59 15,-14 32,-20 52,-20l0 0zm0 35c-12,0 -22,3 -29,12 -8,8 -11,18 -11,32 0,13 3,23 11,32 7,8 17,13 29,13 12,0 22,-5 30,-13 9,-9 12,-19 12,-32 0,-14 -3,-24 -12,-32 -7,-9 -17,-12 -30,-12z"/>
   <path id="_2_1" class="fil0" d="M1424 1876l-32 19c-7,-7 -12,-12 -18,-14 -5,-3 -12,-3 -21,-3 -15,0 -26,3 -35,12 -8,8 -13,20 -13,33 0,12 5,24 13,32 9,7 20,12 34,12 17,0 30,-7 40,-18l30 21c-17,21 -40,32 -70,32 -27,0 -47,-8 -62,-23 -16,-17 -24,-35 -24,-57 0,-14 5,-27 12,-41 7,-11 17,-21 30,-28 13,-7 29,-10 45,-10 16,0 29,1 41,8 11,7 22,15 30,25l0 0z"/>
   <polygon id="_3_2" class="fil0" points="1458,1787 1496,1787 1496,1908 1553,1846 1600,1846 1535,1918 1609,1997 1562,1997 1496,1928 1496,1997 1458,1997 "/>
   <path id="_4" class="fil0" d="M1817 1787l39 0 0 210 -39 0 0 -15c-7,7 -15,12 -22,15 -8,4 -17,5 -25,5 -20,0 -37,-8 -50,-23 -15,-15 -22,-34 -22,-57 0,-24 7,-42 20,-57 15,-16 32,-22 52,-22 8,0 17,1 25,5 9,3 15,8 22,15l0 -76 0 0zm-40 89c-12,0 -22,5 -29,14 -8,8 -12,18 -12,32 0,13 4,23 12,32 7,8 17,13 29,13 12,0 22,-5 30,-13 8,-9 12,-19 12,-32 0,-14 -4,-24 -12,-32 -8,-9 -18,-14 -30,-14z"/>
   <path id="_5" class="fil0" d="M1884 1846l34 0 0 19c3,-7 8,-14 15,-17 5,-4 12,-5 19,-5 5,0 10,0 15,3l-12 34c-5,-4 -8,-4 -10,-4 -7,0 -12,4 -15,10 -5,7 -7,22 -7,42l0 9 0 60 -39 0 0 -151 0 0z"/>
   <path id="_6" class="fil0" d="M2000 1784c7,0 14,2 19,7 5,5 6,10 6,16 0,7 -1,14 -6,19 -5,3 -10,7 -17,7 -7,0 -13,-4 -19,-7 -5,-5 -6,-12 -6,-19 0,-6 1,-11 6,-16 6,-5 11,-7 17,-7zm-18 62l38 0 0 151 -38 0 0 -151z"/>
   <polygon id="_7" class="fil0" points="2039,1846 2078,1846 2116,1935 2155,1846 2194,1846 2128,1997 2103,1997 "/>
   <path id="_8" class="fil0" d="M2368 1933l-122 0c1,11 6,19 13,26 8,6 19,10 30,10 14,0 25,-5 37,-15l32 15c-8,12 -18,20 -30,25 -10,5 -24,8 -39,8 -23,0 -43,-8 -59,-23 -15,-15 -21,-34 -21,-56 0,-23 6,-43 21,-58 16,-16 34,-22 58,-22 23,0 43,6 58,22 14,15 22,35 22,60l0 8zm-38 -30c-2,-8 -7,-15 -16,-20 -6,-5 -15,-8 -25,-8 -10,0 -20,3 -28,8 -5,3 -10,10 -14,20l83 0 0 0z"/>
   <path id="_9" class="fil0" d="M2390 1846l34 0 0 19c3,-7 8,-14 13,-17 7,-4 12,-5 20,-5 4,0 10,0 15,3l-11 34c-5,-4 -9,-4 -12,-4 -5,0 -10,4 -15,10 -4,7 -5,22 -5,42l0 9 0 60 -39 0 0 -151z"/>
   <g>
    <polygon class="fil0" points="483,1602 443,1602 443,1465 483,1465 "/>
   </g>
   <g>
    <polygon class="fil0" points="483,2041 443,2041 443,1905 483,1905 "/>
   </g>
   <rect class="fil1 str0" x="414" y="1602" width="95.7705" height="302.432"/>
   <g>
    <polygon class="fil0" points="127,2002 394,2002 394,2043 127,2043 "/>
   </g>
   <g>
    <path class="fil0" d="M8 2024l40 0 0 0 2 2 0 2 0 0 0 1 0 2 0 2 1 1 0 2 0 2 2 0 0 1 2 2 0 0 1 2 0 1 2 0 0 2 2 2 1 0 0 1 2 0 2 2 1 0 0 0 2 2 2 0 1 0 2 0 2 1 1 0 2 0 0 0 0 42 -3 0 -4 -1 -3 0 -3 0 -4 -2 -3 0 -3 -2 -4 -1 -3 -2 -3 -2 -4 -1 -3 -2 -2 -2 -3 -1 -2 -2 -3 -3 -2 -2 -3 -3 -2 -4 -2 -1 -1 -4 -2 -3 -2 -4 -1 -3 -2 -3 -2 -4 0 -3 -1 -3 0 -4 0 -3 0 -3 0 -4 0 0 0 0zm70 -72l0 42 0 0 0 0 -2 0 -1 0 -2 0 -2 0 -1 2 -2 0 -2 0 0 0 -1 1 -2 0 -2 2 0 0 -1 2 -2 0 0 1 -2 2 0 0 -1 2 0 1 -2 0 0 2 -2 2 0 1 0 2 -1 0 0 2 0 2 0 1 0 2 0 2 -2 1 -40 0 0 -3 0 -5 0 -4 0 -3 1 -3 0 -4 2 -3 2 -3 1 -4 2 -3 2 -3 1 -2 2 -3 2 -4 3 -2 2 -3 3 -2 2 -1 3 -4 2 -1 3 -2 4 -2 3 -1 3 -2 4 -2 3 0 3 -1 4 0 3 -2 3 0 4 0 3 0 0 0 0 0zm72 72l-42 0 0 0 0 -1 0 -2 0 -2 0 -1 0 -2 0 -2 -1 0 0 -2 0 -1 -2 -2 0 -2 -2 0 0 -1 -1 -2 0 0 -2 -2 0 -1 -2 0 -1 -2 0 0 -2 -2 -2 0 -1 -1 -2 0 0 0 -2 0 -1 -2 -2 0 -2 0 -1 0 -2 0 -2 0 0 -42 5 0 4 0 3 0 3 2 4 0 3 1 3 0 4 2 3 2 3 1 4 2 3 2 2 1 3 4 2 1 3 2 2 3 3 2 2 4 2 3 1 2 2 3 2 3 1 4 2 3 2 3 0 4 1 3 0 3 0 4 0 5 0 3 0 0 0 0zm-72 72l0 -42 0 0 2 0 2 0 1 0 2 -1 2 0 1 0 2 0 0 -2 2 0 1 0 2 -2 2 0 0 -1 1 0 2 -2 0 -2 2 0 0 -1 1 -2 0 0 2 -2 0 -1 2 0 0 -2 0 -2 1 -1 0 -2 0 -2 0 -1 0 0 0 -2 0 -2 42 0 0 4 0 3 0 3 0 4 -1 3 0 3 -2 4 -2 3 -1 3 -2 4 -2 3 -1 4 -2 1 -2 4 -3 3 -2 2 -3 3 -2 2 -3 1 -2 2 -3 2 -4 1 -3 2 -3 2 -4 1 -3 2 -3 0 -4 2 -3 0 -3 0 -4 1 -5 0 0 0 0 0z"/>
   </g>
   <g>
    <polygon class="fil0" points="315,1925 315,1965 204,1965 204,1925 "/>
   </g>
   <g>
    <polygon class="fil0" points="797,1505 530,1505 530,1465 797,1465 "/>
   </g>
   <g>
    <path class="fil0" d="M917 1483l-42 0 0 0 0 -1 0 -2 0 -2 0 -2 0 -1 0 -2 -2 0 0 -2 0 -1 -2 -2 0 -2 -1 0 0 -1 -2 -2 0 0 -2 -2 0 -1 -2 0 -1 -2 0 0 -2 -2 -2 0 -1 0 0 -1 -2 0 -2 0 -1 -2 -2 0 -2 0 -1 0 -2 0 0 0 0 -42 3 0 4 0 3 0 3 2 4 0 3 1 4 0 3 2 3 2 4 1 3 2 3 2 2 1 3 4 2 1 3 2 2 3 3 2 2 4 2 3 1 3 2 2 2 3 2 4 1 3 2 3 0 4 2 3 0 3 0 4 0 5 0 3 0 0 0 0zm-71 72l0 -42 0 0 0 0 2 0 1 0 2 -1 2 0 1 0 2 0 2 -2 0 0 1 0 2 -2 2 0 0 -1 1 0 2 -2 0 0 2 -2 0 -1 2 0 0 -2 1 -2 0 -1 2 0 0 -2 0 -2 2 -1 0 -2 0 -2 0 0 0 -1 0 -2 0 -2 42 0 0 4 0 3 0 3 0 4 -2 5 0 3 -2 3 -1 4 -2 1 -2 4 -2 3 -1 4 -2 3 -2 2 -3 3 -2 2 -3 3 -2 2 -3 1 -2 2 -3 3 -3 2 -4 2 -3 0 -3 1 -4 2 -3 0 -4 2 -3 0 -3 1 -4 0 -3 0 0 0 0 0zm-72 -72l42 0 0 0 0 2 0 2 0 1 0 0 0 2 0 2 1 1 0 2 0 2 2 0 0 1 2 2 0 2 1 0 0 1 2 2 0 0 2 2 2 0 0 1 1 0 2 2 2 0 1 0 0 2 2 0 2 0 1 0 2 1 2 0 1 0 2 0 0 42 -5 0 -3 0 -4 -1 -3 0 -3 -2 -4 0 -3 -2 -4 -1 -3 0 -3 -2 -4 -2 -3 -3 -2 -2 -3 -1 -2 -2 -3 -3 -2 -2 -3 -3 -2 -2 -1 -3 -2 -4 -2 -3 -2 -4 -1 -1 -2 -4 -2 -3 0 -3 -1 -5 0 -4 0 -3 0 -3 0 -4 0 0 0 0zm72 -72l0 42 0 0 -2 0 -1 0 -2 0 -2 0 -1 0 -2 2 -2 0 0 0 -1 1 -2 0 -2 0 -1 2 0 0 -2 2 -2 0 0 1 -2 2 0 0 -1 2 0 1 -2 0 0 2 -2 2 0 1 0 2 -1 0 0 2 0 1 0 2 0 2 0 2 0 1 -42 0 0 -3 0 -5 0 -4 0 -3 1 -3 0 -4 2 -3 2 -3 1 -4 2 -3 2 -2 2 -3 1 -3 2 -4 3 -2 2 -3 3 -2 2 -1 3 -4 2 -1 3 -2 4 -2 3 -1 3 -2 4 -2 3 0 4 -1 3 0 3 -2 4 0 3 0 5 0 0 0 0 0z"/>
   </g>
   <g>
    <polygon class="fil0" points="609,1582 609,1542 720,1542 720,1582 "/>
   </g>
  </g>
 </g>
</svg>
