<?xml version="1.0" standalone="no"?><!-- Generator: Gravit.io --><svg xmlns="http://www.w3.org/2000/svg" xmlns:xlink="http://www.w3.org/1999/xlink" style="isolation:isolate" viewBox="0 0 320.5 150" width="320.5" height="150"><defs><clipPath id="_clipPath_W7Juswr8yYXN6MDMM7E6Rp6MYBuU0Lyy"><rect width="320.5" height="150"/></clipPath></defs><g clip-path="url(#_clipPath_W7Juswr8yYXN6MDMM7E6Rp6MYBuU0Lyy)"><clipPath id="_clipPath_APHeDQjR3Zk7OxBl3GvjRfPFdQuURgV2"><rect x="0" y="0" width="320.5" height="150" transform="matrix(1,0,0,1,0,0)" fill="rgb(255,255,255)"/></clipPath><g clip-path="url(#_clipPath_APHeDQjR3Zk7OxBl3GvjRfPFdQuURgV2)"><g><g><g><g><g><path d=" M 82 59 C 77 59 73 55 73 50 C 73 45 77 41 82 41 C 87 41 91 45 91 50 C 91 55 86.9 59 82 59 Z  M 82 46 C 79.8 46 78 47.8 78 50 C 78 52.2 79.8 54 82 54 C 84.2 54 86 52.2 86 50 C 86 47.8 84.2 46 82 46 Z " fill="rgb(174,74,132)"/></g><g><rect x="23" y="48" width="54.2" height="5" transform="matrix(1,0,0,1,0,0)" fill="rgb(174,74,132)"/></g><g><path d=" M 32 108 C 27 108 23 104 23 99 C 23 94 27 90 32 90 C 37 90 41 94 41 99 C 41.1 104 37 108 32 108 Z  M 32 95 C 29.8 95 28 96.8 28 99 C 28 101.2 29.8 103 32 103 C 34.2 103 36 101.2 36 99 C 36.1 96.8 34.2 95 32 95 Z " fill="rgb(174,74,132)"/></g><g><rect x="36.8" y="96" width="54.2" height="5" transform="matrix(1,0,0,1,0,0)" fill="rgb(174,74,132)"/></g></g></g></g><path d=" M 65 91.1 L 48 91.1 L 48 58.1 L 65 58.1 L 65 91.1 Z  M 53 85.7 L 60 85.7 L 60 78.538 L 60 63 L 53 63 L 53 85.7 Z " fill="rgb(174,74,132)"/><rect x="54" y="54" width="5" height="5" transform="matrix(1,0,0,1,0,0)" fill="rgb(174,74,132)"/><rect x="54" y="89.6" width="5" height="5.5" transform="matrix(1,0,0,1,0,0)" fill="rgb(174,74,132)"/><rect x="54" y="41" width="5" height="6" transform="matrix(1,0,0,1,0,0)" fill="rgb(174,74,132)"/><g><path d=" M 113.3 42.6 L 118.5 42.6 C 121.4 42.6 123.4 42.9 124.6 43.4 C 125.8 43.9 126.8 44.8 127.5 45.9 C 128.2 47.1 128.6 48.5 128.6 50.1 C 128.6 51.8 128.2 53.2 127.4 54.4 C 126.6 55.6 125.4 56.4 123.7 57 L 129.8 68.5 L 124.4 68.5 L 118.6 57.5 L 118.1 57.5 L 118.1 68.5 L 113.2 68.5 L 113.2 42.6 L 113.3 42.6 L 113.3 42.6 Z  M 118.2 52.7 L 119.7 52.7 C 121.3 52.7 122.3 52.5 122.9 52.1 C 123.5 51.7 123.8 51 123.8 50.1 C 123.8 49.5 123.7 49 123.4 48.6 C 123.1 48.2 122.7 47.9 122.2 47.7 C 121.7 47.5 120.9 47.4 119.6 47.4 L 118.3 47.4 L 118.3 52.7 L 118.2 52.7 L 118.2 52.7 Z " fill="rgb(174,74,132)"/><path d=" M 133.9 42.6 L 148 42.6 L 148 47.4 L 138.8 47.4 L 138.8 52.1 L 148 52.1 L 148 56.8 L 138.8 56.8 L 138.8 63.6 L 148 63.6 L 148 68.4 L 133.9 68.4 L 133.9 42.6 L 133.9 42.6 Z " fill="rgb(174,74,132)"/><path d=" M 160.5 42.6 L 165.5 42.6 L 175.4 68.5 L 170.3 68.5 L 168.3 63.2 L 157.7 63.2 L 155.6 68.5 L 150.5 68.5 L 160.5 42.6 L 160.5 42.6 Z  M 163 49.5 L 159.5 58.4 L 166.4 58.4 L 163 49.5 L 163 49.5 Z " fill="rgb(174,74,132)"/><path d=" M 178.1 42 L 182.9 42 L 182.9 68.5 L 178.1 68.5 L 178.1 42 L 178.1 42 Z " fill="rgb(174,74,132)"/><path d=" M 126.6 88.2 L 123.6 91.2 C 122.4 90 121.3 89.4 120.3 89.4 C 119.8 89.4 119.3 89.5 119 89.7 C 118.7 89.9 118.5 90.2 118.5 90.6 C 118.5 90.9 118.6 91.1 118.8 91.3 C 119 91.5 119.5 91.8 120.2 92.2 L 122 93.1 C 123.9 94 125.1 94.9 125.8 95.9 C 126.5 96.9 126.8 98 126.8 99.2 C 126.8 100.9 126.2 102.3 124.9 103.5 C 123.6 104.7 122 105.2 119.9 105.2 C 117.1 105.2 114.9 104.1 113.2 101.9 L 116.2 98.7 C 116.8 99.4 117.4 99.9 118.2 100.3 C 119 100.7 119.6 100.9 120.2 100.9 C 120.8 100.9 121.3 100.7 121.7 100.4 C 122.1 100.1 122.3 99.7 122.3 99.3 C 122.3 98.6 121.6 97.8 120.2 97.1 L 118.6 96.3 C 115.5 94.7 114 92.8 114 90.4 C 114 88.9 114.6 87.6 115.7 86.5 C 116.8 85.4 118.4 84.9 120.2 84.9 C 121.4 84.9 122.6 85.2 123.7 85.7 C 124.8 86.2 125.8 87.2 126.6 88.2 Z " fill="rgb(174,74,132)"/><path d=" M 171.5 85.6 L 176.3 85.6 L 176.3 104.7 L 171.5 104.7 L 171.5 102.7 C 170.6 103.6 169.6 104.2 168.7 104.6 C 167.8 105 166.7 105.2 165.6 105.2 C 163.1 105.2 161 104.2 159.2 102.3 C 157.4 100.4 156.5 98 156.5 95.2 C 156.5 92.2 157.4 89.8 159.1 87.9 C 160.8 86 163 85.1 165.5 85.1 C 166.6 85.1 167.7 85.3 168.7 85.8 C 169.7 86.2 170.6 86.9 171.5 87.8 L 171.5 85.6 L 171.5 85.6 Z  M 166.4 89.6 C 164.9 89.6 163.7 90.1 162.7 91.2 C 161.7 92.3 161.2 93.6 161.2 95.2 C 161.2 96.9 161.7 98.2 162.7 99.3 C 163.7 100.4 164.9 100.9 166.4 100.9 C 167.9 100.9 169.2 100.4 170.1 99.3 C 171 98.2 171.6 96.9 171.6 95.2 C 171.6 93.5 171.1 92.2 170.1 91.2 C 169.1 90.2 167.9 89.6 166.4 89.6 Z " fill="rgb(174,74,132)"/><path d=" M 209.5 79.1 L 214.3 79.1 L 214.3 86.1 L 217.1 86.1 L 217.1 90.2 L 214.3 90.2 L 214.3 105.2 L 209.5 105.2 L 209.5 90.2 L 207 90.2 L 207 86.1 L 209.5 86.1 L 209.5 79.1 L 209.5 79.1 Z " fill="rgb(174,74,132)"/><path d=" M 219.7 86.1 L 223.8 86.1 L 223.8 88.5 C 224.2 87.6 224.8 86.8 225.6 86.3 C 226.4 85.8 227.1 85.6 228 85.6 C 228.6 85.6 229.3 85.8 230 86.1 L 228.5 90.2 C 227.9 89.9 227.5 89.8 227.1 89.8 C 226.4 89.8 225.7 90.3 225.2 91.2 C 224.7 92.1 224.4 93.9 224.4 96.6 L 224.4 97.5 L 224.4 105.2 L 219.6 105.2 L 219.6 86.1 L 219.7 86.1 L 219.7 86.1 Z " fill="rgb(174,74,132)"/><path d=" M 246.2 85.6 L 251 85.6 L 251 104.7 L 246.2 104.7 L 246.2 102.7 C 245.3 103.6 244.3 104.2 243.4 104.6 C 242.5 105 241.4 105.2 240.3 105.2 C 237.8 105.2 235.7 104.2 233.9 102.3 C 232.1 100.4 231.2 98 231.2 95.2 C 231.2 92.2 232.1 89.8 233.8 87.9 C 235.5 86 237.7 85.1 240.2 85.1 C 241.3 85.1 242.4 85.3 243.4 85.8 C 244.4 86.3 245.3 86.9 246.2 87.8 L 246.2 85.6 L 246.2 85.6 Z  M 241.2 89.6 C 239.7 89.6 238.5 90.1 237.5 91.2 C 236.5 92.3 236 93.6 236 95.2 C 236 96.9 236.5 98.2 237.5 99.3 C 238.5 100.4 239.7 100.9 241.2 100.9 C 242.7 100.9 244 100.4 244.9 99.3 C 245.9 98.3 246.4 96.9 246.4 95.2 C 246.4 93.5 245.9 92.2 244.9 91.2 C 243.9 90.1 242.7 89.6 241.2 89.6 Z " fill="rgb(174,74,132)"/><path d=" M 268 78.2 L 272.8 78.2 L 272.8 104.7 L 268 104.7 L 268 102.7 C 267.1 103.6 266.1 104.2 265.2 104.6 C 264.3 105 263.2 105.2 262.1 105.2 C 259.6 105.2 257.5 104.2 255.7 102.3 C 253.9 100.4 253 98 253 95.2 C 253 92.2 253.9 89.8 255.6 87.9 C 257.3 86 259.5 85.1 262 85.1 C 263.1 85.1 264.2 85.3 265.2 85.8 C 266.2 86.3 267.1 86.9 268 87.8 L 268 78.2 L 268 78.2 Z  M 262.9 89.5 C 261.4 89.5 260.2 90 259.2 91.1 C 258.2 92.2 257.7 93.5 257.7 95.1 C 257.7 96.8 258.2 98.1 259.2 99.2 C 260.2 100.3 261.4 100.8 262.9 100.8 C 264.4 100.8 265.7 100.3 266.6 99.2 C 267.6 98.2 268.1 96.8 268.1 95.1 C 268.1 93.4 267.6 92.1 266.6 91.1 C 265.7 90 264.4 89.5 262.9 89.5 Z " fill="rgb(174,74,132)"/><path d=" M 296 96.6 L 280.6 96.6 C 280.8 98 281.4 99 282.4 99.8 C 283.4 100.6 284.6 101 286.1 101 C 287.9 101 289.4 100.4 290.7 99.1 L 294.7 101 C 293.7 102.4 292.5 103.5 291.1 104.2 C 289.7 104.9 288 105.2 286.1 105.2 C 283.1 105.2 280.7 104.3 278.8 102.4 C 276.9 100.5 276 98.1 276 95.3 C 276 92.4 276.9 90 278.8 88 C 280.7 86 283 85.1 285.9 85.1 C 288.9 85.1 291.4 86.1 293.2 88 C 295 89.9 296 92.5 296 95.6 L 296 96.6 L 296 96.6 Z  M 291.2 92.8 C 290.9 91.7 290.3 90.9 289.3 90.2 C 288.4 89.5 287.3 89.2 286.1 89.2 C 284.8 89.2 283.6 89.6 282.6 90.3 C 282 90.8 281.4 91.6 280.8 92.8 L 291.2 92.8 L 291.2 92.8 Z " fill="rgb(174,74,132)"/></g><path d=" M 127.8 86.1 L 132.5 86.1 L 136.3 97 L 140.4 86.1 L 143.3 86.1 L 147.4 96.9 L 151.3 86.1 L 156 86.1 L 149 105.2 L 146 105.2 L 141.9 94.3 L 137.7 105.2 L 134.7 105.2 L 127.8 86.1 L 127.8 86.1 Z " fill="rgb(174,74,132)"/><path d=" M 183.8 85.6 L 183.8 87.7 C 184.7 86.8 185.6 86.2 186.6 85.7 C 187.6 85.2 188.7 85 189.8 85 C 192.3 85 194.4 85.9 196.2 87.8 C 198 89.7 198.8 92.1 198.8 95.1 C 198.8 97.9 197.9 100.3 196.1 102.2 C 194.3 104.1 192.2 105.1 189.7 105.1 C 188.6 105.1 187.6 104.9 186.6 104.5 C 185.6 104.1 184.7 103.5 183.8 102.6 L 183.8 111.6 L 179 111.6 L 179 85.6 L 183.8 85.6 L 183.8 85.6 Z  M 188.8 89.6 C 187.3 89.6 186 90.1 185 91.1 C 184 92.1 183.5 93.5 183.5 95.1 C 183.5 96.8 184 98.2 185 99.2 C 186 100.2 187.3 100.8 188.8 100.8 C 190.3 100.8 191.5 100.3 192.5 99.2 C 193.5 98.1 194 96.8 194 95.1 C 194 93.5 193.5 92.1 192.5 91.1 C 191.5 90.1 190.3 89.6 188.8 89.6 Z " fill="rgb(174,74,132)"/></g></g></g></svg>