<?xml version="1.0" standalone="no"?><!-- Generator: Gravit.io --><svg xmlns="http://www.w3.org/2000/svg" xmlns:xlink="http://www.w3.org/1999/xlink" style="isolation:isolate" viewBox="0 0 320.5 150" width="320.5" height="150"><defs><clipPath id="_clipPath_sHSyEUudh70TTwtNFo5Po8QqCdzb21nj"><rect width="320.5" height="150"/></clipPath></defs><g clip-path="url(#_clipPath_sHSyEUudh70TTwtNFo5Po8QqCdzb21nj)"><g><g><g><g><path d=" M 85 65 C 80 65 76 61 76 56 C 76 51 80 47 85 47 C 90 47 94 51 94 56 C 94 61 89.9 65 85 65 Z  M 85 52 C 82.8 52 81 53.8 81 56 C 81 58.2 82.8 60 85 60 C 87.2 60 89 58.2 89 56 C 89 53.8 87.2 52 85 52 Z " fill="rgb(174,74,132)"/></g><g><rect x="23" y="54" width="54.2" height="5" transform="matrix(1,0,0,1,0,0)" fill="rgb(174,74,132)"/></g><g><path d=" M 29.998 103 C 24.998 103 20.998 99 20.998 94 C 20.998 89 24.998 85 29.998 85 C 34.998 85 38.998 89 38.998 94 C 39.098 99 34.998 103 29.998 103 Z  M 29.998 90 C 27.798 90 25.998 91.8 25.998 94 C 25.998 96.2 27.798 98 29.998 98 C 32.198 98 33.998 96.2 33.998 94 C 34.098 91.8 32.198 90 29.998 90 Z " fill="rgb(174,74,132)"/></g><g><rect x="37" y="91" width="54.2" height="5" transform="matrix(1,0,0,1,0,0)" fill="rgb(174,74,132)"/></g></g></g></g><path d=" M 65 85.475 L 48 85.475 L 48 64.525 L 65 64.525 L 65 85.475 Z  M 53 80.6 L 60 80.6 L 60 77.5 L 60 69.6 L 53 69.6 L 53 80.6 Z " fill="rgb(174,74,132)"/><rect x="54" y="60" width="5" height="5" transform="matrix(1,0,0,1,0,0)" fill="rgb(174,74,132)"/><rect x="54" y="85" width="5" height="5" transform="matrix(1,0,0,1,0,0)" fill="rgb(174,74,132)"/><rect x="54" y="44" width="5" height="9" transform="matrix(1,0,0,1,0,0)" fill="rgb(174,74,132)"/><g><path d=" M 113.3 42.6 L 118.5 42.6 C 121.4 42.6 123.4 42.9 124.6 43.4 C 125.8 43.9 126.8 44.8 127.5 45.9 C 128.2 47.1 128.6 48.5 128.6 50.1 C 128.6 51.8 128.2 53.2 127.4 54.4 C 126.6 55.6 125.4 56.4 123.7 57 L 129.8 68.5 L 124.4 68.5 L 118.6 57.5 L 118.1 57.5 L 118.1 68.5 L 113.2 68.5 L 113.2 42.6 L 113.3 42.6 Z  M 118.2 52.7 L 119.7 52.7 C 121.3 52.7 122.3 52.5 122.9 52.1 C 123.5 51.7 123.8 51 123.8 50.1 C 123.8 49.5 123.7 49 123.4 48.6 C 123.1 48.2 122.7 47.9 122.2 47.7 C 121.7 47.5 120.9 47.4 119.6 47.4 L 118.3 47.4 L 118.3 52.7 L 118.2 52.7 Z " fill="rgb(174,74,132)"/><path d=" M 133.9 42.6 L 148 42.6 L 148 47.4 L 138.8 47.4 L 138.8 52.1 L 148 52.1 L 148 56.8 L 138.8 56.8 L 138.8 63.6 L 148 63.6 L 148 68.4 L 133.9 68.4 L 133.9 42.6 Z " fill="rgb(174,74,132)"/><path d=" M 160.5 42.6 L 165.5 42.6 L 175.4 68.5 L 170.3 68.5 L 168.3 63.2 L 157.7 63.2 L 155.6 68.5 L 150.5 68.5 L 160.5 42.6 Z  M 163 49.5 L 159.5 58.4 L 166.4 58.4 L 163 49.5 Z " fill="rgb(174,74,132)"/><path d=" M 178.1 42 L 182.9 42 L 182.9 68.5 L 178.1 68.5 L 178.1 42 Z " fill="rgb(174,74,132)"/><path d=" M 126.6 88.2 L 123.6 91.2 C 122.4 90 121.3 89.4 120.3 89.4 C 119.8 89.4 119.3 89.5 119 89.7 C 118.7 89.9 118.5 90.2 118.5 90.6 C 118.5 90.9 118.6 91.1 118.8 91.3 C 119 91.5 119.5 91.8 120.2 92.2 L 122 93.1 C 123.9 94 125.1 94.9 125.8 95.9 C 126.5 96.9 126.8 98 126.8 99.2 C 126.8 100.9 126.2 102.3 124.9 103.5 C 123.6 104.7 122 105.2 119.9 105.2 C 117.1 105.2 114.9 104.1 113.2 101.9 L 116.2 98.7 C 116.8 99.4 117.4 99.9 118.2 100.3 C 119 100.7 119.6 100.9 120.2 100.9 C 120.8 100.9 121.3 100.7 121.7 100.4 C 122.1 100.1 122.3 99.7 122.3 99.3 C 122.3 98.6 121.6 97.8 120.2 97.1 L 118.6 96.3 C 115.5 94.7 114 92.8 114 90.4 C 114 88.9 114.6 87.6 115.7 86.5 C 116.8 85.4 118.4 84.9 120.2 84.9 C 121.4 84.9 122.6 85.2 123.7 85.7 C 124.8 86.2 125.8 87.2 126.6 88.2 Z " fill="rgb(174,74,132)"/><path d=" M 174.5 85.6 L 179.3 85.6 L 179.3 104.7 L 174.5 104.7 L 174.5 102.7 C 173.6 103.6 172.6 104.2 171.7 104.6 C 170.8 105 169.7 105.2 168.6 105.2 C 166.1 105.2 164 104.2 162.2 102.3 C 160.4 100.4 159.5 98 159.5 95.2 C 159.5 92.2 160.4 89.8 162.1 87.9 C 163.8 86 166 85.1 168.5 85.1 C 169.6 85.1 170.7 85.3 171.7 85.8 C 172.7 86.2 173.6 86.9 174.5 87.8 L 174.5 85.6 Z  M 169.4 89.6 C 167.9 89.6 166.7 90.1 165.7 91.2 C 164.7 92.3 164.2 93.6 164.2 95.2 C 164.2 96.9 164.7 98.2 165.7 99.3 C 166.7 100.4 167.9 100.9 169.4 100.9 C 170.9 100.9 172.2 100.4 173.1 99.3 C 174 98.2 174.6 96.9 174.6 95.2 C 174.6 93.5 174.1 92.2 173.1 91.2 C 172.1 90.2 170.9 89.6 169.4 89.6 Z " fill="rgb(174,74,132)"/><path d=" M 213.5 78.5 L 218.3 78.5 L 218.3 85.5 L 221.1 85.5 L 221.1 89.6 L 218.3 89.6 L 218.3 104.6 L 213.5 104.6 L 213.5 89.6 L 211 89.6 L 211 85.5 L 213.5 85.5 L 213.5 78.5 Z " fill="rgb(174,74,132)"/><path d=" M 222.5 85.5 L 226.6 85.5 L 226.6 87.9 C 227 87 227.6 86.2 228.4 85.7 C 229.2 85.2 229.9 85 230.8 85 C 231.4 85 232.1 85.2 232.8 85.5 L 231.3 89.6 C 230.7 89.3 230.3 89.2 229.9 89.2 C 229.2 89.2 228.5 89.7 228 90.6 C 227.5 91.5 227.2 93.3 227.2 96 L 227.2 96.9 L 227.2 104.6 L 222.4 104.6 L 222.4 85.5 L 222.5 85.5 Z " fill="rgb(174,74,132)"/><path d=" M 249.3 85.5 L 254.1 85.5 L 254.1 104.6 L 249.3 104.6 L 249.3 102.6 C 248.4 103.5 247.4 104.1 246.5 104.5 C 245.6 104.9 244.5 105.1 243.4 105.1 C 240.9 105.1 238.8 104.1 237 102.2 C 235.2 100.3 234.3 97.9 234.3 95.1 C 234.3 92.1 235.2 89.7 236.9 87.8 C 238.6 85.9 240.8 85 243.3 85 C 244.4 85 245.5 85.2 246.5 85.7 C 247.5 86.2 248.4 86.8 249.3 87.7 L 249.3 85.5 Z  M 244.3 89.5 C 242.8 89.5 241.6 90 240.6 91.1 C 239.6 92.2 239.1 93.5 239.1 95.1 C 239.1 96.8 239.6 98.1 240.6 99.2 C 241.6 100.3 242.8 100.8 244.3 100.8 C 245.8 100.8 247.1 100.3 248 99.2 C 249 98.2 249.5 96.8 249.5 95.1 C 249.5 93.4 249 92.1 248 91.1 C 247 90 245.8 89.5 244.3 89.5 Z " fill="rgb(174,74,132)"/><path d=" M 273.1 78.2 L 277.9 78.2 L 277.9 104.7 L 273.1 104.7 L 273.1 102.7 C 272.2 103.6 271.2 104.2 270.3 104.6 C 269.4 105 268.3 105.2 267.2 105.2 C 264.7 105.2 262.6 104.2 260.8 102.3 C 259 100.4 258.1 98 258.1 95.2 C 258.1 92.2 259 89.8 260.7 87.9 C 262.4 86 264.6 85.1 267.1 85.1 C 268.2 85.1 269.3 85.3 270.3 85.8 C 271.3 86.3 272.2 86.9 273.1 87.8 L 273.1 78.2 Z  M 268 89.5 C 266.5 89.5 265.3 90 264.3 91.1 C 263.3 92.2 262.8 93.5 262.8 95.1 C 262.8 96.8 263.3 98.1 264.3 99.2 C 265.3 100.3 266.5 100.8 268 100.8 C 269.5 100.8 270.8 100.3 271.7 99.2 C 272.7 98.2 273.2 96.8 273.2 95.1 C 273.2 93.4 272.7 92.1 271.7 91.1 C 270.8 90 269.5 89.5 268 89.5 Z " fill="rgb(174,74,132)"/><path d=" M 301.9 96.5 L 286.5 96.5 C 286.7 97.9 287.3 98.9 288.3 99.7 C 289.3 100.5 290.5 100.9 292 100.9 C 293.8 100.9 295.3 100.3 296.6 99 L 300.6 100.9 C 299.6 102.3 298.4 103.4 297 104.1 C 295.6 104.8 293.9 105.1 292 105.1 C 289 105.1 286.6 104.2 284.7 102.3 C 282.8 100.4 281.9 98 281.9 95.2 C 281.9 92.3 282.8 89.9 284.7 87.9 C 286.6 85.9 288.9 85 291.8 85 C 294.8 85 297.3 86 299.1 87.9 C 300.9 89.8 301.9 92.4 301.9 95.5 L 301.9 96.5 Z  M 297.1 92.7 C 296.8 91.6 296.2 90.8 295.2 90.1 C 294.3 89.4 293.2 89.1 292 89.1 C 290.7 89.1 289.5 89.5 288.5 90.2 C 287.9 90.7 287.3 91.5 286.7 92.7 L 297.1 92.7 Z " fill="rgb(174,74,132)"/></g><path d=" M 129 86.1 L 133.7 86.1 L 137.5 97 L 141.6 86.1 L 144.5 86.1 L 148.6 96.9 L 152.5 86.1 L 157.2 86.1 L 150.2 105.2 L 147.2 105.2 L 143.1 94.3 L 138.9 105.2 L 135.9 105.2 L 129 86.1 Z " fill="rgb(174,74,132)"/><path d=" M 187.8 85.6 L 187.8 87.7 C 188.7 86.8 189.6 86.2 190.6 85.7 C 191.6 85.2 192.7 85 193.8 85 C 196.3 85 198.4 85.9 200.2 87.8 C 202 89.7 202.8 92.1 202.8 95.1 C 202.8 97.9 201.9 100.3 200.1 102.2 C 198.3 104.1 196.2 105.1 193.7 105.1 C 192.6 105.1 191.6 104.9 190.6 104.5 C 189.6 104.1 188.7 103.5 187.8 102.6 L 187.8 111.6 L 183 111.6 L 183 85.6 L 187.8 85.6 Z  M 192.8 89.6 C 191.3 89.6 190 90.1 189 91.1 C 188 92.1 187.5 93.5 187.5 95.1 C 187.5 96.8 188 98.2 189 99.2 C 190 100.2 191.3 100.8 192.8 100.8 C 194.3 100.8 195.5 100.3 196.5 99.2 C 197.5 98.1 198 96.8 198 95.1 C 198 93.5 197.5 92.1 196.5 91.1 C 195.5 90.1 194.3 89.6 192.8 89.6 Z " fill="rgb(174,74,132)"/></g></svg>