<?xml version="1.0" encoding="utf-8"?>
<!-- Generator: Adobe Illustrator 17.1.0, SVG Export Plug-In . SVG Version: 6.00 Build 0)  -->
<!DOCTYPE svg PUBLIC "-//W3C//DTD SVG 1.0//EN" "http://www.w3.org/TR/2001/REC-SVG-20010904/DTD/svg10.dtd">
<svg version="1.0" xmlns="http://www.w3.org/2000/svg" xmlns:xlink="http://www.w3.org/1999/xlink" x="0px" y="0px"
	 viewBox="0 0 359.7 150" enable-background="new 0 0 359.7 150" xml:space="preserve">
<g id="Layer_1">
</g>
<g id="Layer_3">
	<g>
		<g>
			<path fill="#8C4BC8" d="M38.9,111c-5,0-9-4-9-9s4-9,9-9c5,0,9,4,9,9S43.9,111,38.9,111z M38.9,97.9c-2.2,0-4,1.8-4,4
				c0,2.2,1.8,4,4,4c2.2,0,4-1.8,4-4C43,99.7,41.2,97.9,38.9,97.9z"/>
		</g>
		<g>
			<path fill="#8C4BC8" d="M101,53.5c-5,0-9-4-9-9s4-9,9-9c5,0,9,4,9,9S106,53.5,101,53.5z M101,40.5c-2.2,0-4,1.8-4,4
				c0,2.2,1.8,4,4,4c2.2,0,4-1.8,4-4C105,42.3,103.2,40.5,101,40.5z"/>
		</g>
		<g>
			<path fill="#8C4BC8" d="M133.4,42.2h5.2c2.9,0,4.9,0.3,6.1,0.8c1.2,0.5,2.2,1.4,2.9,2.5c0.7,1.2,1.1,2.6,1.1,4.2
				c0,1.7-0.4,3.1-1.2,4.3s-2,2-3.7,2.6l6.1,11.5h-5.4l-5.8-11h-0.5v11h-4.9V42.2z M138.3,52.3h1.5c1.6,0,2.6-0.2,3.2-0.6
				c0.6-0.4,0.9-1.1,0.9-2c0-0.6-0.1-1.1-0.4-1.5c-0.3-0.4-0.7-0.7-1.2-0.9S141,47,139.7,47h-1.3V52.3z"/>
			<path fill="#8C4BC8" d="M154,42.2h14.1V47h-9.2v4.7h9.2v4.7h-9.2v6.8h9.2v4.8H154V42.2z"/>
			<path fill="#8C4BC8" d="M180.6,42.2h5l9.9,25.9h-5.1l-2-5.3h-10.6l-2.1,5.3h-5.1L180.6,42.2z M183.1,49.1l-3.5,8.9h6.9
				L183.1,49.1z"/>
			<path fill="#8C4BC8" d="M198.2,41.6h4.8v26.5h-4.8V41.6z"/>
			<path fill="#8C4BC8" d="M141,78.2h5l9.9,25.9h-5.1l-2-5.3h-10.6l-2.1,5.3H131L141,78.2z M143.5,85.1l-3.5,8.9h6.9L143.5,85.1z"/>
			<path fill="#8C4BC8" d="M170.9,87.6l-3,3c-1.2-1.2-2.3-1.8-3.3-1.8c-0.5,0-1,0.1-1.3,0.3s-0.5,0.5-0.5,0.9c0,0.3,0.1,0.5,0.3,0.7
				s0.7,0.5,1.4,0.9l1.8,0.9c1.9,0.9,3.1,1.8,3.8,2.8s1,2.1,1,3.3c0,1.7-0.6,3.1-1.9,4.3s-2.9,1.7-5,1.7c-2.8,0-5-1.1-6.7-3.3l3-3.2
				c0.6,0.7,1.2,1.2,2,1.6s1.4,0.6,2,0.6c0.6,0,1.1-0.2,1.5-0.5s0.6-0.7,0.6-1.1c0-0.7-0.7-1.5-2.1-2.2l-1.6-0.8
				c-3.1-1.6-4.6-3.5-4.6-5.9c0-1.5,0.6-2.8,1.7-3.9s2.7-1.6,4.5-1.6c1.2,0,2.4,0.3,3.5,0.8S170.1,86.6,170.9,87.6z"/>
			<path fill="#8C4BC8" d="M176.9,77.1c0.8,0,1.6,0.3,2.2,0.9c0.6,0.6,0.9,1.3,0.9,2.2c0,0.9-0.3,1.6-0.9,2.2
				c-0.6,0.6-1.3,0.9-2.1,0.9c-0.9,0-1.6-0.3-2.2-0.9c-0.6-0.6-0.9-1.4-0.9-2.2c0-0.8,0.3-1.6,0.9-2.2S176,77.1,176.9,77.1z
				 M174.5,84.9h4.8v19.1h-4.8V84.9z"/>
			<path fill="#8C4BC8" d="M197.8,84.9h4.8v19.1h-4.8v-2c-0.9,0.9-1.9,1.5-2.8,1.9c-0.9,0.4-2,0.6-3.1,0.6c-2.5,0-4.6-1-6.4-2.9
				s-2.7-4.3-2.7-7.1c0-3,0.9-5.4,2.6-7.3s3.9-2.8,6.4-2.8c1.1,0,2.2,0.2,3.2,0.7c1,0.4,1.9,1.1,2.8,2V84.9z M192.7,88.9
				c-1.5,0-2.7,0.5-3.7,1.6s-1.5,2.4-1.5,4c0,1.7,0.5,3,1.5,4.1c1,1.1,2.2,1.6,3.7,1.6c1.5,0,2.8-0.5,3.7-1.6s1.5-2.4,1.5-4.1
				c0-1.7-0.5-3-1.5-4S194.2,88.9,192.7,88.9z"/>
			<path fill="#8C4BC8" d="M207.4,84.9h4.8v2c1.1-0.9,2.1-1.6,3-1.9c0.9-0.4,1.8-0.5,2.7-0.5c1.9,0,3.5,0.7,4.8,2
				c1.1,1.1,1.7,2.8,1.7,5v12.6h-4.7v-8.4c0-2.3-0.1-3.8-0.3-4.5c-0.2-0.7-0.6-1.3-1.1-1.7c-0.5-0.4-1.1-0.6-1.9-0.6
				c-1,0-1.8,0.3-2.5,1c-0.7,0.6-1.2,1.5-1.4,2.7c-0.1,0.6-0.2,1.9-0.2,3.9v7.7h-4.8V84.9z"/>
			<path fill="#8C4BC8" d="M239.7,77.9h4.8v7h2.8v4.1h-2.8v15h-4.8v-15h-2.5v-4.1h2.5V77.9z"/>
			<path fill="#8C4BC8" d="M248.7,84.9h4.1v2.4c0.4-0.9,1-1.7,1.8-2.2s1.5-0.7,2.4-0.7c0.6,0,1.3,0.2,2,0.5l-1.5,4.1
				c-0.6-0.3-1-0.4-1.4-0.4c-0.7,0-1.4,0.5-1.9,1.4s-0.8,2.7-0.8,5.4l0,0.9v7.7h-4.8V84.9z"/>
			<path fill="#8C4BC8" d="M275.5,84.9h4.8v19.1h-4.8v-2c-0.9,0.9-1.9,1.5-2.8,1.9s-2,0.6-3.1,0.6c-2.5,0-4.6-1-6.4-2.9
				c-1.8-1.9-2.7-4.3-2.7-7.1c0-3,0.9-5.4,2.6-7.3s3.9-2.8,6.4-2.8c1.1,0,2.2,0.2,3.2,0.7s1.9,1.1,2.8,2V84.9z M270.5,88.9
				c-1.5,0-2.7,0.5-3.7,1.6s-1.5,2.4-1.5,4c0,1.7,0.5,3,1.5,4.1c1,1.1,2.2,1.6,3.7,1.6c1.5,0,2.8-0.5,3.7-1.6c1-1,1.5-2.4,1.5-4.1
				c0-1.7-0.5-3-1.5-4C273.2,89.4,272,88.9,270.5,88.9z"/>
			<path fill="#8C4BC8" d="M299.3,77.6h4.8v26.5h-4.8v-2c-0.9,0.9-1.9,1.5-2.8,1.9s-2,0.6-3.1,0.6c-2.5,0-4.6-1-6.4-2.9
				c-1.8-1.9-2.7-4.3-2.7-7.1c0-3,0.9-5.4,2.6-7.3s3.9-2.8,6.4-2.8c1.1,0,2.2,0.2,3.2,0.7s1.9,1.1,2.8,2V77.6z M294.2,88.9
				c-1.5,0-2.7,0.5-3.7,1.6s-1.5,2.4-1.5,4c0,1.7,0.5,3,1.5,4.1c1,1.1,2.2,1.6,3.7,1.6c1.5,0,2.8-0.5,3.7-1.6c1-1,1.5-2.4,1.5-4.1
				c0-1.7-0.5-3-1.5-4C297,89.4,295.7,88.9,294.2,88.9z"/>
			<path fill="#8C4BC8" d="M328.1,95.9h-15.4c0.2,1.4,0.8,2.4,1.8,3.2s2.2,1.2,3.7,1.2c1.8,0,3.3-0.6,4.6-1.9l4,1.9
				c-1,1.4-2.2,2.5-3.6,3.2s-3.1,1-5,1c-3,0-5.4-0.9-7.3-2.8s-2.8-4.3-2.8-7.1c0-2.9,0.9-5.3,2.8-7.3s4.2-2.9,7.1-2.9
				c3,0,5.5,1,7.3,2.9s2.8,4.5,2.8,7.6L328.1,95.9z M323.3,92.1c-0.3-1.1-0.9-1.9-1.9-2.6c-0.9-0.7-2-1-3.2-1
				c-1.3,0-2.5,0.4-3.5,1.1c-0.6,0.5-1.2,1.3-1.8,2.5H323.3z"/>
		</g>
		<g>
			<path fill="#8C4BC8" d="M46.2,98.7L42,96.1C42.3,95.6,50.3,83,68.7,83l12.2,0c2.8,0,11.5-0.4,16.2-6.1l3.9,3.2
				c-7,8.6-19.8,8-21.2,7.9h-11C53.2,88,46.5,98.3,46.2,98.7z"/>
		</g>
		<g>
			<path fill="#8C4BC8" d="M42.2,83.7L38,81.1C38.3,80.6,46.3,68,64.7,68h11.1c3.5,0,13.3-1.1,17.2-6l3.9,3.1
				c-5.3,6.7-16.6,7.8-20.1,7.9v0H64.7C49.2,73,42.5,83.3,42.2,83.7z"/>
		</g>
		<g>
			<path fill="#8C4BC8" d="M32.2,71.9L28,69.3C28.4,68.6,37.9,54,59.7,54H73c8.6-0.1,20.5-2.2,20.5-6h5c0,9.5-18.1,10.8-24.2,11v0
				H59.7C40.7,59,32.5,71.4,32.2,71.9z"/>
		</g>
	</g>
</g>
<g id="Layer_4">
</g>
<g id="Layer_5">
</g>
</svg>
