<?xml version="1.0" encoding="UTF-8"?>
<!DOCTYPE svg PUBLIC "-//W3C//DTD SVG 1.0//EN" "http://www.w3.org/TR/2001/REC-SVG-20010904/DTD/svg10.dtd">
<!-- Creator: CorelDRAW X8 -->
<svg xmlns="http://www.w3.org/2000/svg" xml:space="preserve" width="2480px" height="692px" version="1.0" style="shape-rendering:geometricPrecision; text-rendering:geometricPrecision; image-rendering:optimizeQuality; fill-rule:evenodd; clip-rule:evenodd"
viewBox="0 0 2480 692"
 xmlns:xlink="http://www.w3.org/1999/xlink">
 <defs>
  <style type="text/css">
   <![CDATA[
    .str0 {stroke:#3DC4BD;stroke-width:40.5693}
    .fil1 {fill:none;fill-rule:nonzero}
    .fil0 {fill:#3DC4BD;fill-rule:nonzero}
   ]]>
  </style>
 </defs>
 <g id="Слой_x0020_1">
  <metadata id="CorelCorpID_0Corel-Layer"/>
  <g id="_2280555047504">
   <g id="_2280544100704">
    <path class="fil0" d="M1018 99l42 0c24,0 39,1 49,6 10,4 18,11 23,21 7,8 9,20 9,33 0,14 -4,26 -9,35 -6,8 -16,17 -30,20l50 92 -43 0 -47 -87 -4 0 0 87 -40 0 0 -207 0 0zm40 81l12 0c14,0 22,-1 27,-6 3,-3 7,-8 7,-16 0,-4 -2,-9 -4,-12 -3,-4 -6,-5 -10,-7 -3,-2 -11,-2 -22,-2l-10 0 0 43 0 0 0 0z"/>
    <polygon id="_1" class="fil0" points="1184,99 1296,99 1296,137 1222,137 1222,174 1296,174 1296,214 1222,214 1222,268 1296,268 1296,306 1184,306 "/>
    <path id="_2" class="fil0" d="M1396 99l41 0 80 207 -42 0 -16 -42 -84 0 -17 42 -41 0 79 -207 0 0zm21 55l-29 72 57 0 -28 -72 0 0z"/>
    <polygon id="_3" class="fil0" points="1544,99 1584,99 1584,306 1544,306 "/>
    <polygon class="fil0" points="1016,381 1055,381 1055,592 1016,592 "/>
    <path id="_1_0" class="fil0" d="M1162 437c15,0 28,3 40,10 14,7 24,17 30,28 7,14 11,27 11,42 0,15 -4,28 -11,40 -6,12 -16,22 -30,29 -12,8 -25,11 -40,11 -23,0 -41,-8 -57,-23 -15,-15 -23,-35 -23,-57 0,-25 8,-45 27,-60 15,-14 32,-20 53,-20l0 0 0 0zm0 35c-12,0 -23,3 -30,12 -8,8 -11,18 -11,33 0,13 3,23 11,32 7,8 18,13 30,13 12,0 22,-5 30,-13 9,-9 12,-19 12,-32 0,-15 -3,-25 -12,-33 -7,-9 -17,-12 -30,-12z"/>
    <path id="_2_1" class="fil0" d="M1425 470l-32 19c-7,-7 -12,-12 -18,-14 -5,-3 -12,-3 -21,-3 -15,0 -26,3 -35,12 -8,8 -14,20 -14,34 0,12 6,24 14,32 9,7 20,12 34,12 17,0 30,-7 40,-18l30 21c-17,21 -40,32 -70,32 -27,0 -48,-8 -63,-23 -16,-17 -24,-35 -24,-57 0,-15 5,-28 12,-42 7,-11 17,-21 30,-28 14,-7 30,-10 46,-10 16,0 29,1 41,8 11,7 22,15 30,25l0 0 0 0z"/>
    <polygon id="_3_2" class="fil0" points="1459,381 1498,381 1498,502 1555,440 1602,440 1537,513 1611,592 1564,592 1498,523 1498,592 1459,592 "/>
    <path id="_4" class="fil0" d="M1821 381l39 0 0 211 -39 0 0 -15c-7,7 -16,12 -23,15 -8,4 -17,5 -25,5 -20,0 -37,-8 -50,-23 -15,-15 -22,-34 -22,-57 0,-25 7,-43 20,-58 15,-16 32,-22 52,-22 8,0 17,1 25,5 9,3 16,8 23,15l0 -76 0 0zm-41 89c-12,0 -22,5 -29,14 -8,8 -12,18 -12,33 0,13 4,23 12,32 7,8 17,13 29,13 12,0 22,-5 31,-13 8,-9 12,-19 12,-32 0,-15 -4,-25 -12,-33 -9,-9 -19,-14 -31,-14z"/>
    <path id="_5" class="fil0" d="M1888 440l34 0 0 19c3,-7 8,-14 15,-17 5,-4 12,-5 19,-5 5,0 10,0 15,3l-12 34c-5,-4 -8,-4 -10,-4 -7,0 -12,4 -15,10 -5,7 -7,22 -7,43l0 9 0 60 -39 0 0 -152 0 0 0 0z"/>
    <path id="_6" class="fil0" d="M2005 378c7,0 14,2 19,7 5,5 6,10 6,16 0,7 -1,14 -6,19 -5,3 -10,7 -17,7 -7,0 -13,-4 -19,-7 -5,-5 -6,-12 -6,-19 0,-6 1,-11 6,-16 6,-5 11,-7 17,-7zm-18 62l38 0 0 152 -38 0 0 -152z"/>
    <polygon id="_7" class="fil0" points="2044,440 2083,440 2121,530 2161,440 2200,440 2133,592 2108,592 "/>
    <path id="_8" class="fil0" d="M2375 528l-123 0c1,11 6,19 13,26 8,6 19,10 30,10 15,0 26,-5 38,-15l32 15c-8,12 -18,20 -30,25 -10,5 -24,8 -40,8 -23,0 -43,-8 -59,-23 -15,-15 -21,-34 -21,-56 0,-24 6,-44 21,-59 16,-16 34,-22 58,-22 24,0 44,6 59,22 14,15 22,35 22,61l0 8 0 0zm-38 -31c-2,-8 -7,-15 -16,-20 -6,-5 -16,-8 -26,-8 -10,0 -20,3 -28,8 -5,3 -10,10 -14,20l84 0 0 0z"/>
    <path id="_9" class="fil0" d="M2397 440l34 0 0 19c3,-7 8,-14 13,-17 7,-4 12,-5 20,-5 4,0 11,0 16,3l-12 34c-5,-4 -9,-4 -12,-4 -5,0 -10,4 -15,10 -4,7 -5,22 -5,43l0 9 0 60 -39 0 0 -152 0 0z"/>
    <g>
     <polygon class="fil0" points="478,195 438,195 438,57 478,57 "/>
    </g>
    <g>
     <polygon class="fil0" points="478,636 438,636 438,499 478,499 "/>
    </g>
    <rect class="fil1 str0" x="409" y="195" width="96.3503" height="304.263"/>
    <g>
     <polygon class="fil0" points="120,597 389,597 389,638 120,638 "/>
    </g>
    <g>
     <path class="fil0" d="M1 619l40 0 0 0 2 2 0 2 0 0 0 1 0 2 0 2 1 1 0 2 0 2 2 0 0 1 2 2 0 0 1 2 0 1 2 0 0 2 2 2 1 0 0 1 2 0 2 2 1 0 0 0 2 2 2 0 1 0 2 0 2 1 1 0 2 0 0 0 0 43 -3 0 -4 -1 -3 0 -3 0 -4 -2 -3 0 -3 -2 -4 -1 -3 -2 -3 -2 -4 -1 -3 -2 -2 -2 -3 -2 -2 -2 -3 -3 -2 -2 -3 -3 -2 -4 -2 -1 -1 -4 -2 -3 -2 -4 -1 -3 -2 -3 -2 -4 0 -3 -1 -3 0 -4 0 -3 0 -3 0 -4 0 0 0 0 0 0zm70 -72l0 42 0 0 0 0 -2 0 -1 0 -2 0 -2 0 -1 2 -2 0 -2 0 0 0 -1 1 -2 0 -2 2 0 0 -1 2 -2 0 0 1 -2 2 0 0 -1 2 0 1 -2 0 0 2 -2 2 0 1 0 2 -1 0 0 2 0 2 0 1 0 2 0 2 -2 1 -40 0 0 -3 0 -5 0 -4 0 -3 1 -3 0 -4 2 -3 2 -3 1 -4 2 -3 2 -3 1 -2 2 -3 2 -4 3 -2 2 -3 3 -2 2 -1 3 -4 2 -1 3 -2 4 -2 3 -1 3 -2 4 -2 3 0 3 -1 4 0 3 -2 3 0 4 0 3 0 0 0 0 0 0 0zm72 72l-42 0 0 0 0 -1 0 -2 0 -2 0 -1 0 -2 0 -2 -1 0 0 -2 0 -1 -2 -2 0 -2 -2 0 0 -1 -1 -2 0 0 -2 -2 0 -1 -2 0 -1 -2 0 0 -2 -2 -2 0 -1 -1 -2 0 0 0 -2 0 -1 -2 -2 0 -2 0 -1 0 -2 0 -2 0 0 -42 5 0 4 0 3 0 3 2 4 0 3 1 3 0 4 2 3 2 3 1 4 2 3 2 2 1 3 4 2 1 3 2 2 3 3 2 2 4 2 3 1 2 2 3 2 3 1 4 2 3 2 3 0 4 1 3 0 3 0 4 0 5 0 3 0 0 0 0 0 0zm-72 73l0 -43 0 0 2 0 2 0 1 0 2 -1 2 0 1 0 2 0 0 -2 2 0 1 0 2 -2 2 0 0 -1 1 0 2 -2 0 -2 2 0 0 -1 1 -2 0 0 2 -2 0 -1 2 0 0 -2 0 -2 1 -1 0 -2 0 -2 0 -1 0 0 0 -2 0 -2 42 0 0 4 0 3 0 3 0 4 -1 3 0 3 -2 4 -2 3 -1 3 -2 4 -2 3 -1 4 -2 1 -2 4 -3 3 -2 2 -3 3 -2 2 -3 1 -2 3 -3 2 -4 1 -3 2 -3 2 -4 1 -3 2 -3 0 -4 2 -3 0 -3 0 -4 1 -5 0 0 0 0 0 0 0z"/>
    </g>
    <g>
     <polygon class="fil0" points="309,520 309,560 198,560 198,520 "/>
    </g>
    <g>
     <polygon class="fil0" points="794,97 526,97 526,57 794,57 "/>
    </g>
    <g>
     <path class="fil0" d="M915 75l-42 0 0 0 0 -1 0 -2 0 -2 0 -2 0 -1 0 -2 -2 0 0 -2 0 -1 -2 -2 0 -2 -1 0 0 -1 -2 -2 0 0 -2 -2 0 -1 -2 0 -1 -2 0 0 -2 -2 -2 0 -1 0 0 -1 -2 0 -2 0 -1 -2 -2 0 -2 0 -1 0 -2 0 0 0 0 -43 3 0 4 0 3 0 3 2 4 0 3 1 4 0 3 2 3 2 4 1 3 3 3 2 2 1 3 4 2 1 3 2 2 3 3 2 2 4 2 3 1 3 2 2 2 3 2 4 1 3 2 3 0 4 2 3 0 3 0 4 0 5 0 3 0 0 0 0 0 0zm-71 72l0 -42 0 0 0 0 2 0 1 0 2 -1 2 0 1 0 2 0 2 -2 0 0 1 0 2 -2 2 0 0 -1 1 0 2 -2 0 0 2 -2 0 -1 2 0 0 -2 1 -2 0 -1 2 0 0 -2 0 -2 2 -1 0 -2 0 -2 0 0 0 -1 0 -2 0 -2 42 0 0 4 0 3 0 3 0 4 -2 5 0 3 -2 3 -1 4 -2 1 -2 4 -2 3 -1 4 -2 3 -2 2 -3 3 -2 2 -3 3 -2 2 -3 1 -2 2 -3 3 -3 2 -4 2 -3 0 -3 1 -4 2 -3 0 -4 2 -3 0 -3 1 -4 0 -3 0 0 0 0 0 0 0zm-73 -72l43 0 0 0 0 2 0 2 0 1 0 0 0 2 0 2 1 1 0 2 0 2 2 0 0 1 2 2 0 2 1 0 0 1 2 2 0 0 2 2 2 0 0 1 1 0 2 2 2 0 1 0 0 2 2 0 2 0 1 0 2 1 2 0 1 0 2 0 0 42 -5 0 -3 0 -4 -1 -3 0 -3 -2 -4 0 -3 -2 -4 -1 -3 0 -4 -2 -4 -2 -3 -3 -2 -2 -3 -1 -2 -2 -3 -3 -2 -2 -3 -3 -2 -2 -1 -3 -2 -4 -2 -3 -2 -4 -1 -1 -2 -4 -2 -3 0 -3 -1 -5 0 -4 0 -3 0 -3 0 -4 0 0 0 0 0 0zm73 -73l0 43 0 0 -2 0 -1 0 -2 0 -2 0 -1 0 -2 2 -2 0 0 0 -1 1 -2 0 -2 0 -1 2 0 0 -2 2 -2 0 0 1 -2 2 0 0 -1 2 0 1 -2 0 0 2 -2 2 0 1 0 2 -1 0 0 2 0 1 0 2 0 2 0 2 0 1 -43 0 0 -3 0 -5 0 -4 0 -3 1 -3 0 -4 2 -3 2 -3 1 -4 2 -3 2 -2 2 -3 1 -3 2 -4 3 -2 2 -3 3 -2 2 -1 3 -4 2 -1 3 -2 4 -3 4 -1 3 -2 4 -2 3 0 4 -1 3 0 3 -2 4 0 3 0 5 0 0 0 0 0 0 0z"/>
    </g>
    <g>
     <polygon class="fil0" points="605,174 605,134 717,134 717,174 "/>
    </g>
   </g>
  </g>
 </g>
</svg>
