<?xml version="1.0" encoding="utf-8"?>
<!-- Generator: Adobe Illustrator 17.1.0, SVG Export Plug-In . SVG Version: 6.00 Build 0)  -->
<!DOCTYPE svg PUBLIC "-//W3C//DTD SVG 1.0//EN" "http://www.w3.org/TR/2001/REC-SVG-20010904/DTD/svg10.dtd">
<svg version="1.0" xmlns="http://www.w3.org/2000/svg" xmlns:xlink="http://www.w3.org/1999/xlink" x="0px" y="0px"
	 viewBox="0 0 332.5 150" enable-background="new 0 0 332.5 150" xml:space="preserve">
<g id="Layer_1">
</g>
<g id="Layer_3">
</g>
<g id="Layer_4">
</g>
<g id="Layer_5">
	<g>
		<g>
			<path fill="#F07D25" d="M129.6,48.6h5.2c2.9,0,4.9,0.3,6.1,0.8c1.2,0.5,2.2,1.4,2.9,2.5c0.7,1.2,1.1,2.6,1.1,4.2
				c0,1.7-0.4,3.1-1.2,4.3s-2,2-3.7,2.6l6.1,11.5h-5.4l-5.8-11h-0.5v11h-4.9V48.6z M134.6,58.7h1.5c1.6,0,2.6-0.2,3.2-0.6
				c0.6-0.4,0.9-1.1,0.9-2c0-0.6-0.1-1.1-0.4-1.5c-0.3-0.4-0.7-0.7-1.2-0.9s-1.4-0.3-2.7-0.3h-1.3V58.7z"/>
			<path fill="#F07D25" d="M150.2,48.6h14.1v4.8h-9.2v4.7h9.2v4.7h-9.2v6.8h9.2v4.8h-14.1V48.6z"/>
			<path fill="#F07D25" d="M176.8,48.6h5l9.9,25.9h-5.1l-2-5.3H174l-2.1,5.3h-5.1L176.8,48.6z M179.3,55.5l-3.5,8.9h6.9L179.3,55.5z
				"/>
			<path fill="#F07D25" d="M194.5,48h4.8v26.5h-4.8V48z"/>
			<path fill="#F07D25" d="M128.7,91.3h4.8v2.2c0.8-0.9,1.7-1.6,2.7-2c1-0.4,2.1-0.7,3.3-0.7c1.2,0,2.3,0.3,3.2,0.9
				c1,0.6,1.7,1.4,2.3,2.6c0.8-1.1,1.7-2,2.8-2.6c1.1-0.6,2.3-0.9,3.6-0.9c1.4,0,2.6,0.3,3.6,0.9s1.8,1.5,2.2,2.5
				c0.5,1,0.7,2.7,0.7,5v11.2h-4.8v-9.7c0-2.2-0.3-3.6-0.8-4.4s-1.3-1.2-2.4-1.2c-0.8,0-1.6,0.2-2.2,0.7s-1.1,1.1-1.5,1.9
				s-0.5,2.2-0.5,4v8.6H141v-9.3c0-1.7-0.1-3-0.4-3.7s-0.6-1.3-1.1-1.7c-0.5-0.4-1.1-0.6-1.8-0.6c-0.8,0-1.5,0.2-2.2,0.7
				c-0.7,0.5-1.1,1.1-1.5,2s-0.5,2.2-0.5,4v8.5h-4.8V91.3z"/>
			<path fill="#F07D25" d="M171.6,90.8c1.8,0,3.5,0.5,5.1,1.4s2.8,2.1,3.7,3.7s1.3,3.2,1.3,5c0,1.8-0.4,3.5-1.3,5.1
				s-2.1,2.8-3.7,3.7s-3.3,1.3-5.1,1.3c-2.7,0-5.1-1-7-2.9s-2.9-4.3-2.9-7.1c0-3,1.1-5.5,3.3-7.5C166.9,91.7,169.1,90.8,171.6,90.8z
				 M171.7,95.4c-1.5,0-2.7,0.5-3.7,1.6s-1.5,2.4-1.5,4c0,1.7,0.5,3,1.5,4c1,1,2.2,1.5,3.7,1.5s2.8-0.5,3.8-1.6s1.5-2.4,1.5-4
				s-0.5-3-1.5-4C174.5,95.9,173.2,95.4,171.7,95.4z"/>
			<path fill="#F07D25" d="M185.7,91.3h4.8v2c1.1-0.9,2.1-1.6,3-1.9c0.9-0.4,1.8-0.5,2.7-0.5c1.9,0,3.5,0.7,4.8,2
				c1.1,1.1,1.7,2.8,1.7,5v12.6h-4.7v-8.4c0-2.3-0.1-3.8-0.3-4.5c-0.2-0.7-0.6-1.3-1.1-1.7c-0.5-0.4-1.1-0.6-1.9-0.6
				c-1,0-1.8,0.3-2.5,1s-1.2,1.5-1.4,2.7c-0.1,0.6-0.2,1.9-0.2,3.9v7.7h-4.8V91.3z"/>
			<path fill="#F07D25" d="M209.1,83.5c0.8,0,1.6,0.3,2.2,0.9c0.6,0.6,0.9,1.3,0.9,2.2c0,0.9-0.3,1.6-0.9,2.2
				c-0.6,0.6-1.3,0.9-2.1,0.9c-0.9,0-1.6-0.3-2.2-0.9c-0.6-0.6-0.9-1.4-0.9-2.2c0-0.8,0.3-1.6,0.9-2.2S208.3,83.5,209.1,83.5z
				 M206.7,91.3h4.8v19.1h-4.8V91.3z"/>
			<path fill="#F07D25" d="M216.5,84.3h4.8v7h2.8v4.1h-2.8v15h-4.8v-15H214v-4.1h2.5V84.3z"/>
			<path fill="#F07D25" d="M235.7,90.8c1.8,0,3.5,0.5,5.1,1.4s2.8,2.1,3.7,3.7s1.3,3.2,1.3,5c0,1.8-0.4,3.5-1.3,5.1
				s-2.1,2.8-3.7,3.7s-3.3,1.3-5.1,1.3c-2.7,0-5.1-1-7-2.9s-2.9-4.3-2.9-7.1c0-3,1.1-5.5,3.3-7.5C231,91.7,233.2,90.8,235.7,90.8z
				 M235.8,95.4c-1.5,0-2.7,0.5-3.7,1.6c-1,1-1.5,2.4-1.5,4c0,1.7,0.5,3,1.5,4c1,1,2.2,1.5,3.7,1.5c1.5,0,2.8-0.5,3.8-1.6
				c1-1,1.5-2.4,1.5-4s-0.5-3-1.5-4C238.5,95.9,237.3,95.4,235.8,95.4z"/>
			<path fill="#F07D25" d="M248.6,91.3h4.1v2.4c0.4-0.9,1-1.7,1.8-2.2s1.5-0.7,2.4-0.7c0.6,0,1.3,0.2,2,0.5l-1.5,4.1
				c-0.6-0.3-1-0.4-1.4-0.4c-0.7,0-1.4,0.5-1.9,1.4s-0.8,2.7-0.8,5.4l0,0.9v7.7h-4.8V91.3z"/>
			<path fill="#F07D25" d="M263.1,83.5c0.8,0,1.6,0.3,2.2,0.9c0.6,0.6,0.9,1.3,0.9,2.2c0,0.9-0.3,1.6-0.9,2.2
				c-0.6,0.6-1.3,0.9-2.1,0.9c-0.9,0-1.6-0.3-2.2-0.9s-0.9-1.4-0.9-2.2c0-0.8,0.3-1.6,0.9-2.2C261.6,83.8,262.3,83.5,263.1,83.5z
				 M260.7,91.3h4.8v19.1h-4.8V91.3z"/>
			<path fill="#F07D25" d="M269.9,91.3h4.8v2c1.1-0.9,2.1-1.6,3-1.9c0.9-0.4,1.8-0.5,2.7-0.5c1.9,0,3.5,0.7,4.8,2
				c1.1,1.1,1.7,2.8,1.7,5v12.6h-4.7v-8.4c0-2.3-0.1-3.8-0.3-4.5c-0.2-0.7-0.6-1.3-1.1-1.7c-0.5-0.4-1.1-0.6-1.9-0.6
				c-1,0-1.8,0.3-2.5,1s-1.2,1.5-1.4,2.7c-0.1,0.6-0.2,1.9-0.2,3.9v7.7h-4.8V91.3z"/>
			<path fill="#F07D25" d="M305.6,91.3h4.8v16.4c0,3.2-0.7,5.6-2,7.1c-1.7,2.1-4.4,3.1-7.9,3.1c-1.9,0-3.5-0.2-4.7-0.7
				s-2.4-1.2-3.2-2.1s-1.5-2-2-3.3h5.3c0.5,0.5,1.1,0.9,1.8,1.2s1.6,0.4,2.6,0.4c1.3,0,2.3-0.2,3.1-0.6s1.3-0.9,1.7-1.5
				s0.5-1.7,0.5-3.3c-0.8,0.8-1.7,1.5-2.7,1.8s-2,0.6-3.1,0.6c-2.6,0-4.7-0.9-6.5-2.8s-2.7-4.2-2.7-7c0-3,0.9-5.5,2.8-7.3
				c1.7-1.7,3.7-2.5,6.1-2.5c1.1,0,2.1,0.2,3.1,0.6s2,1.1,2.9,2V91.3z M300.6,95.3c-1.5,0-2.8,0.5-3.7,1.5s-1.5,2.3-1.5,3.8
				c0,1.6,0.5,2.9,1.5,3.9s2.3,1.5,3.8,1.5c1.5,0,2.7-0.5,3.7-1.5s1.5-2.3,1.5-3.9c0-1.6-0.5-2.9-1.5-3.9S302.2,95.3,300.6,95.3z"/>
		</g>
		<g>
			<g>
				<path fill="#F07D25" d="M97.4,58.4c-5,0-9-4-9-9s4-9,9-9c5,0,9,4,9,9S102.4,58.4,97.4,58.4z M97.4,45.3c-2.2,0-4,1.8-4,4
					s1.8,4,4,4c2.2,0,4-1.8,4-4S99.6,45.3,97.4,45.3z"/>
			</g>
			<g>
				<polygon fill="#F07D25" points="99.9,104.6 28.9,104.6 28.9,46.5 92,46.5 92,51.5 33.9,51.5 33.9,99.6 94.9,99.6 94.9,55.4 
					99.9,55.4 				"/>
			</g>
			<g>
				<rect x="39.9" y="88.6" fill="#F07D25" width="24.5" height="5"/>
			</g>
			<g>
				<rect x="39.9" y="79.3" fill="#F07D25" width="24.5" height="5"/>
			</g>
			<g>
				<rect x="39.9" y="69.9" fill="#F07D25" width="24.5" height="5"/>
			</g>
			<g>
				<rect x="28.7" y="109.4" fill="#F07D25" width="28.4" height="5"/>
			</g>
			<g>
				<rect x="71.5" y="109.4" fill="#F07D25" width="28.4" height="5"/>
			</g>
			<g>
				<rect x="61.9" y="102.1" fill="#F07D25" width="5" height="12.5"/>
			</g>
		</g>
	</g>
</g>
</svg>
