<svg xmlns="http://www.w3.org/2000/svg" xmlns:xlink="http://www.w3.org/1999/xlink" width="320" height="150" viewBox="0 0 320 150">
  <defs>
    <clipPath id="clip-real_signals_4_2">
      <rect width="320" height="150"/>
    </clipPath>
  </defs>
  <g id="real_signals_4_2" clip-path="url(#clip-real_signals_4_2)">
    <rect width="320" height="150" fill="#fff"/>
    <path id="Path_191" data-name="Path 191" d="M3.287-25.857H8.508a17.276,17.276,0,0,1,6.108.765,6.257,6.257,0,0,1,2.927,2.54,7.775,7.775,0,0,1,1.107,4.2,7.158,7.158,0,0,1-1.222,4.263A7.415,7.415,0,0,1,13.746-11.5L19.863,0H14.484L8.666-10.951H8.209V0H3.287ZM8.209-15.75H9.756A6.073,6.073,0,0,0,13-16.365a2.3,2.3,0,0,0,.888-2.039,2.484,2.484,0,0,0-.439-1.468,2.435,2.435,0,0,0-1.178-.9,8.986,8.986,0,0,0-2.707-.272H8.209ZM23.854-25.857H37.969v4.816H28.74v4.676h9.229v4.729H28.74v6.8h9.229V0H23.854Zm26.578,0h4.992L65.373,0H60.258L58.236-5.326H47.689L45.58,0H40.465ZM52.963-19l-3.445,8.877h6.873ZM68.15-26.508h4.8V0h-4.8ZM14.133,19.547l-2.971,2.971a5.025,5.025,0,0,0-3.287-1.793,2.069,2.069,0,0,0-1.266.343,1.03,1.03,0,0,0-.457.853,1.048,1.048,0,0,0,.29.712,5.412,5.412,0,0,0,1.433.888l1.758.879a10.358,10.358,0,0,1,3.814,2.795,5.822,5.822,0,0,1-.835,7.594,7.167,7.167,0,0,1-5.019,1.705,7.977,7.977,0,0,1-6.68-3.27l2.953-3.217A6.822,6.822,0,0,0,5.845,31.6a4.378,4.378,0,0,0,2.013.606,2.4,2.4,0,0,0,1.529-.457,1.325,1.325,0,0,0,.58-1.055q0-1.107-2.092-2.162l-1.617-.809q-4.641-2.338-4.641-5.854a5.079,5.079,0,0,1,1.749-3.876A6.351,6.351,0,0,1,7.84,16.383a7.761,7.761,0,0,1,6.293,3.164ZM20.145,9a2.947,2.947,0,0,1,2.171.914,3.031,3.031,0,0,1,.905,2.215,3,3,0,0,1-.9,2.188,2.912,2.912,0,0,1-2.145.905,2.953,2.953,0,0,1-2.188-.923,3.082,3.082,0,0,1-.905-2.241A3.061,3.061,0,0,1,20.145,9Zm-2.408,7.875h4.816V36H17.736Zm23.291,0h4.781V33.258q0,4.852-1.951,7.137-2.619,3.094-7.893,3.094a13.823,13.823,0,0,1-4.729-.7,8.244,8.244,0,0,1-5.186-5.379h5.291a4.372,4.372,0,0,0,1.811,1.222,7.493,7.493,0,0,0,2.619.413,6.9,6.9,0,0,0,3.111-.6A3.606,3.606,0,0,0,40.544,36.9a7.834,7.834,0,0,0,.483-3.27,7.949,7.949,0,0,1-2.654,1.819A8.438,8.438,0,0,1,35.227,36a8.649,8.649,0,0,1-6.5-2.777,9.767,9.767,0,0,1-2.654-7.031,9.783,9.783,0,0,1,2.813-7.312,8.39,8.39,0,0,1,6.082-2.5,8.09,8.09,0,0,1,3.12.606,9.884,9.884,0,0,1,2.944,2Zm-4.975,3.99a5,5,0,0,0-3.744,1.521,5.267,5.267,0,0,0-1.477,3.823,5.341,5.341,0,0,0,1.512,3.92,5.118,5.118,0,0,0,3.8,1.529,4.913,4.913,0,0,0,3.683-1.494,5.39,5.39,0,0,0,1.45-3.92,5.325,5.325,0,0,0-1.459-3.885A5.027,5.027,0,0,0,36.053,20.865Zm14.607-3.99h4.781v1.951A11.539,11.539,0,0,1,58.4,16.919a7.19,7.19,0,0,1,2.716-.536,6.579,6.579,0,0,1,4.834,1.986,6.815,6.815,0,0,1,1.67,4.992V36H62.877V27.615a21.191,21.191,0,0,0-.308-4.553A3.118,3.118,0,0,0,61.5,21.349a3,3,0,0,0-1.89-.589,3.544,3.544,0,0,0-2.5.976,5.2,5.2,0,0,0-1.45,2.7,21.737,21.737,0,0,0-.211,3.885V36H50.66Zm35.736,0h4.781V36H86.4V33.979A9.419,9.419,0,0,1,83.575,35.9a7.9,7.9,0,0,1-3.067.589,8.526,8.526,0,0,1-6.416-2.874,10.019,10.019,0,0,1-2.707-7.146A10.267,10.267,0,0,1,74,19.213a8.349,8.349,0,0,1,6.363-2.83,8.1,8.1,0,0,1,3.234.65A8.824,8.824,0,0,1,86.4,18.984Zm-5.045,3.938a4.872,4.872,0,0,0-3.709,1.573,5.659,5.659,0,0,0-1.477,4.034,5.718,5.718,0,0,0,1.5,4.078,4.877,4.877,0,0,0,3.7,1.6,4.969,4.969,0,0,0,3.762-1.573A5.739,5.739,0,0,0,86.625,26.4a5.575,5.575,0,0,0-1.494-4.043A5.031,5.031,0,0,0,81.352,20.813ZM95.52,9.492h4.8V36h-4.8Zm20.848,10.055L113.4,22.518a5.025,5.025,0,0,0-3.287-1.793,2.069,2.069,0,0,0-1.266.343,1.03,1.03,0,0,0-.457.853,1.048,1.048,0,0,0,.29.712,5.412,5.412,0,0,0,1.433.888l1.758.879a10.358,10.358,0,0,1,3.814,2.795,5.822,5.822,0,0,1-.835,7.594,7.167,7.167,0,0,1-5.019,1.705,7.977,7.977,0,0,1-6.68-3.27l2.953-3.217a6.822,6.822,0,0,0,1.978,1.591,4.378,4.378,0,0,0,2.013.606,2.4,2.4,0,0,0,1.529-.457,1.325,1.325,0,0,0,.58-1.055q0-1.107-2.092-2.162l-1.617-.809q-4.641-2.338-4.641-5.854a5.079,5.079,0,0,1,1.749-3.876,6.351,6.351,0,0,1,4.474-1.608,7.761,7.761,0,0,1,6.293,3.164Z" transform="translate(143 67)" fill="#1e811a"/>
    <g id="Group_82" data-name="Group 82" transform="translate(90.507 61.225) rotate(60)">
      <path id="Path_115" data-name="Path 115" d="M620.945,92.935a9.021,9.021,0,1,0,9.022,9.021A9.031,9.031,0,0,0,620.945,92.935Zm0,13.042a4.021,4.021,0,1,1,4.022-4.021A4.025,4.025,0,0,1,620.945,105.977Z" transform="translate(-611.925 -92.935)" fill="#1e811a"/>
    </g>
    <path id="Path_192" data-name="Path 192" d="M320.355,1012l26.818-15.094" transform="translate(-233.164 -907.974)" fill="none" stroke="#1e811a" stroke-width="5"/>
    <path id="Path_193" data-name="Path 193" d="M320.355,1012l26.818-15.094" transform="translate(408.275 1055.747) rotate(-180)" fill="none" stroke="#1e811a" stroke-width="5"/>
    <g id="Group_91" data-name="Group 91" transform="translate(197.19 -239.258) rotate(60)">
      <rect id="Rectangle_40" data-name="Rectangle 40" width="5" height="20.791" transform="translate(197.282 241.644) rotate(-0.133)" fill="#1e811a"/>
    </g>
    <g id="Group_130" data-name="Group 130" transform="translate(213.747 -210.579) rotate(60)">
      <rect id="Rectangle_40-2" data-name="Rectangle 40" width="5" height="20.791" transform="translate(197.282 241.644) rotate(-0.133)" fill="#1e811a"/>
    </g>
  </g>
</svg>
