<?xml version="1.0" encoding="UTF-8"?>
<!DOCTYPE svg PUBLIC "-//W3C//DTD SVG 1.0//EN" "http://www.w3.org/TR/2001/REC-SVG-20010904/DTD/svg10.dtd">
<!-- Creator: CorelDRAW X8 -->
<svg xmlns="http://www.w3.org/2000/svg" xml:space="preserve" width="2000px" height="2000px" version="1.0" style="shape-rendering:geometricPrecision; text-rendering:geometricPrecision; image-rendering:optimizeQuality; fill-rule:evenodd; clip-rule:evenodd"
viewBox="0 0 2000 2000"
 xmlns:xlink="http://www.w3.org/1999/xlink">
 <defs>
  <style type="text/css">
   <![CDATA[
    .fil1 {fill:#4DA761;fill-rule:nonzero}
    .fil0 {fill:#4DA761;fill-rule:nonzero}
   ]]>
  </style>
 </defs>
 <g id="Слой_x0020_1">
  <metadata id="CorelCorpID_0Corel-Layer"/>
  <g>
   <polygon class="fil0" points="237,1062 237,1038 557,1038 557,1062 "/>
  </g>
  <path class="fil1" d="M658 799l24 0c14,0 24,1 29,3 6,3 11,7 14,13 4,5 6,12 6,19 0,9 -2,15 -6,21 -4,5 -10,9 -18,12l29 54 -25 0 -28 -51 -2 0 0 51 -23 0 0 -122zm23 48l7 0c8,0 13,-1 16,-3 3,-2 4,-5 4,-10 0,-3 -1,-5 -2,-7 -1,-2 -3,-3 -6,-4 -2,-1 -6,-1 -13,-1l-6 0 0 25z"/>
  <polygon id="1" class="fil1" points="755,799 822,799 822,822 779,822 779,844 822,844 822,866 779,866 779,899 822,899 822,921 755,921 "/>
  <path id="2" class="fil1" d="M882 799l23 0 47 122 -24 0 -10 -25 -50 0 -10 25 -24 0 48 -122zm11 32l-16 43 33 0 -17 -43z"/>
  <polygon id="3" class="fil1" points="969,799 992,799 992,921 969,921 "/>
  <path class="fil1" d="M659 1000l22 0 0 11c4,-4 8,-8 13,-10 5,-2 10,-3 16,-3 6,0 11,2 15,4 5,3 9,7 11,13 4,-6 8,-10 14,-13 5,-2 11,-4 17,-4 6,0 12,2 17,5 5,3 8,7 11,11 2,5 3,13 3,24l0 53 -23 0 0 -46c0,-10 -1,-17 -4,-21 -2,-3 -6,-5 -11,-5 -4,0 -8,1 -11,3 -3,3 -6,6 -7,10 -2,3 -2,10 -2,18l0 41 -23 0 0 -44c0,-8 -1,-14 -2,-17 -1,-4 -3,-7 -5,-8 -3,-2 -6,-3 -9,-3 -4,0 -7,1 -10,3 -4,3 -6,6 -7,10 -2,4 -3,10 -3,19l0 40 -22 0 0 -91z"/>
  <path id="1" class="fil1" d="M886 1000l23 0 0 91 -23 0 0 -10c-4,5 -8,8 -13,10 -4,1 -9,2 -14,2 -12,0 -22,-4 -31,-13 -9,-9 -13,-21 -13,-34 0,-14 4,-25 13,-34 8,-9 18,-14 30,-14 5,0 10,1 15,3 5,2 9,5 13,9l0 -10zm-24 19c-7,0 -12,3 -17,8 -5,4 -7,11 -7,19 0,7 2,14 7,19 5,5 11,8 18,8 7,0 13,-3 17,-8 5,-5 7,-11 7,-19 0,-8 -2,-15 -7,-20 -4,-5 -10,-7 -18,-7z"/>
  <path id="2" class="fil1" d="M932 1000l23 0 0 10c5,-5 10,-8 14,-9 4,-2 8,-3 13,-3 9,0 16,3 23,10 5,5 8,13 8,23l0 60 -23 0 0 -40c0,-10 0,-18 -1,-21 -1,-4 -3,-6 -6,-8 -2,-2 -5,-3 -8,-3 -5,0 -9,2 -12,5 -4,3 -6,7 -7,12 -1,3 -1,9 -1,19l0 36 -23 0 0 -91z"/>
  <path id="3" class="fil1" d="M1035 1000l23 0 0 44c0,9 0,14 1,18 2,3 3,6 6,7 3,2 6,3 10,3 3,0 7,-1 9,-3 3,-1 5,-4 6,-7 1,-3 2,-9 2,-17l0 -45 22 0 0 39c0,16 -1,26 -3,32 -3,7 -8,13 -14,17 -6,3 -13,5 -23,5 -10,0 -18,-2 -24,-6 -6,-5 -10,-11 -13,-19 -2,-5 -2,-15 -2,-30l0 -38z"/>
  <path id="4" class="fil1" d="M1204 1000l23 0 0 91 -23 0 0 -10c-4,5 -9,8 -13,10 -5,1 -9,2 -15,2 -11,0 -22,-4 -30,-13 -9,-9 -13,-21 -13,-34 0,-14 4,-25 12,-34 9,-9 19,-14 31,-14 5,0 10,1 15,3 5,2 9,5 13,9l0 -10zm-24 19c-7,0 -13,3 -17,8 -5,4 -7,11 -7,19 0,7 2,14 7,19 5,5 10,8 17,8 8,0 14,-3 18,-8 5,-5 7,-11 7,-19 0,-8 -2,-15 -7,-20 -4,-5 -10,-7 -18,-7z"/>
  <polygon id="5" class="fil1" points="1248,965 1270,965 1270,1091 1248,1091 "/>
  <path id="6" class="fil1" d="M1339 965l23 0 0 45c4,-4 8,-7 13,-9 4,-2 9,-3 14,-3 9,0 16,3 22,10 6,5 8,13 8,23l0 60 -22 0 0 -40c0,-10 -1,-17 -2,-21 -1,-4 -2,-6 -5,-8 -2,-2 -5,-3 -9,-3 -4,0 -8,2 -12,5 -3,3 -5,7 -6,12 -1,3 -1,9 -1,19l0 36 -23 0 0 -126z"/>
  <path id="7" class="fil1" d="M1532 1052l-73 0c1,7 4,12 8,16 5,3 11,5 18,5 8,0 16,-3 22,-9l19 9c-5,7 -11,12 -17,15 -7,4 -15,5 -24,5 -14,0 -26,-4 -35,-13 -9,-9 -13,-20 -13,-34 0,-14 4,-25 13,-34 9,-9 20,-14 34,-14 14,0 26,5 35,14 9,9 13,21 13,36l0 4zm-23 -18c-1,-5 -4,-9 -9,-12 -4,-3 -9,-4 -15,-4 -6,0 -12,1 -17,5 -3,2 -5,6 -8,11l49 0z"/>
  <path id="8" class="fil1" d="M1618 965l22 0 0 126 -22 0 0 -10c-5,5 -9,8 -14,10 -4,1 -9,2 -14,2 -12,0 -22,-4 -31,-13 -8,-9 -13,-21 -13,-34 0,-14 5,-25 13,-34 8,-9 18,-14 30,-14 6,0 11,1 15,3 5,2 10,5 14,9l0 -45zm-24 54c-7,0 -13,3 -18,8 -4,4 -7,11 -7,19 0,7 3,14 7,19 5,5 11,8 18,8 7,0 13,-3 18,-8 4,-5 7,-11 7,-19 0,-8 -3,-15 -7,-20 -5,-5 -11,-7 -18,-7z"/>
  <path id="9" class="fil1" d="M1731 1000l22 0 0 78c0,15 -3,27 -9,34 -8,10 -21,14 -38,14 -8,0 -16,-1 -22,-3 -6,-2 -11,-5 -15,-10 -5,-4 -8,-9 -10,-15l26 0c2,2 5,4 8,5 4,2 8,2 13,2 6,0 11,-1 14,-3 4,-1 7,-4 8,-7 2,-3 3,-8 3,-15 -4,4 -9,7 -13,8 -4,2 -9,3 -15,3 -12,0 -23,-4 -31,-13 -8,-9 -13,-20 -13,-33 0,-15 5,-26 14,-35 8,-8 18,-12 29,-12 5,0 10,1 15,3 4,2 9,5 14,10l0 -11zm-24 20c-7,0 -13,2 -18,7 -5,5 -7,11 -7,18 0,7 2,13 7,18 5,5 11,7 18,7 7,0 13,-2 18,-7 4,-4 7,-10 7,-18 0,-8 -3,-14 -7,-18 -5,-5 -11,-7 -18,-7z"/>
  <path id="10" class="fil1" d="M1867 1052l-73 0c1,7 4,12 8,16 5,3 11,5 18,5 8,0 16,-3 22,-9l19 9c-5,7 -11,12 -17,15 -7,4 -15,5 -24,5 -14,0 -26,-4 -35,-13 -9,-9 -13,-20 -13,-34 0,-14 4,-25 13,-34 9,-9 20,-14 34,-14 14,0 26,5 35,14 9,9 13,21 13,36l0 4zm-23 -18c-1,-5 -4,-9 -9,-12 -4,-3 -9,-4 -15,-4 -6,0 -12,1 -17,5 -3,2 -6,6 -8,11l49 0z"/>
  <g>
   <path class="fil0" d="M168 1051l0 0 0 -2 0 -2 0 -2 1 -2 0 -3 1 -2 0 -2 1 -2 1 -1 1 -2 1 -2 1 -2 1 -2 2 -1 1 -2 1 -1 2 -2 1 -1 2 -1 2 -1 1 -2 2 -1 2 -1 2 0 2 -1 2 -1 2 0 2 -1 2 0 2 -1 3 0 2 0 0 25 -1 0 -1 0 -1 0 -1 1 -1 0 -1 0 0 0 -1 1 -1 0 -1 0 -1 1 0 0 -1 1 -1 0 0 1 -1 0 -1 1 0 1 -1 0 0 1 -1 1 0 1 -1 0 0 1 0 1 0 1 -1 1 0 1 0 0 0 1 0 1 0 1 0 0 -25 0zm43 43l0 0 -2 0 -3 0 -2 0 -2 -1 -2 0 -2 -1 -2 0 -2 -1 -2 -1 -2 -1 -2 -1 -1 -1 -2 -1 -2 -2 -1 -1 -2 -1 -1 -2 -1 -2 -2 -1 -1 -2 -1 -2 -1 -1 -1 -2 -1 -2 -1 -2 0 -2 -1 -2 0 -2 -1 -2 0 -2 0 -3 0 -2 25 0 0 1 0 1 0 1 0 1 0 1 1 1 0 0 0 1 0 1 1 1 0 0 1 1 0 1 1 1 0 0 1 1 1 0 0 1 1 1 1 0 0 1 1 0 1 0 1 1 1 0 0 0 1 1 1 0 1 0 1 0 1 0 1 0 0 0 0 25zm43 -43l0 0 0 2 -1 3 0 2 0 2 -1 2 0 2 -1 2 -1 2 -1 2 -1 2 -1 1 -1 2 -1 2 -1 1 -1 2 -2 2 -1 1 -2 1 -2 2 -1 1 -2 1 -2 1 -2 1 -2 1 -2 1 -2 0 -2 1 -2 0 -2 1 -2 0 -2 0 -2 0 0 -25 1 0 1 0 0 0 1 0 1 0 1 -1 1 0 1 0 1 -1 0 0 1 0 1 -1 0 0 1 -1 1 -1 0 0 1 -1 1 0 0 -1 1 -1 0 -1 1 0 0 -1 0 -1 1 -1 0 0 0 -1 0 -1 1 -1 0 -1 0 -1 0 -1 0 0 25 0zm-43 -43l0 0 2 0 2 0 2 1 2 0 2 1 2 0 2 1 2 1 2 0 2 1 2 1 2 2 1 1 2 1 2 1 1 2 2 1 1 2 1 1 1 2 1 2 1 2 1 2 1 1 1 2 1 2 0 2 1 3 0 2 0 2 1 2 0 2 -25 0 0 -1 0 -1 0 -1 -1 0 0 -1 0 -1 0 -1 -1 -1 0 -1 0 0 -1 -1 0 -1 -1 -1 0 0 -1 -1 -1 -1 0 0 -1 -1 -1 0 0 -1 -1 0 -1 -1 0 0 -1 0 -1 -1 -1 0 -1 0 -1 0 -1 -1 0 0 -1 0 -1 0 0 0 0 -25z"/>
  </g>
  <g>
   <polygon class="fil0" points="488,851 168,851 168,827 488,827 "/>
  </g>
  <g>
   <path class="fil0" d="M557 840l-25 0 0 0 0 0 0 -1 0 -1 0 -1 0 -1 -1 -1 0 -1 0 -1 -1 0 0 -1 0 -1 -1 -1 0 0 -1 -1 0 -1 -1 0 -1 -1 0 0 -1 -1 -1 0 0 -1 -1 0 -1 -1 -1 0 -1 0 0 -1 -1 0 -1 0 -1 0 -1 0 -1 -1 -1 0 0 -25 2 1 3 0 2 0 2 0 2 1 2 0 2 1 2 1 2 1 2 1 2 1 1 1 2 1 2 1 1 2 2 1 1 2 1 1 2 2 1 1 1 2 1 2 1 2 1 2 1 2 0 2 1 2 0 2 1 2 0 2 0 2 0 2 0 0zm-43 43l0 -25 0 0 1 0 1 0 1 0 1 0 1 0 1 0 0 -1 1 0 1 0 1 -1 1 0 0 -1 1 0 1 -1 0 0 1 -1 1 0 0 -1 1 -1 0 -1 1 0 0 -1 0 -1 1 -1 0 0 0 -1 1 -1 0 -1 0 -1 0 -1 0 -1 0 -1 25 0 0 3 0 2 0 2 -1 2 0 2 -1 2 0 2 -1 2 -1 2 -1 2 -1 2 -1 1 -1 2 -2 2 -1 1 -1 2 -2 1 -1 2 -2 1 -2 1 -1 1 -2 1 -2 1 -2 1 -2 1 -2 0 -2 1 -2 1 -2 0 -2 0 -3 0 -2 0 0 0zm-43 -43l25 0 0 0 0 1 0 1 0 1 1 1 0 1 0 1 0 1 1 0 0 1 0 1 1 1 0 0 1 1 0 1 1 1 1 0 0 1 1 0 0 1 1 0 1 1 1 0 0 1 1 0 1 0 1 1 1 0 1 0 0 0 1 0 1 0 1 0 0 25 -2 0 -2 0 -2 0 -2 0 -2 -1 -3 -1 -2 0 -1 -1 -2 -1 -2 -1 -2 -1 -2 -1 -1 -1 -2 -1 -2 -2 -1 -1 -2 -2 -1 -1 -1 -2 -1 -2 -1 -1 -2 -2 0 -2 -1 -2 -1 -2 -1 -2 0 -2 -1 -2 0 -2 0 -2 -1 -2 0 -3 0 0zm43 -43l0 25 0 0 -1 0 -1 1 -1 0 0 0 -1 0 -1 0 -1 1 -1 0 -1 0 0 1 -1 0 -1 1 -1 0 0 1 -1 0 0 1 -1 0 -1 1 0 1 -1 0 0 1 -1 1 0 1 0 0 -1 1 0 1 0 1 0 1 -1 1 0 1 0 1 0 0 -25 0 0 -2 1 -2 0 -2 0 -2 1 -2 0 -2 1 -2 1 -2 1 -2 0 -2 2 -2 1 -2 1 -1 1 -2 1 -1 2 -2 1 -1 2 -2 2 -1 1 -1 2 -1 2 -1 2 -1 2 -1 1 -1 2 -1 3 0 2 -1 2 0 2 0 2 0 2 -1 0 0z"/>
  </g>
  <g>
   <polygon class="fil0" points="290,1115 290,1091 435,1091 435,1115 "/>
  </g>
  <g>
   <polygon class="fil0" points="290,799 290,775 435,775 435,799 "/>
  </g>
 </g>
</svg>
