<?xml version="1.0" encoding="utf-8"?>
<!-- Generator: Adobe Illustrator 17.1.0, SVG Export Plug-In . SVG Version: 6.00 Build 0)  -->
<!DOCTYPE svg PUBLIC "-//W3C//DTD SVG 1.0//EN" "http://www.w3.org/TR/2001/REC-SVG-20010904/DTD/svg10.dtd">
<svg version="1.0" xmlns="http://www.w3.org/2000/svg" xmlns:xlink="http://www.w3.org/1999/xlink" x="0px" y="0px"
	 viewBox="0 0 320 150" enable-background="new 0 0 320 150" xml:space="preserve">
<g id="Layer_1">
</g>
<g id="Layer_3">
</g>
<g id="Layer_4">
</g>
<g id="Layer_5">
	<g>
		<g>
			<path fill="#007D96" d="M81.7,115c-5,0-9-4-9-9c0-5,4-9,9-9c5,0,9,4,9,9C90.7,110.9,86.7,115,81.7,115z M81.7,101.9
				c-2.2,0-4,1.8-4,4c0,2.2,1.8,4,4,4c2.2,0,4-1.8,4-4C85.7,103.7,83.9,101.9,81.7,101.9z"/>
		</g>
		<g>
			<path fill="#007D96" d="M180.9,46.2h5.2c2.9,0,4.9,0.3,6.1,0.8c1.2,0.5,2.2,1.4,2.9,2.5s1.1,2.6,1.1,4.2c0,1.7-0.4,3.1-1.2,4.3
				s-2,2-3.7,2.6l6.1,11.5h-5.4l-5.8-11h-0.5v11h-4.9V46.2z M185.8,56.3h1.5c1.6,0,2.6-0.2,3.2-0.6c0.6-0.4,0.9-1.1,0.9-2
				c0-0.6-0.1-1.1-0.4-1.5c-0.3-0.4-0.7-0.7-1.2-0.9s-1.4-0.3-2.7-0.3h-1.3V56.3z"/>
			<path fill="#007D96" d="M201.4,46.2h14.1V51h-9.2v4.7h9.2v4.7h-9.2v6.8h9.2v4.8h-14.1V46.2z"/>
			<path fill="#007D96" d="M228,46.2h5l9.9,25.9h-5.1l-2-5.3h-10.6l-2.1,5.3h-5.1L228,46.2z M230.6,53.1l-3.5,8.9h6.9L230.6,53.1z"
				/>
			<path fill="#007D96" d="M245.7,45.6h4.8v26.5h-4.8V45.6z"/>
			<path fill="#007D96" d="M179.5,81.6h4.8v26.5h-4.8V81.6z"/>
			<path fill="#007D96" d="M207.8,99.9h-15.4c0.2,1.4,0.8,2.4,1.8,3.2s2.2,1.2,3.7,1.2c1.8,0,3.3-0.6,4.6-1.9l4,1.9
				c-1,1.4-2.2,2.5-3.6,3.2s-3.1,1-5,1c-3,0-5.4-0.9-7.3-2.8s-2.8-4.3-2.8-7.1c0-2.9,0.9-5.3,2.8-7.3s4.2-2.9,7.1-2.9
				c3,0,5.5,1,7.3,2.9s2.8,4.5,2.8,7.6L207.8,99.9z M203,96.1c-0.3-1.1-0.9-1.9-1.9-2.6c-0.9-0.7-2-1-3.2-1c-1.3,0-2.5,0.4-3.5,1.1
				c-0.6,0.5-1.2,1.3-1.8,2.5H203z"/>
			<path fill="#007D96" d="M209.6,88.9h4.9l4.8,11.3l4.8-11.3h4.9l-8.1,19.1h-3.1L209.6,88.9z"/>
			<path fill="#007D96" d="M251,99.9h-15.4c0.2,1.4,0.8,2.4,1.8,3.2s2.2,1.2,3.7,1.2c1.8,0,3.3-0.6,4.6-1.9l4,1.9
				c-1,1.4-2.2,2.5-3.6,3.2s-3.1,1-5,1c-3,0-5.4-0.9-7.3-2.8s-2.8-4.3-2.8-7.1c0-2.9,0.9-5.3,2.8-7.3s4.2-2.9,7.1-2.9
				c3,0,5.5,1,7.3,2.9s2.8,4.5,2.8,7.6L251,99.9z M246.2,96.1c-0.3-1.1-0.9-1.9-1.9-2.6c-0.9-0.7-2-1-3.2-1c-1.3,0-2.5,0.4-3.5,1.1
				c-0.6,0.5-1.2,1.3-1.8,2.5H246.2z"/>
			<path fill="#007D96" d="M254.4,81.6h4.8v26.5h-4.8V81.6z"/>
		</g>
		<g>
			<path fill="#007D96" d="M158,63.5h-17V43h17V63.5z M146,58.5h7V48h-7V58.5z"/>
		</g>
		<g>
			<path fill="#007D96" d="M124,102h-17V58.5h17V102z M112,97h7V63.5h-7V97z"/>
		</g>
		<g>
			<rect x="113" y="37" fill="#007D96" width="5" height="24"/>
		</g>
		<g>
			<rect x="113" y="100" fill="#007D96" width="5" height="10"/>
		</g>
		<g>
			<rect x="147" y="38" fill="#007D96" width="5" height="7"/>
		</g>
		<g>
			<rect x="147" y="61" fill="#007D96" width="5" height="37"/>
		</g>
		<g>
			<rect x="128" y="75" fill="#007D96" width="12" height="5"/>
		</g>
		<g>
			<rect x="88" y="75" fill="#007D96" width="14" height="5"/>
		</g>
		<g>
			<rect x="79" y="66" fill="#007D96" width="5" height="33"/>
		</g>
	</g>
</g>
</svg>
