<?xml version="1.0" encoding="utf-8"?>
<!-- Generator: Adobe Illustrator 17.1.0, SVG Export Plug-In . SVG Version: 6.00 Build 0)  -->
<!DOCTYPE svg PUBLIC "-//W3C//DTD SVG 1.0//EN" "http://www.w3.org/TR/2001/REC-SVG-20010904/DTD/svg10.dtd">
<svg version="1.0" xmlns="http://www.w3.org/2000/svg" xmlns:xlink="http://www.w3.org/1999/xlink" x="0px" y="0px"
	 viewBox="0 0 359.7 150" enable-background="new 0 0 359.7 150" xml:space="preserve">
<g id="Layer_1">
</g>
<g id="Layer_3">
</g>
<g id="Layer_4">
</g>
<g id="Layer_5">
	<g>
		<g>
			<path fill="#3DC4BD" d="M157.1,42.5h5.2c2.9,0,4.9,0.3,6.1,0.8c1.2,0.5,2.2,1.4,2.9,2.5c0.7,1.2,1.1,2.6,1.1,4.2
				c0,1.7-0.4,3.1-1.2,4.3s-2,2-3.7,2.6l6.1,11.5h-5.4l-5.8-11H162v11h-4.9V42.5z M162,52.6h1.5c1.6,0,2.6-0.2,3.2-0.6
				s0.9-1.1,0.9-2c0-0.6-0.1-1.1-0.4-1.5c-0.3-0.4-0.7-0.7-1.2-0.9c-0.5-0.2-1.4-0.3-2.7-0.3H162V52.6z"/>
			<path fill="#3DC4BD" d="M177.6,42.5h14.1v4.8h-9.2V52h9.2v4.7h-9.2v6.8h9.2v4.8h-14.1V42.5z"/>
			<path fill="#3DC4BD" d="M204.2,42.5h5l9.9,25.9h-5.1l-2-5.3h-10.6l-2.1,5.3h-5.1L204.2,42.5z M206.8,49.3l-3.5,8.9h6.9
				L206.8,49.3z"/>
			<path fill="#3DC4BD" d="M221.9,41.8h4.8v26.5h-4.8V41.8z"/>
			<path fill="#3DC4BD" d="M155.7,77.8h4.8v26.5h-4.8V77.8z"/>
			<path fill="#3DC4BD" d="M173.8,84.7c1.8,0,3.5,0.5,5.1,1.4s2.8,2.1,3.7,3.7s1.3,3.2,1.3,5c0,1.8-0.4,3.5-1.3,5.1
				s-2.1,2.8-3.7,3.7s-3.3,1.3-5.1,1.3c-2.7,0-5.1-1-7-2.9s-2.9-4.3-2.9-7.1c0-3,1.1-5.5,3.3-7.5C169.1,85.6,171.3,84.7,173.8,84.7z
				 M173.9,89.2c-1.5,0-2.7,0.5-3.7,1.6c-1,1-1.5,2.4-1.5,4c0,1.7,0.5,3,1.5,4c1,1,2.2,1.5,3.7,1.5c1.5,0,2.8-0.5,3.8-1.6
				c1-1,1.5-2.4,1.5-4s-0.5-3-1.5-4C176.7,89.7,175.4,89.2,173.9,89.2z"/>
			<path fill="#3DC4BD" d="M206.6,89.1l-4,2.2c-0.8-0.8-1.5-1.3-2.2-1.6s-1.6-0.5-2.6-0.5c-1.8,0-3.2,0.5-4.4,1.6
				c-1.1,1.1-1.7,2.4-1.7,4.1c0,1.6,0.5,3,1.6,4c1.1,1,2.5,1.5,4.2,1.5c2.1,0,3.8-0.7,5-2.2l3.8,2.6c-2.1,2.7-4.9,4-8.7,4
				c-3.4,0-6-1-7.9-3s-2.9-4.3-2.9-7c0-1.9,0.5-3.6,1.4-5.1s2.2-2.8,3.9-3.7s3.5-1.3,5.6-1.3c1.9,0,3.6,0.4,5.1,1.1
				S205.7,87.7,206.6,89.1z"/>
			<path fill="#3DC4BD" d="M211,77.8h4.8v15.3l7.1-7.9h6l-8.2,9.2l9.2,10h-6l-8.1-8.8v8.8H211V77.8z"/>
			<path fill="#3DC4BD" d="M256,77.8h4.8v26.5H256v-2c-0.9,0.9-1.9,1.5-2.8,1.9s-2,0.6-3.1,0.6c-2.5,0-4.6-1-6.4-2.9
				c-1.8-1.9-2.7-4.3-2.7-7.1c0-3,0.9-5.4,2.6-7.3s3.9-2.8,6.4-2.8c1.1,0,2.2,0.2,3.2,0.7s1.9,1.1,2.8,2V77.8z M251,89.1
				c-1.5,0-2.7,0.5-3.7,1.6s-1.5,2.4-1.5,4c0,1.7,0.5,3,1.5,4.1c1,1.1,2.2,1.6,3.7,1.6c1.5,0,2.8-0.5,3.7-1.6c1-1,1.5-2.4,1.5-4.1
				c0-1.7-0.5-3-1.5-4C253.7,89.7,252.5,89.1,251,89.1z"/>
			<path fill="#3DC4BD" d="M264.5,85.2h4.1v2.4c0.4-0.9,1-1.7,1.8-2.2s1.5-0.7,2.4-0.7c0.6,0,1.3,0.2,2,0.5l-1.5,4.1
				c-0.6-0.3-1-0.4-1.4-0.4c-0.7,0-1.4,0.5-1.9,1.4s-0.8,2.7-0.8,5.4l0,0.9v7.7h-4.8V85.2z"/>
			<path fill="#3DC4BD" d="M279,77.3c0.8,0,1.6,0.3,2.2,0.9c0.6,0.6,0.9,1.3,0.9,2.2c0,0.9-0.3,1.6-0.9,2.2
				c-0.6,0.6-1.3,0.9-2.1,0.9c-0.9,0-1.6-0.3-2.2-0.9s-0.9-1.4-0.9-2.2c0-0.8,0.3-1.6,0.9-2.2C277.5,77.6,278.2,77.3,279,77.3z
				 M276.6,85.2h4.8v19.1h-4.8V85.2z"/>
			<path fill="#3DC4BD" d="M283.8,85.2h4.9l4.8,11.3l4.8-11.3h4.9l-8.1,19.1h-3.1L283.8,85.2z"/>
			<path fill="#3DC4BD" d="M325.1,96.2h-15.4c0.2,1.4,0.8,2.4,1.8,3.2s2.2,1.2,3.7,1.2c1.8,0,3.3-0.6,4.6-1.9l4,1.9
				c-1,1.4-2.2,2.5-3.6,3.2s-3.1,1-5,1c-3,0-5.4-0.9-7.3-2.8s-2.8-4.3-2.8-7.1c0-2.9,0.9-5.3,2.8-7.3s4.2-2.9,7.1-2.9
				c3,0,5.5,1,7.3,2.9s2.8,4.5,2.8,7.6L325.1,96.2z M320.3,92.4c-0.3-1.1-0.9-1.9-1.9-2.6c-0.9-0.7-2-1-3.2-1
				c-1.3,0-2.5,0.4-3.5,1.1c-0.6,0.5-1.2,1.3-1.8,2.5H320.3z"/>
			<path fill="#3DC4BD" d="M327.9,85.2h4.1v2.4c0.4-0.9,1-1.7,1.8-2.2s1.5-0.7,2.4-0.7c0.6,0,1.3,0.2,2,0.5l-1.5,4.1
				c-0.6-0.3-1-0.4-1.4-0.4c-0.7,0-1.4,0.5-1.9,1.4s-0.8,2.7-0.8,5.4l0,0.9v7.7h-4.8V85.2z"/>
		</g>
		<g>
			<g>
				<path fill="#3DC4BD" d="M127.3,53.8c-5,0-9-4-9-9s4-9,9-9c5,0,9,4,9,9S132.2,53.8,127.3,53.8z M127.3,40.8c-2.2,0-4,1.8-4,4
					c0,2.2,1.8,4,4,4c2.2,0,4-1.8,4-4C131.3,42.6,129.5,40.8,127.3,40.8z"/>
			</g>
			<g>
				<path fill="#3DC4BD" d="M29.8,121.9c-5,0-9-4-9-9c0-5,4-9,9-9c5,0,9,4,9,9C38.9,117.8,34.8,121.9,29.8,121.9z M29.8,108.8
					c-2.2,0-4,1.8-4,4c0,2.2,1.8,4,4,4c2.2,0,4-1.8,4-4C33.9,110.7,32,108.8,29.8,108.8z"/>
			</g>
			<g>
				<path fill="#3DC4BD" d="M87.3,100.5h-17V57h17V100.5z M75.3,95.5h7V62h-7V95.5z"/>
			</g>
			<g>
				<rect x="76.3" y="42.3" fill="#3DC4BD" width="5" height="17.3"/>
			</g>
			<g>
				<rect x="76.3" y="98" fill="#3DC4BD" width="5" height="17.3"/>
			</g>
			<g>
				<rect x="46.8" y="98.6" fill="#3DC4BD" width="14" height="5"/>
			</g>
			<g>
				<rect x="36.8" y="110.1" fill="#3DC4BD" width="33" height="5"/>
			</g>
			<g>
				<rect x="96.3" y="54" fill="#3DC4BD" width="14" height="5"/>
			</g>
			<g>
				<rect x="87.3" y="42.5" fill="#3DC4BD" width="33" height="5"/>
			</g>
		</g>
	</g>
</g>
</svg>
