<?xml version="1.0" encoding="utf-8"?>
<!-- Generator: Adobe Illustrator 17.1.0, SVG Export Plug-In . SVG Version: 6.00 Build 0)  -->
<!DOCTYPE svg PUBLIC "-//W3C//DTD SVG 1.1//EN" "http://www.w3.org/Graphics/SVG/1.1/DTD/svg11.dtd">
<svg version="1.1" xmlns="http://www.w3.org/2000/svg" xmlns:xlink="http://www.w3.org/1999/xlink" x="0px" y="0px"
	 viewBox="0 0 264.7 69.5" enable-background="new 0 0 264.7 69.5" xml:space="preserve">
<g id="Layer_1">
	<g>
		<text transform="matrix(1 0 0 1 -351.285 246.1835)"><tspan x="0" y="0" font-family="'CenturyGothic-Bold'" font-size="36">Li</tspan><tspan x="24.5" y="0" font-family="'CenturyGothic-Bold'" font-size="36">n</tspan><tspan x="45.2" y="0" font-family="'CenturyGothic-Bold'" font-size="36" letter-spacing="-1">c</tspan><tspan x="66.4" y="0" font-family="'CenturyGothic-Bold'" font-size="36">oln </tspan><tspan x="0" y="36" font-family="'CenturyGothic-Bold'" font-size="36">vir</tspan><tspan x="40.3" y="36" font-family="'CenturyGothic-Bold'" font-size="36">u</tspan><tspan x="61" y="36" font-family="'CenturyGothic-Bold'" font-size="36">s</tspan></text>
		<polygon fill="none" stroke="#000000" stroke-width="5" stroke-miterlimit="10" points="-400.2,282.6 -373.6,267.4 -373.7,236.8 
			-400.3,221.4 -426.9,236.6 -426.8,267.2 		"/>
		<line fill="none" stroke="#000000" stroke-width="5" stroke-miterlimit="10" x1="-382.2" y1="262.4" x2="-382.2" y2="241.6"/>
		<line fill="none" stroke="#000000" stroke-width="5" stroke-miterlimit="10" x1="-418.3" y1="262.3" x2="-400.2" y2="272.8"/>
		<line fill="none" stroke="#000000" stroke-width="5" stroke-miterlimit="10" x1="-400.3" y1="231.2" x2="-418.3" y2="241.6"/>
		<line fill="none" stroke="#000000" stroke-width="5" stroke-miterlimit="10" x1="-426.9" y1="276.8" x2="-439.4" y2="283.9"/>
		<line fill="none" stroke="#000000" stroke-width="5" stroke-miterlimit="10" x1="-447.7" y1="279.3" x2="-426.8" y2="267.4"/>
		<circle fill="none" stroke="#000000" stroke-width="5" stroke-miterlimit="10" cx="-453.4" cy="282.4" r="6.5"/>
		<circle fill="none" stroke="#000000" stroke-width="5" stroke-miterlimit="10" cx="-453.4" cy="221.8" r="6.5"/>
	</g>
</g>
<g id="Layer_3">
	<g>
		<polyline fill="none" stroke="#0B3FA8" stroke-width="5" stroke-miterlimit="10" points="3.3,13.4 37.1,47.2 59.7,24.6 91.6,56.5 
					"/>
		<circle fill="none" stroke="#0B3FA8" stroke-width="5" stroke-miterlimit="10" cx="30.1" cy="9.5" r="6.5"/>
		<circle fill="none" stroke="#0B3FA8" stroke-width="5" stroke-miterlimit="10" cx="9.8" cy="60.4" r="6.5"/>
		<circle fill="none" stroke="#0B3FA8" stroke-width="5" stroke-miterlimit="10" cx="95.5" cy="60.4" r="6.5"/>
		<line fill="none" stroke="#0B3FA8" stroke-width="5" stroke-miterlimit="10" x1="34.8" y1="33.6" x2="53.3" y2="15"/>
		<line fill="none" stroke="#0B3FA8" stroke-width="5" stroke-miterlimit="10" x1="92.4" y1="41.8" x2="73.8" y2="23.3"/>
		<line fill="none" stroke="#0B3FA8" stroke-width="5" stroke-miterlimit="10" x1="42.7" y1="57.5" x2="61.2" y2="38.9"/>
		<g>
			<path fill="#0B3FA8" d="M128.2,0.7h5.2c2.9,0,4.9,0.3,6.1,0.8c1.2,0.5,2.2,1.4,2.9,2.5s1.1,2.6,1.1,4.2c0,1.7-0.4,3.1-1.2,4.3
				s-2,2-3.7,2.6l6.1,11.5h-5.4l-5.8-11h-0.5v11h-4.9V0.7z M133.2,10.8h1.5c1.6,0,2.6-0.2,3.2-0.6c0.6-0.4,0.9-1.1,0.9-2
				c0-0.6-0.1-1.1-0.4-1.5c-0.3-0.4-0.7-0.7-1.2-0.9s-1.4-0.3-2.7-0.3h-1.3V10.8z"/>
			<path fill="#0B3FA8" d="M148.8,0.7h14.1v4.8h-9.2v4.7h9.2v4.7h-9.2v6.8h9.2v4.8h-14.1V0.7z"/>
			<path fill="#0B3FA8" d="M175.4,0.7h5l9.9,25.9h-5.1l-2-5.3h-10.6l-2.1,5.3h-5.1L175.4,0.7z M177.9,7.5l-3.5,8.9h6.9L177.9,7.5z"
				/>
			<path fill="#0B3FA8" d="M193.1,0h4.8v26.5h-4.8V0z"/>
			<path fill="#0B3FA8" d="M132.2,43.4v2.1c0.9-0.9,1.8-1.5,2.8-2s2.1-0.7,3.2-0.7c2.5,0,4.6,0.9,6.4,2.8s2.6,4.3,2.6,7.3
				c0,2.8-0.9,5.2-2.7,7.1s-3.9,2.9-6.4,2.9c-1.1,0-2.1-0.2-3.1-0.6s-1.9-1-2.8-1.9v9h-4.8V43.4H132.2z M137.2,47.3
				c-1.5,0-2.8,0.5-3.8,1.5s-1.5,2.4-1.5,4c0,1.7,0.5,3.1,1.5,4.1s2.3,1.6,3.8,1.6c1.5,0,2.7-0.5,3.7-1.6s1.5-2.4,1.5-4.1
				c0-1.6-0.5-3-1.5-4S138.7,47.3,137.2,47.3z"/>
			<path fill="#0B3FA8" d="M165.3,43.4h4.8v19.1h-4.8v-2c-0.9,0.9-1.9,1.5-2.8,1.9s-2,0.6-3.1,0.6c-2.5,0-4.6-1-6.4-2.9
				c-1.8-1.9-2.7-4.3-2.7-7.1c0-3,0.9-5.4,2.6-7.3s3.9-2.8,6.4-2.8c1.1,0,2.2,0.2,3.2,0.7s1.9,1.1,2.8,2V43.4z M160.2,47.3
				c-1.5,0-2.7,0.5-3.7,1.6c-1,1-1.5,2.4-1.5,4c0,1.7,0.5,3,1.5,4.1c1,1.1,2.2,1.6,3.7,1.6c1.5,0,2.8-0.5,3.7-1.6
				c1-1,1.5-2.4,1.5-4.1c0-1.7-0.5-3-1.5-4C163,47.8,161.7,47.3,160.2,47.3z"/>
			<path fill="#0B3FA8" d="M175.5,36.3h4.8v7h2.8v4.1h-2.8v15h-4.8v-15H173v-4.1h2.5V36.3z"/>
			<path fill="#0B3FA8" d="M186.3,36.3h4.8v7h2.8v4.1h-2.8v15h-4.8v-15h-2.5v-4.1h2.5V36.3z"/>
			<path fill="#0B3FA8" d="M215.7,54.3h-15.4c0.2,1.4,0.8,2.4,1.8,3.2s2.2,1.2,3.7,1.2c1.8,0,3.3-0.6,4.6-1.9l4,1.9
				c-1,1.4-2.2,2.5-3.6,3.2s-3.1,1-5,1c-3,0-5.4-0.9-7.3-2.8s-2.8-4.3-2.8-7.1c0-2.9,0.9-5.3,2.8-7.3s4.2-2.9,7.1-2.9
				c3,0,5.5,1,7.3,2.9s2.8,4.5,2.8,7.6L215.7,54.3z M210.9,50.6c-0.3-1.1-0.9-1.9-1.9-2.6c-0.9-0.7-2-1-3.2-1
				c-1.3,0-2.5,0.4-3.5,1.1c-0.6,0.5-1.2,1.3-1.8,2.5H210.9z"/>
			<path fill="#0B3FA8" d="M218.4,43.4h4.1v2.4c0.4-0.9,1-1.7,1.8-2.2s1.5-0.7,2.4-0.7c0.6,0,1.3,0.2,2,0.5l-1.5,4.1
				c-0.6-0.3-1-0.4-1.4-0.4c-0.7,0-1.4,0.5-1.9,1.4s-0.8,2.7-0.8,5.4l0,0.9v7.7h-4.8V43.4z"/>
			<path fill="#0B3FA8" d="M231.1,43.4h4.8v2c1.1-0.9,2.1-1.6,3-1.9c0.9-0.4,1.8-0.5,2.7-0.5c1.9,0,3.5,0.7,4.8,2
				c1.1,1.1,1.7,2.8,1.7,5v12.6h-4.7v-8.4c0-2.3-0.1-3.8-0.3-4.5c-0.2-0.7-0.6-1.3-1.1-1.7c-0.5-0.4-1.1-0.6-1.9-0.6
				c-1,0-1.8,0.3-2.5,1s-1.2,1.5-1.4,2.7c-0.1,0.6-0.2,1.9-0.2,3.9v7.7h-4.8V43.4z"/>
			<path fill="#0B3FA8" d="M264.4,46.1l-3,3c-1.2-1.2-2.3-1.8-3.3-1.8c-0.5,0-1,0.1-1.3,0.3s-0.5,0.5-0.5,0.9c0,0.3,0.1,0.5,0.3,0.7
				s0.7,0.5,1.4,0.9l1.8,0.9c1.9,0.9,3.1,1.8,3.8,2.8s1,2.1,1,3.3c0,1.7-0.6,3.1-1.9,4.3s-2.9,1.7-5,1.7c-2.8,0-5-1.1-6.7-3.3l3-3.2
				c0.6,0.7,1.2,1.2,2,1.6s1.4,0.6,2,0.6c0.6,0,1.1-0.2,1.5-0.5s0.6-0.7,0.6-1.1c0-0.7-0.7-1.5-2.1-2.2l-1.6-0.8
				c-3.1-1.6-4.6-3.5-4.6-5.9c0-1.5,0.6-2.8,1.7-3.9s2.7-1.6,4.5-1.6c1.2,0,2.4,0.3,3.5,0.8S263.6,45,264.4,46.1z"/>
		</g>
	</g>
</g>
<g id="Layer_4">
	<g>
		<g>
			<path fill="#C8283C" d="M101.2,183.3h5.2c2.9,0,4.9,0.3,6.1,0.8c1.2,0.5,2.2,1.4,2.9,2.5c0.7,1.2,1.1,2.6,1.1,4.2
				c0,1.7-0.4,3.1-1.2,4.3s-2,2-3.7,2.6l6.1,11.5h-5.4l-5.8-11h-0.5v11h-4.9V183.3z M106.2,193.4h1.5c1.6,0,2.6-0.2,3.2-0.6
				s0.9-1.1,0.9-2c0-0.6-0.1-1.1-0.4-1.5c-0.3-0.4-0.7-0.7-1.2-0.9c-0.5-0.2-1.4-0.3-2.7-0.3h-1.3V193.4z"/>
			<path fill="#C8283C" d="M121.8,183.3h14.1v4.8h-9.2v4.7h9.2v4.7h-9.2v6.8h9.2v4.8h-14.1V183.3z"/>
			<path fill="#C8283C" d="M148.4,183.3h5l9.9,25.9h-5.1l-2-5.3h-10.6l-2.1,5.3h-5.1L148.4,183.3z M150.9,190.2l-3.5,8.9h6.9
				L150.9,190.2z"/>
			<path fill="#C8283C" d="M166.1,182.7h4.8v26.5h-4.8V182.7z"/>
			<path fill="#C8283C" d="M100.4,226h4.8v2c1.1-0.9,2.1-1.6,3-1.9c0.9-0.4,1.8-0.5,2.7-0.5c1.9,0,3.5,0.7,4.8,2
				c1.1,1.1,1.7,2.8,1.7,5v12.6h-4.7v-8.4c0-2.3-0.1-3.8-0.3-4.5c-0.2-0.7-0.6-1.3-1.1-1.7c-0.5-0.4-1.1-0.6-1.9-0.6
				c-1,0-1.8,0.3-2.5,1s-1.2,1.5-1.4,2.7c-0.1,0.6-0.2,1.9-0.2,3.9v7.7h-4.8V226z"/>
			<path fill="#C8283C" d="M141.1,237h-15.4c0.2,1.4,0.8,2.4,1.8,3.2c1,0.8,2.2,1.2,3.7,1.2c1.8,0,3.3-0.6,4.6-1.9l4,1.9
				c-1,1.4-2.2,2.5-3.6,3.2s-3.1,1-5,1c-3,0-5.4-0.9-7.3-2.8s-2.8-4.3-2.8-7.1c0-2.9,0.9-5.3,2.8-7.3s4.2-2.9,7.1-2.9
				c3,0,5.5,1,7.3,2.9s2.8,4.5,2.8,7.6L141.1,237z M136.3,233.2c-0.3-1.1-0.9-1.9-1.9-2.6s-2-1-3.2-1c-1.3,0-2.5,0.4-3.5,1.1
				c-0.6,0.5-1.2,1.3-1.8,2.5H136.3z"/>
			<path fill="#C8283C" d="M142.9,226h4.7l3.8,10.9l4.1-10.9h2.9l4.1,10.8l3.9-10.8h4.7l-7,19.1h-3l-4.1-10.9l-4.2,10.9h-3
				L142.9,226z"/>
			<path fill="#C8283C" d="M185.5,228.7l-3,3c-1.2-1.2-2.3-1.8-3.3-1.8c-0.5,0-1,0.1-1.3,0.3s-0.5,0.5-0.5,0.9
				c0,0.3,0.1,0.5,0.3,0.7s0.7,0.5,1.4,0.9l1.8,0.9c1.9,0.9,3.1,1.8,3.8,2.8s1,2.1,1,3.3c0,1.7-0.6,3.1-1.9,4.3s-2.9,1.7-5,1.7
				c-2.8,0-5-1.1-6.7-3.3l3-3.2c0.6,0.7,1.2,1.2,2,1.6s1.4,0.6,2,0.6c0.6,0,1.1-0.2,1.5-0.5s0.6-0.7,0.6-1.1c0-0.7-0.7-1.5-2.1-2.2
				l-1.6-0.8c-3.1-1.6-4.6-3.5-4.6-5.9c0-1.5,0.6-2.8,1.7-3.9s2.7-1.6,4.5-1.6c1.2,0,2.4,0.3,3.5,0.8S184.8,227.7,185.5,228.7z"/>
		</g>
		<g>
			<path fill="#C8283C" d="M71,237v-61H12v72h47.3c1.1,4,4.6,6.6,8.7,6.6c5,0,9.1-4,9.1-9C77.1,241.6,74,238.2,71,237z M17,181h49
				v55.8c-3,0.8-5.8,3.2-6.7,6.2H17V181z M68,249.6c-2.2,0-4-1.8-4-4s1.8-4,4-4s4,1.8,4,4S70.2,249.6,68,249.6z"/>
			
				<rect x="-8.9" y="192.2" transform="matrix(-2.829711e-003 -1 1 -2.829711e-003 -190.4883 199.4719)" fill="#C8283C" width="26.2" height="5"/>
			
				<rect x="-9" y="232.4" transform="matrix(-3.611600e-003 -1 1 -3.611600e-003 -230.7327 239.9228)" fill="#C8283C" width="26.2" height="5"/>
			<rect x="20.6" y="185.7" fill="#C8283C" width="26.2" height="5"/>
			<rect x="21" y="196" fill="#C8283C" width="40" height="5"/>
			<rect x="21" y="205" fill="#C8283C" width="40" height="5"/>
			<rect x="20.6" y="214.7" fill="#C8283C" width="26.2" height="5"/>
			<rect x="21" y="225" fill="#C8283C" width="40" height="5"/>
			<rect x="21" y="234" fill="#C8283C" width="26" height="5"/>
		</g>
	</g>
</g>
<g id="Layer_5">
	<g>
		<g>
			<path fill="#007D96" d="M109.3,359h5.2c2.9,0,4.9,0.3,6.1,0.8c1.2,0.5,2.2,1.4,2.9,2.5s1.1,2.6,1.1,4.2c0,1.7-0.4,3.1-1.2,4.3
				s-2,2-3.7,2.6l6.1,11.5h-5.4l-5.8-11h-0.5v11h-4.9V359z M114.2,369.1h1.5c1.6,0,2.6-0.2,3.2-0.6c0.6-0.4,0.9-1.1,0.9-2
				c0-0.6-0.1-1.1-0.4-1.5c-0.3-0.4-0.7-0.7-1.2-0.9s-1.4-0.3-2.7-0.3h-1.3V369.1z"/>
			<path fill="#007D96" d="M129.8,359h14.1v4.8h-9.2v4.7h9.2v4.7h-9.2v6.8h9.2v4.8h-14.1V359z"/>
			<path fill="#007D96" d="M156.4,359h5l9.9,25.9h-5.1l-2-5.3h-10.6l-2.1,5.3h-5.1L156.4,359z M158.9,365.9l-3.5,8.9h6.9
				L158.9,365.9z"/>
			<path fill="#007D96" d="M174.1,358.4h4.8v26.5h-4.8V358.4z"/>
			<path fill="#007D96" d="M107.9,394.4h4.8v26.5h-4.8V394.4z"/>
			<path fill="#007D96" d="M118.9,393.9c0.8,0,1.6,0.3,2.2,0.9c0.6,0.6,0.9,1.3,0.9,2.2c0,0.9-0.3,1.6-0.9,2.2
				c-0.6,0.6-1.3,0.9-2.1,0.9c-0.9,0-1.6-0.3-2.2-0.9s-0.9-1.4-0.9-2.2c0-0.8,0.3-1.6,0.9-2.2S118.1,393.9,118.9,393.9z
				 M116.5,401.7h4.8v19.1h-4.8V401.7z"/>
			<path fill="#007D96" d="M125.7,401.7h4.8v2c1.1-0.9,2.1-1.6,3-1.9s1.8-0.5,2.7-0.5c1.9,0,3.5,0.7,4.8,2c1.1,1.1,1.7,2.8,1.7,5
				v12.6h-4.7v-8.4c0-2.3-0.1-3.8-0.3-4.5c-0.2-0.7-0.6-1.3-1.1-1.7c-0.5-0.4-1.1-0.6-1.9-0.6c-1,0-1.8,0.3-2.5,1
				c-0.7,0.6-1.2,1.5-1.4,2.7c-0.1,0.6-0.2,1.9-0.2,3.9v7.7h-4.8V401.7z"/>
			<path fill="#007D96" d="M166.4,412.7H151c0.2,1.4,0.8,2.4,1.8,3.2s2.2,1.2,3.7,1.2c1.8,0,3.3-0.6,4.6-1.9l4,1.9
				c-1,1.4-2.2,2.5-3.6,3.2s-3.1,1-5,1c-3,0-5.4-0.9-7.3-2.8s-2.8-4.3-2.8-7.1c0-2.9,0.9-5.3,2.8-7.3s4.2-2.9,7.1-2.9
				c3,0,5.5,1,7.3,2.9s2.8,4.5,2.8,7.6L166.4,412.7z M161.6,408.9c-0.3-1.1-0.9-1.9-1.9-2.6c-0.9-0.7-2-1-3.2-1
				c-1.3,0-2.5,0.4-3.5,1.1c-0.6,0.5-1.2,1.3-1.8,2.5H161.6z"/>
		</g>
		<g>
			<path fill="#007D96" d="M12,410v-31H7v31.2c-3,1.2-6.1,4.6-6.1,8.6c0,5,4.1,9,9.1,9c5,0,8.9-4,8.9-9C18.9,414.6,16,411,12,410z
				 M10.1,422.8c-2.2,0-4-1.8-4-4c0-2.2,1.8-4,4-4c2.2,0,4,1.8,4,4C14.1,421,12.3,422.8,10.1,422.8z"/>
			<path fill="#007D96" d="M86,356h-6v-5h-5v5h-6v20h6v35h5v-35h6V356z M81,371h-7v-10h7V371z"/>
			<path fill="#007D96" d="M46,350h-5v21h-6v44h6v8h5v-8h6v-44h-6V350z M47,410h-7v-34h7V410z"/>
			<rect x="56" y="388" fill="#007D96" width="12" height="5"/>
			<rect x="16" y="388" fill="#007D96" width="14" height="5"/>
		</g>
	</g>
</g>
</svg>
