<?xml version="1.0" encoding="UTF-8"?>
<!DOCTYPE svg PUBLIC "-//W3C//DTD SVG 1.0//EN" "http://www.w3.org/TR/2001/REC-SVG-20010904/DTD/svg10.dtd">
<!-- Creator: CorelDRAW X8 -->
<svg xmlns="http://www.w3.org/2000/svg" xml:space="preserve" width="2000px" height="2000px" version="1.0" style="shape-rendering:geometricPrecision; text-rendering:geometricPrecision; image-rendering:optimizeQuality; fill-rule:evenodd; clip-rule:evenodd"
viewBox="0 0 2000 2000"
 xmlns:xlink="http://www.w3.org/1999/xlink"
 enable-background="new 0 0 179.1 77.8">
 <defs>
  <style type="text/css">
   <![CDATA[
    .fil0 {fill:#007D96}
    .fil1 {fill:#007D96;fill-rule:nonzero}
   ]]>
  </style>
 </defs>
 <g id="Слой_x0020_1">
  <metadata id="CorelCorpID_0Corel-Layer"/>
  <path class="fil0" d="M1115 633l51 0c29,0 48,3 60,8 12,5 22,14 29,25 7,10 11,25 11,41 0,17 -4,30 -12,42 -8,12 -20,20 -37,26l60 113 -53 0 -57 -108 -5 0 0 108 -48 0 0 -255 1 0zm48 100l15 0c16,0 26,-2 31,-6 6,-4 9,-11 9,-20 0,-6 -1,-11 -4,-15 -3,-4 -7,-7 -11,-9 -5,-2 -14,-3 -27,-3l-13 0 0 53z"/>
  <polygon class="fil0" points="1317,633 1456,633 1456,680 1365,680 1365,727 1456,727 1456,773 1365,773 1365,840 1456,840 1456,887 1317,887 "/>
  <path class="fil0" d="M1579 633l49 0 98 255 -51 0 -19 -52 -105 0 -20 52 -51 0 99 -255zm25 68l-35 88 68 0 -33 -88z"/>
  <polygon class="fil0" points="1753,627 1801,627 1801,888 1753,888 "/>
  <g id="_2165532139888">
   <path class="fil0" d="M156 1136l0 -306 -49 0 0 307c-30,12 -60,46 -60,85 0,49 40,89 90,89 49,0 87,-40 87,-89 0,-41 -28,-77 -68,-86zm-18 126c-22,0 -40,-18 -40,-40 0,-21 18,-39 40,-39 21,0 39,18 39,39 0,22 -18,40 -39,40z"/>
   <path class="fil0" d="M885 604l-59 0 0 -50 -49 0 0 50 -59 0 0 197 59 0 0 344 49 0 0 -344 59 0 0 -197zm-49 147l-69 0 0 -98 69 0 0 98z"/>
   <path class="fil0" d="M491 544l-49 0 0 207 -59 0 0 434 59 0 0 79 49 0 0 -79 59 0 0 -434 -59 0 0 -207zm10 592l-69 0 0 -335 69 0 0 335z"/>
   <rect class="fil0" x="590" y="919" width="118.221" height="49.2584"/>
   <rect class="fil0" x="196" y="919" width="137.924" height="49.2584"/>
  </g>
  <polygon class="fil1" points="1115,982 1162,982 1162,1243 1115,1243 "/>
  <path id="1" class="fil1" d="M1393 1162l-152 0c2,14 8,24 18,32 9,8 21,12 36,12 17,0 32,-6 45,-18l40 18c-10,14 -22,25 -36,31 -14,7 -30,11 -49,11 -29,0 -53,-10 -72,-28 -18,-19 -28,-42 -28,-70 0,-29 10,-52 28,-71 19,-19 42,-29 70,-29 29,0 53,10 72,29 18,19 28,43 28,74l0 9zm-47 -37c-4,-10 -10,-18 -19,-25 -9,-6 -20,-9 -32,-9 -13,0 -24,3 -34,11 -7,4 -12,12 -18,23l103 0z"/>
  <polygon id="2" class="fil1" points="1411,1055 1459,1055 1507,1166 1554,1055 1602,1055 1521,1243 1491,1243 "/>
  <path id="3" class="fil1" d="M1817 1162l-151 0c2,14 8,24 18,32 9,8 21,12 36,12 17,0 32,-6 45,-18l39 18c-9,14 -21,25 -35,31 -14,7 -30,11 -49,11 -29,0 -53,-10 -72,-28 -18,-19 -28,-42 -28,-70 0,-29 10,-52 28,-71 19,-19 42,-29 70,-29 29,0 53,10 72,29 18,19 28,43 28,74l-1 9zm-47 -37c-3,-10 -9,-18 -18,-25 -9,-6 -20,-9 -32,-9 -13,0 -25,3 -35,11 -6,4 -12,12 -17,23l102 0z"/>
  <polygon id="4" class="fil1" points="1851,982 1898,982 1898,1243 1851,1243 "/>
 </g>
</svg>
