<?xml version="1.0" encoding="utf-8"?>
<!-- Generator: Adobe Illustrator 17.1.0, SVG Export Plug-In . SVG Version: 6.00 Build 0)  -->
<!DOCTYPE svg PUBLIC "-//W3C//DTD SVG 1.1//EN" "http://www.w3.org/Graphics/SVG/1.1/DTD/svg11.dtd">
<svg version="1.1" xmlns="http://www.w3.org/2000/svg" xmlns:xlink="http://www.w3.org/1999/xlink" x="0px" y="0px"
	 viewBox="0 0 185.9 79.6" enable-background="new 0 0 185.9 79.6" xml:space="preserve">
<g id="Layer_1">
	<g>
		<text transform="matrix(1 0 0 1 -351.285 71.1835)"><tspan x="0" y="0" font-family="'CenturyGothic-Bold'" font-size="36">Li</tspan><tspan x="24.5" y="0" font-family="'CenturyGothic-Bold'" font-size="36">n</tspan><tspan x="45.2" y="0" font-family="'CenturyGothic-Bold'" font-size="36" letter-spacing="-1">c</tspan><tspan x="66.4" y="0" font-family="'CenturyGothic-Bold'" font-size="36">oln </tspan><tspan x="0" y="36" font-family="'CenturyGothic-Bold'" font-size="36">vir</tspan><tspan x="40.3" y="36" font-family="'CenturyGothic-Bold'" font-size="36">u</tspan><tspan x="61" y="36" font-family="'CenturyGothic-Bold'" font-size="36">s</tspan></text>
		<polygon fill="none" stroke="#000000" stroke-width="5" stroke-miterlimit="10" points="-400.2,107.6 -373.6,92.4 -373.7,61.8 
			-400.3,46.4 -426.9,61.6 -426.8,92.2 		"/>
		<line fill="none" stroke="#000000" stroke-width="5" stroke-miterlimit="10" x1="-382.2" y1="87.4" x2="-382.2" y2="66.6"/>
		<line fill="none" stroke="#000000" stroke-width="5" stroke-miterlimit="10" x1="-418.3" y1="87.3" x2="-400.2" y2="97.8"/>
		<line fill="none" stroke="#000000" stroke-width="5" stroke-miterlimit="10" x1="-400.3" y1="56.2" x2="-418.3" y2="66.6"/>
		<line fill="none" stroke="#000000" stroke-width="5" stroke-miterlimit="10" x1="-426.9" y1="101.8" x2="-439.4" y2="108.9"/>
		<line fill="none" stroke="#000000" stroke-width="5" stroke-miterlimit="10" x1="-447.7" y1="104.3" x2="-426.8" y2="92.4"/>
		<circle fill="none" stroke="#000000" stroke-width="5" stroke-miterlimit="10" cx="-453.4" cy="107.4" r="6.5"/>
		<circle fill="none" stroke="#000000" stroke-width="5" stroke-miterlimit="10" cx="-453.4" cy="46.8" r="6.5"/>
	</g>
</g>
<g id="Layer_3">
	<g>
		<polyline fill="none" stroke="#0B3FA8" stroke-width="5" stroke-miterlimit="10" points="3.3,-161.6 37.1,-127.8 59.7,-150.4 
			91.6,-118.5 		"/>
		<circle fill="none" stroke="#0B3FA8" stroke-width="5" stroke-miterlimit="10" cx="30.1" cy="-165.5" r="6.5"/>
		<circle fill="none" stroke="#0B3FA8" stroke-width="5" stroke-miterlimit="10" cx="9.8" cy="-114.6" r="6.5"/>
		<circle fill="none" stroke="#0B3FA8" stroke-width="5" stroke-miterlimit="10" cx="95.5" cy="-114.6" r="6.5"/>
		<line fill="none" stroke="#0B3FA8" stroke-width="5" stroke-miterlimit="10" x1="34.8" y1="-141.4" x2="53.3" y2="-160"/>
		<line fill="none" stroke="#0B3FA8" stroke-width="5" stroke-miterlimit="10" x1="92.4" y1="-133.2" x2="73.8" y2="-151.7"/>
		<line fill="none" stroke="#0B3FA8" stroke-width="5" stroke-miterlimit="10" x1="42.7" y1="-117.5" x2="61.2" y2="-136.1"/>
		<g>
			<path fill="#0B3FA8" d="M128.2-174.3h5.2c2.9,0,4.9,0.3,6.1,0.8c1.2,0.5,2.2,1.4,2.9,2.5s1.1,2.6,1.1,4.2c0,1.7-0.4,3.1-1.2,4.3
				s-2,2-3.7,2.6l6.1,11.5h-5.4l-5.8-11h-0.5v11h-4.9V-174.3z M133.2-164.2h1.5c1.6,0,2.6-0.2,3.2-0.6c0.6-0.4,0.9-1.1,0.9-2
				c0-0.6-0.1-1.1-0.4-1.5c-0.3-0.4-0.7-0.7-1.2-0.9s-1.4-0.3-2.7-0.3h-1.3V-164.2z"/>
			<path fill="#0B3FA8" d="M148.8-174.3h14.1v4.8h-9.2v4.7h9.2v4.7h-9.2v6.8h9.2v4.8h-14.1V-174.3z"/>
			<path fill="#0B3FA8" d="M175.4-174.3h5l9.9,25.9h-5.1l-2-5.3h-10.6l-2.1,5.3h-5.1L175.4-174.3z M177.9-167.5l-3.5,8.9h6.9
				L177.9-167.5z"/>
			<path fill="#0B3FA8" d="M193.1-175h4.8v26.5h-4.8V-175z"/>
			<path fill="#0B3FA8" d="M132.2-131.6v2.1c0.9-0.9,1.8-1.5,2.8-2s2.1-0.7,3.2-0.7c2.5,0,4.6,0.9,6.4,2.8s2.6,4.3,2.6,7.3
				c0,2.8-0.9,5.2-2.7,7.1s-3.9,2.9-6.4,2.9c-1.1,0-2.1-0.2-3.1-0.6s-1.9-1-2.8-1.9v9h-4.8v-26.1H132.2z M137.2-127.7
				c-1.5,0-2.8,0.5-3.8,1.5s-1.5,2.4-1.5,4c0,1.7,0.5,3.1,1.5,4.1s2.3,1.6,3.8,1.6c1.5,0,2.7-0.5,3.7-1.6s1.5-2.4,1.5-4.1
				c0-1.6-0.5-3-1.5-4S138.7-127.7,137.2-127.7z"/>
			<path fill="#0B3FA8" d="M165.3-131.6h4.8v19.1h-4.8v-2c-0.9,0.9-1.9,1.5-2.8,1.9s-2,0.6-3.1,0.6c-2.5,0-4.6-1-6.4-2.9
				c-1.8-1.9-2.7-4.3-2.7-7.1c0-3,0.9-5.4,2.6-7.3s3.9-2.8,6.4-2.8c1.1,0,2.2,0.2,3.2,0.7s1.9,1.1,2.8,2V-131.6z M160.2-127.7
				c-1.5,0-2.7,0.5-3.7,1.6c-1,1-1.5,2.4-1.5,4c0,1.7,0.5,3,1.5,4.1c1,1.1,2.2,1.6,3.7,1.6c1.5,0,2.8-0.5,3.7-1.6
				c1-1,1.5-2.4,1.5-4.1c0-1.7-0.5-3-1.5-4C163-127.2,161.7-127.7,160.2-127.7z"/>
			<path fill="#0B3FA8" d="M175.5-138.7h4.8v7h2.8v4.1h-2.8v15h-4.8v-15H173v-4.1h2.5V-138.7z"/>
			<path fill="#0B3FA8" d="M186.3-138.7h4.8v7h2.8v4.1h-2.8v15h-4.8v-15h-2.5v-4.1h2.5V-138.7z"/>
			<path fill="#0B3FA8" d="M215.7-120.7h-15.4c0.2,1.4,0.8,2.4,1.8,3.2s2.2,1.2,3.7,1.2c1.8,0,3.3-0.6,4.6-1.9l4,1.9
				c-1,1.4-2.2,2.5-3.6,3.2s-3.1,1-5,1c-3,0-5.4-0.9-7.3-2.8s-2.8-4.3-2.8-7.1c0-2.9,0.9-5.3,2.8-7.3s4.2-2.9,7.1-2.9
				c3,0,5.5,1,7.3,2.9s2.8,4.5,2.8,7.6L215.7-120.7z M210.9-124.4c-0.3-1.1-0.9-1.9-1.9-2.6c-0.9-0.7-2-1-3.2-1
				c-1.3,0-2.5,0.4-3.5,1.1c-0.6,0.5-1.2,1.3-1.8,2.5H210.9z"/>
			<path fill="#0B3FA8" d="M218.4-131.6h4.1v2.4c0.4-0.9,1-1.7,1.8-2.2s1.5-0.7,2.4-0.7c0.6,0,1.3,0.2,2,0.5l-1.5,4.1
				c-0.6-0.3-1-0.4-1.4-0.4c-0.7,0-1.4,0.5-1.9,1.4s-0.8,2.7-0.8,5.4l0,0.9v7.7h-4.8V-131.6z"/>
			<path fill="#0B3FA8" d="M231.1-131.6h4.8v2c1.1-0.9,2.1-1.6,3-1.9c0.9-0.4,1.8-0.5,2.7-0.5c1.9,0,3.5,0.7,4.8,2
				c1.1,1.1,1.7,2.8,1.7,5v12.6h-4.7v-8.4c0-2.3-0.1-3.8-0.3-4.5c-0.2-0.7-0.6-1.3-1.1-1.7c-0.5-0.4-1.1-0.6-1.9-0.6
				c-1,0-1.8,0.3-2.5,1s-1.2,1.5-1.4,2.7c-0.1,0.6-0.2,1.9-0.2,3.9v7.7h-4.8V-131.6z"/>
			<path fill="#0B3FA8" d="M264.4-128.9l-3,3c-1.2-1.2-2.3-1.8-3.3-1.8c-0.5,0-1,0.1-1.3,0.3s-0.5,0.5-0.5,0.9
				c0,0.3,0.1,0.5,0.3,0.7s0.7,0.5,1.4,0.9l1.8,0.9c1.9,0.9,3.1,1.8,3.8,2.8s1,2.1,1,3.3c0,1.7-0.6,3.1-1.9,4.3s-2.9,1.7-5,1.7
				c-2.8,0-5-1.1-6.7-3.3l3-3.2c0.6,0.7,1.2,1.2,2,1.6s1.4,0.6,2,0.6c0.6,0,1.1-0.2,1.5-0.5s0.6-0.7,0.6-1.1c0-0.7-0.7-1.5-2.1-2.2
				l-1.6-0.8c-3.1-1.6-4.6-3.5-4.6-5.9c0-1.5,0.6-2.8,1.7-3.9s2.7-1.6,4.5-1.6c1.2,0,2.4,0.3,3.5,0.8S263.6-130,264.4-128.9z"/>
		</g>
	</g>
</g>
<g id="Layer_4">
	<g>
		<g>
			<path fill="#C8283C" d="M101.2,8.3h5.2c2.9,0,4.9,0.3,6.1,0.8c1.2,0.5,2.2,1.4,2.9,2.5c0.7,1.2,1.1,2.6,1.1,4.2
				c0,1.7-0.4,3.1-1.2,4.3s-2,2-3.7,2.6l6.1,11.5h-5.4l-5.8-11h-0.5v11h-4.9V8.3z M106.2,18.4h1.5c1.6,0,2.6-0.2,3.2-0.6
				s0.9-1.1,0.9-2c0-0.6-0.1-1.1-0.4-1.5c-0.3-0.4-0.7-0.7-1.2-0.9c-0.5-0.2-1.4-0.3-2.7-0.3h-1.3V18.4z"/>
			<path fill="#C8283C" d="M121.8,8.3h14.1v4.8h-9.2v4.7h9.2v4.7h-9.2v6.8h9.2v4.8h-14.1V8.3z"/>
			<path fill="#C8283C" d="M148.4,8.3h5l9.9,25.9h-5.1l-2-5.3h-10.6l-2.1,5.3h-5.1L148.4,8.3z M150.9,15.2l-3.5,8.9h6.9L150.9,15.2z
				"/>
			<path fill="#C8283C" d="M166.1,7.7h4.8v26.5h-4.8V7.7z"/>
			<path fill="#C8283C" d="M100.4,51h4.8v2c1.1-0.9,2.1-1.6,3-1.9c0.9-0.4,1.8-0.5,2.7-0.5c1.9,0,3.5,0.7,4.8,2
				c1.1,1.1,1.7,2.8,1.7,5v12.6h-4.7v-8.4c0-2.3-0.1-3.8-0.3-4.5c-0.2-0.7-0.6-1.3-1.1-1.7c-0.5-0.4-1.1-0.6-1.9-0.6
				c-1,0-1.8,0.3-2.5,1s-1.2,1.5-1.4,2.7c-0.1,0.6-0.2,1.9-0.2,3.9v7.7h-4.8V51z"/>
			<path fill="#C8283C" d="M141.1,62h-15.4c0.2,1.4,0.8,2.4,1.8,3.2c1,0.8,2.2,1.2,3.7,1.2c1.8,0,3.3-0.6,4.6-1.9l4,1.9
				c-1,1.4-2.2,2.5-3.6,3.2s-3.1,1-5,1c-3,0-5.4-0.9-7.3-2.8s-2.8-4.3-2.8-7.1c0-2.9,0.9-5.3,2.8-7.3s4.2-2.9,7.1-2.9
				c3,0,5.5,1,7.3,2.9s2.8,4.5,2.8,7.6L141.1,62z M136.3,58.2c-0.3-1.1-0.9-1.9-1.9-2.6s-2-1-3.2-1c-1.3,0-2.5,0.4-3.5,1.1
				c-0.6,0.5-1.2,1.3-1.8,2.5H136.3z"/>
			<path fill="#C8283C" d="M142.9,51h4.7l3.8,10.9l4.1-10.9h2.9l4.1,10.8l3.9-10.8h4.7l-7,19.1h-3L157,59.3l-4.2,10.9h-3L142.9,51z"
				/>
			<path fill="#C8283C" d="M185.5,53.7l-3,3c-1.2-1.2-2.3-1.8-3.3-1.8c-0.5,0-1,0.1-1.3,0.3s-0.5,0.5-0.5,0.9c0,0.3,0.1,0.5,0.3,0.7
				s0.7,0.5,1.4,0.9l1.8,0.9c1.9,0.9,3.1,1.8,3.8,2.8s1,2.1,1,3.3c0,1.7-0.6,3.1-1.9,4.3s-2.9,1.7-5,1.7c-2.8,0-5-1.1-6.7-3.3l3-3.2
				c0.6,0.7,1.2,1.2,2,1.6s1.4,0.6,2,0.6c0.6,0,1.1-0.2,1.5-0.5s0.6-0.7,0.6-1.1c0-0.7-0.7-1.5-2.1-2.2l-1.6-0.8
				c-3.1-1.6-4.6-3.5-4.6-5.9c0-1.5,0.6-2.8,1.7-3.9s2.7-1.6,4.5-1.6c1.2,0,2.4,0.3,3.5,0.8S184.8,52.7,185.5,53.7z"/>
		</g>
		<g>
			<path fill="#C8283C" d="M71,62V1H12v72h47.3c1.1,4,4.6,6.6,8.7,6.6c5,0,9.1-4,9.1-9C77.1,66.6,74,63.2,71,62z M17,6h49v55.8
				c-3,0.8-5.8,3.2-6.7,6.2H17V6z M68,74.6c-2.2,0-4-1.8-4-4s1.8-4,4-4s4,1.8,4,4S70.2,74.6,68,74.6z"/>
			
				<rect x="-8.9" y="17.2" transform="matrix(-2.829711e-003 -1 1 -2.829711e-003 -15.489 23.9767)" fill="#C8283C" width="26.2" height="5"/>
			
				<rect x="-9" y="57.4" transform="matrix(-3.611600e-003 -1 1 -3.611600e-003 -55.7338 64.2908)" fill="#C8283C" width="26.2" height="5"/>
			<rect x="20.6" y="10.7" fill="#C8283C" width="26.2" height="5"/>
			<rect x="21" y="21" fill="#C8283C" width="40" height="5"/>
			<rect x="21" y="30" fill="#C8283C" width="40" height="5"/>
			<rect x="20.6" y="39.7" fill="#C8283C" width="26.2" height="5"/>
			<rect x="21" y="50" fill="#C8283C" width="40" height="5"/>
			<rect x="21" y="59" fill="#C8283C" width="26" height="5"/>
		</g>
	</g>
</g>
<g id="Layer_5">
	<g>
		<g>
			<path fill="#007D96" d="M109.3,184h5.2c2.9,0,4.9,0.3,6.1,0.8c1.2,0.5,2.2,1.4,2.9,2.5s1.1,2.6,1.1,4.2c0,1.7-0.4,3.1-1.2,4.3
				s-2,2-3.7,2.6l6.1,11.5h-5.4l-5.8-11h-0.5v11h-4.9V184z M114.2,194.1h1.5c1.6,0,2.6-0.2,3.2-0.6c0.6-0.4,0.9-1.1,0.9-2
				c0-0.6-0.1-1.1-0.4-1.5c-0.3-0.4-0.7-0.7-1.2-0.9s-1.4-0.3-2.7-0.3h-1.3V194.1z"/>
			<path fill="#007D96" d="M129.8,184h14.1v4.8h-9.2v4.7h9.2v4.7h-9.2v6.8h9.2v4.8h-14.1V184z"/>
			<path fill="#007D96" d="M156.4,184h5l9.9,25.9h-5.1l-2-5.3h-10.6l-2.1,5.3h-5.1L156.4,184z M158.9,190.9l-3.5,8.9h6.9
				L158.9,190.9z"/>
			<path fill="#007D96" d="M174.1,183.4h4.8v26.5h-4.8V183.4z"/>
			<path fill="#007D96" d="M107.9,219.4h4.8v26.5h-4.8V219.4z"/>
			<path fill="#007D96" d="M118.9,218.9c0.8,0,1.6,0.3,2.2,0.9c0.6,0.6,0.9,1.3,0.9,2.2c0,0.9-0.3,1.6-0.9,2.2
				c-0.6,0.6-1.3,0.9-2.1,0.9c-0.9,0-1.6-0.3-2.2-0.9s-0.9-1.4-0.9-2.2c0-0.8,0.3-1.6,0.9-2.2S118.1,218.9,118.9,218.9z
				 M116.5,226.7h4.8v19.1h-4.8V226.7z"/>
			<path fill="#007D96" d="M125.7,226.7h4.8v2c1.1-0.9,2.1-1.6,3-1.9s1.8-0.5,2.7-0.5c1.9,0,3.5,0.7,4.8,2c1.1,1.1,1.7,2.8,1.7,5
				v12.6h-4.7v-8.4c0-2.3-0.1-3.8-0.3-4.5c-0.2-0.7-0.6-1.3-1.1-1.7c-0.5-0.4-1.1-0.6-1.9-0.6c-1,0-1.8,0.3-2.5,1
				c-0.7,0.6-1.2,1.5-1.4,2.7c-0.1,0.6-0.2,1.9-0.2,3.9v7.7h-4.8V226.7z"/>
			<path fill="#007D96" d="M166.4,237.7H151c0.2,1.4,0.8,2.4,1.8,3.2s2.2,1.2,3.7,1.2c1.8,0,3.3-0.6,4.6-1.9l4,1.9
				c-1,1.4-2.2,2.5-3.6,3.2s-3.1,1-5,1c-3,0-5.4-0.9-7.3-2.8s-2.8-4.3-2.8-7.1c0-2.9,0.9-5.3,2.8-7.3s4.2-2.9,7.1-2.9
				c3,0,5.5,1,7.3,2.9s2.8,4.5,2.8,7.6L166.4,237.7z M161.6,233.9c-0.3-1.1-0.9-1.9-1.9-2.6c-0.9-0.7-2-1-3.2-1
				c-1.3,0-2.5,0.4-3.5,1.1c-0.6,0.5-1.2,1.3-1.8,2.5H161.6z"/>
		</g>
		<g>
			<path fill="#007D96" d="M12,235v-31H7v31.2c-3,1.2-6.1,4.6-6.1,8.6c0,5,4.1,9,9.1,9c5,0,8.9-4,8.9-9C18.9,239.6,16,236,12,235z
				 M10.1,247.8c-2.2,0-4-1.8-4-4c0-2.2,1.8-4,4-4c2.2,0,4,1.8,4,4C14.1,246,12.3,247.8,10.1,247.8z"/>
			<path fill="#007D96" d="M86,181h-6v-5h-5v5h-6v20h6v35h5v-35h6V181z M81,196h-7v-10h7V196z"/>
			<path fill="#007D96" d="M46,175h-5v21h-6v44h6v8h5v-8h6v-44h-6V175z M47,235h-7v-34h7V235z"/>
			<rect x="56" y="213" fill="#007D96" width="12" height="5"/>
			<rect x="16" y="213" fill="#007D96" width="14" height="5"/>
		</g>
	</g>
</g>
</svg>
