<?xml version="1.0" encoding="utf-8"?>
<!-- Generator: Adobe Illustrator 17.1.0, SVG Export Plug-In . SVG Version: 6.00 Build 0)  -->
<!DOCTYPE svg PUBLIC "-//W3C//DTD SVG 1.0//EN" "http://www.w3.org/TR/2001/REC-SVG-20010904/DTD/svg10.dtd">
<svg version="1.0" xmlns="http://www.w3.org/2000/svg" xmlns:xlink="http://www.w3.org/1999/xlink" x="0px" y="0px"
	 viewBox="0 0 396.5 150" enable-background="new 0 0 396.5 150" xml:space="preserve">
<g id="Layer_1">
</g>
<g id="Layer_3">
</g>
<g id="Layer_4">
</g>
<g id="Layer_5">
	<g>
		<g>
			<path fill="#4DA761" d="M114.8,41.1h5.2c2.9,0,4.9,0.3,6.1,0.8c1.2,0.5,2.2,1.4,2.9,2.5s1.1,2.6,1.1,4.2c0,1.7-0.4,3.1-1.2,4.3
				s-2,2-3.7,2.6l6.1,11.5H126l-5.8-11h-0.5v11h-4.9V41.1z M119.7,51.2h1.5c1.6,0,2.6-0.2,3.2-0.6c0.6-0.4,0.9-1.1,0.9-2
				c0-0.6-0.1-1.1-0.4-1.5c-0.3-0.4-0.7-0.7-1.2-0.9s-1.4-0.3-2.7-0.3h-1.3V51.2z"/>
			<path fill="#4DA761" d="M135.3,41.1h14.1v4.8h-9.2v4.7h9.2v4.7h-9.2v6.8h9.2v4.8h-14.1V41.1z"/>
			<path fill="#4DA761" d="M161.9,41.1h5l9.9,25.9h-5.1l-2-5.3h-10.6l-2.1,5.3H152L161.9,41.1z M164.5,47.9l-3.5,8.9h6.9L164.5,47.9
				z"/>
			<path fill="#4DA761" d="M179.6,40.4h4.8v26.5h-4.8V40.4z"/>
			<path fill="#4DA761" d="M113.9,83.8h4.8V86c0.8-0.9,1.7-1.6,2.7-2c1-0.4,2.1-0.7,3.3-0.7c1.2,0,2.3,0.3,3.2,0.9
				c1,0.6,1.7,1.4,2.3,2.6c0.8-1.1,1.7-2,2.8-2.6s2.3-0.9,3.6-0.9c1.4,0,2.6,0.3,3.6,0.9c1,0.6,1.8,1.5,2.2,2.5c0.5,1,0.7,2.7,0.7,5
				v11.2h-4.8v-9.7c0-2.2-0.3-3.6-0.8-4.4s-1.3-1.2-2.4-1.2c-0.8,0-1.6,0.2-2.2,0.7s-1.1,1.1-1.5,1.9s-0.5,2.2-0.5,4v8.6h-4.8v-9.3
				c0-1.7-0.1-3-0.4-3.7c-0.3-0.8-0.6-1.3-1.1-1.7s-1.1-0.6-1.8-0.6c-0.8,0-1.5,0.2-2.2,0.7c-0.7,0.5-1.1,1.1-1.5,2s-0.5,2.2-0.5,4
				v8.5h-4.8V83.8z"/>
			<path fill="#4DA761" d="M161.9,83.8h4.8v19.1h-4.8v-2c-0.9,0.9-1.9,1.5-2.8,1.9s-2,0.6-3.1,0.6c-2.5,0-4.6-1-6.4-2.9
				c-1.8-1.9-2.7-4.3-2.7-7.1c0-3,0.9-5.4,2.6-7.3s3.9-2.8,6.4-2.8c1.1,0,2.2,0.2,3.2,0.7s1.9,1.1,2.8,2V83.8z M156.8,87.8
				c-1.5,0-2.7,0.5-3.7,1.6c-1,1-1.5,2.4-1.5,4c0,1.7,0.5,3,1.5,4.1c1,1.1,2.2,1.6,3.7,1.6c1.5,0,2.8-0.5,3.7-1.6
				c1-1,1.5-2.4,1.5-4.1c0-1.7-0.5-3-1.5-4C159.6,88.3,158.3,87.8,156.8,87.8z"/>
			<path fill="#4DA761" d="M171.5,83.8h4.8v2c1.1-0.9,2.1-1.6,3-1.9s1.8-0.5,2.7-0.5c1.9,0,3.5,0.7,4.8,2c1.1,1.1,1.7,2.8,1.7,5
				v12.6h-4.7v-8.4c0-2.3-0.1-3.8-0.3-4.5c-0.2-0.7-0.6-1.3-1.1-1.7c-0.5-0.4-1.1-0.6-1.9-0.6c-1,0-1.8,0.3-2.5,1
				c-0.7,0.6-1.2,1.5-1.4,2.7c-0.1,0.6-0.2,1.9-0.2,3.9v7.7h-4.8V83.8z"/>
			<path fill="#4DA761" d="M193.1,83.8h4.9V93c0,1.8,0.1,3,0.4,3.7c0.2,0.7,0.6,1.2,1.2,1.6s1.2,0.6,2,0.6s1.5-0.2,2-0.6
				c0.6-0.4,1-0.9,1.2-1.7c0.2-0.6,0.3-1.7,0.3-3.5v-9.4h4.8v8.1c0,3.3-0.3,5.6-0.8,6.9c-0.6,1.5-1.6,2.7-2.8,3.5s-2.8,1.2-4.8,1.2
				c-2.1,0-3.8-0.5-5.1-1.4s-2.2-2.2-2.7-3.9c-0.4-1.2-0.6-3.3-0.6-6.3V83.8z"/>
			<path fill="#4DA761" d="M228.8,83.8h4.8v19.1h-4.8v-2c-0.9,0.9-1.9,1.5-2.8,1.9s-2,0.6-3.1,0.6c-2.5,0-4.6-1-6.4-2.9
				c-1.8-1.9-2.7-4.3-2.7-7.1c0-3,0.9-5.4,2.6-7.3s3.9-2.8,6.4-2.8c1.1,0,2.2,0.2,3.2,0.7s1.9,1.1,2.8,2V83.8z M223.8,87.8
				c-1.5,0-2.7,0.5-3.7,1.6s-1.5,2.4-1.5,4c0,1.7,0.5,3,1.5,4.1c1,1.1,2.2,1.6,3.7,1.6c1.5,0,2.8-0.5,3.7-1.6c1-1,1.5-2.4,1.5-4.1
				c0-1.7-0.5-3-1.5-4C226.6,88.3,225.3,87.8,223.8,87.8z"/>
			<path fill="#4DA761" d="M238,76.4h4.8v26.5H238V76.4z"/>
			<path fill="#4DA761" d="M257.2,76.4h4.8v9.3c0.9-0.8,1.9-1.4,2.8-1.8s1.9-0.6,2.9-0.6c1.9,0,3.5,0.7,4.8,2c1.1,1.1,1.7,2.8,1.7,5
				v12.6h-4.7v-8.4c0-2.2-0.1-3.7-0.3-4.5s-0.6-1.4-1.1-1.8s-1.1-0.6-1.9-0.6c-1,0-1.8,0.3-2.5,1s-1.2,1.5-1.5,2.6
				c-0.1,0.6-0.2,1.9-0.2,3.9v7.7h-4.8V76.4z"/>
			<path fill="#4DA761" d="M298,94.8h-15.4c0.2,1.4,0.8,2.4,1.8,3.2s2.2,1.2,3.7,1.2c1.8,0,3.3-0.6,4.6-1.9l4,1.9
				c-1,1.4-2.2,2.5-3.6,3.2s-3.1,1-5,1c-3,0-5.4-0.9-7.3-2.8s-2.8-4.3-2.8-7.1c0-2.9,0.9-5.3,2.8-7.3s4.2-2.9,7.1-2.9
				c3,0,5.5,1,7.3,2.9s2.8,4.5,2.8,7.6L298,94.8z M293.2,91c-0.3-1.1-0.9-1.9-1.9-2.6c-0.9-0.7-2-1-3.2-1c-1.3,0-2.5,0.4-3.5,1.1
				c-0.6,0.5-1.2,1.3-1.8,2.5H293.2z"/>
			<path fill="#4DA761" d="M316,76.4h4.8v26.5H316v-2c-0.9,0.9-1.9,1.5-2.8,1.9s-2,0.6-3.1,0.6c-2.5,0-4.6-1-6.4-2.9
				c-1.8-1.9-2.7-4.3-2.7-7.1c0-3,0.9-5.4,2.6-7.3s3.9-2.8,6.4-2.8c1.1,0,2.2,0.2,3.2,0.7s1.9,1.1,2.8,2V76.4z M310.9,87.8
				c-1.5,0-2.7,0.5-3.7,1.6s-1.5,2.4-1.5,4c0,1.7,0.5,3,1.5,4.1c1,1.1,2.2,1.6,3.7,1.6c1.5,0,2.8-0.5,3.7-1.6c1-1,1.5-2.4,1.5-4.1
				c0-1.7-0.5-3-1.5-4C313.7,88.3,312.4,87.8,310.9,87.8z"/>
			<path fill="#4DA761" d="M339.7,83.8h4.8v16.4c0,3.2-0.7,5.6-2,7.1c-1.7,2.1-4.4,3.1-7.9,3.1c-1.9,0-3.5-0.2-4.7-0.7
				s-2.4-1.2-3.2-2.1s-1.5-2-2-3.3h5.3c0.5,0.5,1.1,0.9,1.8,1.2s1.6,0.4,2.6,0.4c1.3,0,2.3-0.2,3.1-0.6s1.3-0.9,1.7-1.5
				s0.5-1.7,0.5-3.3c-0.8,0.8-1.7,1.5-2.7,1.8s-2,0.6-3.1,0.6c-2.6,0-4.7-0.9-6.5-2.8s-2.7-4.2-2.7-7c0-3,0.9-5.5,2.8-7.3
				c1.7-1.7,3.7-2.5,6.1-2.5c1.1,0,2.1,0.2,3.1,0.6s2,1.1,2.9,2V83.8z M334.8,87.8c-1.5,0-2.8,0.5-3.7,1.5s-1.5,2.3-1.5,3.8
				c0,1.6,0.5,2.9,1.5,3.9s2.3,1.5,3.8,1.5c1.5,0,2.7-0.5,3.7-1.5s1.5-2.3,1.5-3.9c0-1.6-0.5-2.9-1.5-3.9S336.3,87.8,334.8,87.8z"/>
			<path fill="#4DA761" d="M368.5,94.8h-15.4c0.2,1.4,0.8,2.4,1.8,3.2s2.2,1.2,3.7,1.2c1.8,0,3.3-0.6,4.6-1.9l4,1.9
				c-1,1.4-2.2,2.5-3.6,3.2s-3.1,1-5,1c-3,0-5.4-0.9-7.3-2.8s-2.8-4.3-2.8-7.1c0-2.9,0.9-5.3,2.8-7.3s4.2-2.9,7.1-2.9
				c3,0,5.5,1,7.3,2.9s2.8,4.5,2.8,7.6L368.5,94.8z M363.7,91c-0.3-1.1-0.9-1.9-1.9-2.6c-0.9-0.7-2-1-3.2-1c-1.3,0-2.5,0.4-3.5,1.1
				c-0.6,0.5-1.2,1.3-1.8,2.5H363.7z"/>
		</g>
		<g>
			<g>
				<path fill="#4DA761" d="M85,65.5c-5,0-9-4-9-9c0-5,4-9,9-9c5,0,9,4,9,9C94,61.5,89.9,65.5,85,65.5z M85,52.5c-2.2,0-4,1.8-4,4
					c0,2.2,1.8,4,4,4c2.2,0,4-1.8,4-4C89,54.3,87.2,52.5,85,52.5z"/>
			</g>
			<g>
				<rect x="44.2" y="44.3" fill="#4DA761" width="26.3" height="5"/>
			</g>
			<g>
				<rect x="23.8" y="54.2" fill="#4DA761" width="54.2" height="5"/>
			</g>
			<g>
				<path fill="#4DA761" d="M30.3,102.5c-5,0-9-4-9-9c0-5,4-9,9-9c5,0,9,4,9,9C39.4,98.5,35.3,102.5,30.3,102.5z M30.3,89.5
					c-2.2,0-4,1.8-4,4c0,2.2,1.8,4,4,4c2.2,0,4-1.8,4-4C34.4,91.3,32.5,89.5,30.3,89.5z"/>
			</g>
			<g>
				<rect x="44.8" y="100.7" fill="#4DA761" width="26.3" height="5"/>
			</g>
			<g>
				<rect x="37.3" y="90.8" fill="#4DA761" width="54.2" height="5"/>
			</g>
		</g>
	</g>
</g>
</svg>
