<?xml version="1.0" encoding="utf-8"?>
<!-- Generator: Adobe Illustrator 17.1.0, SVG Export Plug-In . SVG Version: 6.00 Build 0)  -->
<!DOCTYPE svg PUBLIC "-//W3C//DTD SVG 1.0//EN" "http://www.w3.org/TR/2001/REC-SVG-20010904/DTD/svg10.dtd">
<svg version="1.0" xmlns="http://www.w3.org/2000/svg" xmlns:xlink="http://www.w3.org/1999/xlink" x="0px" y="0px"
	 viewBox="0 0 320 150" enable-background="new 0 0 320 150" xml:space="preserve">
<g id="Layer_1">
</g>
<g id="Layer_3">
</g>
<g id="Layer_4">
	<g>
		<g>
			<path fill="#C8283C" d="M131.2,114.5c-5,0-9-4-9-9c0-5,4-9,9-9s9,4,9,9C140.2,110.5,136.1,114.5,131.2,114.5z M131.2,101.5
				c-2.2,0-4,1.8-4,4c0,2.2,1.8,4,4,4s4-1.8,4-4C135.2,103.3,133.4,101.5,131.2,101.5z"/>
		</g>
		<g>
			
				<rect x="54.2" y="52.1" transform="matrix(2.829743e-003 1 -1 2.829743e-003 121.7838 -12.9004)" fill="#C8283C" width="26.2" height="5"/>
		</g>
		<g>
			
				<rect x="54.2" y="92.3" transform="matrix(3.611513e-003 1 -1 3.611513e-003 161.8847 27.1605)" fill="#C8283C" width="26.2" height="5"/>
		</g>
		<g>
			<rect x="83.8" y="45.6" fill="#C8283C" width="26.2" height="5"/>
		</g>
		<g>
			<rect x="83.8" y="55.5" fill="#C8283C" width="40.8" height="5"/>
		</g>
		<g>
			<rect x="83.8" y="65.4" fill="#C8283C" width="40.8" height="5"/>
		</g>
		<g>
			<rect x="83.8" y="74.6" fill="#C8283C" width="26.2" height="5"/>
		</g>
		<g>
			<rect x="83.8" y="84.5" fill="#C8283C" width="40.8" height="5"/>
		</g>
		<g>
			<rect x="83.8" y="94.4" fill="#C8283C" width="26.2" height="5"/>
		</g>
		<g>
			<path fill="#C8283C" d="M164.4,43.2h5.2c2.9,0,4.9,0.3,6.1,0.8c1.2,0.5,2.2,1.4,2.9,2.5c0.7,1.2,1.1,2.6,1.1,4.2
				c0,1.7-0.4,3.1-1.2,4.3s-2,2-3.7,2.6l6.1,11.5h-5.4l-5.8-11h-0.5v11h-4.9V43.2z M169.3,53.3h1.5c1.6,0,2.6-0.2,3.2-0.6
				s0.9-1.1,0.9-2c0-0.6-0.1-1.1-0.4-1.5c-0.3-0.4-0.7-0.7-1.2-0.9c-0.5-0.2-1.4-0.3-2.7-0.3h-1.3V53.3z"/>
			<path fill="#C8283C" d="M185,43.2h14.1V48h-9.2v4.7h9.2v4.7h-9.2v6.8h9.2v4.8H185V43.2z"/>
			<path fill="#C8283C" d="M211.6,43.2h5l9.9,25.9h-5.1l-2-5.3h-10.6l-2.1,5.3h-5.1L211.6,43.2z M214.1,50.1l-3.5,8.9h6.9
				L214.1,50.1z"/>
			<path fill="#C8283C" d="M229.2,42.6h4.8v26.5h-4.8V42.6z"/>
			<path fill="#C8283C" d="M163.5,85.9h4.8v2c1.1-0.9,2.1-1.6,3-1.9c0.9-0.4,1.8-0.5,2.7-0.5c1.9,0,3.5,0.7,4.8,2
				c1.1,1.1,1.7,2.8,1.7,5v12.6h-4.7v-8.4c0-2.3-0.1-3.8-0.3-4.5c-0.2-0.7-0.6-1.3-1.1-1.7c-0.5-0.4-1.1-0.6-1.9-0.6
				c-1,0-1.8,0.3-2.5,1s-1.2,1.5-1.4,2.7c-0.1,0.6-0.2,1.9-0.2,3.9v7.7h-4.8V85.9z"/>
			<path fill="#C8283C" d="M204.3,96.9h-15.4c0.2,1.4,0.8,2.4,1.8,3.2s2.2,1.2,3.7,1.2c1.8,0,3.3-0.6,4.6-1.9l4,1.9
				c-1,1.4-2.2,2.5-3.6,3.2s-3.1,1-5,1c-3,0-5.4-0.9-7.3-2.8s-2.8-4.3-2.8-7.1c0-2.9,0.9-5.3,2.8-7.3s4.2-2.9,7.1-2.9
				c3,0,5.5,1,7.3,2.9s2.8,4.5,2.8,7.6L204.3,96.9z M199.5,93.1c-0.3-1.1-0.9-1.9-1.9-2.6s-2-1-3.2-1c-1.3,0-2.5,0.4-3.5,1.1
				c-0.6,0.5-1.2,1.3-1.8,2.5H199.5z"/>
			<path fill="#C8283C" d="M206.1,85.9h4.7l3.8,10.9l4.1-10.9h2.9l4.1,10.8l3.9-10.8h4.7l-7,19.1h-3l-4.1-10.9l-4.2,10.9h-3
				L206.1,85.9z"/>
			<path fill="#C8283C" d="M248.7,88.6l-3,3c-1.2-1.2-2.3-1.8-3.3-1.8c-0.5,0-1,0.1-1.3,0.3s-0.5,0.5-0.5,0.9c0,0.3,0.1,0.5,0.3,0.7
				s0.7,0.5,1.4,0.9l1.8,0.9c1.9,0.9,3.1,1.8,3.8,2.8s1,2.1,1,3.3c0,1.7-0.6,3.1-1.9,4.3s-2.9,1.7-5,1.7c-2.8,0-5-1.1-6.7-3.3l3-3.2
				c0.6,0.7,1.2,1.2,2,1.6s1.4,0.6,2,0.6c0.6,0,1.1-0.2,1.5-0.5s0.6-0.7,0.6-1.1c0-0.7-0.7-1.5-2.1-2.2l-1.6-0.8
				c-3.1-1.6-4.6-3.5-4.6-5.9c0-1.5,0.6-2.8,1.7-3.9s2.7-1.6,4.5-1.6c1.2,0,2.4,0.3,3.5,0.8S247.9,87.6,248.7,88.6z"/>
		</g>
		<g>
			<polygon fill="#C8283C" points="125,108 75,108 75,36 134,36 134,100 129,100 129,41 80,41 80,103 125,103 			"/>
		</g>
	</g>
</g>
<g id="Layer_5">
</g>
</svg>
