<?xml version="1.0" encoding="UTF-8"?>
<!DOCTYPE svg PUBLIC "-//W3C//DTD SVG 1.0//EN" "http://www.w3.org/TR/2001/REC-SVG-20010904/DTD/svg10.dtd">
<!-- Creator: CorelDRAW X8 -->
<svg xmlns="http://www.w3.org/2000/svg" xml:space="preserve" width="2480px" height="666px" version="1.0" style="shape-rendering:geometricPrecision; text-rendering:geometricPrecision; image-rendering:optimizeQuality; fill-rule:evenodd; clip-rule:evenodd"
viewBox="0 0 2480 666"
 xmlns:xlink="http://www.w3.org/1999/xlink"
 enable-background="new 0 0 185.9 79.6">
 <defs>
  <style type="text/css">
   <![CDATA[
    .fil1 {fill:#F07D25}
    .fil0 {fill:#F07D25;fill-rule:nonzero}
   ]]>
  </style>
 </defs>
 <g id="Слой_x0020_1">
  <metadata id="CorelCorpID_0Corel-Layer"/>
  <path class="fil0" d="M887 429l42 0 0 20c7,-8 15,-14 24,-18 9,-4 18,-6 29,-6 10,0 20,3 28,8 9,5 15,13 21,23 6,-10 14,-18 24,-23 10,-5 21,-8 32,-8 12,0 23,3 32,9 9,5 15,12 19,21 4,9 6,24 6,44l0 98 -42 0 0 -85c0,-19 -2,-32 -7,-38 -5,-7 -12,-10 -21,-10 -8,0 -14,2 -20,6 -6,4 -10,10 -13,17 -3,7 -4,19 -4,35l0 75 -42 0 0 -81c0,-15 -1,-26 -3,-32 -3,-7 -6,-12 -10,-15 -5,-4 -10,-5 -17,-5 -7,0 -13,2 -19,6 -6,4 -10,10 -13,17 -3,8 -4,20 -4,36l0 74 -42 0 0 -168z"/>
  <path id="1" class="fil0" d="M1263 425c16,0 30,4 44,12 14,8 25,19 33,32 8,14 12,28 12,44 0,16 -4,30 -12,44 -8,14 -19,25 -32,32 -14,8 -29,12 -45,12 -24,0 -45,-8 -62,-26 -17,-17 -25,-37 -25,-62 0,-26 9,-48 29,-65 16,-15 36,-23 58,-23zm0 40c-13,0 -24,4 -32,13 -9,9 -13,21 -13,35 0,15 4,26 13,35 8,9 19,14 32,14 13,0 24,-5 33,-14 9,-9 13,-21 13,-35 0,-14 -4,-26 -13,-35 -8,-9 -19,-13 -33,-13z"/>
  <path id="2" class="fil0" d="M1386 429l42 0 0 18c9,-8 18,-14 26,-17 8,-3 16,-5 24,-5 16,0 30,6 42,18 10,9 15,24 15,43l0 111 -42 0 0 -73c0,-20 -1,-34 -3,-40 -2,-7 -5,-12 -9,-15 -5,-4 -10,-5 -17,-5 -8,0 -15,3 -22,8 -6,6 -10,14 -12,24 -1,5 -2,16 -2,34l0 67 -42 0 0 -168z"/>
  <path id="3" class="fil0" d="M1592 361c7,0 14,2 19,8 5,5 8,11 8,19 0,7 -3,14 -8,19 -5,5 -11,8 -19,8 -7,0 -14,-3 -19,-8 -5,-6 -8,-12 -8,-20 0,-7 3,-13 8,-19 5,-5 12,-7 19,-7zm-21 68l42 0 0 168 -42 0 0 -168z"/>
  <polygon id="4" class="fil0" points="1656,367 1698,367 1698,429 1723,429 1723,466 1698,466 1698,597 1656,597 1656,466 1635,466 1635,429 1656,429 "/>
  <path id="5" class="fil0" d="M1824 425c16,0 31,4 45,12 14,8 25,19 33,32 8,14 12,28 12,44 0,16 -4,30 -12,44 -8,14 -19,25 -32,32 -14,8 -29,12 -45,12 -24,0 -45,-8 -62,-26 -17,-17 -26,-37 -26,-62 0,-26 10,-48 29,-65 17,-15 37,-23 58,-23zm1 40c-13,0 -24,4 -33,13 -8,9 -13,21 -13,35 0,15 5,26 13,35 9,9 20,14 33,14 13,0 24,-5 33,-14 9,-9 13,-21 13,-35 0,-14 -4,-26 -13,-35 -9,-9 -20,-13 -33,-13z"/>
  <path id="6" class="fil0" d="M1938 429l36 0 0 22c4,-9 9,-15 16,-19 6,-5 13,-7 21,-7 5,0 11,2 17,5l-13 36c-5,-3 -9,-4 -12,-4 -7,0 -12,4 -17,12 -4,8 -6,24 -6,47l0 8 0 68 -42 0 0 -168z"/>
  <path id="7" class="fil0" d="M2065 361c8,0 14,2 19,8 6,5 8,11 8,19 0,7 -2,14 -8,19 -5,5 -11,8 -18,8 -8,0 -14,-3 -20,-8 -5,-6 -7,-12 -7,-20 0,-7 2,-13 7,-19 6,-5 12,-7 19,-7zm-21 68l42 0 0 168 -42 0 0 -168z"/>
  <path id="8" class="fil0" d="M2124 429l42 0 0 18c10,-8 18,-14 26,-17 8,-3 16,-5 24,-5 17,0 31,6 42,18 10,9 15,24 15,43l0 111 -42 0 0 -73c0,-20 -1,-34 -2,-40 -2,-7 -5,-12 -10,-15 -4,-4 -10,-5 -16,-5 -9,0 -16,3 -22,8 -6,6 -11,14 -13,24 -1,5 -2,16 -2,34l0 67 -42 0 0 -168z"/>
  <path id="9" class="fil0" d="M2438 429l42 0 0 144c0,28 -6,49 -17,62 -16,18 -39,27 -70,27 -16,0 -30,-2 -41,-6 -11,-4 -21,-10 -29,-18 -7,-8 -13,-18 -17,-29l47 0c4,5 9,8 16,11 6,2 14,3 23,3 11,0 20,-2 27,-5 7,-4 12,-8 15,-14 3,-5 4,-14 4,-28 -7,7 -15,13 -23,16 -8,3 -18,5 -28,5 -23,0 -42,-8 -57,-24 -16,-17 -24,-37 -24,-62 0,-26 9,-48 25,-64 15,-15 33,-22 54,-22 9,0 19,2 27,6 9,3 17,9 26,17l0 -19zm-44 36c-13,0 -24,4 -33,13 -9,9 -13,20 -13,33 0,14 4,26 13,34 9,9 20,14 34,14 13,0 24,-5 32,-13 9,-9 13,-20 13,-34 0,-14 -4,-26 -13,-34 -9,-9 -19,-13 -33,-13z"/>
  <path class="fil1" d="M893 51l46 0c25,0 43,2 53,7 11,4 20,12 26,22 6,10 10,23 10,37 0,15 -4,27 -11,38 -7,10 -17,17 -32,23l53 101 -47 0 -51 -97 -5 0 0 97 -43 0 0 -228 1 0 0 0zm44 89l13 0c14,0 23,-2 28,-6 6,-3 8,-9 8,-17 0,-5 -1,-10 -3,-13 -3,-4 -6,-7 -11,-8 -4,-2 -12,-3 -24,-3l-11 0 0 47 0 0z"/>
  <polygon class="fil1" points="1074,51 1199,51 1199,93 1118,93 1118,134 1199,134 1199,176 1118,176 1118,236 1199,236 1199,278 1074,278 "/>
  <path class="fil1" d="M1309 51l44 0 87 228 -45 0 -17 -47 -94 0 -18 47 -45 0 88 -228 0 0zm22 61l-31 78 61 0 -30 -78z"/>
  <polygon class="fil1" points="1465,45 1507,45 1507,279 1465,279 "/>
  <path class="fil1" d="M539 54l-538 0 0 520 635 0 0 -417c35,-10 58,-41 58,-77 0,-44 -35,-80 -79,-80 -36,0 -66,27 -76,54l0 0zm-494 476l0 -432 492 0c7,26 28,51 55,59l0 373 -547 0zm605 -450c0,20 -16,36 -35,36 -20,0 -36,-16 -36,-36 0,-19 16,-35 36,-35 19,0 35,16 35,35z"/>
  <rect class="fil1" transform="matrix(-0.273172 0.000772996 -0.000772996 -0.273172 281.762 664.424)" width="846" height="161"/>
  <rect class="fil1" transform="matrix(-0.273172 0.000986586 -0.000986586 -0.273172 583.982 664.312)" width="846" height="161"/>
  <rect class="fil1" x="75" y="397" width="230.972" height="44.071"/>
  <rect class="fil1" x="75" y="176" width="230.972" height="44.071"/>
  <rect class="fil1" x="75" y="287" width="229.192" height="44.071"/>
  <rect class="fil1" transform="matrix(0.000772996 0.149054 -0.273172 0.000421779 340.184 537.403)" width="846" height="161"/>
 </g>
</svg>
