<?xml version="1.0" encoding="UTF-8"?>
<!DOCTYPE svg PUBLIC "-//W3C//DTD SVG 1.1//EN" "http://www.w3.org/Graphics/SVG/1.1/DTD/svg11.dtd">
<!-- Creator: CorelDRAW 2017 -->
<svg xmlns="http://www.w3.org/2000/svg" xml:space="preserve" width="600px" height="600px" version="1.1" style="shape-rendering:geometricPrecision; text-rendering:geometricPrecision; image-rendering:optimizeQuality; fill-rule:evenodd; clip-rule:evenodd"
viewBox="0 0 600 600"
 xmlns:xlink="http://www.w3.org/1999/xlink">
 <defs>
  <style type="text/css">
   <![CDATA[
    .str2 {stroke:black;stroke-width:27.84;stroke-miterlimit:22.9256}
    .str0 {stroke:black;stroke-width:1.31;stroke-miterlimit:22.9256}
    .str1 {stroke:black;stroke-width:8.91;stroke-miterlimit:22.9256}
    .fil6 {fill:none}
    .fil2 {fill:none;fill-rule:nonzero}
    .fil0 {fill:black}
    .fil3 {fill:#D30304}
    .fil4 {fill:#F96708}
    .fil5 {fill:#FD9B02}
    .fil1 {fill:black;fill-rule:nonzero}
   ]]>
  </style>
 </defs>
 <g id="Слой_x0020_1">
  <metadata id="CorelCorpID_0Corel-Layer"/>
  <g id="_505480864">
   <path class="fil0" d="M350.14 372.68l-51.94 29.77 0.27 54.8 -31.68 18.22c-2.86,-2.86 -6.94,-4.76 -11.42,-4.76 -8.98,0 -16.05,7.07 -16.05,16.04 0,8.84 7.07,16.05 16.05,16.05 8.97,0 16.04,-7.21 16.04,-16.05 0,-1.22 -0.14,-2.31 -0.27,-3.53l32.09 -18.49 47.31 27.33 51.81 -29.78 -0.27 -59.83 -51.94 -29.77 0 0zm-94.77 121.42c-3.95,0 -7.07,-3.27 -7.07,-7.21 0,-3.94 3.12,-7.07 7.07,-7.07 3.94,0 7.2,3.13 7.2,7.07 0,3.94 -3.26,7.21 -7.2,7.21zm95.04 -12.24l-43.1 -24.75 -0.14 -49.49 42.83 -24.61 42.97 24.75 0.27 49.49 -42.83 24.61 0 0z"/>
   <rect class="fil0" transform="matrix(0.000102333 0.0435099 -0.0435099 0.000102333 387.031 414.011)" width="853.39" height="205.14"/>
   <rect class="fil0" transform="matrix(0.0376796 0.021755 -0.021755 0.0376796 320.356 447.118)" width="857.49" height="205.14"/>
   <rect class="fil0" transform="matrix(-0.0216636 -0.0377362 0.0377362 -0.0216636 320.218 417.748)" width="205.14" height="853.39"/>
   <rect class="fil0" transform="matrix(0.0216288 0.0377536 -0.0377536 0.0216288 300.512 472.909)" width="205.14" height="590.81"/>
   <path class="fil0" d="M255.37 394.57c8.97,0 16.04,-7.07 16.04,-16.05 0,-8.83 -7.07,-16.04 -16.04,-16.04 -8.98,0 -16.05,7.21 -16.05,16.04 -0.13,8.98 7.07,16.05 16.05,16.05zm0 -23.12c3.94,0 7.2,3.13 7.2,7.07 0,3.95 -3.26,7.21 -7.2,7.21 -3.95,0 -7.07,-3.26 -7.07,-7.21 -0.28,-3.94 2.99,-7.07 7.07,-7.07z"/>
  </g>
  <g>
   <polygon class="fil0" points="100.46,560.84 100.46,589.28 538.64,589.28 538.64,560.84 "/>
   <path id="1" class="fil1" d="M99.95 589.28l0 -28.44 1.01 0 0 28.44 -0.5 0.5 -0.51 -0.5zm0.51 0.5l-0.51 0 0 -0.5 0.51 0.5zm438.18 0l-438.18 0 0 -1 438.18 0 0.51 0.5 -0.51 0.5zm0.51 -0.5l0 0.5 -0.51 0 0.51 -0.5zm0 -28.44l0 28.44 -1.02 0 0 -28.44 0.51 -0.5 0.51 0.5zm-0.51 -0.5l0.51 0 0 0.5 -0.51 -0.5zm-438.18 0l438.18 0 0 1 -438.18 0 -0.51 -0.5 0.51 -0.5zm-0.51 0.5l0 -0.5 0.51 0 -0.51 0.5z"/>
  </g>
  <g>
   <polygon class="fil0" points="154.65,512.85 154.65,541.29 486.02,541.29 486.02,512.85 "/>
   <path id="1" class="fil1" d="M154.16 541.29l0 -28.44 0.99 0 0 28.44 -0.5 0.51 -0.49 -0.51zm0.49 0.51l-0.49 0 0 -0.51 0.49 0.51zm331.37 0l-331.37 0 0 -1.01 331.37 0 0.5 0.5 -0.5 0.51zm0.5 -0.51l0 0.51 -0.5 0 0.5 -0.51zm0 -28.44l0 28.44 -1 0 0 -28.44 0.5 -0.5 0.5 0.5zm-0.5 -0.5l0.5 0 0 0.5 -0.5 -0.5zm-331.37 0l331.37 0 0 1 -331.37 0 -0.49 -0.5 0.49 -0.5zm-0.49 0.5l0 -0.5 0.49 0 -0.49 0.5z"/>
  </g>
  <rect class="fil0 str0" x="457.36" y="335.87" width="28.44" height="205.13"/>
  <g>
   <polygon class="fil0" points="155.07,541.05 183.52,541.05 183.52,372.05 155.07,372.05 "/>
   <path id="1" class="fil1" d="M183.52 541.7l-28.45 0 0 -1.31 28.45 0 0.65 0.66 -0.65 0.65zm0.65 -0.65l0 0.65 -0.65 0 0.65 -0.65zm0 -169l0 169 -1.31 0 0 -169 0.66 -0.65 0.65 0.65zm-0.65 -0.65l0.65 0 0 0.65 -0.65 -0.65zm-28.45 0l28.45 0 0 1.31 -28.45 0 -0.66 -0.66 0.66 -0.65zm-0.66 0.65l0 -0.65 0.66 0 -0.66 0.65zm0 169l0 -169 1.32 0 0 169 -0.66 0.65 -0.66 -0.65zm0.66 0.65l-0.66 0 0 -0.65 0.66 0.65z"/>
  </g>
  <g>
   <polygon class="fil0" points="197.93,322.2 197.93,350.64 485.32,350.64 485.32,322.2 "/>
   <path id="1" class="fil1" d="M197.42 350.64l0 -28.44 1.01 0 0 28.44 -0.5 0.5 -0.51 -0.5zm0.51 0.5l-0.51 0 0 -0.5 0.51 0.5zm287.39 0l-287.39 0 0 -1 287.39 0 0.51 0.5 -0.51 0.5zm0.51 -0.5l0 0.5 -0.51 0 0.51 -0.5zm0 -28.44l0 28.44 -1.01 0 0 -28.44 0.5 -0.51 0.51 0.51zm-0.51 -0.51l0.51 0 0 0.51 -0.51 -0.51zm-287.39 0l287.39 0 0 1.01 -287.39 0 -0.51 -0.5 0.51 -0.51zm-0.51 0.51l0 -0.51 0.51 0 -0.51 0.51z"/>
  </g>
  <g>
   <polygon class="fil0" points="219.3,279.49 219.3,307.94 412.02,307.94 412.02,279.49 "/>
   <path id="1" class="fil1" d="M218.8 307.94l0 -28.45 1 0 0 28.45 -0.5 0.5 -0.5 -0.5zm0.5 0.5l-0.5 0 0 -0.5 0.5 0.5zm192.72 0l-192.72 0 0 -1.01 192.72 0 0.5 0.51 -0.5 0.5zm0.5 -0.5l0 0.5 -0.5 0 0.5 -0.5zm0 -28.45l0 28.45 -1 0 0 -28.45 0.5 -0.5 0.5 0.5zm-0.5 -0.5l0.5 0 0 0.5 -0.5 -0.5zm-192.72 0l192.72 0 0 1 -192.72 0 -0.5 -0.5 0.5 -0.5zm-0.5 0.5l0 -0.5 0.5 0 -0.5 0.5z"/>
  </g>
  <polygon class="fil1" points="288.68,105.95 318.74,105.95 318.74,259.6 303.15,259.6 303.15,120.98 279.22,120.98 "/>
  <polygon id="_1" class="fil2 str1" points="288.68,105.95 318.74,105.95 318.74,259.6 303.15,259.6 303.15,120.98 279.22,120.98 "/>
  <path class="fil3" d="M305.38 94.26c1.67,-2.22 4.46,-13.92 5.57,-18.37 1.67,-7.24 3.34,-13.36 3.34,-21.15 -0.56,-11.14 -3.9,-18.93 -7.8,-28.95 -1.11,-2.79 -1.67,-7.24 -2.22,-9.47 -2.23,1.67 -7.8,13.92 -9.47,17.26 -2.78,6.13 -5.01,14.48 -4.45,22.27 0,13.36 8.35,31.73 15.03,38.41z"/>
  <path class="fil4" d="M304.82 84.8c6.69,-18.37 6.69,-31.18 -1.67,-48.99 -3.34,5.01 -7.23,17.81 -7.23,25.05 0,7.79 5.01,21.15 8.9,23.94l0 0z"/>
  <path class="fil5" d="M304.82 71.44c3.34,-8.91 2.79,-15.59 0,-24.5 -0.55,-2.78 -1.11,-2.78 -2.22,-3.34 -2.79,6.13 -5.57,15.03 -2.79,22.83 0.56,0.55 0.56,1.11 0.56,1.67 1.67,2.22 2.78,2.78 4.45,3.34l0 0z"/>
  <circle class="fil6 str2" cx="167.88" cy="335.87" r="30.06"/>
 </g>
</svg>
