<svg xmlns="http://www.w3.org/2000/svg" xmlns:xlink="http://www.w3.org/1999/xlink" viewBox="0 0 320 150">
  <defs>
    <style>
      .cls-1 {
        clip-path: url(#clip-ec);
      }

      .cls-2, .cls-6 {
        fill: #d93b3b;
      }

      .cls-2 {
        stroke: rgba(0,0,0,0);
      }

      .cls-3, .cls-4, .cls-7 {
        fill: none;
      }

      .cls-3 {
        stroke-linecap: round;
      }

      .cls-4 {
        stroke: #d93b3b;
        stroke-width: 5px;
      }

      .cls-5, .cls-6 {
        stroke: none;
      }

      .cls-8 {
        fill: #fff;
      }
    </style>
    <clipPath id="clip-ec">
      <rect width="320" height="150"/>
    </clipPath>
  </defs>
  <g id="ec" class="cls-1">
    <rect class="cls-8" width="320" height="150"/>
    <path id="Path_145" data-name="Path 145" class="cls-2" d="M2.971-25.857H17.086v4.816H7.857v4.676h9.229v4.729H7.857v6.8h9.229V0H2.971Zm16.453,6.732H25L28.74-13.9l3.8-5.221h5.52l-6.539,9.053L38.865,0H33.293L28.74-6.275,24.24,0h-5.5L25.98-10.072Zm22.465-7.049H46.67v7.049h2.848v4.131H46.67V0H41.889V-14.994H39.428v-4.131h2.461Zm9.088,7.049H55.09v2.408a5.139,5.139,0,0,1,1.775-2.162,4.283,4.283,0,0,1,2.426-.738,4.488,4.488,0,0,1,1.951.492l-1.494,4.131a3.3,3.3,0,0,0-1.389-.422,2.2,2.2,0,0,0-1.872,1.371q-.765,1.371-.765,5.379l.018.932V0H50.977Zm31.8,10.951H67.359a5.132,5.132,0,0,0,1.784,3.243,5.6,5.6,0,0,0,3.7,1.2,6.4,6.4,0,0,0,4.623-1.881l4.043,1.9A9.543,9.543,0,0,1,77.889-.536,11.324,11.324,0,0,1,72.879.492a9.9,9.9,0,0,1-7.33-2.839,9.661,9.661,0,0,1-2.83-7.11,9.987,9.987,0,0,1,2.821-7.269,9.476,9.476,0,0,1,7.075-2.892,9.827,9.827,0,0,1,7.348,2.892,10.45,10.45,0,0,1,2.83,7.638Zm-4.816-3.779a4.814,4.814,0,0,0-1.872-2.6,5.421,5.421,0,0,0-3.243-1,5.728,5.728,0,0,0-3.516,1.125,6.269,6.269,0,0,0-1.758,2.479Zm8.666-7.172h4.816v2.2a8.186,8.186,0,0,1,2.733-2.021,7.98,7.98,0,0,1,3.278-.668,6.089,6.089,0,0,1,3.234.879,6.351,6.351,0,0,1,2.32,2.566,7.746,7.746,0,0,1,2.8-2.566,7.641,7.641,0,0,1,3.63-.879,6.717,6.717,0,0,1,3.586.949,5.483,5.483,0,0,1,2.224,2.479,13.252,13.252,0,0,1,.677,4.975V0h-4.834V-9.7q0-3.252-.809-4.4a2.768,2.768,0,0,0-2.426-1.151,3.68,3.68,0,0,0-2.206.7,4.156,4.156,0,0,0-1.45,1.942,12.072,12.072,0,0,0-.475,3.981V0H98.895V-9.264a13.069,13.069,0,0,0-.378-3.718A3.364,3.364,0,0,0,97.383-14.7a2.976,2.976,0,0,0-1.828-.562,3.6,3.6,0,0,0-2.171.712,4.246,4.246,0,0,0-1.459,2,12.359,12.359,0,0,0-.483,4.043V0H86.625ZM139.658-8.174H124.242a5.132,5.132,0,0,0,1.784,3.243,5.6,5.6,0,0,0,3.7,1.2,6.4,6.4,0,0,0,4.623-1.881l4.043,1.9a9.543,9.543,0,0,1-3.621,3.173,11.324,11.324,0,0,1-5.01,1.028,9.9,9.9,0,0,1-7.33-2.839,9.661,9.661,0,0,1-2.83-7.11,9.987,9.987,0,0,1,2.821-7.269,9.476,9.476,0,0,1,7.075-2.892,9.827,9.827,0,0,1,7.348,2.892,10.45,10.45,0,0,1,2.83,7.638Zm-4.816-3.779a4.814,4.814,0,0,0-1.872-2.6,5.421,5.421,0,0,0-3.243-1,5.728,5.728,0,0,0-3.516,1.125,6.269,6.269,0,0,0-1.758,2.479ZM26.719,22.7l-3.445,3.287a10.676,10.676,0,0,0-7.91-3.709,8.66,8.66,0,0,0-8.789,8.771A9.21,9.21,0,0,0,7.7,35.633a8.057,8.057,0,0,0,3.182,3.146,9.25,9.25,0,0,0,4.57,1.143,9.434,9.434,0,0,0,3.92-.8,14.044,14.044,0,0,0,3.9-2.909l3.34,3.48A18.321,18.321,0,0,1,21.2,43.569a14.782,14.782,0,0,1-5.818,1.081,13.394,13.394,0,0,1-9.87-3.823,13.236,13.236,0,0,1-3.841-9.8,13.413,13.413,0,0,1,1.749-6.873,13.005,13.005,0,0,1,5.01-4.834,14.128,14.128,0,0,1,7.022-1.828,14.895,14.895,0,0,1,11.268,5.2ZM39.48,24.383a10.137,10.137,0,0,1,5.089,1.354,9.925,9.925,0,0,1,5.054,8.684,10.044,10.044,0,0,1-1.345,5.063,9.7,9.7,0,0,1-3.665,3.683A10.121,10.121,0,0,1,39.5,44.492a9.54,9.54,0,0,1-7.022-2.927,9.71,9.71,0,0,1-2.909-7.11A10.026,10.026,0,0,1,39.48,24.383Zm.07,4.518a4.927,4.927,0,0,0-3.718,1.556,5.53,5.53,0,0,0-1.485,3.981,5.632,5.632,0,0,0,1.468,4.043,4.9,4.9,0,0,0,3.718,1.547,4.962,4.962,0,0,0,3.744-1.564,5.589,5.589,0,0,0,1.494-4.025,5.553,5.553,0,0,0-1.468-4A4.96,4.96,0,0,0,39.551,28.9Zm13.957-4.025h4.816v2.2a8.186,8.186,0,0,1,2.733-2.021,7.98,7.98,0,0,1,3.278-.668,6.089,6.089,0,0,1,3.234.879,6.351,6.351,0,0,1,2.32,2.566,7.746,7.746,0,0,1,2.8-2.566,7.641,7.641,0,0,1,3.63-.879,6.717,6.717,0,0,1,3.586.949,5.483,5.483,0,0,1,2.224,2.479,13.252,13.252,0,0,1,.677,4.975V44H77.977V34.3q0-3.252-.809-4.4a2.768,2.768,0,0,0-2.426-1.151,3.68,3.68,0,0,0-2.206.7,4.156,4.156,0,0,0-1.45,1.942,12.072,12.072,0,0,0-.475,3.981V44H65.777V34.736a13.069,13.069,0,0,0-.378-3.718A3.364,3.364,0,0,0,64.266,29.3a2.976,2.976,0,0,0-1.828-.562,3.6,3.6,0,0,0-2.171.712,4.246,4.246,0,0,0-1.459,2,12.359,12.359,0,0,0-.483,4.043V44H53.508ZM89.262,17a2.947,2.947,0,0,1,2.171.914,3.031,3.031,0,0,1,.905,2.215,3,3,0,0,1-.9,2.188,2.912,2.912,0,0,1-2.145.905,2.953,2.953,0,0,1-2.188-.923,3.082,3.082,0,0,1-.905-2.241A3.061,3.061,0,0,1,89.262,17Zm-2.408,7.875H91.67V44H86.854Zm27.879,3.867-3.99,2.2a6.767,6.767,0,0,0-2.224-1.635,6.672,6.672,0,0,0-2.575-.457,5.99,5.99,0,0,0-4.351,1.608,5.487,5.487,0,0,0-1.661,4.122,5.306,5.306,0,0,0,1.6,3.99,5.788,5.788,0,0,0,4.2,1.547,6.106,6.106,0,0,0,5.01-2.2l3.779,2.584a10.327,10.327,0,0,1-8.684,3.99,10.412,10.412,0,0,1-7.9-2.988,9.939,9.939,0,0,1,2.408-15.785,11.569,11.569,0,0,1,5.563-1.336,11.281,11.281,0,0,1,5.115,1.134A9.708,9.708,0,0,1,114.732,28.742Zm16.031-1.2-2.971,2.971a5.025,5.025,0,0,0-3.287-1.793,2.069,2.069,0,0,0-1.266.343,1.03,1.03,0,0,0-.457.853,1.048,1.048,0,0,0,.29.712,5.412,5.412,0,0,0,1.433.888l1.758.879a10.358,10.358,0,0,1,3.814,2.795,5.822,5.822,0,0,1-.835,7.594,7.167,7.167,0,0,1-5.019,1.705,7.977,7.977,0,0,1-6.68-3.27l2.953-3.217a6.822,6.822,0,0,0,1.978,1.591,4.378,4.378,0,0,0,2.013.606,2.4,2.4,0,0,0,1.529-.457,1.325,1.325,0,0,0,.58-1.055q0-1.107-2.092-2.162l-1.617-.809q-4.641-2.338-4.641-5.854A5.079,5.079,0,0,1,120,25.991a6.351,6.351,0,0,1,4.474-1.608,7.761,7.761,0,0,1,6.293,3.164Z" transform="translate(140 70)"/>
    <g id="Union_1" data-name="Union 1" class="cls-3" transform="translate(1001 955)">
      <path class="cls-5" d="M-961-840v-74h62.512A9,9,0,0,1-890-920a9,9,0,0,1,9,9,9,9,0,0,1-6,8.488V-840Z"/>
      <path class="cls-6" d="M -892.0004272460938 -844.9996948242188 L -892.0004272460938 -902.5118408203125 L -892.0004272460938 -906.0478515625 L -888.66650390625 -907.22607421875 C -887.0716552734375 -907.7897338867188 -886.0001220703125 -909.3062744140625 -886.0001220703125 -910.9998168945312 C -886.0001220703125 -913.2054443359375 -887.7944946289062 -914.9998168945312 -890.0001220703125 -914.9998168945312 C -891.6934814453125 -914.9998168945312 -893.2100219726562 -913.928466796875 -893.773681640625 -912.3339233398438 L -894.9521484375 -909.0004272460938 L -898.48779296875 -909.0004272460938 L -956.000244140625 -909.0004272460938 L -956.000244140625 -844.9996948242188 L -892.0004272460938 -844.9996948242188 M -887.0004272460938 -839.9996948242188 L -961.000244140625 -839.9996948242188 L -961.000244140625 -914.0004272460938 L -898.48779296875 -914.0004272460938 C -897.2521362304688 -917.4957275390625 -893.918701171875 -919.9998168945312 -890.0001220703125 -919.9998168945312 C -885.0294189453125 -919.9998168945312 -881.0001220703125 -915.9705200195312 -881.0001220703125 -910.9998168945312 C -881.0001220703125 -907.0809936523438 -883.5046997070312 -903.7472534179688 -887.0004272460938 -902.5118408203125 L -887.0004272460938 -839.9996948242188 Z"/>
    </g>
    <line id="Line_3" data-name="Line 3" class="cls-4" y1="13" x2="70" transform="translate(42.5 62.5)"/>
    <line id="Line_4" data-name="Line 4" class="cls-4" y1="40" transform="translate(67.5 71.5)"/>
    <line id="Line_5" data-name="Line 5" class="cls-4" x2="42" y2="11" transform="translate(67.5 85.5)"/>
    <g id="Ellipse_3" data-name="Ellipse 3" class="cls-4" transform="translate(102 35)">
      <circle class="cls-5" cx="9" cy="9" r="9"/>
      <circle class="cls-7" cx="9" cy="9" r="6.5"/>
    </g>
  </g>
</svg>
