<svg xmlns="http://www.w3.org/2000/svg" xmlns:xlink="http://www.w3.org/1999/xlink" viewBox="0 0 249 68">
  <defs>
    <style>
      .cls-1 {
        clip-path: url(#clip-forex);
      }

      .cls-2 {
        fill: none;
        stroke: #1b9516;
        stroke-width: 5px;
      }

      .cls-3, .cls-4 {
        fill: #1b9516;
      }

      .cls-4 {
        stroke: rgba(0,0,0,0);
      }

      .cls-5 {
        fill: #fff;
      }
    </style>
    <clipPath id="clip-forex">
      <rect width="249" height="68"/>
    </clipPath>
  </defs>
  <g id="forex" class="cls-1">
    <rect class="cls-5" width="249" height="68"/>
    <line id="Line_6" data-name="Line 6" class="cls-2" y1="18" transform="translate(19.5 48.5)"/>
    <line id="Line_8" data-name="Line 8" class="cls-2" y1="29" transform="translate(31.5 37.5)"/>
    <line id="Line_9" data-name="Line 9" class="cls-2" y1="24" transform="translate(42.5 42.5)"/>
    <line id="Line_10" data-name="Line 10" class="cls-2" y1="12" transform="translate(54.5 54.5)"/>
    <line id="Line_11" data-name="Line 11" class="cls-2" y1="18" transform="translate(65.5 48.5)"/>
    <line id="Line_12" data-name="Line 12" class="cls-2" y1="29" transform="translate(77.5 37.5)"/>
    <line id="Line_7" data-name="Line 7" class="cls-2" y1="37" transform="translate(88.5 29.5)"/>
    <g id="Group_80" data-name="Group 80" transform="translate(-0.343 11.634)">
      <path id="Path_113" data-name="Path 113" class="cls-3" d="M700.954,53.211l-30.12,30.12L648.207,60.7l-35.55,35.55,1.813,1.813,1.722,1.722,32.015-32.014L670.834,90.4l33.655-33.656Z" transform="translate(-612.657 -53.211)"/>
    </g>
    <g id="Group_83" data-name="Group 83" transform="translate(84.636 0.5)">
      <path id="Path_116" data-name="Path 116" class="cls-3" d="M706.656,92.935a9.021,9.021,0,1,0,9.022,9.021A9.031,9.031,0,0,0,706.656,92.935Zm0,13.042a4.021,4.021,0,1,1,4.022-4.021A4.025,4.025,0,0,1,706.656,105.977Z" transform="translate(-697.636 -92.935)"/>
    </g>
    <path id="Path_146" data-name="Path 146" class="cls-4" d="M4.031-34.477H21.141v6.4H10.523v6.258H21.141v6.3H10.523V0H4.031Zm34.219,8.32a13.515,13.515,0,0,1,6.785,1.8,13.037,13.037,0,0,1,4.957,4.9,13.162,13.162,0,0,1,1.781,6.68,13.392,13.392,0,0,1-1.793,6.75,12.937,12.937,0,0,1-4.887,4.91,13.5,13.5,0,0,1-6.82,1.77,12.72,12.72,0,0,1-9.363-3.9,12.946,12.946,0,0,1-3.879-9.48,12.9,12.9,0,0,1,4.383-9.961A12.8,12.8,0,0,1,38.25-26.156Zm.094,6.023a6.569,6.569,0,0,0-4.957,2.074,7.374,7.374,0,0,0-1.98,5.309,7.51,7.51,0,0,0,1.957,5.391A6.54,6.54,0,0,0,38.32-5.3a6.616,6.616,0,0,0,4.992-2.086A7.452,7.452,0,0,0,45.3-12.75a7.4,7.4,0,0,0-1.957-5.332A6.614,6.614,0,0,0,38.344-20.133ZM55.5-25.5h5.484v3.211a6.852,6.852,0,0,1,2.367-2.883,5.711,5.711,0,0,1,3.234-.984,5.984,5.984,0,0,1,2.6.656L67.2-19.992a4.4,4.4,0,0,0-1.852-.562,2.93,2.93,0,0,0-2.5,1.828q-1.02,1.828-1.02,7.172l.023,1.242V0H55.5ZM97.9-10.9H77.344a6.843,6.843,0,0,0,2.379,4.324,7.464,7.464,0,0,0,4.934,1.605A8.53,8.53,0,0,0,90.82-7.477l5.391,2.531a12.724,12.724,0,0,1-4.828,4.23A15.1,15.1,0,0,1,84.7.656,13.2,13.2,0,0,1,74.93-3.129a12.881,12.881,0,0,1-3.773-9.48A13.316,13.316,0,0,1,74.918-22.3a12.634,12.634,0,0,1,9.434-3.855,13.1,13.1,0,0,1,9.8,3.855,13.934,13.934,0,0,1,3.773,10.184Zm-6.422-5.039a6.419,6.419,0,0,0-2.5-3.469,7.229,7.229,0,0,0-4.324-1.336,7.638,7.638,0,0,0-4.687,1.5,8.358,8.358,0,0,0-2.344,3.3Zm9.3-9.562h7.43l4.992,6.961,5.063-6.961h7.359l-8.719,12.07L126.7,0h-7.43L113.2-8.367,107.2,0H99.867l9.656-13.43Z" transform="translate(122 53)"/>
  </g>
</svg>
