<svg xmlns="http://www.w3.org/2000/svg" xmlns:xlink="http://www.w3.org/1999/xlink" viewBox="0 0 267 76">
  <defs>
    <style>
      .cls-1 {
        clip-path: url(#clip-gadgets);
      }

      .cls-2, .cls-4, .cls-7 {
        fill: none;
      }

      .cls-3, .cls-6 {
        fill: #1aa796;
      }

      .cls-4 {
        stroke: #1aa796;
        stroke-width: 5px;
      }

      .cls-5, .cls-6 {
        stroke: none;
      }

      .cls-8 {
        fill: #fff;
      }
    </style>
    <clipPath id="clip-gadgets">
      <rect width="267" height="76"/>
    </clipPath>
  </defs>
  <g id="gadgets" class="cls-1">
    <rect class="cls-8" width="267" height="76"/>
    <g id="Path_144" data-name="Path 144" class="cls-2" transform="translate(46.045) rotate(90)">
      <path class="cls-5" d="M0,0H71.012V46.09H0Z"/>
      <path class="cls-6" d="M 5 4.999996185302734 L 5 41.08985137939453 L 66.01171875 41.08985137939453 L 66.01171875 4.999996185302734 L 5 4.999996185302734 M 0 -3.814697265625e-06 L 71.01171875 -3.814697265625e-06 L 71.01171875 46.08985137939453 L 0 46.08985137939453 L 0 -3.814697265625e-06 Z"/>
    </g>
    <path id="Path_152" data-name="Path 152" class="cls-3" d="M35.766-28.852l-4.617,4.57A13.644,13.644,0,0,0,20.93-28.922a11.673,11.673,0,0,0-8.52,3.375,11.071,11.071,0,0,0-3.434,8.2,11.36,11.36,0,0,0,3.563,8.461,12.11,12.11,0,0,0,8.789,3.469,10.772,10.772,0,0,0,5.73-1.43A10.061,10.061,0,0,0,30.82-11.32H20.836v-6.164H38.18l.047,1.453a16.879,16.879,0,0,1-2.344,8.578,16.386,16.386,0,0,1-6.07,6.188A17.3,17.3,0,0,1,21.07.867,19.414,19.414,0,0,1,11.5-1.465,17.06,17.06,0,0,1,4.84-8.109a18.53,18.53,0,0,1-2.449-9.3A17.293,17.293,0,0,1,6.914-29.32a17.832,17.832,0,0,1,13.969-6.023A21.279,21.279,0,0,1,29.3-33.68,19.3,19.3,0,0,1,35.766-28.852ZM62.391-25.5h6.375V0H62.391V-2.7A12.559,12.559,0,0,1,58.629-.129a10.539,10.539,0,0,1-4.09.785,11.368,11.368,0,0,1-8.555-3.832A13.359,13.359,0,0,1,42.375-12.7a13.689,13.689,0,0,1,3.492-9.68,11.132,11.132,0,0,1,8.484-3.773,10.8,10.8,0,0,1,4.313.867,11.766,11.766,0,0,1,3.727,2.6Zm-6.727,5.25a6.5,6.5,0,0,0-4.945,2.1,7.545,7.545,0,0,0-1.969,5.379,7.624,7.624,0,0,0,2,5.438A6.5,6.5,0,0,0,55.688-5.2,6.625,6.625,0,0,0,60.7-7.3,7.652,7.652,0,0,0,62.7-12.8,7.433,7.433,0,0,0,60.7-18.187,6.708,6.708,0,0,0,55.664-20.25ZM94.078-35.344h6.375V0H94.078V-2.7A12.559,12.559,0,0,1,90.316-.129a10.539,10.539,0,0,1-4.09.785,11.368,11.368,0,0,1-8.555-3.832A13.359,13.359,0,0,1,74.063-12.7a13.689,13.689,0,0,1,3.492-9.68,11.132,11.132,0,0,1,8.484-3.773,10.8,10.8,0,0,1,4.313.867,11.766,11.766,0,0,1,3.727,2.6ZM87.352-20.25a6.5,6.5,0,0,0-4.945,2.1,7.545,7.545,0,0,0-1.969,5.379,7.624,7.624,0,0,0,2,5.438A6.5,6.5,0,0,0,87.375-5.2a6.625,6.625,0,0,0,5.016-2.1,7.652,7.652,0,0,0,1.992-5.5,7.433,7.433,0,0,0-1.992-5.391A6.708,6.708,0,0,0,87.352-20.25Zm38.414-5.25h6.375V-3.656q0,6.469-2.6,9.516-3.492,4.125-10.523,4.125a18.431,18.431,0,0,1-6.3-.937A11.334,11.334,0,0,1,108.4,6.293a11.225,11.225,0,0,1-2.6-4.418h7.055A5.829,5.829,0,0,0,115.266,3.5a9.99,9.99,0,0,0,3.492.551,9.206,9.206,0,0,0,4.148-.8A4.808,4.808,0,0,0,125.121,1.2a10.445,10.445,0,0,0,.645-4.359,10.6,10.6,0,0,1-3.539,2.426,11.25,11.25,0,0,1-4.2.738,11.531,11.531,0,0,1-8.672-3.7,13.023,13.023,0,0,1-3.539-9.375,13.044,13.044,0,0,1,3.75-9.75,11.187,11.187,0,0,1,8.109-3.328,10.786,10.786,0,0,1,4.16.809,13.179,13.179,0,0,1,3.926,2.66Zm-6.633,5.32a6.662,6.662,0,0,0-4.992,2.027,7.022,7.022,0,0,0-1.969,5.1,7.121,7.121,0,0,0,2.016,5.227,6.824,6.824,0,0,0,5.063,2.039,6.55,6.55,0,0,0,4.91-1.992,7.186,7.186,0,0,0,1.934-5.227,7.1,7.1,0,0,0-1.945-5.18A6.7,6.7,0,0,0,119.133-20.18ZM164.156-10.9H143.6a6.843,6.843,0,0,0,2.379,4.324,7.464,7.464,0,0,0,4.934,1.605,8.53,8.53,0,0,0,6.164-2.508l5.391,2.531a12.724,12.724,0,0,1-4.828,4.23,15.1,15.1,0,0,1-6.68,1.371,13.2,13.2,0,0,1-9.773-3.785,12.881,12.881,0,0,1-3.773-9.48,13.316,13.316,0,0,1,3.762-9.691,12.634,12.634,0,0,1,9.434-3.855,13.1,13.1,0,0,1,9.8,3.855,13.934,13.934,0,0,1,3.773,10.184Zm-6.422-5.039a6.419,6.419,0,0,0-2.5-3.469,7.229,7.229,0,0,0-4.324-1.336,7.638,7.638,0,0,0-4.687,1.5,8.358,8.358,0,0,0-2.344,3.3ZM170.109-34.9h6.375v9.4h3.8v5.508h-3.8V0h-6.375V-19.992h-3.281V-25.5h3.281Zm29.227,12.961-3.961,3.961q-2.414-2.391-4.383-2.391a2.758,2.758,0,0,0-1.687.457,1.374,1.374,0,0,0-.609,1.137,1.4,1.4,0,0,0,.387.949,7.217,7.217,0,0,0,1.91,1.184l2.344,1.172a13.811,13.811,0,0,1,5.086,3.727A7.36,7.36,0,0,1,199.8-7.289a7.355,7.355,0,0,1-2.5,5.672A9.556,9.556,0,0,1,190.617.656,10.636,10.636,0,0,1,181.711-3.7l3.938-4.289a9.1,9.1,0,0,0,2.637,2.121,5.837,5.837,0,0,0,2.684.809,3.2,3.2,0,0,0,2.039-.609,1.766,1.766,0,0,0,.773-1.406q0-1.477-2.789-2.883l-2.156-1.078q-6.187-3.117-6.187-7.8a6.772,6.772,0,0,1,2.332-5.168,8.468,8.468,0,0,1,5.965-2.145,10.359,10.359,0,0,1,4.676,1.09A10.344,10.344,0,0,1,199.336-21.937Z" transform="translate(67 57)"/>
    <g id="Ellipse_2" data-name="Ellipse 2" class="cls-4" transform="translate(14 44)">
      <circle class="cls-5" cx="9" cy="9" r="9"/>
      <circle class="cls-7" cx="9" cy="9" r="6.5"/>
    </g>
    <line id="Line_14" data-name="Line 14" class="cls-4" x2="43" transform="translate(1.5 11.5)"/>
    <line id="Line_15" data-name="Line 15" class="cls-4" x2="13" transform="translate(29.5 52.5)"/>
    <line id="Line_16" data-name="Line 16" class="cls-4" x2="13" transform="translate(3.5 52.5)"/>
  </g>
</svg>
