<?xml version="1.0" standalone="no"?><!-- Generator: Gravit.io --><svg xmlns="http://www.w3.org/2000/svg" xmlns:xlink="http://www.w3.org/1999/xlink" style="isolation:isolate" viewBox="0 0 320 150" width="320px" height="150px"><defs><clipPath id="_clipPath_FG5Z8wDIJ3HLnONwgBuHqBlUWXgOKurO"><rect width="320" height="150"/></clipPath></defs><g clip-path="url(#_clipPath_FG5Z8wDIJ3HLnONwgBuHqBlUWXgOKurO)"><clipPath id="_clipPath_fEZ1ZjGJ3swXf5XIaW1NNJo3QI9xEp3u"><rect x="0" y="0" width="320" height="150" transform="matrix(1,0,0,1,0,0)" fill="rgb(255,255,255)"/></clipPath><g clip-path="url(#_clipPath_fEZ1ZjGJ3swXf5XIaW1NNJo3QI9xEp3u)"><g><clipPath id="_clipPath_Lg2BSS6ezr1q6WCu8o7yP8xW57hyQVqs"><rect x="20" y="-5" width="320" height="150" transform="matrix(1,0,0,1,0,0)" fill="rgb(255,255,255)"/></clipPath><g clip-path="url(#_clipPath_Lg2BSS6ezr1q6WCu8o7yP8xW57hyQVqs)"><g><g><g><g><g><path d=" M 146 85.9 L 150.62 85.9 L 150.62 88.1 C 151.389 87.2 152.256 86.5 153.218 86.1 C 154.18 85.7 155.239 85.4 156.394 85.4 C 157.549 85.4 158.608 85.7 159.474 86.3 C 160.436 86.9 161.11 87.7 161.687 88.9 C 162.457 87.8 163.323 86.9 164.382 86.3 C 165.441 85.7 166.595 85.4 167.847 85.4 C 169.194 85.4 170.349 85.7 171.311 86.3 C 172.274 86.9 173.044 87.8 173.429 88.8 C 173.91 89.8 174.102 91.5 174.102 93.8 L 174.102 105 L 169.483 105 L 169.483 95.3 C 169.483 93.1 169.194 91.7 168.713 90.9 C 168.232 90.1 167.462 89.7 166.403 89.7 C 165.633 89.7 164.863 89.9 164.286 90.4 C 163.708 90.9 163.227 91.5 162.842 92.3 C 162.457 93.1 162.361 94.5 162.361 96.3 L 162.361 104.9 L 157.838 104.9 L 157.838 95.6 C 157.838 93.9 157.741 92.6 157.453 91.9 C 157.164 91.2 156.875 90.6 156.394 90.2 C 155.913 89.8 155.335 89.6 154.662 89.6 C 153.892 89.6 153.218 89.8 152.544 90.3 C 151.871 90.8 151.486 91.4 151.101 92.3 C 150.716 93.2 150.62 94.5 150.62 96.3 L 150.62 104.8 L 146 104.8 L 146 85.9 L 146 85.9 Z " fill="rgb(244,84,127)"/><path d=" M 200.087 85.9 L 204.033 85.9 L 204.033 88.3 C 204.418 87.4 204.995 86.6 205.765 86.1 C 206.535 85.6 207.209 85.4 208.075 85.4 C 208.653 85.4 209.326 85.6 210 85.9 L 208.556 90 C 207.979 89.7 207.594 89.6 207.209 89.6 C 206.535 89.6 205.862 90.1 205.38 91 C 204.899 91.9 204.611 93.7 204.611 96.4 L 204.611 97.3 L 204.611 105 L 199.991 105 L 199.991 85.9 L 200.087 85.9 L 200.087 85.9 Z " fill="rgb(244,84,127)"/><path d=" M 249 96.4 L 234.179 96.4 C 234.371 97.8 234.949 98.8 235.911 99.6 C 236.874 100.4 238.029 100.8 239.472 100.8 C 241.205 100.8 242.648 100.2 243.899 98.9 L 247.749 100.8 C 246.786 102.2 245.632 103.3 244.284 104 C 242.937 104.7 241.301 105 239.472 105 C 236.585 105 234.275 104.1 232.447 102.2 C 230.618 100.3 229.752 97.9 229.752 95.1 C 229.752 92.2 230.618 89.8 232.447 87.8 C 234.275 85.8 236.489 84.9 239.28 84.9 C 242.167 84.9 244.573 85.9 246.305 87.8 C 248.038 89.7 249 92.3 249 95.4 L 249 96.4 L 249 96.4 Z  M 244.38 92.6 C 244.092 91.5 243.514 90.7 242.552 90 C 241.686 89.3 240.627 89 239.472 89 C 238.221 89 237.066 89.4 236.104 90.1 C 235.526 90.6 234.949 91.4 234.371 92.6 L 244.38 92.6 L 244.38 92.6 Z " fill="rgb(244,84,127)"/><path d=" M 252.31 78.9 L 256.929 78.9 L 256.929 85.9 L 259.624 85.9 L 259.624 90 L 256.929 90 L 256.929 101.744 L 256.929 105 L 252.31 105 L 252.31 90 L 250 90 L 250 85.9 L 252.406 85.9 L 252.406 78.9 L 252.31 78.9 L 252.31 78.9 Z " fill="rgb(244,84,127)"/></g></g></g><g><path d=" M 146.51 43.746 L 151.247 43.746 L 151.247 64.91 L 158.15 64.91 L 158.15 69.604 L 146.51 69.604 L 146.51 43.746 L 146.51 43.746 Z " fill="rgb(244,84,127)"/><path d=" M 163.047 42.604 C 163.834 42.594 164.59 42.925 165.131 43.518 C 165.699 44.102 166.012 44.902 165.997 45.732 C 166.011 46.554 165.7 47.345 165.137 47.921 C 164.602 48.506 163.856 48.832 163.079 48.821 C 162.285 48.834 161.523 48.499 160.978 47.898 C 160.409 47.304 160.096 46.495 160.112 45.657 C 160.111 44.847 160.42 44.07 160.97 43.497 C 161.521 42.923 162.268 42.6 163.047 42.599 L 163.047 42.604 L 163.047 42.604 Z  M 160.737 50.479 L 165.357 50.479 L 165.357 69.604 L 160.737 69.604 L 160.737 50.479 L 160.737 50.479 Z " fill="rgb(244,84,127)"/><path d=" M 169.551 50.479 L 174.171 50.479 L 174.171 52.439 C 175.02 51.653 175.98 51.008 177.018 50.525 C 177.846 50.171 178.733 49.988 179.628 49.986 C 181.374 49.953 183.056 50.672 184.273 51.973 C 185.43 53.347 186.007 55.145 185.877 56.965 L 185.877 69.604 L 181.31 69.604 L 181.31 61.229 C 181.37 59.707 181.27 58.182 181.014 56.681 C 180.864 56.008 180.501 55.405 179.985 54.969 C 179.461 54.566 178.822 54.359 178.17 54.381 C 177.276 54.365 176.412 54.715 175.764 55.355 C 175.051 56.09 174.566 57.031 174.373 58.055 C 174.194 59.34 174.125 60.638 174.17 61.935 L 174.17 69.608 L 169.55 69.608 L 169.551 50.479 L 169.551 50.479 Z " fill="rgb(244,84,127)"/><path d=" M 207.494 54.346 L 203.649 56.546 C 203.051 55.854 202.321 55.298 201.506 54.911 C 200.716 54.591 199.873 54.436 199.025 54.454 C 197.477 54.384 195.967 54.962 194.834 56.06 C 193.764 57.135 193.183 58.631 193.233 60.176 C 193.181 61.671 193.741 63.118 194.773 64.16 C 195.869 65.218 197.327 65.774 198.821 65.704 C 200.674 65.803 202.464 64.987 203.648 63.504 L 207.29 66.095 C 205.316 68.451 202.515 69.885 199.514 70.075 C 196.513 70.266 193.564 69.197 191.328 67.108 C 189.196 64.874 188.206 61.721 188.664 58.609 C 189.121 55.497 190.969 52.794 193.646 51.322 C 195.296 50.418 197.137 49.959 199.001 49.986 C 200.705 49.958 202.391 50.346 203.923 51.12 C 205.361 51.859 206.59 52.97 207.494 54.346 L 207.494 54.346 L 207.494 54.346 Z " fill="rgb(244,84,127)"/><path d=" M 218.567 49.986 C 220.286 49.982 221.976 50.449 223.465 51.34 C 224.957 52.205 226.194 53.475 227.043 55.014 C 227.894 56.535 228.338 58.265 228.329 60.024 C 228.336 61.801 227.889 63.548 227.035 65.086 C 226.203 66.624 224.984 67.897 223.507 68.769 C 222.009 69.656 220.31 70.114 218.585 70.096 C 216.039 70.137 213.591 69.076 211.826 67.169 C 209.97 65.208 208.961 62.548 209.03 59.799 C 209.098 57.049 210.239 54.447 212.19 52.588 C 213.917 50.904 216.2 49.973 218.567 49.986 Z  M 218.643 54.504 C 217.29 54.469 215.986 55.035 215.059 56.06 C 214.09 57.136 213.575 58.569 213.627 60.041 C 213.565 61.531 214.074 62.985 215.043 64.084 C 215.97 65.109 217.275 65.672 218.627 65.631 C 219.99 65.668 221.303 65.098 222.236 64.066 C 224.147 61.764 224.159 58.358 222.262 56.042 C 221.322 55.018 220.005 54.459 218.643 54.504 Z " fill="rgb(244,84,127)"/><path d=" M 231.594 43.096 L 236.213 43.096 L 236.213 69.604 L 231.594 69.604 L 231.594 43.096 L 231.594 43.096 Z " fill="rgb(244,84,127)"/><path d=" M 240.407 50.479 L 245.027 50.479 L 245.027 52.439 C 245.876 51.653 246.835 51.008 247.873 50.525 C 248.701 50.171 249.589 49.988 250.484 49.986 C 252.23 49.953 253.912 50.672 255.129 51.973 C 256.286 53.347 256.864 55.145 256.734 56.965 L 256.734 69.604 L 252.165 69.604 L 252.165 61.229 C 252.225 59.707 252.126 58.182 251.871 56.681 C 251.719 56.008 251.357 55.406 250.84 54.969 C 250.316 54.566 249.677 54.359 249.026 54.381 C 248.132 54.365 247.267 54.715 246.62 55.355 C 245.907 56.09 245.421 57.031 245.227 58.055 C 245.049 59.34 244.982 60.638 245.025 61.935 L 245.025 69.608 L 240.405 69.608 L 240.407 50.479 L 240.407 50.479 Z " fill="rgb(244,84,127)"/></g><path d=" M 191.158 85.4 L 195.778 85.4 L 195.778 104.5 L 191.158 104.5 L 191.158 102.5 C 190.292 103.4 189.33 104 188.464 104.4 C 187.597 104.8 186.539 105 185.48 105 C 183.074 105 181.053 104 179.321 102.1 C 177.588 100.2 176.722 97.8 176.722 95 C 176.722 92 177.588 89.6 179.224 87.7 C 180.861 85.8 182.978 84.9 185.384 84.9 C 186.442 84.9 187.501 85.1 188.464 85.6 C 189.426 86.1 190.292 86.7 191.158 87.6 L 191.158 85.4 L 191.158 85.4 Z  M 186.346 89.4 C 184.903 89.4 183.748 89.9 182.785 91 C 181.823 92 181.342 93.4 181.342 95 C 181.342 96.7 181.823 98 182.785 99.1 C 183.748 100.2 184.903 100.7 186.346 100.7 C 187.79 100.7 189.041 100.2 189.907 99.1 C 190.87 98.1 191.351 96.7 191.351 95 C 191.351 93.3 190.87 92 189.907 91 C 188.945 89.9 187.79 89.4 186.346 89.4 Z " fill="rgb(244,84,127)"/><path d=" M 211.811 78.4 L 216.43 78.4 L 216.43 93.7 L 223.263 85.8 L 229.038 85.8 L 221.146 95 L 230 105 L 224.226 105 L 216.43 96.2 L 216.43 105 L 211.811 105 L 211.811 78.4 L 211.811 78.4 Z " fill="rgb(244,84,127)"/></g></g></g><path d=" M 60 48.868 L 124.462 48.731 L 108.294 77.837 L 76.053 77.916 L 60 48.868 L 60 48.868 Z  M 65.552 48.875 L 78.833 72.909 L 105.504 72.847 L 118.906 48.727 L 65.552 48.875 L 65.552 48.875 Z " fill="rgb(244,84,127)"/><g><rect x="89.711" y="23.847" width="5" height="54.825" transform="matrix(0.006,1,-1,0.001,142.918,-41.002)" fill="rgb(244,84,127)"/></g><path d=" M 67.371 91.343 C 67.371 86.361 71.258 82.322 76.053 82.322 C 80.848 82.322 84.735 86.361 84.735 91.343 C 84.735 96.325 80.848 100.364 76.053 100.364 C 71.26 100.358 67.376 96.323 67.371 91.343 L 67.371 91.343 L 67.371 91.343 Z  M 79.923 91.343 C 79.923 89.716 78.98 88.25 77.534 87.628 C 76.088 87.005 74.423 87.349 73.317 88.499 C 72.21 89.649 71.879 91.379 72.478 92.882 C 73.077 94.384 74.488 95.364 76.053 95.364 C 78.189 95.361 79.92 93.562 79.923 91.343 L 79.923 91.343 L 79.923 91.343 Z " fill="rgb(244,84,127)"/><path d=" M 99.612 91.343 C 99.612 86.361 103.499 82.322 108.294 82.322 C 113.088 82.322 116.975 86.361 116.975 91.343 C 116.975 96.325 113.088 100.364 108.294 100.364 C 103.501 100.358 99.617 96.323 99.612 91.343 L 99.612 91.343 L 99.612 91.343 Z  M 112.163 91.343 C 112.163 89.716 111.221 88.25 109.774 87.628 C 108.328 87.005 106.664 87.349 105.557 88.499 C 104.45 89.649 104.119 91.379 104.718 92.882 C 105.317 94.384 106.728 95.364 108.294 95.364 C 110.43 95.361 112.161 93.562 112.163 91.343 L 112.163 91.343 L 112.163 91.343 Z " fill="rgb(244,84,127)"/><g><rect x="89.7" y="53.291" width="5" height="20.009" transform="matrix(0.002,1,-1,0.002,155.311,-29.031)" fill="rgb(244,84,127)"/></g></g></g></g></svg>