<?xml version="1.0" standalone="no"?><!-- Generator: Gravit.io --><svg xmlns="http://www.w3.org/2000/svg" xmlns:xlink="http://www.w3.org/1999/xlink" style="isolation:isolate" viewBox="0 0 320 150" width="320px" height="150px"><defs><clipPath id="_clipPath_fXm1bJkYH2R9S58FKWhxeUxLP2azLAuT"><rect width="320" height="150"/></clipPath></defs><g clip-path="url(#_clipPath_fXm1bJkYH2R9S58FKWhxeUxLP2azLAuT)"><clipPath id="_clipPath_yRjlkBpslxZSsUb4ltBu5ezlYSm9MBsD"><rect x="0" y="0" width="320" height="150" transform="matrix(1,0,0,1,0,0)" fill="rgb(255,255,255)"/></clipPath><g clip-path="url(#_clipPath_yRjlkBpslxZSsUb4ltBu5ezlYSm9MBsD)"><g><g><g><g><path d=" M 126.898 90.9 L 131.517 90.9 L 131.517 93.1 C 132.287 92.2 133.153 91.5 134.116 91.1 C 135.078 90.7 136.137 90.4 137.292 90.4 C 138.447 90.4 139.505 90.7 140.371 91.3 C 141.334 91.9 142.008 92.7 142.585 93.9 C 143.355 92.8 144.221 91.9 145.28 91.3 C 146.338 90.7 147.493 90.4 148.744 90.4 C 150.092 90.4 151.247 90.7 152.209 91.3 C 153.171 91.9 153.941 92.8 154.326 93.8 C 154.808 94.8 155 96.5 155 98.8 L 155 110 L 150.38 110 L 150.38 100.3 C 150.38 98.1 150.092 96.7 149.611 95.9 C 149.129 95.1 148.359 94.7 147.301 94.7 C 146.531 94.7 145.761 94.9 145.183 95.4 C 144.606 95.9 144.125 96.5 143.74 97.3 C 143.355 98.1 143.259 99.5 143.259 101.3 L 143.259 109.9 L 138.735 109.9 L 138.735 100.6 C 138.735 98.9 138.639 97.6 138.35 96.9 C 138.062 96.2 137.773 95.6 137.292 95.2 C 136.811 94.8 136.233 94.6 135.559 94.6 C 134.789 94.6 134.116 94.8 133.442 95.3 C 132.768 95.8 132.383 96.4 131.998 97.3 C 131.614 98.2 131.517 99.5 131.517 101.3 L 131.517 109.8 L 126.898 109.8 L 126.898 90.9 Z " fill="rgb(244,84,127)"/><path d=" M 180.087 90.9 L 184.033 90.9 L 184.033 93.3 C 184.418 92.4 184.995 91.6 185.765 91.1 C 186.535 90.6 187.209 90.4 188.075 90.4 C 188.653 90.4 189.326 90.6 190 90.9 L 188.556 95 C 187.979 94.7 187.594 94.6 187.209 94.6 C 186.535 94.6 185.862 95.1 185.38 96 C 184.899 96.9 184.611 98.7 184.611 101.4 L 184.611 102.3 L 184.611 110 L 179.991 110 L 179.991 90.9 L 180.087 90.9 Z " fill="rgb(244,84,127)"/><path d=" M 229 101.4 L 214.179 101.4 C 214.371 102.8 214.949 103.8 215.911 104.6 C 216.874 105.4 218.029 105.8 219.472 105.8 C 221.205 105.8 222.648 105.2 223.899 103.9 L 227.749 105.8 C 226.786 107.2 225.632 108.3 224.284 109 C 222.937 109.7 221.301 110 219.472 110 C 216.585 110 214.275 109.1 212.447 107.2 C 210.618 105.3 209.752 102.9 209.752 100.1 C 209.752 97.2 210.618 94.8 212.447 92.8 C 214.275 90.8 216.489 89.9 219.28 89.9 C 222.167 89.9 224.573 90.9 226.305 92.8 C 228.038 94.7 229 97.3 229 100.4 L 229 101.4 Z  M 224.38 97.6 C 224.092 96.5 223.514 95.7 222.552 95 C 221.686 94.3 220.627 94 219.472 94 C 218.221 94 217.066 94.4 216.104 95.1 C 215.526 95.6 214.949 96.4 214.371 97.6 L 224.38 97.6 Z " fill="rgb(244,84,127)"/><path d=" M 232.31 83.9 L 236.929 83.9 L 236.929 90.9 L 239.624 90.9 L 239.624 95 L 236.929 95 L 236.929 106.744 L 236.929 110 L 232.31 110 L 232.31 95 L 230 95 L 230 90.9 L 232.406 90.9 L 232.406 83.9 L 232.31 83.9 Z " fill="rgb(244,84,127)"/></g></g></g><g><path d=" M 126.51 48.746 L 131.247 48.746 L 131.247 69.91 L 138.15 69.91 L 138.15 74.604 L 126.51 74.604 L 126.51 48.746 Z " fill="rgb(244,84,127)"/><path d=" M 143.047 47.604 C 143.834 47.594 144.59 47.925 145.131 48.518 C 145.699 49.102 146.012 49.902 145.997 50.732 C 146.011 51.554 145.7 52.345 145.137 52.921 C 144.602 53.506 143.856 53.832 143.079 53.821 C 142.285 53.834 141.523 53.499 140.978 52.898 C 140.409 52.304 140.096 51.495 140.112 50.657 C 140.111 49.847 140.42 49.07 140.97 48.497 C 141.521 47.923 142.268 47.6 143.047 47.599 L 143.047 47.604 Z  M 140.737 55.479 L 145.357 55.479 L 145.357 74.604 L 140.737 74.604 L 140.737 55.479 Z " fill="rgb(244,84,127)"/><path d=" M 149.551 55.479 L 154.171 55.479 L 154.171 57.439 C 155.02 56.653 155.98 56.008 157.018 55.525 C 157.846 55.171 158.733 54.988 159.628 54.986 C 161.374 54.953 163.056 55.672 164.273 56.973 C 165.43 58.347 166.007 60.145 165.877 61.965 L 165.877 74.604 L 161.31 74.604 L 161.31 66.229 C 161.37 64.707 161.27 63.182 161.014 61.681 C 160.864 61.008 160.501 60.405 159.985 59.969 C 159.461 59.566 158.822 59.359 158.17 59.381 C 157.276 59.365 156.412 59.715 155.764 60.355 C 155.051 61.09 154.566 62.031 154.373 63.055 C 154.194 64.34 154.125 65.638 154.17 66.935 L 154.17 74.608 L 149.55 74.608 L 149.551 55.479 Z " fill="rgb(244,84,127)"/><path d=" M 187.494 59.346 L 183.649 61.546 C 183.051 60.854 182.321 60.298 181.506 59.911 C 180.716 59.591 179.873 59.436 179.025 59.454 C 177.477 59.384 175.967 59.962 174.834 61.06 C 173.764 62.135 173.183 63.631 173.233 65.176 C 173.181 66.671 173.741 68.118 174.773 69.16 C 175.869 70.218 177.327 70.774 178.821 70.704 C 180.674 70.803 182.464 69.987 183.648 68.504 L 187.29 71.095 C 185.316 73.451 182.515 74.885 179.514 75.075 C 176.513 75.266 173.564 74.197 171.328 72.108 C 169.196 69.874 168.206 66.721 168.664 63.609 C 169.121 60.497 170.969 57.794 173.646 56.322 C 175.296 55.418 177.137 54.959 179.001 54.986 C 180.705 54.958 182.391 55.346 183.923 56.12 C 185.361 56.859 186.59 57.97 187.494 59.346 L 187.494 59.346 Z " fill="rgb(244,84,127)"/><path d=" M 198.567 54.986 C 200.286 54.982 201.976 55.449 203.465 56.34 C 204.957 57.205 206.194 58.475 207.043 60.014 C 207.894 61.535 208.338 63.265 208.329 65.024 C 208.336 66.801 207.889 68.548 207.035 70.086 C 206.203 71.624 204.984 72.897 203.507 73.769 C 202.009 74.656 200.31 75.114 198.585 75.096 C 196.039 75.137 193.591 74.076 191.826 72.169 C 189.97 70.208 188.961 67.548 189.03 64.799 C 189.098 62.049 190.239 59.447 192.19 57.588 C 193.917 55.904 196.2 54.973 198.567 54.986 Z  M 198.643 59.504 C 197.29 59.469 195.986 60.035 195.059 61.06 C 194.09 62.136 193.575 63.569 193.627 65.041 C 193.565 66.531 194.074 67.985 195.043 69.084 C 195.97 70.109 197.275 70.672 198.627 70.631 C 199.99 70.668 201.303 70.098 202.236 69.066 C 204.147 66.764 204.159 63.358 202.262 61.042 C 201.322 60.018 200.005 59.459 198.643 59.504 Z " fill="rgb(244,84,127)"/><path d=" M 211.594 48.096 L 216.213 48.096 L 216.213 74.604 L 211.594 74.604 L 211.594 48.096 Z " fill="rgb(244,84,127)"/><path d=" M 220.407 55.479 L 225.027 55.479 L 225.027 57.439 C 225.876 56.653 226.835 56.008 227.873 55.525 C 228.701 55.171 229.589 54.988 230.484 54.986 C 232.23 54.953 233.912 55.672 235.129 56.973 C 236.286 58.347 236.864 60.145 236.734 61.965 L 236.734 74.604 L 232.165 74.604 L 232.165 66.229 C 232.225 64.707 232.126 63.182 231.871 61.681 C 231.719 61.008 231.357 60.406 230.84 59.969 C 230.316 59.566 229.677 59.359 229.026 59.381 C 228.132 59.365 227.267 59.715 226.62 60.355 C 225.907 61.09 225.421 62.031 225.227 63.055 C 225.049 64.34 224.982 65.638 225.025 66.935 L 225.025 74.608 L 220.405 74.608 L 220.407 55.479 Z " fill="rgb(244,84,127)"/></g><path d=" M 171.158 90.4 L 175.778 90.4 L 175.778 109.5 L 171.158 109.5 L 171.158 107.5 C 170.292 108.4 169.33 109 168.464 109.4 C 167.597 109.8 166.539 110 165.48 110 C 163.074 110 161.053 109 159.321 107.1 C 157.588 105.2 156.722 102.8 156.722 100 C 156.722 97 157.588 94.6 159.224 92.7 C 160.861 90.8 162.978 89.9 165.384 89.9 C 166.442 89.9 167.501 90.1 168.464 90.6 C 169.426 91.1 170.292 91.7 171.158 92.6 L 171.158 90.4 Z  M 166.346 94.4 C 164.903 94.4 163.748 94.9 162.785 96 C 161.823 97 161.342 98.4 161.342 100 C 161.342 101.7 161.823 103 162.785 104.1 C 163.748 105.2 164.903 105.7 166.346 105.7 C 167.79 105.7 169.041 105.2 169.907 104.1 C 170.87 103.1 171.351 101.7 171.351 100 C 171.351 98.3 170.87 97 169.907 96 C 168.945 94.9 167.79 94.4 166.346 94.4 Z " fill="rgb(244,84,127)"/><path d=" M 191.811 83.4 L 196.43 83.4 L 196.43 98.7 L 203.263 90.8 L 209.038 90.8 L 201.146 100 L 210 110 L 204.226 110 L 196.43 101.2 L 196.43 110 L 191.811 110 L 191.811 83.4 Z " fill="rgb(244,84,127)"/></g></g><path d=" M 42.365 55.505 L 106.827 55.368 L 90.659 84.473 L 58.418 84.553 L 42.365 55.505 Z  M 47.917 55.512 L 61.198 79.546 L 87.869 79.484 L 101.271 55.363 L 47.917 55.512 Z " fill="rgb(244,84,127)"/><g><rect x="72.086" y="30.475" width="5" height="54.826" transform="matrix(0.006,1,-1,0.001,132.018,-16.748)" fill="rgb(244,84,127)"/></g><path d=" M 49.736 97.979 C 49.736 92.997 53.623 88.958 58.418 88.958 C 63.213 88.958 67.1 92.997 67.1 97.979 C 67.1 102.961 63.213 107 58.418 107 C 53.625 106.994 49.742 102.959 49.736 97.979 L 49.736 97.979 Z  M 62.288 97.979 C 62.288 96.353 61.345 94.886 59.899 94.264 C 58.453 93.642 56.788 93.986 55.682 95.136 C 54.575 96.286 54.244 98.015 54.843 99.518 C 55.442 101.02 56.853 102 58.418 102 C 60.554 101.997 62.285 100.199 62.288 97.979 L 62.288 97.979 Z " fill="rgb(244,84,127)"/><path d=" M 81.977 97.979 C 81.977 92.997 85.864 88.958 90.659 88.958 C 95.454 88.958 99.341 92.997 99.341 97.979 C 99.341 102.961 95.454 107 90.659 107 C 85.866 106.994 81.982 102.959 81.977 97.979 L 81.977 97.979 Z  M 94.528 97.979 C 94.528 96.353 93.586 94.886 92.14 94.264 C 90.694 93.642 89.029 93.986 87.922 95.136 C 86.816 96.286 86.484 98.015 87.083 99.518 C 87.682 101.02 89.093 102 90.659 102 C 92.795 101.997 94.526 100.199 94.528 97.979 L 94.528 97.979 Z " fill="rgb(244,84,127)"/><g><rect x="72.086" y="59.953" width="5" height="20.009" transform="matrix(0.002,1,-1,0.002,144.378,-4.797)" fill="rgb(244,84,127)"/></g></g></svg>