<?xml version="1.0" standalone="no"?><!-- Generator: Gravit.io --><svg xmlns="http://www.w3.org/2000/svg" xmlns:xlink="http://www.w3.org/1999/xlink" style="isolation:isolate" viewBox="0 0 332.5 150" width="332.5px" height="150px"><defs><clipPath id="_clipPath_B4c6RM5lQi4ZFIIdSofMqNLmoCxTiXDQ"><rect width="332.5" height="150"/></clipPath></defs><g clip-path="url(#_clipPath_B4c6RM5lQi4ZFIIdSofMqNLmoCxTiXDQ)"><g><g><g><path d=" M 131.8 88.25 L 136.6 88.25 L 136.6 90.45 C 137.4 89.55 138.3 88.85 139.3 88.45 C 140.3 88.05 141.4 87.75 142.6 87.75 C 143.8 87.75 144.9 88.05 145.8 88.65 C 146.8 89.25 147.5 90.05 148.1 91.25 C 148.9 90.15 149.8 89.25 150.9 88.65 C 152 88.05 153.2 87.75 154.5 87.75 C 155.9 87.75 157.1 88.05 158.1 88.65 C 159.1 89.25 159.9 90.15 160.3 91.15 C 160.8 92.15 161 93.85 161 96.15 L 161 107.35 L 156.2 107.35 L 156.2 97.65 C 156.2 95.45 155.9 94.05 155.4 93.25 C 154.9 92.45 154.1 92.05 153 92.05 C 152.2 92.05 151.4 92.25 150.8 92.75 C 150.2 93.25 149.7 93.85 149.3 94.65 C 148.9 95.45 148.8 96.85 148.8 98.65 L 148.8 107.25 L 144.1 107.25 L 144.1 97.95 C 144.1 96.25 144 94.95 143.7 94.25 C 143.4 93.55 143.1 92.95 142.6 92.55 C 142.1 92.15 141.5 91.95 140.8 91.95 C 140 91.95 139.3 92.15 138.6 92.65 C 137.9 93.15 137.5 93.75 137.1 94.65 C 136.7 95.55 136.6 96.85 136.6 98.65 L 136.6 107.15 L 131.8 107.15 L 131.8 88.25 Z " fill="rgb(244,84,127)"/><path d=" M 187.1 88.5 L 191.2 88.5 L 191.2 90.9 C 191.6 90 192.2 89.2 193 88.7 C 193.8 88.2 194.5 88 195.4 88 C 196 88 196.7 88.2 197.4 88.5 L 195.9 92.6 C 195.3 92.3 194.9 92.2 194.5 92.2 C 193.8 92.2 193.1 92.7 192.6 93.6 C 192.1 94.5 191.8 96.3 191.8 99 L 191.8 99.9 L 191.8 107.6 L 187 107.6 L 187 88.5 L 187.1 88.5 Z " fill="rgb(244,84,127)"/><path d=" M 237 99 L 221.6 99 C 221.8 100.4 222.4 101.4 223.4 102.2 C 224.4 103 225.6 103.4 227.1 103.4 C 228.9 103.4 230.4 102.8 231.7 101.5 L 235.7 103.4 C 234.7 104.8 233.5 105.9 232.1 106.6 C 230.7 107.3 229 107.6 227.1 107.6 C 224.1 107.6 221.7 106.7 219.8 104.8 C 217.9 102.9 217 100.5 217 97.7 C 217 94.8 217.9 92.4 219.8 90.4 C 221.7 88.4 224 87.5 226.9 87.5 C 229.9 87.5 232.4 88.5 234.2 90.4 C 236 92.3 237 94.9 237 98 L 237 99 Z  M 232.2 95.2 C 231.9 94.1 231.3 93.3 230.3 92.6 C 229.4 91.9 228.3 91.6 227.1 91.6 C 225.8 91.6 224.6 92 223.6 92.7 C 223 93.2 222.4 94 221.8 95.2 L 232.2 95.2 Z " fill="rgb(244,84,127)"/><path d=" M 241.4 81.5 L 246.2 81.5 L 246.2 88.5 L 249 88.5 L 249 92.6 L 246.2 92.6 L 246.2 107.6 L 241.4 107.6 L 241.4 92.6 L 239 92.6 L 239 88.5 L 241.5 88.5 L 241.5 81.5 L 241.4 81.5 Z " fill="rgb(244,84,127)"/></g><g><g><path d=" M 47 112 C 42 112 38 108 38 103 C 38 98 42 94 47 94 C 52 94 56 98 56 103 C 56 108 52 112 47 112 Z  M 47 98.9 C 44.8 98.9 43 100.7 43 102.9 C 43 105.1 44.8 106.9 47 106.9 C 49.2 106.9 51 105.1 51 102.9 C 51 100.7 49.2 98.9 47 98.9 Z " fill="rgb(244,84,127)"/><path d=" M 79 112 C 74 112 70 108 70 103 C 70 98 74 94 79 94 C 84 94 88 98 88 103 C 88 108 84 112 79 112 Z  M 79 98.9 C 76.8 98.9 75 100.7 75 102.9 C 75 105.1 76.8 106.9 79 106.9 C 81.2 106.9 83 105.1 83 102.9 C 83 100.7 81.2 98.9 79 98.9 Z " fill="rgb(244,84,127)"/></g><g><path d=" M 96.9 92 L 28.8 92 L 28.8 62 L 91.9 62 L 91.9 67 L 33.8 67 L 33.8 87 L 91.9 87 L 91.9 62 L 96.9 62 L 96.9 92 Z " fill="rgb(244,84,127)"/></g><g><rect x="91.589" y="54.3" width="21.023" height="5" transform="matrix(0.707,-0.707,0.707,0.707,-10.259,88.832)" fill="rgb(244,84,127)"/><rect x="65" y="81" width="24" height="4.968" transform="matrix(1,0,0,1,0.011,0)" fill="rgb(244,84,127)"/><rect x="37" y="81" width="24" height="4.968" transform="matrix(1,0,0,1,0.011,0)" fill="rgb(244,84,127)"/></g></g></g></g><g><path d=" M 131.452 48.746 L 136.374 48.746 L 136.374 69.91 L 143.546 69.91 L 143.546 74.604 L 131.452 74.604 L 131.452 48.746 Z " fill="rgb(244,84,127)"/><path d=" M 148.635 47.604 C 149.453 47.594 150.238 47.925 150.8 48.518 C 151.39 49.102 151.716 49.902 151.7 50.732 C 151.715 51.554 151.391 52.345 150.806 52.921 C 150.25 53.506 149.475 53.832 148.668 53.821 C 147.843 53.834 147.051 53.499 146.485 52.898 C 145.894 52.304 145.569 51.495 145.585 50.657 C 145.584 49.847 145.905 49.07 146.477 48.497 C 147.049 47.923 147.825 47.6 148.635 47.599 L 148.635 47.604 Z  M 146.235 55.479 L 151.035 55.479 L 151.035 74.604 L 146.235 74.604 L 146.235 55.479 Z " fill="rgb(244,84,127)"/><path d=" M 155.393 55.479 L 160.193 55.479 L 160.193 57.439 C 161.075 56.653 162.073 56.008 163.151 55.525 C 164.012 55.171 164.933 54.988 165.863 54.986 C 167.678 54.953 169.425 55.672 170.69 56.973 C 171.892 58.347 172.492 60.145 172.357 61.965 L 172.357 74.604 L 167.611 74.604 L 167.611 66.229 C 167.673 64.707 167.57 63.182 167.304 61.681 C 167.148 61.008 166.771 60.405 166.234 59.969 C 165.69 59.566 165.026 59.359 164.349 59.381 C 163.42 59.365 162.522 59.715 161.849 60.355 C 161.108 61.09 160.604 62.031 160.403 63.055 C 160.217 64.34 160.146 65.638 160.192 66.935 L 160.192 74.608 L 155.392 74.608 L 155.393 55.479 Z " fill="rgb(244,84,127)"/><path d=" M 194.818 59.346 L 190.823 61.546 C 190.201 60.854 189.443 60.298 188.596 59.911 C 187.775 59.591 186.899 59.436 186.018 59.454 C 184.41 59.384 182.841 59.962 181.663 61.06 C 180.552 62.135 179.948 63.631 180 65.176 C 179.946 66.671 180.528 68.118 181.6 69.16 C 182.739 70.218 184.254 70.774 185.806 70.704 C 187.732 70.803 189.591 69.987 190.822 68.504 L 194.606 71.095 C 192.555 73.451 189.644 74.885 186.526 75.075 C 183.408 75.266 180.344 74.197 178.021 72.108 C 175.805 69.874 174.777 66.721 175.252 63.609 C 175.727 60.497 177.647 57.794 180.429 56.322 C 182.143 55.418 184.056 54.959 185.993 54.986 C 187.764 54.958 189.516 55.346 191.108 56.12 C 192.602 56.859 193.879 57.97 194.818 59.346 L 194.818 59.346 Z " fill="rgb(244,84,127)"/><path d=" M 206.324 54.986 C 208.11 54.982 209.866 55.449 211.413 56.34 C 212.963 57.205 214.248 58.475 215.131 60.014 C 216.015 61.535 216.476 63.265 216.467 65.024 C 216.474 66.801 216.01 68.548 215.122 70.086 C 214.258 71.624 212.991 72.897 211.457 73.769 C 209.9 74.656 208.135 75.114 206.342 75.096 C 203.697 75.137 201.153 74.076 199.319 72.169 C 197.391 70.208 196.342 67.548 196.414 64.799 C 196.485 62.049 197.67 59.447 199.697 57.588 C 201.492 55.904 203.864 54.973 206.324 54.986 Z  M 206.403 59.504 C 204.997 59.469 203.642 60.035 202.679 61.06 C 201.672 62.136 201.137 63.569 201.191 65.041 C 201.126 66.531 201.655 67.985 202.662 69.084 C 203.625 70.109 204.981 70.672 206.386 70.631 C 207.802 70.668 209.166 70.098 210.136 69.066 C 212.122 66.764 212.134 63.358 210.163 61.042 C 209.186 60.018 207.818 59.459 206.403 59.504 Z " fill="rgb(244,84,127)"/><path d=" M 219.859 48.096 L 224.659 48.096 L 224.659 74.604 L 219.859 74.604 L 219.859 48.096 Z " fill="rgb(244,84,127)"/><path d=" M 229.017 55.479 L 233.817 55.479 L 233.817 57.439 C 234.699 56.653 235.696 56.008 236.774 55.525 C 237.635 55.171 238.557 54.988 239.487 54.986 C 241.302 54.953 243.049 55.672 244.314 56.973 C 245.516 58.347 246.116 60.145 245.981 61.965 L 245.981 74.604 L 241.234 74.604 L 241.234 66.229 C 241.296 64.707 241.193 63.182 240.928 61.681 C 240.771 61.008 240.394 60.406 239.857 59.969 C 239.313 59.566 238.649 59.359 237.972 59.381 C 237.043 59.365 236.145 59.715 235.472 60.355 C 234.731 61.09 234.226 62.031 234.025 63.055 C 233.84 64.34 233.77 65.638 233.815 66.935 L 233.815 74.608 L 229.015 74.608 L 229.017 55.479 Z " fill="rgb(244,84,127)"/></g><path d=" M 178.2 88.5 L 183 88.5 L 183 107.6 L 178.2 107.6 L 178.2 105.6 C 177.3 106.5 176.3 107.1 175.4 107.5 C 174.5 107.9 173.4 108.1 172.3 108.1 C 169.8 108.1 167.7 107.1 165.9 105.2 C 164.1 103.3 163.2 100.9 163.2 98.1 C 163.2 95.1 164.1 92.7 165.8 90.8 C 167.5 88.9 169.7 88 172.2 88 C 173.3 88 174.4 88.2 175.4 88.7 C 176.4 89.2 177.3 89.8 178.2 90.7 L 178.2 88.5 Z  M 173.2 92.5 C 171.7 92.5 170.5 93 169.5 94.1 C 168.5 95.1 168 96.5 168 98.1 C 168 99.8 168.5 101.1 169.5 102.2 C 170.5 103.3 171.7 103.8 173.2 103.8 C 174.7 103.8 176 103.3 176.9 102.2 C 177.9 101.2 178.4 99.8 178.4 98.1 C 178.4 96.4 177.9 95.1 176.9 94.1 C 175.9 93 174.7 92.5 173.2 92.5 Z " fill="rgb(244,84,127)"/><path d=" M 199 81 L 203.8 81 L 203.8 96.3 L 210.9 88.4 L 216.9 88.4 L 208.7 97.6 L 217.9 107.6 L 211.9 107.6 L 203.8 98.8 L 203.8 107.6 L 199 107.6 L 199 81 Z " fill="rgb(244,84,127)"/></g></svg>