<svg xmlns="http://www.w3.org/2000/svg" xmlns:xlink="http://www.w3.org/1999/xlink" viewBox="0 0 320 150">
  <defs>
    <style>
      .cls-1 {
        clip-path: url(#clip-lv2019);
      }

      .cls-2 {
        fill: #f4547f;
      }

      .cls-3 {
        fill: #fff;
      }
    </style>
    <clipPath id="clip-lv2019">
      <rect width="320" height="150"/>
    </clipPath>
  </defs>
  <g id="lv2019" class="cls-1">
    <rect class="cls-3" width="320" height="150"/>
    <g id="Layer_1" data-name="Layer 1" transform="translate(-75 -181)">
      <g id="Group_89" data-name="Group 89">
        <path id="Path_129" data-name="Path 129" class="cls-2" d="M233.668,220.326h4.922V241.49h7.172v4.694H233.668Z"/>
        <path id="Path_130" data-name="Path 130" class="cls-2" d="M250.851,219.184a2.934,2.934,0,0,1,2.165.914,3.036,3.036,0,0,1,.9,2.214,3,3,0,0,1-.894,2.189,2.9,2.9,0,0,1-2.138.9,2.94,2.94,0,0,1-2.183-.923,3.088,3.088,0,0,1-.9-2.241,3.054,3.054,0,0,1,3.05-3.058Zm-2.4,7.875h4.8v19.125h-4.8Z"/>
        <path id="Path_131" data-name="Path 131" class="cls-2" d="M257.609,227.059h4.8v1.96a11.51,11.51,0,0,1,2.958-1.914,7.141,7.141,0,0,1,2.712-.539,6.566,6.566,0,0,1,4.827,1.987,6.819,6.819,0,0,1,1.667,4.992v12.639h-4.746v-8.375a21.171,21.171,0,0,0-.307-4.548,3.115,3.115,0,0,0-1.07-1.712,3,3,0,0,0-1.885-.588,3.537,3.537,0,0,0-2.5.974,5.206,5.206,0,0,0-1.446,2.7,21.636,21.636,0,0,0-.211,3.88v7.673h-4.8Z"/>
        <path id="Path_132" data-name="Path 132" class="cls-2" d="M297.034,230.926l-3.995,2.2a6.779,6.779,0,0,0-2.227-1.635,6.7,6.7,0,0,0-2.578-.457,6,6,0,0,0-4.355,1.606,5.468,5.468,0,0,0-1.663,4.116,5.289,5.289,0,0,0,1.6,3.984,5.8,5.8,0,0,0,4.206,1.544,6.114,6.114,0,0,0,5.016-2.2l3.784,2.591a11.657,11.657,0,0,1-16.585,1.013,9.94,9.94,0,0,1,2.408-15.786,11.579,11.579,0,0,1,5.564-1.336,11.28,11.28,0,0,1,5.115,1.134A9.7,9.7,0,0,1,297.034,230.926Z"/>
        <path id="Path_133" data-name="Path 133" class="cls-2" d="M308.54,226.566a10.141,10.141,0,0,1,5.089,1.354,9.777,9.777,0,0,1,3.718,3.674,9.876,9.876,0,0,1,1.336,5.01,10.048,10.048,0,0,1-1.345,5.062,9.71,9.71,0,0,1-3.665,3.683,10.129,10.129,0,0,1-5.115,1.327,9.542,9.542,0,0,1-7.023-2.927,10.138,10.138,0,0,1,.378-14.581A9.605,9.605,0,0,1,308.54,226.566Zm.079,4.518a4.938,4.938,0,0,0-3.724,1.556,5.524,5.524,0,0,0-1.488,3.981,5.623,5.623,0,0,0,1.471,4.043,4.917,4.917,0,0,0,3.724,1.547,4.971,4.971,0,0,0,3.75-1.565,6.167,6.167,0,0,0,.027-8.024A4.977,4.977,0,0,0,308.619,231.084Z"/>
        <path id="Path_134" data-name="Path 134" class="cls-2" d="M322.075,219.676h4.8v26.508h-4.8Z"/>
        <path id="Path_135" data-name="Path 135" class="cls-2" d="M331.233,227.059h4.8v1.96a11.506,11.506,0,0,1,2.957-1.914,7.149,7.149,0,0,1,2.713-.539,6.567,6.567,0,0,1,4.827,1.987,6.819,6.819,0,0,1,1.667,4.992v12.639H343.45v-8.375a21.261,21.261,0,0,0-.306-4.548,3.122,3.122,0,0,0-1.071-1.712,3,3,0,0,0-1.885-.588,3.537,3.537,0,0,0-2.5.974,5.214,5.214,0,0,0-1.447,2.7,21.769,21.769,0,0,0-.21,3.88v7.673h-4.8Z"/>
        <path id="Path_136" data-name="Path 136" class="cls-2" d="M231.093,263.059h4.889l4.831,11.285,4.822-11.285H250.5l-8.139,19.125h-3.111Z"/>
        <path id="Path_137" data-name="Path 137" class="cls-2" d="M255.175,255.184a2.932,2.932,0,0,1,2.165.914,3.036,3.036,0,0,1,.9,2.214,3,3,0,0,1-.893,2.189,2.9,2.9,0,0,1-2.139.9,2.942,2.942,0,0,1-2.183-.923,3.088,3.088,0,0,1-.9-2.241,3.056,3.056,0,0,1,3.05-3.058Zm-2.4,7.875h4.8v19.125h-4.8Z"/>
        <path id="Path_138" data-name="Path 138" class="cls-2" d="M260.809,263.059h4.113v2.408A5.138,5.138,0,0,1,266.7,263.3a4.278,4.278,0,0,1,2.426-.739,4.479,4.479,0,0,1,1.951.493l-1.494,4.131a3.285,3.285,0,0,0-1.389-.422,2.2,2.2,0,0,0-1.872,1.371q-.764,1.371-.764,5.379l.017.931v7.735h-4.763Z"/>
        <path id="Path_139" data-name="Path 139" class="cls-2" d="M273.43,263.059h4.851v9.211a12.781,12.781,0,0,0,.37,3.735,3.267,3.267,0,0,0,1.19,1.626,3.4,3.4,0,0,0,2.017.58,3.525,3.525,0,0,0,2.036-.571,3.354,3.354,0,0,0,1.242-1.679,12.874,12.874,0,0,0,.3-3.533v-9.369h4.8v8.1q0,5.01-.791,6.856a7.473,7.473,0,0,1-2.847,3.454,8.725,8.725,0,0,1-4.782,1.2,8.48,8.48,0,0,1-5.088-1.406,7.433,7.433,0,0,1-2.734-3.92,23.764,23.764,0,0,1-.562-6.328Z"/>
        <path id="Path_140" data-name="Path 140" class="cls-2" d="M305.858,265.73l-2.97,2.971a5.027,5.027,0,0,0-3.287-1.793,2.066,2.066,0,0,0-1.266.343,1.029,1.029,0,0,0-.457.852,1.048,1.048,0,0,0,.29.712,5.4,5.4,0,0,0,1.433.888l1.757.879a10.365,10.365,0,0,1,3.815,2.8,5.822,5.822,0,0,1-.835,7.594,7.171,7.171,0,0,1-5.019,1.7,7.976,7.976,0,0,1-6.679-3.27l2.953-3.216a6.807,6.807,0,0,0,1.977,1.59,4.372,4.372,0,0,0,2.013.607,2.4,2.4,0,0,0,1.529-.457,1.326,1.326,0,0,0,.58-1.055q0-1.107-2.091-2.162l-1.618-.809q-4.639-2.337-4.64-5.853a5.078,5.078,0,0,1,1.749-3.876,6.352,6.352,0,0,1,4.473-1.609,7.765,7.765,0,0,1,6.293,3.164Z"/>
      </g>
      <g id="Group_90" data-name="Group 90" transform="translate(417.317 86.919) rotate(90)">
        <path id="Path_141" data-name="Path 141" class="cls-2" d="M181.821,285.481l-29.106-16.8-.078-33.5,29.047-16.68,29.106,16.8.079,33.5Zm-24.113-19.695,24.12,13.926,24.034-13.8L205.8,238.2l-24.12-13.926-24.033,13.8Z"/>
      </g>
      <g id="Group_91" data-name="Group 91" transform="translate(-45.523 16.692)">
        <rect id="Rectangle_40" data-name="Rectangle 40" class="cls-2" width="5" height="20.791" transform="translate(197.282 241.644) rotate(-0.133)"/>
      </g>
      <g id="Group_100" data-name="Group 100" transform="translate(-23.523 16.692)">
        <rect id="Rectangle_40-2" data-name="Rectangle 40" class="cls-2" width="5" height="20.791" transform="translate(197.282 241.644) rotate(-0.133)"/>
      </g>
      <g id="Group_95" data-name="Group 95" transform="translate(417.317 86.919) rotate(90)">
        <rect id="Rectangle_44" data-name="Rectangle 44" class="cls-2" width="24.105" height="5" transform="translate(133.048 277.177) rotate(-29.829)"/>
      </g>
      <g id="Group_96" data-name="Group 96" transform="translate(417.317 86.919) rotate(90)">
        <path id="Path_142" data-name="Path 142" class="cls-2" d="M128.55,291.458a9.021,9.021,0,1,1,9.021-9.022A9.032,9.032,0,0,1,128.55,291.458Zm0-13.042a4.021,4.021,0,1,0,4.021,4.02A4.026,4.026,0,0,0,128.55,278.416Z"/>
      </g>
      <g id="Group_97" data-name="Group 97" transform="translate(417.317 86.919) rotate(90)">
        <path id="Path_143" data-name="Path 143" class="cls-2" d="M128.55,230.82a9.021,9.021,0,1,1,9.021-9.021A9.031,9.031,0,0,1,128.55,230.82Zm0-13.042a4.021,4.021,0,1,0,4.021,4.021A4.026,4.026,0,0,0,128.55,217.778Z"/>
      </g>
    </g>
  </g>
</svg>
