<svg xmlns="http://www.w3.org/2000/svg" xmlns:xlink="http://www.w3.org/1999/xlink" viewBox="0 0 408 76">
  <defs>
    <style>
      .cls-1 {
        clip-path: url(#clip-programming);
      }

      .cls-2, .cls-6 {
        fill: #601bb1;
      }

      .cls-3, .cls-4 {
        fill: none;
      }

      .cls-4 {
        stroke: #601bb1;
        stroke-width: 5px;
      }

      .cls-5, .cls-6 {
        stroke: none;
      }

      .cls-7 {
        fill: #fff;
      }
    </style>
    <clipPath id="clip-programming">
      <rect width="408" height="76"/>
    </clipPath>
  </defs>
  <g id="programming" class="cls-1">
    <rect class="cls-7" width="408" height="76"/>
    <path id="Path_151" data-name="Path 151" class="cls-2" d="M3.914-34.477h6.961q5.648,0,8.145,1.043a8.284,8.284,0,0,1,3.938,3.375,10.424,10.424,0,0,1,1.441,5.59,9.386,9.386,0,0,1-1.887,6,9.788,9.788,0,0,1-5.121,3.328,29.441,29.441,0,0,1-6.914.539V0H3.914ZM10.477-21h2.086a11.3,11.3,0,0,0,3.422-.352,3.041,3.041,0,0,0,1.512-1.16,3.393,3.393,0,0,0,.551-1.957A3.126,3.126,0,0,0,16.5-27.375a8.843,8.843,0,0,0-4.172-.68H10.477Zm18.141-4.5H34.1v3.211a6.852,6.852,0,0,1,2.367-2.883,5.711,5.711,0,0,1,3.234-.984,5.984,5.984,0,0,1,2.6.656l-1.992,5.508a4.4,4.4,0,0,0-1.852-.562,2.93,2.93,0,0,0-2.5,1.828q-1.02,1.828-1.02,7.172l.023,1.242V0H28.617Zm28.828-.656a13.515,13.515,0,0,1,6.785,1.8,13.037,13.037,0,0,1,4.957,4.9,13.162,13.162,0,0,1,1.781,6.68,13.392,13.392,0,0,1-1.793,6.75,12.937,12.937,0,0,1-4.887,4.91,13.5,13.5,0,0,1-6.82,1.77,12.72,12.72,0,0,1-9.363-3.9,12.946,12.946,0,0,1-3.879-9.48,12.9,12.9,0,0,1,4.383-9.961A12.8,12.8,0,0,1,57.445-26.156Zm.094,6.023a6.569,6.569,0,0,0-4.957,2.074A7.374,7.374,0,0,0,50.6-12.75a7.51,7.51,0,0,0,1.957,5.391A6.54,6.54,0,0,0,57.516-5.3a6.616,6.616,0,0,0,4.992-2.086A7.452,7.452,0,0,0,64.5-12.75a7.4,7.4,0,0,0-1.957-5.332A6.614,6.614,0,0,0,57.539-20.133Zm37.5-5.367h6.375V-3.656q0,6.469-2.6,9.516Q95.32,9.984,88.289,9.984a18.431,18.431,0,0,1-6.3-.937,11.334,11.334,0,0,1-4.312-2.754,11.225,11.225,0,0,1-2.6-4.418h7.055A5.829,5.829,0,0,0,84.539,3.5a9.99,9.99,0,0,0,3.492.551,9.206,9.206,0,0,0,4.148-.8A4.808,4.808,0,0,0,94.395,1.2a10.445,10.445,0,0,0,.645-4.359A10.6,10.6,0,0,1,91.5-.738,11.25,11.25,0,0,1,87.3,0a11.531,11.531,0,0,1-8.672-3.7,13.023,13.023,0,0,1-3.539-9.375,13.044,13.044,0,0,1,3.75-9.75,11.187,11.187,0,0,1,8.109-3.328,10.786,10.786,0,0,1,4.16.809,13.179,13.179,0,0,1,3.926,2.66Zm-6.633,5.32a6.662,6.662,0,0,0-4.992,2.027,7.022,7.022,0,0,0-1.969,5.1,7.121,7.121,0,0,0,2.016,5.227,6.824,6.824,0,0,0,5.063,2.039,6.55,6.55,0,0,0,4.91-1.992,7.186,7.186,0,0,0,1.934-5.227,7.1,7.1,0,0,0-1.945-5.18A6.7,6.7,0,0,0,88.406-20.18Zm17.977-5.32h5.484v3.211a6.852,6.852,0,0,1,2.367-2.883,5.711,5.711,0,0,1,3.234-.984,5.984,5.984,0,0,1,2.6.656l-1.992,5.508a4.4,4.4,0,0,0-1.852-.562,2.93,2.93,0,0,0-2.5,1.828q-1.02,1.828-1.02,7.172l.023,1.242V0h-6.352Zm35.7,0h6.375V0h-6.375V-2.7a12.559,12.559,0,0,1-3.762,2.566,10.539,10.539,0,0,1-4.09.785,11.368,11.368,0,0,1-8.555-3.832,13.359,13.359,0,0,1-3.609-9.527,13.689,13.689,0,0,1,3.492-9.68,11.132,11.132,0,0,1,8.484-3.773,10.8,10.8,0,0,1,4.313.867,11.766,11.766,0,0,1,3.727,2.6Zm-6.727,5.25a6.5,6.5,0,0,0-4.945,2.1,7.545,7.545,0,0,0-1.969,5.379,7.624,7.624,0,0,0,2,5.438A6.5,6.5,0,0,0,135.375-5.2a6.625,6.625,0,0,0,5.016-2.1,7.652,7.652,0,0,0,1.992-5.5,7.433,7.433,0,0,0-1.992-5.391A6.708,6.708,0,0,0,135.352-20.25Zm19.523-5.25H161.3v2.93a10.915,10.915,0,0,1,3.645-2.7,10.64,10.64,0,0,1,4.371-.891,8.119,8.119,0,0,1,4.313,1.172,8.468,8.468,0,0,1,3.094,3.422,10.328,10.328,0,0,1,3.738-3.422,10.188,10.188,0,0,1,4.84-1.172,8.956,8.956,0,0,1,4.781,1.266,7.311,7.311,0,0,1,2.965,3.3,17.669,17.669,0,0,1,.9,6.633V0H187.5V-12.937q0-4.336-1.078-5.871a3.691,3.691,0,0,0-3.234-1.535,4.907,4.907,0,0,0-2.941.938,5.541,5.541,0,0,0-1.934,2.59,16.1,16.1,0,0,0-.633,5.309V0h-6.445V-12.352a17.425,17.425,0,0,0-.5-4.957,4.485,4.485,0,0,0-1.512-2.285,3.968,3.968,0,0,0-2.437-.75,4.8,4.8,0,0,0-2.895.949,5.661,5.661,0,0,0-1.945,2.66,16.479,16.479,0,0,0-.645,5.391V0h-6.422Zm45.117,0h6.422v2.93a10.915,10.915,0,0,1,3.645-2.7,10.64,10.64,0,0,1,4.371-.891,8.119,8.119,0,0,1,4.313,1.172,8.468,8.468,0,0,1,3.094,3.422,10.328,10.328,0,0,1,3.738-3.422,10.188,10.188,0,0,1,4.84-1.172,8.956,8.956,0,0,1,4.781,1.266,7.311,7.311,0,0,1,2.965,3.3,17.669,17.669,0,0,1,.9,6.633V0h-6.445V-12.937q0-4.336-1.078-5.871a3.691,3.691,0,0,0-3.234-1.535,4.907,4.907,0,0,0-2.941.938,5.541,5.541,0,0,0-1.934,2.59,16.1,16.1,0,0,0-.633,5.309V0h-6.445V-12.352a17.425,17.425,0,0,0-.5-4.957,4.485,4.485,0,0,0-1.512-2.285,3.968,3.968,0,0,0-2.437-.75,4.8,4.8,0,0,0-2.895.949,5.661,5.661,0,0,0-1.945,2.66,16.479,16.479,0,0,0-.645,5.391V0h-6.422ZM247.664-36a3.929,3.929,0,0,1,2.895,1.219,4.042,4.042,0,0,1,1.207,2.953,4,4,0,0,1-1.2,2.918,3.883,3.883,0,0,1-2.859,1.207,3.938,3.938,0,0,1-2.918-1.23,4.109,4.109,0,0,1-1.207-2.988,3.929,3.929,0,0,1,1.2-2.883A3.929,3.929,0,0,1,247.664-36Zm-3.211,10.5h6.422V0h-6.422Zm12.211,0h6.375v2.6a15.385,15.385,0,0,1,3.949-2.543,9.587,9.587,0,0,1,3.621-.715,8.773,8.773,0,0,1,6.445,2.648q2.227,2.25,2.227,6.656V0h-6.328V-11.18a28.254,28.254,0,0,0-.41-6.07,4.157,4.157,0,0,0-1.43-2.285,4.006,4.006,0,0,0-2.52-.785,4.725,4.725,0,0,0-3.34,1.3,6.94,6.94,0,0,0-1.934,3.6,28.983,28.983,0,0,0-.281,5.18V0h-6.375Zm47.648,0h6.375V-3.656q0,6.469-2.6,9.516-3.492,4.125-10.523,4.125a18.431,18.431,0,0,1-6.3-.937,11.334,11.334,0,0,1-4.312-2.754,11.225,11.225,0,0,1-2.6-4.418H291.4A5.829,5.829,0,0,0,293.813,3.5a9.99,9.99,0,0,0,3.492.551,9.206,9.206,0,0,0,4.148-.8A4.808,4.808,0,0,0,303.668,1.2a10.445,10.445,0,0,0,.645-4.359,10.6,10.6,0,0,1-3.539,2.426,11.25,11.25,0,0,1-4.2.738,11.531,11.531,0,0,1-8.672-3.7,13.023,13.023,0,0,1-3.539-9.375,13.044,13.044,0,0,1,3.75-9.75,11.187,11.187,0,0,1,8.109-3.328,10.786,10.786,0,0,1,4.16.809,13.179,13.179,0,0,1,3.926,2.66Zm-6.633,5.32a6.662,6.662,0,0,0-4.992,2.027,7.022,7.022,0,0,0-1.969,5.1,7.121,7.121,0,0,0,2.016,5.227A6.824,6.824,0,0,0,297.8-5.789a6.55,6.55,0,0,0,4.91-1.992,7.186,7.186,0,0,0,1.934-5.227,7.1,7.1,0,0,0-1.945-5.18A6.7,6.7,0,0,0,297.68-20.18Z" transform="translate(95 57)"/>
    <g id="Path_144" data-name="Path 144" class="cls-3" transform="translate(74) rotate(90)">
      <path class="cls-5" d="M0,0H53.21V74H0Z"/>
      <path class="cls-6" d="M 5 5 L 5 69 L 48.20965576171875 69 L 48.20965576171875 5 L 5 5 M 0 0 L 53.20965576171875 0 L 53.20965576171875 74 L 0 74 L 0 0 Z"/>
    </g>
    <line id="Line_1" data-name="Line 1" class="cls-4" x2="43" transform="translate(15.5 68.5)"/>
    <line id="Line_2" data-name="Line 2" class="cls-4" y1="14" transform="translate(37.5 52.5)"/>
    <g id="Group_99" data-name="Group 99">
      <path id="Path_148" data-name="Path 148" class="cls-4" d="M985.375,1116.045l-8.428,8.428,8.428,8.428" transform="translate(1003.321 1149.946) rotate(180)"/>
      <line id="Line_13" data-name="Line 13" class="cls-4" x2="14" transform="translate(30.5 35.5)"/>
    </g>
  </g>
</svg>
