<svg xmlns="http://www.w3.org/2000/svg" xmlns:xlink="http://www.w3.org/1999/xlink" viewBox="0 0 272 76">
  <defs>
    <style>
      .cls-1 {
        clip-path: url(#clip-programming_1);
      }

      .cls-2, .cls-6 {
        fill: #601bb1;
      }

      .cls-3, .cls-4 {
        fill: none;
      }

      .cls-4 {
        stroke: #601bb1;
        stroke-width: 4px;
      }

      .cls-5, .cls-6 {
        stroke: none;
      }

      .cls-7 {
        fill: #fff;
      }
    </style>
    <clipPath id="clip-programming_1">
      <rect width="272" height="76"/>
    </clipPath>
  </defs>
  <g id="programming_1" data-name="programming – 1" class="cls-1">
    <rect class="cls-7" width="272" height="76"/>
    <path id="Path_151" data-name="Path 151" class="cls-2" d="M3.914-34.98H8.573a15.331,15.331,0,0,1,5.452.7,5.545,5.545,0,0,1,2.636,2.259,6.977,6.977,0,0,1,.965,3.742,6.282,6.282,0,0,1-1.263,4.016,6.552,6.552,0,0,1-3.428,2.228,19.707,19.707,0,0,1-4.628.361V-11.9H3.914ZM8.307-25.96H9.7a7.566,7.566,0,0,0,2.29-.235,2.036,2.036,0,0,0,1.012-.777,2.271,2.271,0,0,0,.369-1.31,2.093,2.093,0,0,0-1.035-1.945,5.919,5.919,0,0,0-2.792-.455H8.307Zm12.143-3.012H24.12v2.149a4.586,4.586,0,0,1,1.585-1.93,3.823,3.823,0,0,1,2.165-.659,4.006,4.006,0,0,1,1.741.439l-1.333,3.687a2.945,2.945,0,0,0-1.239-.377,1.961,1.961,0,0,0-1.671,1.224q-.682,1.224-.682,4.8l.016.831v6.9H20.449Zm19.3-.439A9.047,9.047,0,0,1,44.288-28.2a8.726,8.726,0,0,1,3.318,3.279A8.81,8.81,0,0,1,48.8-20.453a8.964,8.964,0,0,1-1.2,4.518,8.66,8.66,0,0,1-3.271,3.287,9.033,9.033,0,0,1-4.565,1.184,8.515,8.515,0,0,1-6.267-2.612,8.666,8.666,0,0,1-2.6-6.346,8.636,8.636,0,0,1,2.934-6.667A8.57,8.57,0,0,1,39.746-29.411Zm.063,4.032a4.4,4.4,0,0,0-3.318,1.388,4.936,4.936,0,0,0-1.326,3.553,5.027,5.027,0,0,0,1.31,3.608,4.378,4.378,0,0,0,3.318,1.381,4.428,4.428,0,0,0,3.342-1.4,4.988,4.988,0,0,0,1.333-3.593,4.956,4.956,0,0,0-1.31-3.569A4.427,4.427,0,0,0,39.809-25.379Zm25.1-3.593h4.267V-14.35q0,4.33-1.741,6.369Q65.1-5.22,60.392-5.22a12.337,12.337,0,0,1-4.22-.628,7.587,7.587,0,0,1-2.887-1.843,7.514,7.514,0,0,1-1.741-2.957h4.722a3.9,3.9,0,0,0,1.616,1.09,6.687,6.687,0,0,0,2.338.369A6.162,6.162,0,0,0,63-9.722,3.219,3.219,0,0,0,64.478-11.1a6.992,6.992,0,0,0,.431-2.918A7.094,7.094,0,0,1,62.541-12.4a7.53,7.53,0,0,1-2.808.494,7.719,7.719,0,0,1-5.8-2.479,8.717,8.717,0,0,1-2.369-6.275,8.731,8.731,0,0,1,2.51-6.526A7.488,7.488,0,0,1,59.5-29.411a7.22,7.22,0,0,1,2.785.541,8.821,8.821,0,0,1,2.628,1.781ZM60.47-25.41a4.459,4.459,0,0,0-3.342,1.357,4.7,4.7,0,0,0-1.318,3.412,4.766,4.766,0,0,0,1.349,3.5,4.568,4.568,0,0,0,3.389,1.365,4.384,4.384,0,0,0,3.287-1.333,4.81,4.81,0,0,0,1.294-3.5,4.752,4.752,0,0,0-1.3-3.467A4.487,4.487,0,0,0,60.47-25.41ZM72.5-28.972h3.671v2.149a4.586,4.586,0,0,1,1.585-1.93,3.823,3.823,0,0,1,2.165-.659,4.006,4.006,0,0,1,1.741.439l-1.334,3.687a2.945,2.945,0,0,0-1.239-.377,1.961,1.961,0,0,0-1.671,1.224q-.682,1.224-.682,4.8l.016.831v6.9H72.5Zm23.893,0h4.267V-11.9H96.4v-1.8a8.407,8.407,0,0,1-2.518,1.718,7.054,7.054,0,0,1-2.738.526,7.609,7.609,0,0,1-5.726-2.565A8.942,8.942,0,0,1,83-20.406a9.163,9.163,0,0,1,2.338-6.479,7.451,7.451,0,0,1,5.679-2.526,7.226,7.226,0,0,1,2.887.58A7.876,7.876,0,0,1,96.4-27.089Zm-4.5,3.514a4.349,4.349,0,0,0-3.31,1.4,5.05,5.05,0,0,0-1.318,3.6,5.1,5.1,0,0,0,1.341,3.64,4.353,4.353,0,0,0,3.3,1.428,4.434,4.434,0,0,0,3.357-1.4A5.122,5.122,0,0,0,96.6-20.469a4.975,4.975,0,0,0-1.333-3.608A4.49,4.49,0,0,0,91.893-25.458Zm13.068-3.514h4.3v1.961a7.306,7.306,0,0,1,2.44-1.8,7.122,7.122,0,0,1,2.926-.6,5.435,5.435,0,0,1,2.887.784,5.668,5.668,0,0,1,2.071,2.29,6.913,6.913,0,0,1,2.5-2.29,6.82,6.82,0,0,1,3.24-.784,6,6,0,0,1,3.2.847,4.893,4.893,0,0,1,1.985,2.212,11.827,11.827,0,0,1,.6,4.44V-11.9H126.8v-8.66a7.407,7.407,0,0,0-.722-3.93,2.471,2.471,0,0,0-2.165-1.028,3.284,3.284,0,0,0-1.969.628,3.709,3.709,0,0,0-1.294,1.734,10.774,10.774,0,0,0-.424,3.553v7.7h-4.314v-8.268a11.663,11.663,0,0,0-.337-3.318,3,3,0,0,0-1.012-1.53,2.656,2.656,0,0,0-1.632-.5,3.21,3.21,0,0,0-1.937.635,3.789,3.789,0,0,0-1.3,1.781,11.03,11.03,0,0,0-.431,3.608V-11.9h-4.3Zm30.2,0h4.3v1.961a7.306,7.306,0,0,1,2.44-1.8,7.122,7.122,0,0,1,2.926-.6,5.435,5.435,0,0,1,2.887.784,5.668,5.668,0,0,1,2.071,2.29,6.913,6.913,0,0,1,2.5-2.29,6.82,6.82,0,0,1,3.24-.784,6,6,0,0,1,3.2.847,4.893,4.893,0,0,1,1.985,2.212,11.827,11.827,0,0,1,.6,4.44V-11.9H157v-8.66a7.407,7.407,0,0,0-.722-3.93,2.471,2.471,0,0,0-2.165-1.028,3.284,3.284,0,0,0-1.969.628,3.709,3.709,0,0,0-1.294,1.734,10.774,10.774,0,0,0-.424,3.553v7.7h-4.314v-8.268a11.663,11.663,0,0,0-.337-3.318,3,3,0,0,0-1.012-1.53,2.656,2.656,0,0,0-1.632-.5,3.21,3.21,0,0,0-1.937.635,3.789,3.789,0,0,0-1.3,1.781,11.03,11.03,0,0,0-.431,3.608V-11.9h-4.3ZM167.071-36a2.63,2.63,0,0,1,1.937.816,2.705,2.705,0,0,1,.808,1.977,2.674,2.674,0,0,1-.8,1.953,2.6,2.6,0,0,1-1.914.808,2.636,2.636,0,0,1-1.953-.824,2.75,2.75,0,0,1-.808-2,2.63,2.63,0,0,1,.8-1.93A2.63,2.63,0,0,1,167.071-36Zm-2.149,7.028h4.3V-11.9h-4.3Zm8.174,0h4.267v1.741a10.3,10.3,0,0,1,2.643-1.7,6.417,6.417,0,0,1,2.424-.478,5.872,5.872,0,0,1,4.314,1.773,6.082,6.082,0,0,1,1.49,4.455V-11.9H184v-7.483a18.912,18.912,0,0,0-.275-4.063,2.783,2.783,0,0,0-.957-1.53,2.682,2.682,0,0,0-1.686-.526,3.163,3.163,0,0,0-2.236.871,4.645,4.645,0,0,0-1.294,2.408,19.4,19.4,0,0,0-.188,3.467V-11.9H173.1Zm31.894,0h4.267V-14.35q0,4.33-1.741,6.369-2.338,2.761-7.044,2.761a12.337,12.337,0,0,1-4.22-.628,7.587,7.587,0,0,1-2.887-1.843,7.514,7.514,0,0,1-1.741-2.957h4.722a3.9,3.9,0,0,0,1.616,1.09,6.687,6.687,0,0,0,2.338.369,6.162,6.162,0,0,0,2.777-.533,3.218,3.218,0,0,0,1.483-1.381,6.991,6.991,0,0,0,.431-2.918,7.094,7.094,0,0,1-2.369,1.624,7.53,7.53,0,0,1-2.808.494,7.719,7.719,0,0,1-5.8-2.479,8.717,8.717,0,0,1-2.369-6.275,8.731,8.731,0,0,1,2.51-6.526,7.488,7.488,0,0,1,5.428-2.228,7.22,7.22,0,0,1,2.785.541,8.822,8.822,0,0,1,2.628,1.781Zm-4.44,3.561a4.459,4.459,0,0,0-3.342,1.357,4.7,4.7,0,0,0-1.318,3.412,4.766,4.766,0,0,0,1.349,3.5,4.568,4.568,0,0,0,3.389,1.365,4.384,4.384,0,0,0,3.287-1.333,4.81,4.81,0,0,0,1.294-3.5,4.752,4.752,0,0,0-1.3-3.467A4.487,4.487,0,0,0,200.55-25.41Z" transform="translate(62.295 65.057)"/>
    <g id="Path_144" data-name="Path 144" class="cls-3" transform="translate(49.533 15) rotate(90)">
      <path class="cls-5" d="M0,0H35.617V49.533H0Z"/>
      <path class="cls-6" d="M 4.000001907348633 3.999992370605469 L 4.000001907348633 45.53284454345703 L 31.61656188964844 45.53284454345703 L 31.61656188964844 3.999992370605469 L 4.000001907348633 3.999992370605469 M 3.814697265625e-06 -7.62939453125e-06 L 35.61656188964844 -7.62939453125e-06 L 35.61656188964844 49.53284454345703 L 3.814697265625e-06 49.53284454345703 L 3.814697265625e-06 -7.62939453125e-06 Z"/>
    </g>
    <line id="Line_1" data-name="Line 1" class="cls-4" x2="28.783" transform="translate(10.375 60.851)"/>
    <line id="Line_2" data-name="Line 2" class="cls-4" y1="9.371" transform="translate(25.101 50.142)"/>
    <g id="Group_99" data-name="Group 99" transform="translate(12.013 26.41)">
      <path id="Path_148" data-name="Path 148" class="cls-4" d="M5.641,0,0,5.641l5.641,5.641" transform="translate(5.641 11.282) rotate(180)"/>
      <line id="Line_13" data-name="Line 13" class="cls-4" x2="9.371" transform="translate(8.403 12.353)"/>
    </g>
  </g>
</svg>
