<svg xmlns="http://www.w3.org/2000/svg" xmlns:xlink="http://www.w3.org/1999/xlink" viewBox="0 0 267 76">
  <defs>
    <style>
      .cls-1 {
        clip-path: url(#clip-technology3);
      }

      .cls-2, .cls-6 {
        fill: #0897b1;
      }

      .cls-3, .cls-4, .cls-7 {
        fill: none;
      }

      .cls-4 {
        stroke: #0897b1;
        stroke-width: 4px;
      }

      .cls-5, .cls-6 {
        stroke: none;
      }

      .cls-8 {
        fill: #fff;
      }
    </style>
    <clipPath id="clip-technology3">
      <rect width="267" height="76"/>
    </clipPath>
  </defs>
  <g id="technology3" class="cls-1">
    <rect class="cls-8" width="267" height="76"/>
    <path id="Path_161" data-name="Path 161" class="cls-2" d="M.382-24.421h13.5v4.582H9.43V0H4.715V-19.839H.382ZM34.664-7.72H20.1A4.847,4.847,0,0,0,21.79-4.657,5.287,5.287,0,0,0,25.284-3.52,6.042,6.042,0,0,0,29.65-5.3L33.469-3.5a9.013,9.013,0,0,1-3.42,3,10.7,10.7,0,0,1-4.731.971,9.351,9.351,0,0,1-6.923-2.681,9.124,9.124,0,0,1-2.673-6.715A9.432,9.432,0,0,1,18.386-15.8a8.949,8.949,0,0,1,6.682-2.731A9.281,9.281,0,0,1,32.008-15.8a9.87,9.87,0,0,1,2.673,7.213Zm-4.549-3.569a4.547,4.547,0,0,0-1.768-2.457,5.12,5.12,0,0,0-3.063-.946,5.41,5.41,0,0,0-3.32,1.063,5.921,5.921,0,0,0-1.66,2.341Zm25.9-3.121-3.769,2.075a6.391,6.391,0,0,0-2.1-1.544,6.3,6.3,0,0,0-2.432-.432A5.658,5.658,0,0,0,43.6-12.792,5.183,5.183,0,0,0,42.035-8.9,5.011,5.011,0,0,0,43.546-5.13a5.467,5.467,0,0,0,3.968,1.461,5.766,5.766,0,0,0,4.731-2.075L55.814-3.3a9.754,9.754,0,0,1-8.2,3.769,9.833,9.833,0,0,1-7.462-2.822,9.257,9.257,0,0,1-2.7-6.607A9.288,9.288,0,0,1,38.765-13.8a9.256,9.256,0,0,1,3.661-3.47,10.926,10.926,0,0,1,5.254-1.262,10.654,10.654,0,0,1,4.831,1.071A9.168,9.168,0,0,1,56.014-14.41Zm4.1-10.625h4.5v8.8a10.326,10.326,0,0,1,2.673-1.718,6.892,6.892,0,0,1,2.723-.573,6.132,6.132,0,0,1,4.532,1.859,6.5,6.5,0,0,1,1.577,4.731V0H71.652V-7.919a19.546,19.546,0,0,0-.3-4.25,2.964,2.964,0,0,0-1.021-1.66,2.867,2.867,0,0,0-1.785-.548,3.364,3.364,0,0,0-2.366.913,4.84,4.84,0,0,0-1.37,2.49,20.618,20.618,0,0,0-.2,3.719V0h-4.5ZM80.5-18.062h4.516v1.843a10.9,10.9,0,0,1,2.8-1.8,6.791,6.791,0,0,1,2.565-.506,6.214,6.214,0,0,1,4.565,1.876,6.436,6.436,0,0,1,1.577,4.715V0H92.039V-7.919a20.013,20.013,0,0,0-.291-4.3,2.945,2.945,0,0,0-1.013-1.619,2.838,2.838,0,0,0-1.785-.556,3.347,3.347,0,0,0-2.366.921,4.916,4.916,0,0,0-1.37,2.548,20.529,20.529,0,0,0-.2,3.669V0H80.5Zm28.887-.465a9.573,9.573,0,0,1,4.806,1.278,9.234,9.234,0,0,1,3.511,3.47,9.323,9.323,0,0,1,1.262,4.731,9.486,9.486,0,0,1-1.27,4.781,9.164,9.164,0,0,1-3.461,3.478A9.559,9.559,0,0,1,109.4.465,9.01,9.01,0,0,1,102.772-2.3a9.17,9.17,0,0,1-2.748-6.715,9.139,9.139,0,0,1,3.1-7.056A9.069,9.069,0,0,1,109.388-18.527Zm.066,4.267a4.653,4.653,0,0,0-3.511,1.469,5.223,5.223,0,0,0-1.4,3.76,5.319,5.319,0,0,0,1.386,3.818,4.632,4.632,0,0,0,3.511,1.461,4.686,4.686,0,0,0,3.536-1.478,5.279,5.279,0,0,0,1.411-3.8A5.245,5.245,0,0,0,113-12.808,4.685,4.685,0,0,0,109.454-14.261Zm12.733-10.774h4.532V0h-4.532ZM139.3-18.527a9.573,9.573,0,0,1,4.806,1.278,9.234,9.234,0,0,1,3.511,3.47,9.323,9.323,0,0,1,1.262,4.731,9.486,9.486,0,0,1-1.27,4.781,9.164,9.164,0,0,1-3.461,3.478A9.559,9.559,0,0,1,139.32.465,9.01,9.01,0,0,1,132.688-2.3a9.17,9.17,0,0,1-2.748-6.715,9.139,9.139,0,0,1,3.1-7.056A9.069,9.069,0,0,1,139.3-18.527Zm.066,4.267a4.653,4.653,0,0,0-3.511,1.469,5.223,5.223,0,0,0-1.4,3.76,5.319,5.319,0,0,0,1.386,3.818,4.632,4.632,0,0,0,3.511,1.461,4.686,4.686,0,0,0,3.536-1.478,5.279,5.279,0,0,0,1.411-3.8,5.245,5.245,0,0,0-1.386-3.777A4.685,4.685,0,0,0,139.37-14.261Zm26.563-3.8h4.516V-2.59q0,4.582-1.843,6.74-2.474,2.922-7.454,2.922a13.055,13.055,0,0,1-4.466-.664,8.029,8.029,0,0,1-3.055-1.951,7.951,7.951,0,0,1-1.843-3.129h5a4.129,4.129,0,0,0,1.71,1.154,7.076,7.076,0,0,0,2.474.39,6.521,6.521,0,0,0,2.938-.564A3.406,3.406,0,0,0,165.476.847a7.4,7.4,0,0,0,.457-3.088,7.507,7.507,0,0,1-2.507,1.718A7.969,7.969,0,0,1,160.454,0a8.168,8.168,0,0,1-6.143-2.623A9.225,9.225,0,0,1,151.8-9.264a9.239,9.239,0,0,1,2.656-6.906,7.924,7.924,0,0,1,5.744-2.357,7.64,7.64,0,0,1,2.947.573,9.335,9.335,0,0,1,2.781,1.884Zm-4.7,3.769a4.719,4.719,0,0,0-3.536,1.436A4.974,4.974,0,0,0,156.3-9.247a5.044,5.044,0,0,0,1.428,3.7A4.834,4.834,0,0,0,161.317-4.1,4.64,4.64,0,0,0,164.8-5.512a5.09,5.09,0,0,0,1.37-3.7,5.029,5.029,0,0,0-1.378-3.669A4.748,4.748,0,0,0,161.234-14.294Zm11.787-3.769h4.632l4.7,11.339,5.18-11.339h4.648L180.857,6.607h-4.682l3.719-7.952Z" transform="translate(72.263 51)"/>
    <g id="Group_121" data-name="Group 121" transform="translate(0 0.205)">
      <g id="Path_159" data-name="Path 159" class="cls-3" transform="translate(0 66) rotate(-90)">
        <path class="cls-5" d="M0,0H38.84V54.015H0Z"/>
        <path class="cls-6" d="M 3.999996185302734 4 L 3.999996185302734 50.01511383056641 L 34.83959579467773 50.01511383056641 L 34.83959579467773 4 L 3.999996185302734 4 M -3.814697265625e-06 0 L 38.83959579467773 0 L 38.83959579467773 54.01511383056641 L -3.814697265625e-06 54.01511383056641 L -3.814697265625e-06 0 Z"/>
      </g>
      <g id="Ellipse_8" data-name="Ellipse 8" class="cls-4" transform="translate(33.577 22.934) rotate(180)">
        <ellipse class="cls-5" cx="6.569" cy="6.569" rx="6.569" ry="6.569"/>
        <ellipse class="cls-7" cx="6.569" cy="6.569" rx="4.569" ry="4.569"/>
      </g>
      <g id="Group_120" data-name="Group 120" transform="translate(8.759 38.263)">
        <g id="Ellipse_4" data-name="Ellipse 4" class="cls-4" transform="translate(13.139 13.139) rotate(180)">
          <ellipse class="cls-5" cx="6.569" cy="6.569" rx="6.569" ry="6.569"/>
          <ellipse class="cls-7" cx="6.569" cy="6.569" rx="4.569" ry="4.569"/>
        </g>
        <g id="Ellipse_5" data-name="Ellipse 5" class="cls-4" transform="translate(36.497 13.139) rotate(180)">
          <ellipse class="cls-5" cx="6.569" cy="6.569" rx="6.569" ry="6.569"/>
          <ellipse class="cls-7" cx="6.569" cy="6.569" rx="4.569" ry="4.569"/>
        </g>
      </g>
      <line id="Line_21" data-name="Line 21" class="cls-4" y2="6.569" transform="translate(27.373 21.109)"/>
      <path id="Path_160" data-name="Path 160" class="cls-4" d="M992.5,1652.5s1.253,3.985,6.713,3.985,6.093-3.985,6.093-3.985" transform="translate(-971.697 -1599.274)"/>
    </g>
  </g>
</svg>
