<svg xmlns="http://www.w3.org/2000/svg" xmlns:xlink="http://www.w3.org/1999/xlink" viewBox="0 0 382 150">
  <defs>
    <style>
      .cls-1 {
        clip-path: url(#clip-technology);
      }

      .cls-2, .cls-6 {
        fill: #0897b1;
      }

      .cls-3, .cls-4, .cls-7 {
        fill: none;
      }

      .cls-4 {
        stroke: #0897b1;
        stroke-width: 5px;
      }

      .cls-5, .cls-6 {
        stroke: none;
      }

      .cls-8 {
        fill: #fff;
      }
    </style>
    <clipPath id="clip-technology">
      <rect width="382" height="150"/>
    </clipPath>
  </defs>
  <g id="technology" class="cls-1">
    <rect class="cls-8" width="382" height="150"/>
    <path id="Path_162" data-name="Path 162" class="cls-2" d="M.539-34.477H19.594v6.469H13.313V0H6.656V-28.008H.539ZM48.938-10.9H28.383a6.843,6.843,0,0,0,2.379,4.324A7.464,7.464,0,0,0,35.7-4.969a8.53,8.53,0,0,0,6.164-2.508L47.25-4.945a12.724,12.724,0,0,1-4.828,4.23A15.1,15.1,0,0,1,35.742.656a13.2,13.2,0,0,1-9.773-3.785,12.881,12.881,0,0,1-3.773-9.48A13.316,13.316,0,0,1,25.957-22.3a12.634,12.634,0,0,1,9.434-3.855,13.1,13.1,0,0,1,9.8,3.855,13.934,13.934,0,0,1,3.773,10.184Zm-6.422-5.039a6.419,6.419,0,0,0-2.5-3.469A7.229,7.229,0,0,0,35.7-20.742a7.638,7.638,0,0,0-4.687,1.5,8.358,8.358,0,0,0-2.344,3.3Zm36.563-4.406-5.32,2.93a9.023,9.023,0,0,0-2.965-2.18,8.9,8.9,0,0,0-3.434-.609,7.987,7.987,0,0,0-5.8,2.145,7.316,7.316,0,0,0-2.215,5.5,7.074,7.074,0,0,0,2.133,5.32,7.718,7.718,0,0,0,5.6,2.063,8.141,8.141,0,0,0,6.68-2.93L78.8-4.664Q74.7.656,67.219.656q-6.727,0-10.535-3.984a13.069,13.069,0,0,1-3.809-9.328,13.112,13.112,0,0,1,1.852-6.82,13.067,13.067,0,0,1,5.168-4.9,15.425,15.425,0,0,1,7.418-1.781,15.041,15.041,0,0,1,6.82,1.512A12.944,12.944,0,0,1,79.078-20.344Zm5.789-15h6.352v12.422a14.578,14.578,0,0,1,3.773-2.426,9.729,9.729,0,0,1,3.844-.809,8.657,8.657,0,0,1,6.4,2.625q2.227,2.273,2.227,6.68V0h-6.3V-11.18a27.594,27.594,0,0,0-.422-6,4.184,4.184,0,0,0-1.441-2.344,4.048,4.048,0,0,0-2.52-.773,4.749,4.749,0,0,0-3.34,1.289A6.834,6.834,0,0,0,91.5-15.492a29.107,29.107,0,0,0-.281,5.25V0H84.867ZM113.648-25.5h6.375v2.6a15.385,15.385,0,0,1,3.949-2.543,9.587,9.587,0,0,1,3.621-.715,8.773,8.773,0,0,1,6.445,2.648q2.227,2.25,2.227,6.656V0h-6.328V-11.18a28.254,28.254,0,0,0-.41-6.07,4.157,4.157,0,0,0-1.43-2.285,4.006,4.006,0,0,0-2.52-.785,4.725,4.725,0,0,0-3.34,1.3,6.94,6.94,0,0,0-1.934,3.6,28.983,28.983,0,0,0-.281,5.18V0h-6.375Zm40.781-.656a13.515,13.515,0,0,1,6.785,1.8,13.037,13.037,0,0,1,4.957,4.9,13.162,13.162,0,0,1,1.781,6.68,13.392,13.392,0,0,1-1.793,6.75,12.937,12.937,0,0,1-4.887,4.91,13.5,13.5,0,0,1-6.82,1.77,12.72,12.72,0,0,1-9.363-3.9,12.946,12.946,0,0,1-3.879-9.48,12.9,12.9,0,0,1,4.383-9.961A12.8,12.8,0,0,1,154.43-26.156Zm.094,6.023a6.569,6.569,0,0,0-4.957,2.074,7.374,7.374,0,0,0-1.98,5.309,7.51,7.51,0,0,0,1.957,5.391A6.54,6.54,0,0,0,154.5-5.3a6.616,6.616,0,0,0,4.992-2.086,7.452,7.452,0,0,0,1.992-5.367,7.4,7.4,0,0,0-1.957-5.332A6.614,6.614,0,0,0,154.523-20.133ZM172.5-35.344h6.4V0h-6.4Zm24.164,9.188a13.515,13.515,0,0,1,6.785,1.8,13.037,13.037,0,0,1,4.957,4.9,13.162,13.162,0,0,1,1.781,6.68,13.392,13.392,0,0,1-1.793,6.75,12.937,12.937,0,0,1-4.887,4.91,13.5,13.5,0,0,1-6.82,1.77,12.72,12.72,0,0,1-9.363-3.9,12.946,12.946,0,0,1-3.879-9.48,12.9,12.9,0,0,1,4.383-9.961A12.8,12.8,0,0,1,196.664-26.156Zm.094,6.023a6.569,6.569,0,0,0-4.957,2.074,7.374,7.374,0,0,0-1.98,5.309,7.51,7.51,0,0,0,1.957,5.391A6.54,6.54,0,0,0,196.734-5.3a6.616,6.616,0,0,0,4.992-2.086,7.452,7.452,0,0,0,1.992-5.367,7.4,7.4,0,0,0-1.957-5.332A6.614,6.614,0,0,0,196.758-20.133Zm37.5-5.367h6.375V-3.656q0,6.469-2.6,9.516-3.492,4.125-10.523,4.125a18.431,18.431,0,0,1-6.3-.937,11.334,11.334,0,0,1-4.312-2.754,11.225,11.225,0,0,1-2.6-4.418h7.055A5.829,5.829,0,0,0,223.758,3.5a9.99,9.99,0,0,0,3.492.551,9.206,9.206,0,0,0,4.148-.8A4.808,4.808,0,0,0,233.613,1.2a10.445,10.445,0,0,0,.645-4.359,10.6,10.6,0,0,1-3.539,2.426,11.25,11.25,0,0,1-4.2.738,11.531,11.531,0,0,1-8.672-3.7,13.023,13.023,0,0,1-3.539-9.375,13.044,13.044,0,0,1,3.75-9.75,11.187,11.187,0,0,1,8.109-3.328,10.786,10.786,0,0,1,4.16.809,13.179,13.179,0,0,1,3.926,2.66Zm-6.633,5.32a6.662,6.662,0,0,0-4.992,2.027,7.022,7.022,0,0,0-1.969,5.1,7.121,7.121,0,0,0,2.016,5.227,6.824,6.824,0,0,0,5.063,2.039,6.55,6.55,0,0,0,4.91-1.992,7.186,7.186,0,0,0,1.934-5.227,7.1,7.1,0,0,0-1.945-5.18A6.7,6.7,0,0,0,227.625-20.18Zm16.641-5.32H250.8l6.633,16.008L264.75-25.5h6.563L255.328,9.328h-6.609L253.969-1.9Z" transform="translate(105 94)"/>
    <g id="Group_123" data-name="Group 123">
      <g id="Path_144" data-name="Path 144" class="cls-3" transform="translate(6 114) rotate(-90)">
        <path class="cls-5" d="M0,0H53.21V74H0Z"/>
        <path class="cls-6" d="M 5 5 L 5 69 L 48.20965576171875 69 L 48.20965576171875 5 L 5 5 M 0 0 L 53.20965576171875 0 L 53.20965576171875 74 L 0 74 L 0 0 Z"/>
      </g>
      <g id="Ellipse_2" data-name="Ellipse 2" class="cls-4" transform="translate(52 55) rotate(180)">
        <circle class="cls-5" cx="9" cy="9" r="9"/>
        <circle class="cls-7" cx="9" cy="9" r="6.5"/>
      </g>
      <g id="Group_117" data-name="Group 117" transform="translate(6 37)">
        <g id="Ellipse_4" data-name="Ellipse 4" class="cls-4" transform="translate(30 57) rotate(180)">
          <circle class="cls-5" cx="9" cy="9" r="9"/>
          <circle class="cls-7" cx="9" cy="9" r="6.5"/>
        </g>
        <g id="Ellipse_5" data-name="Ellipse 5" class="cls-4" transform="translate(62 57) rotate(180)">
          <circle class="cls-5" cx="9" cy="9" r="9"/>
          <circle class="cls-7" cx="9" cy="9" r="6.5"/>
        </g>
      </g>
      <line id="Line_2" data-name="Line 2" class="cls-4" y2="9" transform="translate(43.5 52.5)"/>
      <path id="Path_156" data-name="Path 156" class="cls-4" d="M992.5,1652.5s1.716,5.46,9.2,5.46,8.348-5.46,8.348-5.46" transform="translate(-958 -1556)"/>
    </g>
  </g>
</svg>
