<?xml version="1.0" encoding="utf-8"?>
<!-- Generator: Adobe Illustrator 17.1.0, SVG Export Plug-In . SVG Version: 6.00 Build 0)  -->
<!DOCTYPE svg PUBLIC "-//W3C//DTD SVG 1.1//EN" "http://www.w3.org/Graphics/SVG/1.1/DTD/svg11.dtd">
<svg version="1.1" id="Layer_1" xmlns="http://www.w3.org/2000/svg" xmlns:xlink="http://www.w3.org/1999/xlink" x="0px" y="0px"
	 viewBox="24 171.2 457 157.2" enable-background="new 24 171.2 457 157.2" xml:space="preserve">
<g>
	<polygon points="276.4,228.6 262,228.6 262,186.4 252.2,186.4 252.2,238 276.4,238 	"/>
	<rect x="281.8" y="199.8" width="9.6" height="38.2"/>
	<path d="M286.6,196.4c1.6,0,3-0.6,4.2-1.8c1.2-1.2,1.8-2.6,1.8-4.4s-0.6-3.2-1.8-4.4c-1.2-1.2-2.6-1.8-4.4-1.8
		c-1.6,0-3.2,0.6-4.4,1.8c-1.2,1.2-1.8,2.6-1.8,4.4s0.6,3.2,1.8,4.4C283.4,195.8,284.8,196.4,286.6,196.4z"/>
	<path d="M309.6,222.6c0-4,0.2-6.6,0.4-7.8c0.6-2.2,1.6-4,2.8-5.4c1.4-1.2,3-2,5-2c1.4,0,2.8,0.4,3.8,1.2s1.8,2,2.2,3.4
		c0.4,1.6,0.6,4.6,0.6,9v16.8h9.4v-25c0-4.4-1.2-7.8-3.4-10c-2.6-2.6-5.8-4-9.6-4c-1.8,0-3.6,0.4-5.4,1c-1.8,0.8-3.8,2-6,3.8v-4H300
		v38.2h9.6V222.6z"/>
	<path d="M361,239c7.4,0,13.2-2.6,17.4-8l-7.6-5.2c-2.4,3-5.8,4.4-10,4.4c-3.4,0-6.2-1-8.4-3c-2.2-2-3.2-4.8-3.2-8
		c0-3.4,1.2-6,3.4-8.2c2.2-2.2,5.2-3.2,8.8-3.2c2,0,3.6,0.4,5.2,1c1.4,0.6,3,1.6,4.4,3.2l8-4.4c-2-2.8-4.4-5-7.4-6.4
		c-3-1.6-6.4-2.2-10.2-2.2c-4.2,0-7.8,0.8-11.2,2.6c-3.4,1.8-6,4.2-7.8,7.4c-1.8,3.2-2.8,6.6-2.8,10.2c0,5.4,2,10,5.8,14
		C349,237,354.4,239,361,239z"/>
	<path d="M412,201.4c-3.2-1.8-6.6-2.8-10.2-2.8c-5,0-9.4,1.8-13.2,5.2c-4.4,4-6.6,9-6.6,15c0,5.6,2,10.4,5.8,14.2
		c3.8,4,8.6,5.8,14,5.8c3.8,0,7.2-0.8,10.2-2.6s5.6-4.2,7.4-7.4c1.8-3.2,2.6-6.6,2.6-10.2c0-3.6-0.8-7-2.6-10
		C417.8,205.8,415.2,203.4,412,201.4z M409.6,227c-2,2-4.4,3.2-7.6,3.2c-3,0-5.4-1-7.4-3s-3-4.8-3-8s1-5.8,3-8s4.4-3.2,7.4-3.2
		s5.6,1,7.6,3s3,4.8,3,8S411.6,224.8,409.6,227z"/>
	<rect x="429" y="185" width="9.6" height="53"/>
	<path d="M477.8,202.8c-2.6-2.6-5.8-4-9.6-4c-1.8,0-3.6,0.4-5.4,1c-1.8,0.8-3.8,2-6,3.8v-4h-9.6v38.2h9.6v-15.4c0-4,0.2-6.6,0.4-7.8
		c0.6-2.2,1.6-4,2.8-5.4c1.4-1.2,3-2,5-2c1.4,0,2.8,0.4,3.8,1.2c1,0.8,1.8,2,2.2,3.4c0.4,1.6,0.6,4.6,0.6,9v16.8h9.4v-24.8
		C481.2,208.4,480,205,477.8,202.8z"/>
	<polygon points="266.4,294.4 256.8,271.8 247,271.8 263.4,310 269.6,310 285.8,271.8 276,271.8 	"/>
	<path d="M295.2,256c-1.6,0-3.2,0.6-4.4,1.8c-1.2,1.2-1.8,2.6-1.8,4.4c0,1.8,0.6,3.2,1.8,4.4c1.2,1.2,2.6,1.8,4.4,1.8
		c1.6,0,3-0.6,4.2-1.8c1.2-1.2,1.8-2.6,1.8-4.4c0-1.8-0.6-3.2-1.8-4.4C298.2,256.6,296.8,256,295.2,256z"/>
	<rect x="290.4" y="271.8" width="9.6" height="38.2"/>
	<path d="M318.2,272.2c-1.4,1-2.6,2.4-3.6,4.4v-4.8h-8.2V310h9.6v-15.4v-1.8c0-5.4,0.6-9,1.6-10.8c1-1.8,2.2-2.8,3.8-2.8
		c0.8,0,1.6,0.2,2.8,0.8l3-8.2c-1.4-0.6-2.6-1-4-1C321.2,270.8,319.6,271.2,318.2,272.2z"/>
	<path d="M355.6,290.6c0,3.6-0.2,6-0.6,7c-0.6,1.4-1.4,2.6-2.4,3.4c-1.2,0.8-2.4,1.2-4,1.2s-3-0.4-4-1.2s-1.8-1.8-2.4-3.2
		c-0.4-1.4-0.8-3.8-0.8-7.4V272h-9.8v16c0,6.2,0.4,10.4,1.2,12.6c1,3.4,2.8,6,5.4,7.8s6,2.8,10.2,2.8c3.8,0,7-0.8,9.6-2.4
		c2.6-1.6,4.4-4,5.6-7c1-2.4,1.6-7,1.6-13.8v-16.2h-9.6L355.6,290.6L355.6,290.6z"/>
	<path d="M387.6,286.8L384,285c-1.6-0.8-2.4-1.4-2.8-1.8c-0.4-0.4-0.6-1-0.6-1.4c0-0.6,0.4-1.2,1-1.8s1.4-0.6,2.6-0.6
		c2,0,4.2,1.2,6.6,3.6l6-6c-1.6-2-3.4-3.6-5.6-4.6s-4.6-1.6-7-1.6c-3.6,0-6.6,1-9,3.2c-2.4,2.2-3.4,4.8-3.4,7.8
		c0,4.6,3,8.6,9.2,11.8l3,1.4c2.8,1.4,4.2,2.8,4.2,4.4c0,0.8-0.4,1.6-1.2,2.2c-0.8,0.6-1.8,1-3,1s-2.6-0.4-4-1.2
		c-1.6-0.8-2.8-1.8-4-3.2l-6,6.4c3.4,4.4,7.8,6.6,13.4,6.6c4.2,0,7.6-1.2,10-3.4c2.4-2.2,3.8-5.2,3.8-8.6c0-2.6-0.6-4.8-2-6.6
		C393.8,290.6,391.2,288.6,387.6,286.8z"/>
	<path d="M148.2,182.6L90,216l0.2,61.4l-35.4,20.4c-3.2-3.2-7.8-5.4-12.8-5.4c-10,0-18,8-18,18s8,18,18,18s18-8,18-18
		c0-1.4-0.2-2.6-0.4-4l36-20.6l53,30.6l58-33.4l-0.2-67L148.2,182.6z M42,318.6c-4.4,0-8-3.6-8-8s3.6-8,8-8s8,3.6,8,8
		S46.4,318.6,42,318.6z M148.4,305l-48.2-27.8l-0.2-55.4l48-27.6l48.2,27.8l0.2,55.4L148.4,305z"/>
	<rect x="163.7" y="244.7" transform="matrix(2.351953e-003 1 -1 2.351953e-003 433.8068 64.6595)" width="41.6" height="10"/>
	<rect x="109.5" y="275.8" transform="matrix(0.866 0.5 -0.5 0.866 157.8646 -27.5665)" width="41.8" height="10"/>
	<rect x="125.2" y="197.6" transform="matrix(-0.4979 -0.8673 0.8673 -0.4979 5.596 440.0934)" width="10" height="41.6"/>
	<rect x="77.6" y="292" transform="matrix(0.4971 0.8677 -0.8677 0.4971 307.3532 82.4361)" width="10" height="28.8"/>
	<path d="M42,207.2c10,0,18-8,18-18s-8-18-18-18s-18,8-18,18C23.8,199.2,32,207.2,42,207.2z M42,181.2c4.4,0,8,3.6,8,8
		c0,4.4-3.6,8-8,8s-8-3.6-8-8C33.8,184.8,37.4,181.2,42,181.2z"/>
</g>
</svg>
