<?xml version="1.0" encoding="utf-8"?>
<!-- Generator: Adobe Illustrator 17.1.0, SVG Export Plug-In . SVG Version: 6.00 Build 0)  -->
<!DOCTYPE svg PUBLIC "-//W3C//DTD SVG 1.0//EN" "http://www.w3.org/TR/2001/REC-SVG-20010904/DTD/svg10.dtd">
<svg version="1.0" xmlns="http://www.w3.org/2000/svg" xmlns:xlink="http://www.w3.org/1999/xlink" x="0px" y="0px"
	 viewBox="0 0 500 500" enable-background="new 0 0 500 500" xml:space="preserve">
<g id="Layer_1">
	<g>
		<g>
			<path d="M233.7,220.3h4.9v21.2h7.2v4.7h-12.1V220.3z"/>
			<path d="M250.9,219.2c0.8,0,1.6,0.3,2.2,0.9s0.9,1.3,0.9,2.2c0,0.9-0.3,1.6-0.9,2.2c-0.6,0.6-1.3,0.9-2.1,0.9
				c-0.9,0-1.6-0.3-2.2-0.9c-0.6-0.6-0.9-1.4-0.9-2.2c0-0.8,0.3-1.6,0.9-2.2C249.3,219.5,250,219.2,250.9,219.2z M248.5,227.1h4.8
				v19.1h-4.8V227.1z"/>
			<path d="M257.6,227.1h4.8v2c1.1-0.9,2.1-1.6,3-1.9c0.9-0.4,1.8-0.5,2.7-0.5c1.9,0,3.5,0.7,4.8,2c1.1,1.1,1.7,2.8,1.7,5v12.6h-4.7
				v-8.4c0-2.3-0.1-3.8-0.3-4.5c-0.2-0.7-0.6-1.3-1.1-1.7c-0.5-0.4-1.1-0.6-1.9-0.6c-1,0-1.8,0.3-2.5,1s-1.2,1.5-1.4,2.7
				c-0.1,0.6-0.2,1.9-0.2,3.9v7.7h-4.8V227.1z"/>
			<path d="M297,230.9l-4,2.2c-0.8-0.8-1.5-1.3-2.2-1.6s-1.6-0.5-2.6-0.5c-1.8,0-3.2,0.5-4.4,1.6c-1.1,1.1-1.7,2.4-1.7,4.1
				c0,1.6,0.5,3,1.6,4c1.1,1,2.5,1.5,4.2,1.5c2.1,0,3.8-0.7,5-2.2l3.8,2.6c-2.1,2.7-4.9,4-8.7,4c-3.4,0-6-1-7.9-3s-2.9-4.3-2.9-7
				c0-1.9,0.5-3.6,1.4-5.1s2.2-2.8,3.9-3.7s3.5-1.3,5.6-1.3c1.9,0,3.6,0.4,5.1,1.1S296.1,229.5,297,230.9z"/>
			<path d="M308.5,226.6c1.8,0,3.5,0.5,5.1,1.4s2.8,2.1,3.7,3.7s1.3,3.2,1.3,5c0,1.8-0.4,3.5-1.3,5.1s-2.1,2.8-3.7,3.7
				s-3.3,1.3-5.1,1.3c-2.7,0-5.1-1-7-2.9s-2.9-4.3-2.9-7.1c0-3,1.1-5.5,3.3-7.5C303.8,227.4,306,226.6,308.5,226.6z M308.6,231.1
				c-1.5,0-2.7,0.5-3.7,1.6c-1,1-1.5,2.4-1.5,4c0,1.7,0.5,3,1.5,4c1,1,2.2,1.5,3.7,1.5c1.5,0,2.8-0.5,3.8-1.6c1-1,1.5-2.4,1.5-4
				s-0.5-3-1.5-4C311.4,231.6,310.1,231.1,308.6,231.1z"/>
			<path d="M322.1,219.7h4.8v26.5h-4.8V219.7z"/>
			<path d="M331.2,227.1h4.8v2c1.1-0.9,2.1-1.6,3-1.9c0.9-0.4,1.8-0.5,2.7-0.5c1.9,0,3.5,0.7,4.8,2c1.1,1.1,1.7,2.8,1.7,5v12.6h-4.7
				v-8.4c0-2.3-0.1-3.8-0.3-4.5c-0.2-0.7-0.6-1.3-1.1-1.7c-0.5-0.4-1.1-0.6-1.9-0.6c-1,0-1.8,0.3-2.5,1s-1.2,1.5-1.4,2.7
				c-0.1,0.6-0.2,1.9-0.2,3.9v7.7h-4.8V227.1z"/>
			<path d="M231.1,263.1h4.9l4.8,11.3l4.8-11.3h4.9l-8.1,19.1h-3.1L231.1,263.1z"/>
			<path d="M255.2,255.2c0.8,0,1.6,0.3,2.2,0.9s0.9,1.3,0.9,2.2c0,0.9-0.3,1.6-0.9,2.2c-0.6,0.6-1.3,0.9-2.1,0.9
				c-0.9,0-1.6-0.3-2.2-0.9c-0.6-0.6-0.9-1.4-0.9-2.2c0-0.8,0.3-1.6,0.9-2.2C253.6,255.5,254.3,255.2,255.2,255.2z M252.8,263.1h4.8
				v19.1h-4.8V263.1z"/>
			<path d="M260.8,263.1h4.1v2.4c0.4-0.9,1-1.7,1.8-2.2s1.5-0.7,2.4-0.7c0.6,0,1.3,0.2,2,0.5l-1.5,4.1c-0.6-0.3-1-0.4-1.4-0.4
				c-0.7,0-1.4,0.5-1.9,1.4s-0.8,2.7-0.8,5.4l0,0.9v7.7h-4.8V263.1z"/>
			<path d="M273.4,263.1h4.9v9.2c0,1.8,0.1,3,0.4,3.7c0.2,0.7,0.6,1.2,1.2,1.6s1.2,0.6,2,0.6s1.5-0.2,2-0.6c0.6-0.4,1-0.9,1.2-1.7
				c0.2-0.6,0.3-1.7,0.3-3.5v-9.4h4.8v8.1c0,3.3-0.3,5.6-0.8,6.9c-0.6,1.5-1.6,2.7-2.8,3.5s-2.8,1.2-4.8,1.2c-2.1,0-3.8-0.5-5.1-1.4
				s-2.2-2.2-2.7-3.9c-0.4-1.2-0.6-3.3-0.6-6.3V263.1z"/>
			<path d="M305.9,265.7l-3,3c-1.2-1.2-2.3-1.8-3.3-1.8c-0.5,0-1,0.1-1.3,0.3s-0.5,0.5-0.5,0.9c0,0.3,0.1,0.5,0.3,0.7
				s0.7,0.5,1.4,0.9l1.8,0.9c1.9,0.9,3.1,1.8,3.8,2.8s1,2.1,1,3.3c0,1.7-0.6,3.1-1.9,4.3s-2.9,1.7-5,1.7c-2.8,0-5-1.1-6.7-3.3l3-3.2
				c0.6,0.7,1.2,1.2,2,1.6s1.4,0.6,2,0.6c0.6,0,1.1-0.2,1.5-0.5s0.6-0.7,0.6-1.1c0-0.7-0.7-1.5-2.1-2.2l-1.6-0.8
				c-3.1-1.6-4.6-3.5-4.6-5.9c0-1.5,0.6-2.8,1.7-3.9s2.7-1.6,4.5-1.6c1.2,0,2.4,0.3,3.5,0.8S305.1,264.7,305.9,265.7z"/>
		</g>
		<g>
			<path d="M181.8,285.5l-29.1-16.8l-0.1-33.5l29-16.7l29.1,16.8l0.1,33.5L181.8,285.5z M157.7,265.8l24.1,13.9l24-13.8l-0.1-27.7
				l-24.1-13.9l-24,13.8L157.7,265.8z"/>
		</g>
		<g>
			<rect x="189.4" y="249.5" transform="matrix(2.325012e-003 1 -1 2.325012e-003 451.3744 51.6414)" width="20.8" height="5"/>
		</g>
		<g>
			<rect x="162.3" y="265.1" transform="matrix(0.866 0.5 -0.5 0.866 156.9155 -50.5339)" width="20.9" height="5"/>
		</g>
		<g>
			<rect x="170.2" y="226" transform="matrix(0.498 0.8672 -0.8672 0.498 291.6614 -31.095)" width="5" height="20.8"/>
		</g>
		<g>
			<rect x="146.4" y="273.2" transform="matrix(0.4968 0.8679 -0.8679 0.4968 318.2348 11.8726)" width="5" height="14.4"/>
		</g>
		<g>
			<rect x="142.2" y="261.3" transform="matrix(0.4974 0.8675 -0.8675 0.4974 309.8813 11.811)" width="5" height="24.1"/>
		</g>
		<g>
			<path d="M128.6,291.5c-5,0-9-4-9-9c0-5,4-9,9-9s9,4,9,9C137.6,287.4,133.5,291.5,128.6,291.5z M128.6,278.4c-2.2,0-4,1.8-4,4
				c0,2.2,1.8,4,4,4c2.2,0,4-1.8,4-4C132.6,280.2,130.8,278.4,128.6,278.4z"/>
		</g>
		<g>
			<path d="M128.6,230.8c-5,0-9-4-9-9s4-9,9-9s9,4,9,9S133.5,230.8,128.6,230.8z M128.6,217.8c-2.2,0-4,1.8-4,4s1.8,4,4,4
				c2.2,0,4-1.8,4-4S130.8,217.8,128.6,217.8z"/>
		</g>
	</g>
</g>
<g id="Layer_3">
</g>
<g id="Layer_4">
</g>
<g id="Layer_5">
</g>
</svg>
